<?xml version="1.0" encoding="UTF-8" standalone="no"?>
<!-- Created with Inkscape (http://www.inkscape.org/) -->

<svg
   width="210mm"
   height="297mm"
   viewBox="0 0 210 297"
   version="1.1"
   id="svg82358"
   inkscape:version="1.1.2 (1:1.1+202202050852+0a00cf5339)"
   sodipodi:docname="arrows-parallelograms.svg"
   xmlns:inkscape="http://www.inkscape.org/namespaces/inkscape"
   xmlns:sodipodi="http://sodipodi.sourceforge.net/DTD/sodipodi-0.dtd"
   xmlns="http://www.w3.org/2000/svg"
   xmlns:svg="http://www.w3.org/2000/svg">
  <sodipodi:namedview
     id="namedview82360"
     pagecolor="#ffffff"
     bordercolor="#666666"
     borderopacity="1.0"
     inkscape:pageshadow="2"
     inkscape:pageopacity="0.0"
     inkscape:pagecheckerboard="0"
     inkscape:document-units="mm"
     showgrid="false"
     inkscape:snap-nodes="true"
     inkscape:snap-intersection-paths="true"
     inkscape:object-paths="true"
     inkscape:object-nodes="true"
     inkscape:snap-smooth-nodes="true"
     inkscape:snap-object-midpoints="true"
     inkscape:snap-midpoints="true"
     inkscape:zoom="1.1386898"
     inkscape:cx="436.46652"
     inkscape:cy="333.27776"
     inkscape:window-width="1920"
     inkscape:window-height="1021"
     inkscape:window-x="0"
     inkscape:window-y="27"
     inkscape:window-maximized="1"
     inkscape:current-layer="layer1" />
  <defs
     id="defs82355" />
  <g
     inkscape:label="Layer 1"
     inkscape:groupmode="layer"
     id="layer1">
    <path
       id="rect82441"
       style="fill:#b3b3b3;stroke:#ffffff;stroke-width:0.1;stroke-linecap:round;stroke-miterlimit:4;stroke-dasharray:none"
       d="m 61.409065,66.801623 v 4.491834 h -8.994264 v 8.983977 h 8.994264 v 4.491832 l 8.994574,-8.983976 z" />
    <path
       id="path83092"
       style="fill:#b3b3b3;stroke:#ffffff;stroke-width:0.1;stroke-linecap:round;stroke-miterlimit:4;stroke-dasharray:none"
       d="m 79.397902,66.801467 v 4.491834 h -8.994264 v 8.983977 h 8.994264 v 4.491833 l 8.994574,-8.983977 z" />
    <path
       id="path83094"
       style="fill:#b3b3b3;stroke:#ffffff;stroke-width:0.1;stroke-linecap:round;stroke-miterlimit:4;stroke-dasharray:none"
       d="m 97.38674,66.801312 v 4.491834 h -8.994264 v 8.983976 h 8.994264 v 4.491833 l 8.99457,-8.983976 z" />
    <path
       id="path83096"
       style="fill:#b3b3b3;stroke:#ffffff;stroke-width:0.1;stroke-linecap:round;stroke-miterlimit:4;stroke-dasharray:none"
       d="M 61.409064,84.769266 V 89.2611 h -8.994263 v 8.983975 h 8.994263 v 4.491835 l 8.994574,-8.983977 z" />
    <path
       id="path83098"
       style="fill:#b3b3b3;stroke:#ffffff;stroke-width:0.1;stroke-linecap:round;stroke-miterlimit:4;stroke-dasharray:none"
       d="m 79.397902,84.769111 v 4.491834 h -8.994264 v 8.983975 h 8.994264 v 4.49183 l 8.994574,-8.983972 z" />
    <path
       id="path83100"
       style="fill:#b3b3b3;stroke:#ffffff;stroke-width:0.1;stroke-linecap:round;stroke-miterlimit:4;stroke-dasharray:none"
       d="m 97.38674,84.768955 v 4.491835 h -8.994264 v 8.983974 h 8.994264 v 4.491836 l 8.99457,-8.983978 z" />
    <path
       id="path83102"
       style="fill:#b3b3b3;stroke:#ffffff;stroke-width:0.1;stroke-linecap:round;stroke-miterlimit:4;stroke-dasharray:none"
       d="m 61.409064,102.73691 v 4.49183 h -8.994263 v 8.98398 h 8.994263 v 4.49183 l 8.994574,-8.98398 z" />
    <path
       id="path83104"
       style="fill:#b3b3b3;stroke:#ffffff;stroke-width:0.1;stroke-linecap:round;stroke-miterlimit:4;stroke-dasharray:none"
       d="m 79.397902,102.73675 v 4.49184 h -8.994264 v 8.98397 h 8.994264 v 4.49184 l 8.994574,-8.98398 z" />
    <path
       id="path83106"
       style="fill:#b3b3b3;stroke:#ffffff;stroke-width:0.1;stroke-linecap:round;stroke-miterlimit:4;stroke-dasharray:none"
       d="m 97.38674,102.7366 v 4.49183 h -8.994264 v 8.98398 h 8.994264 v 4.49183 l 8.99457,-8.98398 z" />
    <path
       id="path83114"
       style="fill:#b3b3b3;stroke:#ffffff;stroke-width:0.1;stroke-linecap:round;stroke-miterlimit:4;stroke-dasharray:none"
       d="m 106.38131,111.72042 v -4.49183 h 8.99427 v -8.983982 h -8.99427 v -4.491831 l -8.99457,8.983973 z" />
    <path
       id="path83116"
       style="fill:#b3b3b3;stroke:#ffffff;stroke-width:0.1;stroke-linecap:round;stroke-miterlimit:4;stroke-dasharray:none"
       d="m 88.392476,111.72057 v -4.49183 h 8.994264 v -8.983976 h -8.994264 v -4.491831 l -8.994574,8.983977 z" />
    <path
       id="path83118"
       style="fill:#b3b3b3;stroke:#ffffff;stroke-width:0.1;stroke-linecap:round;stroke-miterlimit:4;stroke-dasharray:none"
       d="m 70.403638,111.72073 v -4.49183 h 8.994264 v -8.98398 h -8.994264 v -4.491832 l -8.994573,8.983972 z" />
    <path
       id="path83120"
       style="fill:#b3b3b3;stroke:#ffffff;stroke-width:0.1;stroke-linecap:round;stroke-miterlimit:4;stroke-dasharray:none"
       d="m 106.38131,93.752777 v -4.491833 h 8.99427 v -8.983977 h -8.99427 v -4.491833 l -8.99457,8.983977 z" />
    <path
       id="path83122"
       style="fill:#b3b3b3;stroke:#ffffff;stroke-width:0.1;stroke-linecap:round;stroke-miterlimit:4;stroke-dasharray:none"
       d="M 88.392476,93.752933 V 89.2611 H 97.38674 V 80.277122 H 88.392476 V 75.78529 l -8.994574,8.983977 z" />
    <path
       id="path83124"
       style="fill:#b3b3b3;stroke:#ffffff;stroke-width:0.1;stroke-linecap:round;stroke-miterlimit:4;stroke-dasharray:none"
       d="m 70.403638,93.753088 v -4.491833 h 8.994264 v -8.983977 h -8.994264 v -4.491833 l -8.994573,8.983978 z" />
    <rect
       style="fill:#b3b3b3;stroke:#ffffff;stroke-width:0.150014;stroke-linecap:round;stroke-miterlimit:4;stroke-dasharray:none"
       id="rect83228"
       width="13.863544"
       height="20.83242"
       x="277.59195"
       y="157.42114"
       transform="matrix(1,0,-0.8958467,0.44436324,0,0)" />
    <rect
       style="fill:#b3b3b3;stroke:#ffffff;stroke-width:0.150014;stroke-linecap:round;stroke-miterlimit:4;stroke-dasharray:none"
       id="rect83424"
       width="13.863544"
       height="20.83242"
       x="291.45547"
       y="157.42114"
       transform="matrix(1,0,-0.8958467,0.44436324,0,0)" />
    <rect
       style="fill:#b3b3b3;stroke:#ffffff;stroke-width:0.150014;stroke-linecap:round;stroke-miterlimit:4;stroke-dasharray:none"
       id="rect83426"
       width="13.863544"
       height="20.83242"
       x="305.31903"
       y="157.42114"
       transform="matrix(1,0,-0.8958467,0.44436324,0,0)" />
    <rect
       style="fill:#b3b3b3;stroke:#ffffff;stroke-width:0.150014;stroke-linecap:round;stroke-miterlimit:4;stroke-dasharray:none"
       id="rect83428"
       width="13.863544"
       height="20.83242"
       x="-41.783791"
       y="-199.08598"
       transform="matrix(1,0,-0.8958467,-0.44436324,0,0)" />
    <rect
       style="fill:#b3b3b3;stroke:#ffffff;stroke-width:0.150014;stroke-linecap:round;stroke-miterlimit:4;stroke-dasharray:none"
       id="rect83430"
       width="13.863544"
       height="20.83242"
       x="-27.920246"
       y="-199.08598"
       transform="matrix(1,0,-0.8958467,-0.44436324,0,0)" />
    <rect
       style="fill:#b3b3b3;stroke:#ffffff;stroke-width:0.150014;stroke-linecap:round;stroke-miterlimit:4;stroke-dasharray:none"
       id="rect83432"
       width="13.863544"
       height="20.83242"
       x="-14.056704"
       y="-199.08598"
       transform="matrix(1,0,-0.8958467,-0.44436324,0,0)" />
    <rect
       style="fill:#b3b3b3;stroke:#ffffff;stroke-width:0.150014;stroke-linecap:round;stroke-miterlimit:4;stroke-dasharray:none"
       id="rect83434"
       width="13.863544"
       height="20.83242"
       x="314.91724"
       y="199.08598"
       transform="matrix(1,0,-0.8958467,0.44436324,0,0)" />
    <rect
       style="fill:#b3b3b3;stroke:#ffffff;stroke-width:0.150014;stroke-linecap:round;stroke-miterlimit:4;stroke-dasharray:none"
       id="rect83436"
       width="13.863544"
       height="20.83242"
       x="328.78079"
       y="199.08598"
       transform="matrix(1,0,-0.8958467,0.44436324,0,0)" />
    <rect
       style="fill:#b3b3b3;stroke:#ffffff;stroke-width:0.150014;stroke-linecap:round;stroke-miterlimit:4;stroke-dasharray:none"
       id="rect83438"
       width="13.863544"
       height="20.83242"
       x="342.64435"
       y="199.08598"
       transform="matrix(1,0,-0.8958467,0.44436324,0,0)" />
    <rect
       style="fill:#b3b3b3;stroke:#ffffff;stroke-width:0.150014;stroke-linecap:round;stroke-miterlimit:4;stroke-dasharray:none"
       id="rect83440"
       width="13.863544"
       height="20.83242"
       x="-79.109093"
       y="-240.75082"
       transform="matrix(1,0,-0.8958467,-0.44436324,0,0)" />
    <rect
       style="fill:#b3b3b3;stroke:#ffffff;stroke-width:0.150014;stroke-linecap:round;stroke-miterlimit:4;stroke-dasharray:none"
       id="rect83442"
       width="13.863544"
       height="20.83242"
       x="-65.245552"
       y="-240.75082"
       transform="matrix(1,0,-0.8958467,-0.44436324,0,0)" />
    <rect
       style="fill:#b3b3b3;stroke:#ffffff;stroke-width:0.150014;stroke-linecap:round;stroke-miterlimit:4;stroke-dasharray:none"
       id="rect83444"
       width="13.863544"
       height="20.83242"
       x="-51.382011"
       y="-240.75082"
       transform="matrix(1,0,-0.8958467,-0.44436324,0,0)" />
    <rect
       style="fill:#b3b3b3;stroke:#ffffff;stroke-width:0.150014;stroke-linecap:round;stroke-miterlimit:4;stroke-dasharray:none"
       id="rect83446"
       width="13.863544"
       height="20.83242"
       x="352.24258"
       y="240.75082"
       transform="matrix(1,0,-0.8958467,0.44436324,0,0)" />
    <rect
       style="fill:#b3b3b3;stroke:#ffffff;stroke-width:0.150014;stroke-linecap:round;stroke-miterlimit:4;stroke-dasharray:none"
       id="rect83448"
       width="13.863544"
       height="20.83242"
       x="366.10611"
       y="240.75082"
       transform="matrix(1,0,-0.8958467,0.44436324,0,0)" />
    <rect
       style="fill:#b3b3b3;stroke:#ffffff;stroke-width:0.150014;stroke-linecap:round;stroke-miterlimit:4;stroke-dasharray:none"
       id="rect83450"
       width="13.863544"
       height="20.83242"
       x="379.96967"
       y="240.75082"
       transform="matrix(1,0,-0.8958467,0.44436324,0,0)" />
  </g>
</svg>
