<?xml version="1.0" encoding="utf-8" standalone="no"?>
<!DOCTYPE svg PUBLIC "-//W3C//DTD SVG 1.1//EN"
  "http://www.w3.org/Graphics/SVG/1.1/DTD/svg11.dtd">
<svg xmlns:xlink="http://www.w3.org/1999/xlink" width="720pt" height="288pt" viewBox="0 0 720 288" xmlns="http://www.w3.org/2000/svg" version="1.1">
 <metadata>
  <rdf:RDF xmlns:dc="http://purl.org/dc/elements/1.1/" xmlns:cc="http://creativecommons.org/ns#" xmlns:rdf="http://www.w3.org/1999/02/22-rdf-syntax-ns#">
   <cc:Work>
    <dc:type rdf:resource="http://purl.org/dc/dcmitype/StillImage"/>
    <dc:date>2022-04-01T10:15:50.116632</dc:date>
    <dc:format>image/svg+xml</dc:format>
    <dc:creator>
     <cc:Agent>
      <dc:title>Matplotlib v3.5.1, https://matplotlib.org/</dc:title>
     </cc:Agent>
    </dc:creator>
   </cc:Work>
  </rdf:RDF>
 </metadata>
 <defs>
  <style type="text/css">*{stroke-linejoin: round; stroke-linecap: butt}</style>
 </defs>
 <g id="figure_1">
  <g id="patch_1">
   <path d="M 0 288 
L 720 288 
L 720 0 
L 0 0 
L 0 288 
z
" style="fill: none"/>
  </g>
  <g id="axes_1">
   <g id="patch_2">
    <path d="M 90 236.28 
L 648 236.28 
L 648 50.28 
L 90 50.28 
z
" style="fill: #ffffff"/>
   </g>
   <g id="PatchCollection_1">
    <path d="M 533.440909 139.475455 
L 533.440909 147.084545 
L 500.468182 147.084545 
L 500.468182 139.475455 
L 533.440909 139.475455 
" clip-path="url(#p7342dd61be)" style="fill: #7fc97f"/>
    <path d="M 500.468182 181.748182 
L 533.440909 181.748182 
L 533.440909 227.825455 
L 500.468182 227.825455 
L 500.468182 181.748182 
" clip-path="url(#p7342dd61be)" style="fill: #7fc97f"/>
    <path d="M 500.468182 58.734545 
L 533.440909 58.734545 
L 533.440909 104.811818 
L 500.468182 104.811818 
L 500.468182 58.734545 
" clip-path="url(#p7342dd61be)" style="fill: #7fc97f"/>
    <path d="M 373.65 139.475455 
L 406.622727 139.475455 
L 406.622727 227.825455 
L 373.65 227.825455 
L 373.65 139.475455 
" clip-path="url(#p7342dd61be)" style="fill: #7fc97f"/>
    <path d="M 373.65 97.202727 
L 406.622727 97.202727 
L 406.622727 104.811818 
L 373.65 104.811818 
L 373.65 97.202727 
" clip-path="url(#p7342dd61be)" style="fill: #7fc97f"/>
    <path d="M 406.622727 62.539091 
L 373.65 62.539091 
L 373.65 58.734545 
L 406.622727 58.734545 
L 406.622727 62.539091 
" clip-path="url(#p7342dd61be)" style="fill: #7fc97f"/>
    <path d="M 279.804545 97.202727 
L 279.804545 105.234545 
L 279.804545 105.234545 
L 279.804545 189.357273 
L 246.831818 189.357273 
L 246.831818 97.202727 
L 279.804545 97.202727 
" clip-path="url(#p7342dd61be)" style="fill: #7fc97f"/>
    <path d="M 279.804545 62.539091 
L 246.831818 62.539091 
L 246.831818 58.734545 
L 279.804545 58.734545 
L 279.804545 62.539091 
" clip-path="url(#p7342dd61be)" style="fill: #7fc97f"/>
    <path d="M 279.804545 227.825455 
L 246.831818 227.825455 
L 246.831818 224.020909 
L 279.804545 224.020909 
L 279.804545 227.825455 
" clip-path="url(#p7342dd61be)" style="fill: #7fc97f"/>
    <path d="M 120.013636 96.78 
L 120.013636 58.734545 
L 152.986364 58.734545 
L 152.986364 105.234545 
L 152.986364 105.234545 
L 152.986364 147.084545 
L 120.013636 147.084545 
L 120.013636 96.78 
L 120.013636 96.78 
" clip-path="url(#p7342dd61be)" style="fill: #7fc97f"/>
    <path d="M 152.986364 189.357273 
L 120.013636 189.357273 
L 120.013636 181.748182 
L 152.986364 181.748182 
L 152.986364 189.357273 
" clip-path="url(#p7342dd61be)" style="fill: #7fc97f"/>
    <path d="M 152.986364 224.020909 
L 152.986364 227.825455 
L 120.013636 227.825455 
L 120.013636 224.020909 
L 152.986364 224.020909 
" clip-path="url(#p7342dd61be)" style="fill: #7fc97f"/>
    <path d="M 542.740909 139.475455 
L 575.713636 139.475455 
L 575.713636 227.825455 
L 542.740909 227.825455 
L 542.740909 139.475455 
" clip-path="url(#p7342dd61be)" style="fill: #beaed4"/>
    <path d="M 542.740909 97.202727 
L 575.713636 97.202727 
L 575.713636 104.811818 
L 542.740909 104.811818 
L 542.740909 97.202727 
" clip-path="url(#p7342dd61be)" style="fill: #beaed4"/>
    <path d="M 575.713636 62.539091 
L 542.740909 62.539091 
L 542.740909 58.734545 
L 575.713636 58.734545 
L 575.713636 62.539091 
" clip-path="url(#p7342dd61be)" style="fill: #beaed4"/>
    <path d="M 448.895455 97.202727 
L 448.895455 189.357273 
L 415.922727 189.357273 
L 415.922727 97.202727 
L 448.895455 97.202727 
" clip-path="url(#p7342dd61be)" style="fill: #beaed4"/>
    <path d="M 448.895455 224.020909 
L 448.895455 227.825455 
L 415.922727 227.825455 
L 415.922727 224.020909 
L 448.895455 224.020909 
" clip-path="url(#p7342dd61be)" style="fill: #beaed4"/>
    <path d="M 448.895455 62.539091 
L 415.922727 62.539091 
L 415.922727 58.734545 
L 448.895455 58.734545 
L 448.895455 62.539091 
" clip-path="url(#p7342dd61be)" style="fill: #beaed4"/>
    <path d="M 322.077273 189.357273 
L 289.104545 189.357273 
L 289.104545 181.748182 
L 322.077273 181.748182 
L 322.077273 189.357273 
" clip-path="url(#p7342dd61be)" style="fill: #beaed4"/>
    <path d="M 322.077273 224.020909 
L 322.077273 227.825455 
L 289.104545 227.825455 
L 289.104545 224.020909 
L 322.077273 224.020909 
" clip-path="url(#p7342dd61be)" style="fill: #beaed4"/>
    <path d="M 322.077273 147.084545 
L 289.104545 147.084545 
L 289.104545 58.734545 
L 322.077273 58.734545 
L 322.077273 147.084545 
" clip-path="url(#p7342dd61be)" style="fill: #beaed4"/>
    <path d="M 162.286364 181.748182 
L 195.259091 181.748182 
L 195.259091 227.825455 
L 162.286364 227.825455 
L 162.286364 181.748182 
" clip-path="url(#p7342dd61be)" style="fill: #beaed4"/>
    <path d="M 195.259091 139.475455 
L 195.259091 147.084545 
L 162.286364 147.084545 
L 162.286364 139.475455 
L 195.259091 139.475455 
" clip-path="url(#p7342dd61be)" style="fill: #beaed4"/>
    <path d="M 162.286364 58.734545 
L 195.259091 58.734545 
L 195.259091 104.811818 
L 162.286364 104.811818 
L 162.286364 58.734545 
" clip-path="url(#p7342dd61be)" style="fill: #beaed4"/>
    <path d="M 622.636364 122.566364 
L 622.636364 138.63 
L 618.831818 138.63 
L 618.831818 122.566364 
L 622.636364 122.566364 
" clip-path="url(#p7342dd61be)" style="fill: #386cb0"/>
    <path d="M 576.559091 223.175455 
L 576.559091 207.111818 
L 622.636364 207.111818 
L 622.636364 223.175455 
L 576.559091 223.175455 
" clip-path="url(#p7342dd61be)" style="fill: #386cb0"/>
    <path d="M 584.168182 138.63 
L 492.013636 138.63 
L 492.013636 122.566364 
L 584.168182 122.566364 
L 584.168182 138.63 
" clip-path="url(#p7342dd61be)" style="fill: #386cb0"/>
    <path d="M 541.895455 223.175455 
L 534.286364 223.175455 
L 534.286364 207.111818 
L 541.895455 207.111818 
L 541.895455 223.175455 
" clip-path="url(#p7342dd61be)" style="fill: #386cb0"/>
    <path d="M 499.622727 207.111818 
L 499.622727 223.175455 
L 407.468182 223.175455 
L 407.468182 207.111818 
L 499.622727 207.111818 
" clip-path="url(#p7342dd61be)" style="fill: #386cb0"/>
    <path d="M 457.35 122.566364 
L 457.35 138.63 
L 449.740909 138.63 
L 449.740909 122.566364 
L 457.35 122.566364 
" clip-path="url(#p7342dd61be)" style="fill: #386cb0"/>
    <path d="M 415.077273 122.566364 
L 415.077273 138.63 
L 322.922727 138.63 
L 322.922727 122.566364 
L 415.077273 122.566364 
" clip-path="url(#p7342dd61be)" style="fill: #386cb0"/>
    <path d="M 372.804545 207.111818 
L 372.804545 223.175455 
L 365.195455 223.175455 
L 365.195455 207.111818 
L 372.804545 207.111818 
" clip-path="url(#p7342dd61be)" style="fill: #386cb0"/>
    <path d="M 330.531818 207.111818 
L 330.531818 223.175455 
L 238.377273 223.175455 
L 238.377273 207.111818 
L 330.531818 207.111818 
" clip-path="url(#p7342dd61be)" style="fill: #386cb0"/>
    <path d="M 280.65 122.566364 
L 288.259091 122.566364 
L 288.259091 138.63 
L 280.65 138.63 
L 280.65 122.566364 
" clip-path="url(#p7342dd61be)" style="fill: #386cb0"/>
    <path d="M 153.831818 122.566364 
L 245.986364 122.566364 
L 245.986364 138.63 
L 153.831818 138.63 
L 153.831818 122.566364 
" clip-path="url(#p7342dd61be)" style="fill: #386cb0"/>
    <path d="M 203.713636 207.111818 
L 203.713636 223.175455 
L 196.104545 223.175455 
L 196.104545 207.111818 
L 203.713636 207.111818 
" clip-path="url(#p7342dd61be)" style="fill: #386cb0"/>
    <path d="M 115.363636 223.175455 
L 115.363636 207.111818 
L 161.440909 207.111818 
L 161.440909 223.175455 
L 115.363636 223.175455 
" clip-path="url(#p7342dd61be)" style="fill: #386cb0"/>
    <path d="M 119.168182 138.63 
L 115.363636 138.63 
L 115.363636 122.566364 
L 119.168182 122.566364 
L 119.168182 138.63 
" clip-path="url(#p7342dd61be)" style="fill: #386cb0"/>
    <path d="M 576.559091 190.202727 
L 622.636364 190.202727 
L 622.636364 206.266364 
L 576.559091 206.266364 
L 576.559091 190.202727 
" clip-path="url(#p7342dd61be)" style="fill: #bf5b17"/>
    <path d="M 622.636364 105.657273 
L 622.636364 121.720909 
L 618.831818 121.720909 
L 618.831818 105.657273 
L 622.636364 105.657273 
" clip-path="url(#p7342dd61be)" style="fill: #bf5b17"/>
    <path d="M 584.168182 105.657273 
L 584.168182 121.720909 
L 492.013636 121.720909 
L 492.013636 105.657273 
L 584.168182 105.657273 
" clip-path="url(#p7342dd61be)" style="fill: #bf5b17"/>
    <path d="M 541.895455 190.202727 
L 541.895455 206.266364 
L 534.286364 206.266364 
L 534.286364 190.202727 
L 541.895455 190.202727 
" clip-path="url(#p7342dd61be)" style="fill: #bf5b17"/>
    <path d="M 499.622727 190.202727 
L 499.622727 206.266364 
L 407.468182 206.266364 
L 407.468182 190.202727 
L 499.622727 190.202727 
" clip-path="url(#p7342dd61be)" style="fill: #bf5b17"/>
    <path d="M 449.740909 105.657273 
L 457.35 105.657273 
L 457.35 121.720909 
L 449.740909 121.720909 
L 449.740909 105.657273 
" clip-path="url(#p7342dd61be)" style="fill: #bf5b17"/>
    <path d="M 415.077273 105.657273 
L 415.077273 121.720909 
L 322.922727 121.720909 
L 322.922727 105.657273 
L 415.077273 105.657273 
" clip-path="url(#p7342dd61be)" style="fill: #bf5b17"/>
    <path d="M 372.804545 190.202727 
L 372.804545 206.266364 
L 365.195455 206.266364 
L 365.195455 190.202727 
L 372.804545 190.202727 
" clip-path="url(#p7342dd61be)" style="fill: #bf5b17"/>
    <path d="M 330.531818 190.202727 
L 330.531818 206.266364 
L 238.377273 206.266364 
L 238.377273 190.202727 
L 330.531818 190.202727 
" clip-path="url(#p7342dd61be)" style="fill: #bf5b17"/>
    <path d="M 280.65 105.657273 
L 288.259091 105.657273 
L 288.259091 121.720909 
L 280.65 121.720909 
L 280.65 105.657273 
" clip-path="url(#p7342dd61be)" style="fill: #bf5b17"/>
    <path d="M 153.831818 105.657273 
L 245.986364 105.657273 
L 245.986364 121.720909 
L 153.831818 121.720909 
L 153.831818 105.657273 
" clip-path="url(#p7342dd61be)" style="fill: #bf5b17"/>
    <path d="M 203.713636 190.202727 
L 203.713636 206.266364 
L 196.104545 206.266364 
L 196.104545 190.202727 
L 203.713636 190.202727 
" clip-path="url(#p7342dd61be)" style="fill: #bf5b17"/>
    <path d="M 115.363636 206.266364 
L 115.363636 190.202727 
L 161.440909 190.202727 
L 161.440909 206.266364 
L 115.363636 206.266364 
" clip-path="url(#p7342dd61be)" style="fill: #bf5b17"/>
    <path d="M 119.168182 121.720909 
L 115.363636 121.720909 
L 115.363636 105.657273 
L 119.168182 105.657273 
L 119.168182 121.720909 
" clip-path="url(#p7342dd61be)" style="fill: #bf5b17"/>
    <path d="M 622.636364 63.384545 
L 622.636364 96.357273 
L 534.286364 96.357273 
L 534.286364 63.384545 
L 622.636364 63.384545 
" clip-path="url(#p7342dd61be)" style="fill: #666666"/>
    <path d="M 622.636364 147.93 
L 622.636364 180.902727 
L 618.831818 180.902727 
L 618.831818 147.93 
L 622.636364 147.93 
" clip-path="url(#p7342dd61be)" style="fill: #666666"/>
    <path d="M 584.168182 147.93 
L 584.168182 180.902727 
L 576.559091 180.902727 
L 576.559091 147.93 
L 584.168182 147.93 
" clip-path="url(#p7342dd61be)" style="fill: #666666"/>
    <path d="M 541.895455 147.93 
L 541.895455 180.902727 
L 449.740909 180.902727 
L 449.740909 147.93 
L 541.895455 147.93 
" clip-path="url(#p7342dd61be)" style="fill: #666666"/>
    <path d="M 499.622727 63.384545 
L 499.622727 96.357273 
L 492.013636 96.357273 
L 492.013636 63.384545 
L 499.622727 63.384545 
" clip-path="url(#p7342dd61be)" style="fill: #666666"/>
    <path d="M 457.35 63.384545 
L 457.35 96.357273 
L 365.195455 96.357273 
L 365.195455 63.384545 
L 457.35 63.384545 
" clip-path="url(#p7342dd61be)" style="fill: #666666"/>
    <path d="M 407.468182 147.93 
L 415.077273 147.93 
L 415.077273 180.902727 
L 407.468182 180.902727 
L 407.468182 147.93 
" clip-path="url(#p7342dd61be)" style="fill: #666666"/>
    <path d="M 372.804545 147.93 
L 372.804545 180.902727 
L 280.65 180.902727 
L 280.65 147.93 
L 372.804545 147.93 
" clip-path="url(#p7342dd61be)" style="fill: #666666"/>
    <path d="M 322.922727 63.384545 
L 330.531818 63.384545 
L 330.531818 96.357273 
L 322.922727 96.357273 
L 322.922727 63.384545 
" clip-path="url(#p7342dd61be)" style="fill: #666666"/>
    <path d="M 288.259091 63.384545 
L 288.259091 96.357273 
L 196.104545 96.357273 
L 196.104545 63.384545 
L 288.259091 63.384545 
" clip-path="url(#p7342dd61be)" style="fill: #666666"/>
    <path d="M 238.377273 147.93 
L 245.986364 147.93 
L 245.986364 180.902727 
L 238.377273 180.902727 
L 238.377273 147.93 
" clip-path="url(#p7342dd61be)" style="fill: #666666"/>
    <path d="M 203.713636 180.902727 
L 115.363636 180.902727 
L 115.363636 147.93 
L 203.713636 147.93 
L 203.713636 180.902727 
" clip-path="url(#p7342dd61be)" style="fill: #666666"/>
    <path d="M 161.440909 63.384545 
L 161.440909 96.357273 
L 153.831818 96.357273 
L 153.831818 63.384545 
L 161.440909 63.384545 
" clip-path="url(#p7342dd61be)" style="fill: #666666"/>
    <path d="M 119.168182 96.357273 
L 115.363636 96.357273 
L 115.363636 63.384545 
L 119.168182 63.384545 
L 119.168182 96.357273 
" clip-path="url(#p7342dd61be)" style="fill: #666666"/>
    <path d="M 617.986364 97.202727 
L 617.986364 189.357273 
L 585.013636 189.357273 
L 585.013636 97.202727 
L 617.986364 97.202727 
" clip-path="url(#p7342dd61be)" style="fill: #ffff99"/>
    <path d="M 617.986364 227.825455 
L 585.013636 227.825455 
L 585.013636 224.020909 
L 617.986364 224.020909 
L 617.986364 227.825455 
" clip-path="url(#p7342dd61be)" style="fill: #ffff99"/>
    <path d="M 617.986364 62.539091 
L 585.013636 62.539091 
L 585.013636 58.734545 
L 617.986364 58.734545 
L 617.986364 62.539091 
" clip-path="url(#p7342dd61be)" style="fill: #ffff99"/>
    <path d="M 491.168182 189.357273 
L 458.195455 189.357273 
L 458.195455 181.748182 
L 491.168182 181.748182 
L 491.168182 189.357273 
" clip-path="url(#p7342dd61be)" style="fill: #ffff99"/>
    <path d="M 491.168182 224.020909 
L 491.168182 227.825455 
L 458.195455 227.825455 
L 458.195455 224.020909 
L 491.168182 224.020909 
" clip-path="url(#p7342dd61be)" style="fill: #ffff99"/>
    <path d="M 491.168182 147.084545 
L 458.195455 147.084545 
L 458.195455 58.734545 
L 491.168182 58.734545 
L 491.168182 147.084545 
" clip-path="url(#p7342dd61be)" style="fill: #ffff99"/>
    <path d="M 331.377273 181.748182 
L 364.35 181.748182 
L 364.35 227.825455 
L 331.377273 227.825455 
L 331.377273 181.748182 
" clip-path="url(#p7342dd61be)" style="fill: #ffff99"/>
    <path d="M 364.35 139.475455 
L 364.35 147.084545 
L 331.377273 147.084545 
L 331.377273 139.475455 
L 364.35 139.475455 
" clip-path="url(#p7342dd61be)" style="fill: #ffff99"/>
    <path d="M 331.377273 58.734545 
L 364.35 58.734545 
L 364.35 104.811818 
L 331.377273 104.811818 
L 331.377273 58.734545 
" clip-path="url(#p7342dd61be)" style="fill: #ffff99"/>
    <path d="M 204.559091 139.475455 
L 237.531818 139.475455 
L 237.531818 227.825455 
L 204.559091 227.825455 
L 204.559091 139.475455 
" clip-path="url(#p7342dd61be)" style="fill: #ffff99"/>
    <path d="M 237.531818 97.202727 
L 237.531818 104.811818 
L 204.559091 104.811818 
L 204.559091 97.202727 
L 237.531818 97.202727 
" clip-path="url(#p7342dd61be)" style="fill: #ffff99"/>
    <path d="M 237.531818 62.539091 
L 204.559091 62.539091 
L 204.559091 58.734545 
L 237.531818 58.734545 
L 237.531818 62.539091 
" clip-path="url(#p7342dd61be)" style="fill: #ffff99"/>
   </g>
   <g id="PatchCollection_2">
    <defs>
     <path id="m4e00d036f1" d="M 115.363636 -229.265455 
L 157.636364 -229.265455 
L 199.909091 -229.265455 
L 242.181818 -229.265455 
L 284.454545 -229.265455 
L 326.727273 -229.265455 
L 369 -229.265455 
L 411.272727 -229.265455 
L 453.545455 -229.265455 
L 495.818182 -229.265455 
L 538.090909 -229.265455 
L 580.363636 -229.265455 
L 622.636364 -229.265455 
L 622.636364 -186.992727 
L 622.636364 -144.72 
L 622.636364 -102.447273 
L 622.636364 -60.174545 
L 580.363636 -60.174545 
L 538.090909 -60.174545 
L 495.818182 -60.174545 
L 453.545455 -60.174545 
L 411.272727 -60.174545 
L 369 -60.174545 
L 326.727273 -60.174545 
L 284.454545 -60.174545 
L 242.181818 -60.174545 
L 199.909091 -60.174545 
L 157.636364 -60.174545 
L 115.363636 -60.174545 
L 115.363636 -102.447273 
L 115.363636 -144.72 
L 115.363636 -186.992727 
L 115.363636 -229.265455 
" style="stroke: #000000"/>
    </defs>
    <g clip-path="url(#p7342dd61be)">
     <use xlink:href="#m4e00d036f1" x="0" y="288" style="fill: #ffffff; fill-opacity: 0; stroke: #000000"/>
    </g>
   </g>
   <g id="matplotlib.axis_1">
    <g id="xtick_1">
     <g id="line2d_1">
      <defs>
       <path id="m7a39917dc9" d="M 0 0 
L 0 3.5 
" style="stroke: #000000; stroke-width: 0.8"/>
      </defs>
      <g>
       <use xlink:href="#m7a39917dc9" x="115.363636" y="236.28" style="stroke: #000000; stroke-width: 0.8"/>
      </g>
     </g>
     <g id="text_1">
      <!-- −60000 -->
      <g transform="translate(95.267543 250.878437)scale(0.1 -0.1)">
       <defs>
        <path id="DejaVuSans-2212" d="M 678 2272 
L 4684 2272 
L 4684 1741 
L 678 1741 
L 678 2272 
z
" transform="scale(0.015625)"/>
        <path id="DejaVuSans-36" d="M 2113 2584 
Q 1688 2584 1439 2293 
Q 1191 2003 1191 1497 
Q 1191 994 1439 701 
Q 1688 409 2113 409 
Q 2538 409 2786 701 
Q 3034 994 3034 1497 
Q 3034 2003 2786 2293 
Q 2538 2584 2113 2584 
z
M 3366 4563 
L 3366 3988 
Q 3128 4100 2886 4159 
Q 2644 4219 2406 4219 
Q 1781 4219 1451 3797 
Q 1122 3375 1075 2522 
Q 1259 2794 1537 2939 
Q 1816 3084 2150 3084 
Q 2853 3084 3261 2657 
Q 3669 2231 3669 1497 
Q 3669 778 3244 343 
Q 2819 -91 2113 -91 
Q 1303 -91 875 529 
Q 447 1150 447 2328 
Q 447 3434 972 4092 
Q 1497 4750 2381 4750 
Q 2619 4750 2861 4703 
Q 3103 4656 3366 4563 
z
" transform="scale(0.015625)"/>
        <path id="DejaVuSans-30" d="M 2034 4250 
Q 1547 4250 1301 3770 
Q 1056 3291 1056 2328 
Q 1056 1369 1301 889 
Q 1547 409 2034 409 
Q 2525 409 2770 889 
Q 3016 1369 3016 2328 
Q 3016 3291 2770 3770 
Q 2525 4250 2034 4250 
z
M 2034 4750 
Q 2819 4750 3233 4129 
Q 3647 3509 3647 2328 
Q 3647 1150 3233 529 
Q 2819 -91 2034 -91 
Q 1250 -91 836 529 
Q 422 1150 422 2328 
Q 422 3509 836 4129 
Q 1250 4750 2034 4750 
z
" transform="scale(0.015625)"/>
       </defs>
       <use xlink:href="#DejaVuSans-2212"/>
       <use xlink:href="#DejaVuSans-36" x="83.789062"/>
       <use xlink:href="#DejaVuSans-30" x="147.412109"/>
       <use xlink:href="#DejaVuSans-30" x="211.035156"/>
       <use xlink:href="#DejaVuSans-30" x="274.658203"/>
       <use xlink:href="#DejaVuSans-30" x="338.28125"/>
      </g>
     </g>
    </g>
    <g id="xtick_2">
     <g id="line2d_2">
      <g>
       <use xlink:href="#m7a39917dc9" x="199.909091" y="236.28" style="stroke: #000000; stroke-width: 0.8"/>
      </g>
     </g>
     <g id="text_2">
      <!-- −40000 -->
      <g transform="translate(179.812997 250.878437)scale(0.1 -0.1)">
       <defs>
        <path id="DejaVuSans-34" d="M 2419 4116 
L 825 1625 
L 2419 1625 
L 2419 4116 
z
M 2253 4666 
L 3047 4666 
L 3047 1625 
L 3713 1625 
L 3713 1100 
L 3047 1100 
L 3047 0 
L 2419 0 
L 2419 1100 
L 313 1100 
L 313 1709 
L 2253 4666 
z
" transform="scale(0.015625)"/>
       </defs>
       <use xlink:href="#DejaVuSans-2212"/>
       <use xlink:href="#DejaVuSans-34" x="83.789062"/>
       <use xlink:href="#DejaVuSans-30" x="147.412109"/>
       <use xlink:href="#DejaVuSans-30" x="211.035156"/>
       <use xlink:href="#DejaVuSans-30" x="274.658203"/>
       <use xlink:href="#DejaVuSans-30" x="338.28125"/>
      </g>
     </g>
    </g>
    <g id="xtick_3">
     <g id="line2d_3">
      <g>
       <use xlink:href="#m7a39917dc9" x="284.454545" y="236.28" style="stroke: #000000; stroke-width: 0.8"/>
      </g>
     </g>
     <g id="text_3">
      <!-- −20000 -->
      <g transform="translate(264.358452 250.878437)scale(0.1 -0.1)">
       <defs>
        <path id="DejaVuSans-32" d="M 1228 531 
L 3431 531 
L 3431 0 
L 469 0 
L 469 531 
Q 828 903 1448 1529 
Q 2069 2156 2228 2338 
Q 2531 2678 2651 2914 
Q 2772 3150 2772 3378 
Q 2772 3750 2511 3984 
Q 2250 4219 1831 4219 
Q 1534 4219 1204 4116 
Q 875 4013 500 3803 
L 500 4441 
Q 881 4594 1212 4672 
Q 1544 4750 1819 4750 
Q 2544 4750 2975 4387 
Q 3406 4025 3406 3419 
Q 3406 3131 3298 2873 
Q 3191 2616 2906 2266 
Q 2828 2175 2409 1742 
Q 1991 1309 1228 531 
z
" transform="scale(0.015625)"/>
       </defs>
       <use xlink:href="#DejaVuSans-2212"/>
       <use xlink:href="#DejaVuSans-32" x="83.789062"/>
       <use xlink:href="#DejaVuSans-30" x="147.412109"/>
       <use xlink:href="#DejaVuSans-30" x="211.035156"/>
       <use xlink:href="#DejaVuSans-30" x="274.658203"/>
       <use xlink:href="#DejaVuSans-30" x="338.28125"/>
      </g>
     </g>
    </g>
    <g id="xtick_4">
     <g id="line2d_4">
      <g>
       <use xlink:href="#m7a39917dc9" x="369" y="236.28" style="stroke: #000000; stroke-width: 0.8"/>
      </g>
     </g>
     <g id="text_4">
      <!-- 0 -->
      <g transform="translate(365.81875 250.878437)scale(0.1 -0.1)">
       <use xlink:href="#DejaVuSans-30"/>
      </g>
     </g>
    </g>
    <g id="xtick_5">
     <g id="line2d_5">
      <g>
       <use xlink:href="#m7a39917dc9" x="453.545455" y="236.28" style="stroke: #000000; stroke-width: 0.8"/>
      </g>
     </g>
     <g id="text_5">
      <!-- 20000 -->
      <g transform="translate(437.639205 250.878437)scale(0.1 -0.1)">
       <use xlink:href="#DejaVuSans-32"/>
       <use xlink:href="#DejaVuSans-30" x="63.623047"/>
       <use xlink:href="#DejaVuSans-30" x="127.246094"/>
       <use xlink:href="#DejaVuSans-30" x="190.869141"/>
       <use xlink:href="#DejaVuSans-30" x="254.492188"/>
      </g>
     </g>
    </g>
    <g id="xtick_6">
     <g id="line2d_6">
      <g>
       <use xlink:href="#m7a39917dc9" x="538.090909" y="236.28" style="stroke: #000000; stroke-width: 0.8"/>
      </g>
     </g>
     <g id="text_6">
      <!-- 40000 -->
      <g transform="translate(522.184659 250.878437)scale(0.1 -0.1)">
       <use xlink:href="#DejaVuSans-34"/>
       <use xlink:href="#DejaVuSans-30" x="63.623047"/>
       <use xlink:href="#DejaVuSans-30" x="127.246094"/>
       <use xlink:href="#DejaVuSans-30" x="190.869141"/>
       <use xlink:href="#DejaVuSans-30" x="254.492188"/>
      </g>
     </g>
    </g>
    <g id="xtick_7">
     <g id="line2d_7">
      <g>
       <use xlink:href="#m7a39917dc9" x="622.636364" y="236.28" style="stroke: #000000; stroke-width: 0.8"/>
      </g>
     </g>
     <g id="text_7">
      <!-- 60000 -->
      <g transform="translate(606.730114 250.878437)scale(0.1 -0.1)">
       <use xlink:href="#DejaVuSans-36"/>
       <use xlink:href="#DejaVuSans-30" x="63.623047"/>
       <use xlink:href="#DejaVuSans-30" x="127.246094"/>
       <use xlink:href="#DejaVuSans-30" x="190.869141"/>
       <use xlink:href="#DejaVuSans-30" x="254.492188"/>
      </g>
     </g>
    </g>
   </g>
   <g id="matplotlib.axis_2">
    <g id="ytick_1">
     <g id="line2d_8">
      <defs>
       <path id="mdd3610afc0" d="M 0 0 
L -3.5 0 
" style="stroke: #000000; stroke-width: 0.8"/>
      </defs>
      <g>
       <use xlink:href="#mdd3610afc0" x="90" y="227.825455" style="stroke: #000000; stroke-width: 0.8"/>
      </g>
     </g>
     <g id="text_8">
      <!-- −20000 -->
      <g transform="translate(42.807812 231.624673)scale(0.1 -0.1)">
       <use xlink:href="#DejaVuSans-2212"/>
       <use xlink:href="#DejaVuSans-32" x="83.789062"/>
       <use xlink:href="#DejaVuSans-30" x="147.412109"/>
       <use xlink:href="#DejaVuSans-30" x="211.035156"/>
       <use xlink:href="#DejaVuSans-30" x="274.658203"/>
       <use xlink:href="#DejaVuSans-30" x="338.28125"/>
      </g>
     </g>
    </g>
    <g id="ytick_2">
     <g id="line2d_9">
      <g>
       <use xlink:href="#mdd3610afc0" x="90" y="206.689091" style="stroke: #000000; stroke-width: 0.8"/>
      </g>
     </g>
     <g id="text_9">
      <!-- −15000 -->
      <g transform="translate(42.807812 210.48831)scale(0.1 -0.1)">
       <defs>
        <path id="DejaVuSans-31" d="M 794 531 
L 1825 531 
L 1825 4091 
L 703 3866 
L 703 4441 
L 1819 4666 
L 2450 4666 
L 2450 531 
L 3481 531 
L 3481 0 
L 794 0 
L 794 531 
z
" transform="scale(0.015625)"/>
        <path id="DejaVuSans-35" d="M 691 4666 
L 3169 4666 
L 3169 4134 
L 1269 4134 
L 1269 2991 
Q 1406 3038 1543 3061 
Q 1681 3084 1819 3084 
Q 2600 3084 3056 2656 
Q 3513 2228 3513 1497 
Q 3513 744 3044 326 
Q 2575 -91 1722 -91 
Q 1428 -91 1123 -41 
Q 819 9 494 109 
L 494 744 
Q 775 591 1075 516 
Q 1375 441 1709 441 
Q 2250 441 2565 725 
Q 2881 1009 2881 1497 
Q 2881 1984 2565 2268 
Q 2250 2553 1709 2553 
Q 1456 2553 1204 2497 
Q 953 2441 691 2322 
L 691 4666 
z
" transform="scale(0.015625)"/>
       </defs>
       <use xlink:href="#DejaVuSans-2212"/>
       <use xlink:href="#DejaVuSans-31" x="83.789062"/>
       <use xlink:href="#DejaVuSans-35" x="147.412109"/>
       <use xlink:href="#DejaVuSans-30" x="211.035156"/>
       <use xlink:href="#DejaVuSans-30" x="274.658203"/>
       <use xlink:href="#DejaVuSans-30" x="338.28125"/>
      </g>
     </g>
    </g>
    <g id="ytick_3">
     <g id="line2d_10">
      <g>
       <use xlink:href="#mdd3610afc0" x="90" y="185.552727" style="stroke: #000000; stroke-width: 0.8"/>
      </g>
     </g>
     <g id="text_10">
      <!-- −10000 -->
      <g transform="translate(42.807812 189.351946)scale(0.1 -0.1)">
       <use xlink:href="#DejaVuSans-2212"/>
       <use xlink:href="#DejaVuSans-31" x="83.789062"/>
       <use xlink:href="#DejaVuSans-30" x="147.412109"/>
       <use xlink:href="#DejaVuSans-30" x="211.035156"/>
       <use xlink:href="#DejaVuSans-30" x="274.658203"/>
       <use xlink:href="#DejaVuSans-30" x="338.28125"/>
      </g>
     </g>
    </g>
    <g id="ytick_4">
     <g id="line2d_11">
      <g>
       <use xlink:href="#mdd3610afc0" x="90" y="164.416364" style="stroke: #000000; stroke-width: 0.8"/>
      </g>
     </g>
     <g id="text_11">
      <!-- −5000 -->
      <g transform="translate(49.170313 168.215582)scale(0.1 -0.1)">
       <use xlink:href="#DejaVuSans-2212"/>
       <use xlink:href="#DejaVuSans-35" x="83.789062"/>
       <use xlink:href="#DejaVuSans-30" x="147.412109"/>
       <use xlink:href="#DejaVuSans-30" x="211.035156"/>
       <use xlink:href="#DejaVuSans-30" x="274.658203"/>
      </g>
     </g>
    </g>
    <g id="ytick_5">
     <g id="line2d_12">
      <g>
       <use xlink:href="#mdd3610afc0" x="90" y="143.28" style="stroke: #000000; stroke-width: 0.8"/>
      </g>
     </g>
     <g id="text_12">
      <!-- 0 -->
      <g transform="translate(76.6375 147.079219)scale(0.1 -0.1)">
       <use xlink:href="#DejaVuSans-30"/>
      </g>
     </g>
    </g>
    <g id="ytick_6">
     <g id="line2d_13">
      <g>
       <use xlink:href="#mdd3610afc0" x="90" y="122.143636" style="stroke: #000000; stroke-width: 0.8"/>
      </g>
     </g>
     <g id="text_13">
      <!-- 5000 -->
      <g transform="translate(57.55 125.942855)scale(0.1 -0.1)">
       <use xlink:href="#DejaVuSans-35"/>
       <use xlink:href="#DejaVuSans-30" x="63.623047"/>
       <use xlink:href="#DejaVuSans-30" x="127.246094"/>
       <use xlink:href="#DejaVuSans-30" x="190.869141"/>
      </g>
     </g>
    </g>
    <g id="ytick_7">
     <g id="line2d_14">
      <g>
       <use xlink:href="#mdd3610afc0" x="90" y="101.007273" style="stroke: #000000; stroke-width: 0.8"/>
      </g>
     </g>
     <g id="text_14">
      <!-- 10000 -->
      <g transform="translate(51.1875 104.806491)scale(0.1 -0.1)">
       <use xlink:href="#DejaVuSans-31"/>
       <use xlink:href="#DejaVuSans-30" x="63.623047"/>
       <use xlink:href="#DejaVuSans-30" x="127.246094"/>
       <use xlink:href="#DejaVuSans-30" x="190.869141"/>
       <use xlink:href="#DejaVuSans-30" x="254.492188"/>
      </g>
     </g>
    </g>
    <g id="ytick_8">
     <g id="line2d_15">
      <g>
       <use xlink:href="#mdd3610afc0" x="90" y="79.870909" style="stroke: #000000; stroke-width: 0.8"/>
      </g>
     </g>
     <g id="text_15">
      <!-- 15000 -->
      <g transform="translate(51.1875 83.670128)scale(0.1 -0.1)">
       <use xlink:href="#DejaVuSans-31"/>
       <use xlink:href="#DejaVuSans-35" x="63.623047"/>
       <use xlink:href="#DejaVuSans-30" x="127.246094"/>
       <use xlink:href="#DejaVuSans-30" x="190.869141"/>
       <use xlink:href="#DejaVuSans-30" x="254.492188"/>
      </g>
     </g>
    </g>
    <g id="ytick_9">
     <g id="line2d_16">
      <g>
       <use xlink:href="#mdd3610afc0" x="90" y="58.734545" style="stroke: #000000; stroke-width: 0.8"/>
      </g>
     </g>
     <g id="text_16">
      <!-- 20000 -->
      <g transform="translate(51.1875 62.533764)scale(0.1 -0.1)">
       <use xlink:href="#DejaVuSans-32"/>
       <use xlink:href="#DejaVuSans-30" x="63.623047"/>
       <use xlink:href="#DejaVuSans-30" x="127.246094"/>
       <use xlink:href="#DejaVuSans-30" x="190.869141"/>
       <use xlink:href="#DejaVuSans-30" x="254.492188"/>
      </g>
     </g>
    </g>
   </g>
   <g id="patch_3">
    <path d="M 90 236.28 
L 90 50.28 
" style="fill: none; stroke: #000000; stroke-width: 0.8; stroke-linejoin: miter; stroke-linecap: square"/>
   </g>
   <g id="patch_4">
    <path d="M 648 236.28 
L 648 50.28 
" style="fill: none; stroke: #000000; stroke-width: 0.8; stroke-linejoin: miter; stroke-linecap: square"/>
   </g>
   <g id="patch_5">
    <path d="M 90 236.28 
L 648 236.28 
" style="fill: none; stroke: #000000; stroke-width: 0.8; stroke-linejoin: miter; stroke-linecap: square"/>
   </g>
   <g id="patch_6">
    <path d="M 90 50.28 
L 648 50.28 
" style="fill: none; stroke: #000000; stroke-width: 0.8; stroke-linejoin: miter; stroke-linecap: square"/>
   </g>
  </g>
 </g>
 <defs>
  <clipPath id="p7342dd61be">
   <rect x="90" y="50.28" width="558" height="186"/>
  </clipPath>
 </defs>
</svg>
