<?xml version="1.0" encoding="UTF-8" standalone="no"?>
<!-- Created with Inkscape (http://www.inkscape.org/) -->

<svg
   width="210mm"
   height="297mm"
   viewBox="0 0 210 297"
   version="1.1"
   id="svg5"
   inkscape:version="1.1.2 (1:1.1+202202050852+0a00cf5339)"
   sodipodi:docname="TriangleGrid.svg"
   xmlns:inkscape="http://www.inkscape.org/namespaces/inkscape"
   xmlns:sodipodi="http://sodipodi.sourceforge.net/DTD/sodipodi-0.dtd"
   xmlns="http://www.w3.org/2000/svg"
   xmlns:svg="http://www.w3.org/2000/svg">
  <sodipodi:namedview
     id="namedview7"
     pagecolor="#ffffff"
     bordercolor="#666666"
     borderopacity="1.0"
     inkscape:pageshadow="2"
     inkscape:pageopacity="0.0"
     inkscape:pagecheckerboard="0"
     inkscape:document-units="mm"
     showgrid="false"
     inkscape:snap-bbox="true"
     inkscape:bbox-nodes="true"
     inkscape:snap-bbox-edge-midpoints="true"
     inkscape:snap-bbox-midpoints="true"
     inkscape:object-paths="true"
     inkscape:snap-intersection-paths="true"
     inkscape:snap-smooth-nodes="true"
     inkscape:snap-midpoints="true"
     inkscape:snap-object-midpoints="true"
     inkscape:snap-center="true"
     inkscape:snap-text-baseline="true"
     showborder="false"
     inkscape:zoom="1.1251181"
     inkscape:cx="386.6261"
     inkscape:cy="471.95047"
     inkscape:window-width="1920"
     inkscape:window-height="1016"
     inkscape:window-x="0"
     inkscape:window-y="27"
     inkscape:window-maximized="1"
     inkscape:current-layer="layer4">
    <sodipodi:guide
       position="2.7935412,116.76722"
       orientation="195.68183,338.93094"
       id="guide2072" />
    <sodipodi:guide
       position="32.685357,168.54139"
       orientation="391.36373,2.2677165e-05"
       id="guide2074" />
    <sodipodi:guide
       position="-27.098283,64.99307"
       orientation="-195.68186,338.93093"
       id="guide2076" />
    <sodipodi:guide
       position="-27.098289,168.54139"
       orientation="391.36373,677.86185"
       id="guide2217" />
    <sodipodi:guide
       position="32.685365,168.54139"
       orientation="391.36373,677.86188"
       id="guide2221" />
    <sodipodi:guide
       position="2.7935399,220.31555"
       orientation="391.36377,677.86186"
       id="guide2225" />
    <sodipodi:guide
       position="62.577193,220.31555"
       orientation="391.36368,677.86185"
       id="guide2229" />
    <sodipodi:guide
       position="122.36084,220.31555"
       orientation="195.68185,338.93095"
       id="guide2233" />
    <sodipodi:guide
       position="92.469016,272.0897"
       orientation="195.68182,338.93093"
       id="guide2237" />
    <sodipodi:guide
       position="152.25266,272.0897"
       orientation="195.68185,338.93091"
       id="guide2241" />
    <sodipodi:guide
       position="32.68537,64.99307"
       orientation="-391.36373,677.86186"
       id="guide2245" />
    <sodipodi:guide
       position="92.469019,64.99307"
       orientation="-195.68186,338.93091"
       id="guide2249" />
    <sodipodi:guide
       position="152.25266,64.99307"
       orientation="-195.68194,338.93091"
       id="guide2253" />
    <sodipodi:guide
       position="2.7935412,116.76722"
       orientation="-489.20469,847.32733"
       id="guide2257" />
    <sodipodi:guide
       position="32.68537,168.54139"
       orientation="-391.36373,677.86182"
       id="guide2261" />
    <sodipodi:guide
       position="-27.098286,168.54139"
       orientation="-391.36367,677.86188"
       id="guide2265" />
    <sodipodi:guide
       position="2.7935362,220.31555"
       orientation="-195.68186,338.93088"
       id="guide2269" />
    <sodipodi:guide
       position="2.7935399,220.31555"
       orientation="587.0456,-1.1338583e-06"
       id="guide2273" />
    <sodipodi:guide
       position="62.577193,220.31555"
       orientation="391.36377,0"
       id="guide2277" />
    <sodipodi:guide
       position="92.469027,272.08969"
       orientation="782.72739,-3.023622e-05"
       id="guide2281" />
    <sodipodi:guide
       position="122.36084,220.31555"
       orientation="391.36375,0"
       id="guide2285" />
    <sodipodi:guide
       position="152.25266,272.0897"
       orientation="782.72742,-3.7795276e-05"
       id="guide2289" />
    <sodipodi:guide
       position="182.14449,220.31555"
       orientation="391.36376,0"
       id="guide2293" />
    <sodipodi:guide
       position="212.03631,272.08971"
       orientation="782.72747,0"
       id="guide2297" />
  </sodipodi:namedview>
  <defs
     id="defs2" />
  <g
     inkscape:groupmode="layer"
     id="layer3"
     inkscape:label="Layer 2"
     style="display:inline"
     sodipodi:insensitive="true" />
  <g
     inkscape:groupmode="layer"
     id="layer4"
     inkscape:label="Layer 3">
    <path
       id="path39537"
       style="display:inline;fill:#e6e6e6;fill-opacity:1;stroke:none;stroke-width:0.3;stroke-linecap:square"
       inkscape:transform-center-x="-1.5807489e-06"
       inkscape:transform-center-y="8.629023"
       d="m 72.540923,197.4909 9.96425,-17.25838 -9.96373,-17.25786 h -19.9285 l -9.96373,17.25786 9.96425,17.25838 z" />
    <path
       id="path4126"
       style="display:inline;fill:#afe9af;stroke:none;stroke-width:0.3;stroke-linecap:square"
       inkscape:transform-center-x="1.9192511e-06"
       inkscape:transform-center-y="-8.629027"
       d="m 52.613465,93.942569 -9.96425,17.258381 9.96373,17.25786 H 72.54144 l 9.96373,-17.25786 -9.96425,-17.258381 z" />
    <path
       id="path4128"
       style="display:inline;fill:#e6e6e6;fill-opacity:1;stroke:none;stroke-width:0.3;stroke-linecap:square"
       inkscape:transform-center-x="1.9192511e-06"
       inkscape:transform-center-y="-8.629027"
       d="m 82.50488,111.20045 -9.96425,17.25838 9.96373,17.25786 h 19.92849 l 9.96373,-17.25786 -9.96425,-17.25838 z" />
    <path
       id="path4130"
       style="display:inline;fill:#afe9af;stroke:none;stroke-width:0.3;stroke-linecap:square"
       inkscape:transform-center-x="1.9192511e-06"
       inkscape:transform-center-y="-8.629027"
       d="m 112.39737,93.942575 -9.96425,17.258375 9.96373,17.25786 h 19.92849 l 9.96373,-17.25786 -9.96425,-17.258375 z" />
    <path
       id="path24766"
       style="display:inline;fill:#afe9af;fill-opacity:1;stroke:none;stroke-width:0.3;stroke-linecap:square"
       inkscape:transform-center-y="8.629023"
       d="m 162.21726,180.23321 9.96425,-17.25838 -9.96373,-17.25786 h -19.9285 l -9.96374,17.25786 9.96426,17.25838 z" />
    <path
       id="path24768"
       style="display:inline;fill:#e6e6e6;fill-opacity:1;stroke:none;stroke-width:0.3;stroke-linecap:square"
       inkscape:transform-center-x="-2.0807489e-06"
       inkscape:transform-center-y="8.629023"
       d="m 132.32519,197.49108 9.96425,-17.25838 -9.96373,-17.25786 h -19.9285 l -9.96373,17.25786 9.96425,17.25838 z" />
    <path
       id="path24770"
       style="display:inline;fill:#ffaaaa;stroke:none;stroke-width:0.3;stroke-linecap:square"
       inkscape:transform-center-x="-2.5807489e-06"
       inkscape:transform-center-y="8.629023"
       d="m 162.21701,111.20027 9.96425,-17.258375 -9.96373,-17.25786 h -19.9285 l -9.96373,17.25786 9.96425,17.258375 z" />
    <path
       id="path24776"
       style="display:inline;fill:#e6e6e6;fill-opacity:1;stroke:none;stroke-width:0.3;stroke-linecap:square"
       inkscape:transform-center-y="8.629023"
       d="m 162.21742,145.71697 9.96425,-17.25838 -9.96373,-17.25786 h -19.92849 l -9.96373,17.25786 9.96425,17.25838 z" />
    <path
       id="path24778"
       style="display:inline;fill:#ffaaaa;stroke:none;stroke-width:0.3;stroke-linecap:square"
       inkscape:transform-center-x="-2.0807489e-06"
       inkscape:transform-center-y="8.629023"
       d="m 132.32493,162.97484 9.96425,-17.25837 -9.96373,-17.25786 h -19.92849 l -9.96373,17.25786 9.96425,17.25837 z" />
    <path
       id="path24780"
       style="display:inline;fill:#afe9af;fill-opacity:1;stroke:none;stroke-width:0.3;stroke-linecap:square"
       inkscape:transform-center-x="-2.0807489e-06"
       inkscape:transform-center-y="8.629023"
       d="m 102.43323,180.23322 9.96425,-17.25838 -9.96373,-17.25786 H 82.505255 l -9.96373,17.25786 9.96425,17.25838 z" />
    <path
       id="path24782"
       style="display:inline;fill:#ffaaaa;stroke:none;stroke-width:0.3;stroke-linecap:square"
       inkscape:transform-center-x="-2.0807489e-06"
       inkscape:transform-center-y="8.629023"
       d="m 102.43298,111.20028 9.96425,-17.258375 -9.96373,-17.25786 H 82.505005 l -9.96373,17.25786 9.96425,17.258375 z" />
    <path
       id="path24784"
       style="display:inline;fill:#ffaaaa;stroke:none;stroke-width:0.3;stroke-linecap:square"
       inkscape:transform-center-x="-2.0807489e-06"
       inkscape:transform-center-y="8.629023"
       d="m 72.540905,162.97485 9.96425,-17.25837 -9.96373,-17.25786 H 52.612934 l -9.963729,17.25786 9.964249,17.25837 z" />
    <rect
       style="fill:none;fill-opacity:1;stroke:#000000;stroke-width:0.3;stroke-linecap:square;stroke-miterlimit:4;stroke-dasharray:none"
       id="rect25645"
       width="59.783646"
       height="34.516109"
       x="62.57719"
       y="76.684448" />
    <rect
       style="fill:none;fill-opacity:1;stroke:#000000;stroke-width:0.3;stroke-linecap:square;stroke-miterlimit:4;stroke-dasharray:none"
       id="rect39416"
       width="59.783646"
       height="34.516109"
       x="62.57719"
       y="111.20056" />
    <rect
       style="fill:none;fill-opacity:1;stroke:#000000;stroke-width:0.3;stroke-linecap:square;stroke-miterlimit:4;stroke-dasharray:none"
       id="rect39418"
       width="59.783646"
       height="34.516109"
       x="62.577202"
       y="145.71667" />
    <rect
       style="fill:none;fill-opacity:1;stroke:#000000;stroke-width:0.3;stroke-linecap:square;stroke-miterlimit:4;stroke-dasharray:none"
       id="rect39449"
       width="59.783646"
       height="34.516109"
       x="92.469002"
       y="59.426693" />
    <rect
       style="fill:none;fill-opacity:1;stroke:#000000;stroke-width:0.3;stroke-linecap:square;stroke-miterlimit:4;stroke-dasharray:none"
       id="rect39451"
       width="59.783646"
       height="34.516109"
       x="92.469002"
       y="93.94281" />
    <rect
       style="fill:none;fill-opacity:1;stroke:#000000;stroke-width:0.3;stroke-linecap:square;stroke-miterlimit:4;stroke-dasharray:none"
       id="rect39453"
       width="59.783646"
       height="34.516109"
       x="92.469017"
       y="128.45891" />
  </g>
  <g
     inkscape:label="Layer 1"
     inkscape:groupmode="layer"
     id="layer1"
     style="display:inline"
     sodipodi:insensitive="true">
    <path
       id="path846"
       style="fill:none;stroke:#ff0000;stroke-width:1.13386;stroke-linecap:square"
       inkscape:transform-center-y="-8.6290279"
       transform="matrix(0.26458333,0,0,0.26458333,-4.2631237,-36.727167)"
       d="M 26.670841,428.64235 139.64781,624.32421 H -86.30614 Z" />
    <path
       id="path928"
       style="fill:none;stroke:#ff0000;stroke-width:1.13386;stroke-linecap:square"
       inkscape:transform-center-y="8.6290284"
       transform="matrix(0.13229167,0.22913589,-0.22913589,0.13229167,157.26621,13.867395)"
       d="M 26.670841,428.64235 139.64781,624.32421 H -86.30614 Z" />
    <path
       id="path930"
       style="fill:none;stroke:#ff0000;stroke-width:1.13386;stroke-linecap:square"
       inkscape:transform-center-y="-8.6290279"
       transform="matrix(0.26458333,0,0,0.26458333,55.52053,-36.727166)"
       d="M 26.670841,428.64235 139.64781,624.32421 H -86.30614 Z" />
    <path
       id="path932"
       style="fill:none;stroke:#ff0000;stroke-width:1.13386;stroke-linecap:square"
       inkscape:transform-center-y="8.6290284"
       transform="matrix(0.13229167,0.22913589,-0.22913589,0.13229167,217.04986,13.867396)"
       d="M 26.670841,428.64235 139.64781,624.32421 H -86.30614 Z" />
    <path
       id="path934"
       style="fill:none;stroke:#ff0000;stroke-width:1.13386;stroke-linecap:square"
       inkscape:transform-center-y="-8.6290279"
       transform="matrix(0.26458333,0,0,0.26458333,115.30418,-36.727165)"
       d="M 26.670841,428.64235 139.64781,624.32421 H -86.30614 Z" />
    <path
       id="path936"
       style="fill:none;stroke:#ff0000;stroke-width:1.13386;stroke-linecap:square"
       inkscape:transform-center-y="8.6290284"
       transform="matrix(0.13229167,0.22913589,-0.22913589,0.13229167,276.83351,13.867397)"
       d="M 26.670841,428.64235 139.64781,624.32421 H -86.30614 Z" />
    <path
       id="path938"
       style="fill:none;stroke:#ff0000;stroke-width:1.13386;stroke-linecap:square"
       inkscape:transform-center-y="-8.6290279"
       transform="matrix(0.26458333,0,0,0.26458333,175.08783,-36.727164)"
       d="M 26.670841,428.64235 139.64781,624.32421 H -86.30614 Z" />
    <path
       id="path940"
       style="fill:none;stroke:#ff0000;stroke-width:1.13386;stroke-linecap:square"
       inkscape:transform-center-y="8.6290284"
       transform="matrix(0.13229167,0.22913589,-0.22913589,0.13229167,336.61716,13.867398)"
       d="M 26.670841,428.64235 139.64781,624.32421 H -86.30614 Z" />
    <path
       id="path942"
       style="fill:none;stroke:#ff0000;stroke-width:1.13386;stroke-linecap:square"
       inkscape:transform-center-y="8.6290243"
       transform="matrix(0.26458333,0,0,-0.26458333,-4.2631201,190.09607)"
       d="M 26.670841,428.64235 139.64781,624.32421 H -86.30614 Z" />
    <path
       id="path944"
       style="fill:none;stroke:#ff0000;stroke-width:1.13386;stroke-linecap:square"
       inkscape:transform-center-y="-8.62903"
       transform="matrix(0.13229167,-0.22913589,-0.22913589,-0.13229167,157.26621,139.50151)"
       d="M 26.670841,428.64235 139.64781,624.32421 H -86.30614 Z" />
    <path
       id="path946"
       style="fill:none;stroke:#ff0000;stroke-width:1.13386;stroke-linecap:square"
       inkscape:transform-center-y="8.6290253"
       transform="matrix(0.26458333,0,0,-0.26458333,55.520534,190.09607)"
       d="M 26.670841,428.64235 139.64781,624.32421 H -86.30614 Z" />
    <path
       id="path948"
       style="fill:none;stroke:#ff0000;stroke-width:1.13386;stroke-linecap:square"
       inkscape:transform-center-y="-8.629029"
       transform="matrix(0.13229167,-0.22913589,-0.22913589,-0.13229167,217.04986,139.50151)"
       d="M 26.670841,428.64235 139.64781,624.32421 H -86.30614 Z" />
    <path
       id="path950"
       style="fill:none;stroke:#ff0000;stroke-width:1.13386;stroke-linecap:square"
       inkscape:transform-center-y="8.6290264"
       transform="matrix(0.26458333,0,0,-0.26458333,115.30418,190.09607)"
       d="M 26.670841,428.64235 139.64781,624.32421 H -86.30614 Z" />
    <path
       id="path952"
       style="fill:none;stroke:#ff0000;stroke-width:1.13386;stroke-linecap:square"
       inkscape:transform-center-y="-8.629028"
       transform="matrix(0.13229167,-0.22913589,-0.22913589,-0.13229167,276.83351,139.50151)"
       d="M 26.670841,428.64235 139.64781,624.32421 H -86.30614 Z" />
    <path
       id="path954"
       style="fill:none;stroke:#ff0000;stroke-width:1.13386;stroke-linecap:square"
       inkscape:transform-center-y="8.6290276"
       transform="matrix(0.26458333,0,0,-0.26458333,175.08783,190.09607)"
       d="M 26.670841,428.64235 139.64781,624.32421 H -86.30614 Z" />
    <path
       id="path956"
       style="fill:none;stroke:#ff0000;stroke-width:1.13386;stroke-linecap:square"
       inkscape:transform-center-y="-8.629027"
       transform="matrix(0.13229167,-0.22913589,-0.22913589,-0.13229167,336.61716,139.50151)"
       d="M 26.670841,428.64235 139.64781,624.32421 H -86.30614 Z" />
    <path
       id="path958"
       style="fill:none;stroke:#ff0000;stroke-width:1.13386;stroke-linecap:square"
       inkscape:transform-center-y="-8.6290279"
       transform="matrix(0.26458333,0,0,0.26458333,-4.2631188,66.821156)"
       d="M 26.670841,428.64235 139.64781,624.32421 H -86.30614 Z" />
    <path
       id="path960"
       style="fill:none;stroke:#ff0000;stroke-width:1.13386;stroke-linecap:square"
       inkscape:transform-center-y="8.6290284"
       transform="matrix(0.13229167,0.22913589,-0.22913589,0.13229167,157.26621,117.41572)"
       d="M 26.670841,428.64235 139.64781,624.32421 H -86.30614 Z" />
    <path
       id="path962"
       style="fill:none;stroke:#ff0000;stroke-width:1.13386;stroke-linecap:square"
       inkscape:transform-center-y="-8.6290279"
       transform="matrix(0.26458333,0,0,0.26458333,55.520535,66.821157)"
       d="M 26.670841,428.64235 139.64781,624.32421 H -86.30614 Z" />
    <path
       id="path964"
       style="fill:none;stroke:#ff0000;stroke-width:1.13386;stroke-linecap:square"
       inkscape:transform-center-y="8.6290284"
       transform="matrix(0.13229167,0.22913589,-0.22913589,0.13229167,217.04986,117.41572)"
       d="M 26.670841,428.64235 139.64781,624.32421 H -86.30614 Z" />
    <path
       id="path966"
       style="fill:none;stroke:#ff0000;stroke-width:1.13386;stroke-linecap:square"
       inkscape:transform-center-y="-8.6290279"
       transform="matrix(0.26458333,0,0,0.26458333,115.30418,66.821158)"
       d="M 26.670841,428.64235 139.64781,624.32421 H -86.30614 Z" />
    <path
       id="path968"
       style="fill:none;stroke:#ff0000;stroke-width:1.13386;stroke-linecap:square"
       inkscape:transform-center-y="8.6290284"
       transform="matrix(0.13229167,0.22913589,-0.22913589,0.13229167,276.83351,117.41572)"
       d="M 26.670841,428.64235 139.64781,624.32421 H -86.30614 Z" />
    <path
       id="path970"
       style="fill:none;stroke:#ff0000;stroke-width:1.13386;stroke-linecap:square"
       inkscape:transform-center-y="-8.6290279"
       transform="matrix(0.26458333,0,0,0.26458333,175.08783,66.821159)"
       d="M 26.670841,428.64235 139.64781,624.32421 H -86.30614 Z" />
    <path
       id="path972"
       style="fill:none;stroke:#ff0000;stroke-width:1.13386;stroke-linecap:square"
       inkscape:transform-center-y="8.6290284"
       transform="matrix(0.13229167,0.22913589,-0.22913589,0.13229167,336.61716,117.41572)"
       d="M 26.670841,428.64235 139.64781,624.32421 H -86.30614 Z" />
    <path
       id="path974"
       style="fill:none;stroke:#ff0000;stroke-width:1.13386;stroke-linecap:square"
       inkscape:transform-center-y="8.6290243"
       transform="matrix(0.26458333,0,0,-0.26458333,-4.2631152,293.64439)"
       d="M 26.670841,428.64235 139.64781,624.32421 H -86.30614 Z" />
    <path
       id="path976"
       style="fill:none;stroke:#ff0000;stroke-width:1.13386;stroke-linecap:square"
       inkscape:transform-center-y="-8.62903"
       transform="matrix(0.13229167,-0.22913589,-0.22913589,-0.13229167,157.26621,243.04983)"
       d="M 26.670841,428.64235 139.64781,624.32421 H -86.30614 Z" />
    <path
       id="path978"
       style="fill:none;stroke:#ff0000;stroke-width:1.13386;stroke-linecap:square"
       inkscape:transform-center-y="8.6290253"
       transform="matrix(0.26458333,0,0,-0.26458333,55.520539,293.64439)"
       d="M 26.670841,428.64235 139.64781,624.32421 H -86.30614 Z" />
    <path
       id="path980"
       style="fill:none;stroke:#ff0000;stroke-width:1.13386;stroke-linecap:square"
       inkscape:transform-center-y="-8.629029"
       transform="matrix(0.13229167,-0.22913589,-0.22913589,-0.13229167,217.04986,243.04983)"
       d="M 26.670841,428.64235 139.64781,624.32421 H -86.30614 Z" />
    <path
       id="path982"
       style="fill:none;stroke:#ff0000;stroke-width:1.13386;stroke-linecap:square"
       inkscape:transform-center-y="8.6290264"
       transform="matrix(0.26458333,0,0,-0.26458333,115.30418,293.64439)"
       d="M 26.670841,428.64235 139.64781,624.32421 H -86.30614 Z" />
    <path
       id="path984"
       style="fill:none;stroke:#ff0000;stroke-width:1.13386;stroke-linecap:square"
       inkscape:transform-center-y="-8.629028"
       transform="matrix(0.13229167,-0.22913589,-0.22913589,-0.13229167,276.83351,243.04983)"
       d="M 26.670841,428.64235 139.64781,624.32421 H -86.30614 Z" />
    <path
       id="path986"
       style="fill:none;stroke:#ff0000;stroke-width:1.13386;stroke-linecap:square"
       inkscape:transform-center-y="8.6290276"
       transform="matrix(0.26458333,0,0,-0.26458333,175.08783,293.64439)"
       d="M 26.670841,428.64235 139.64781,624.32421 H -86.30614 Z" />
    <path
       id="path988"
       style="fill:none;stroke:#ff0000;stroke-width:1.13386;stroke-linecap:square"
       inkscape:transform-center-y="-8.629027"
       transform="matrix(0.13229167,-0.22913589,-0.22913589,-0.13229167,336.61716,243.04983)"
       d="M 26.670841,428.64235 139.64781,624.32421 H -86.30614 Z" />
    <path
       id="path1491"
       style="fill:none;stroke:#ff0000;stroke-width:1.13386;stroke-linecap:square"
       inkscape:transform-center-y="-8.6290279"
       transform="matrix(0.26458333,0,0,0.26458333,-4.2631237,-36.727167)"
       d="M 26.670841,428.64235 139.64781,624.32421 H -86.30614 Z" />
    <path
       id="path1493"
       style="fill:none;stroke:#ff0000;stroke-width:1.13386;stroke-linecap:square"
       inkscape:transform-center-y="8.6290284"
       transform="matrix(0.13229167,0.22913589,-0.22913589,0.13229167,157.26621,13.867395)"
       d="M 26.670841,428.64235 139.64781,624.32421 H -86.30614 Z" />
    <path
       id="path1495"
       style="fill:none;stroke:#ff0000;stroke-width:1.13386;stroke-linecap:square"
       inkscape:transform-center-y="-8.6290279"
       transform="matrix(0.26458333,0,0,0.26458333,55.52053,-36.727166)"
       d="M 26.670841,428.64235 139.64781,624.32421 H -86.30614 Z" />
    <path
       id="path1497"
       style="fill:none;stroke:#ff0000;stroke-width:1.13386;stroke-linecap:square"
       inkscape:transform-center-y="8.6290284"
       transform="matrix(0.13229167,0.22913589,-0.22913589,0.13229167,217.04986,13.867396)"
       d="M 26.670841,428.64235 139.64781,624.32421 H -86.30614 Z" />
    <path
       id="path1501"
       style="fill:none;stroke:#ff0000;stroke-width:1.13386;stroke-linecap:square"
       inkscape:transform-center-y="8.6290284"
       transform="matrix(0.13229167,0.22913589,-0.22913589,0.13229167,276.83351,13.867397)"
       d="M 26.670841,428.64235 139.64781,624.32421 H -86.30614 Z" />
    <path
       id="path1503"
       style="fill:none;stroke:#ff0000;stroke-width:1.13386;stroke-linecap:square"
       inkscape:transform-center-y="-8.6290279"
       transform="matrix(0.26458333,0,0,0.26458333,175.08783,-36.727164)"
       d="M 26.670841,428.64235 139.64781,624.32421 H -86.30614 Z" />
    <path
       id="path1507"
       style="fill:none;stroke:#ff0000;stroke-width:1.13386;stroke-linecap:square"
       inkscape:transform-center-y="8.6290243"
       transform="matrix(0.26458333,0,0,-0.26458333,-4.2631201,190.09607)"
       d="M 26.670841,428.64235 139.64781,624.32421 H -86.30614 Z" />
    <path
       id="path1509"
       style="fill:none;stroke:#ff0000;stroke-width:1.13386;stroke-linecap:square"
       inkscape:transform-center-y="-8.62903"
       transform="matrix(0.13229167,-0.22913589,-0.22913589,-0.13229167,157.26621,139.50151)"
       d="M 26.670841,428.64235 139.64781,624.32421 H -86.30614 Z" />
    <path
       id="path1511"
       style="fill:none;stroke:#ff0000;stroke-width:1.13386;stroke-linecap:square"
       inkscape:transform-center-y="8.6290253"
       transform="matrix(0.26458333,0,0,-0.26458333,55.520534,190.09607)"
       d="M 26.670841,428.64235 139.64781,624.32421 H -86.30614 Z" />
    <path
       id="path1513"
       style="fill:none;stroke:#ff0000;stroke-width:1.13386;stroke-linecap:square"
       inkscape:transform-center-y="-8.629029"
       transform="matrix(0.13229167,-0.22913589,-0.22913589,-0.13229167,217.04986,139.50151)"
       d="M 26.670841,428.64235 139.64781,624.32421 H -86.30614 Z" />
    <path
       id="path1515"
       style="fill:none;stroke:#ff0000;stroke-width:1.13386;stroke-linecap:square"
       inkscape:transform-center-y="8.6290264"
       transform="matrix(0.26458333,0,0,-0.26458333,115.30418,190.09607)"
       d="M 26.670841,428.64235 139.64781,624.32421 H -86.30614 Z" />
    <path
       id="path1517"
       style="fill:none;stroke:#ff0000;stroke-width:1.13386;stroke-linecap:square"
       inkscape:transform-center-y="-8.629028"
       transform="matrix(0.13229167,-0.22913589,-0.22913589,-0.13229167,276.83351,139.50151)"
       d="M 26.670841,428.64235 139.64781,624.32421 H -86.30614 Z" />
    <path
       id="path1519"
       style="fill:none;stroke:#ff0000;stroke-width:1.13386;stroke-linecap:square"
       inkscape:transform-center-y="8.6290276"
       transform="matrix(0.26458333,0,0,-0.26458333,175.08783,190.09607)"
       d="M 26.670841,428.64235 139.64781,624.32421 H -86.30614 Z" />
    <path
       id="path1521"
       style="fill:none;stroke:#ff0000;stroke-width:1.13386;stroke-linecap:square"
       inkscape:transform-center-y="-8.629027"
       transform="matrix(0.13229167,-0.22913589,-0.22913589,-0.13229167,336.61716,139.50151)"
       d="M 26.670841,428.64235 139.64781,624.32421 H -86.30614 Z" />
    <path
       id="path1523"
       style="fill:none;stroke:#ff0000;stroke-width:1.13386;stroke-linecap:square"
       inkscape:transform-center-y="-8.6290279"
       transform="matrix(0.26458333,0,0,0.26458333,-4.2631188,66.821156)"
       d="M 26.670841,428.64235 139.64781,624.32421 H -86.30614 Z" />
    <path
       id="path1525"
       style="fill:none;stroke:#ff0000;stroke-width:1.13386;stroke-linecap:square"
       inkscape:transform-center-y="8.6290284"
       transform="matrix(0.13229167,0.22913589,-0.22913589,0.13229167,157.26621,117.41572)"
       d="M 26.670841,428.64235 139.64781,624.32421 H -86.30614 Z" />
    <path
       id="path1527"
       style="fill:none;stroke:#ff0000;stroke-width:1.13386;stroke-linecap:square"
       inkscape:transform-center-y="-8.6290279"
       transform="matrix(0.26458333,0,0,0.26458333,55.520535,66.821157)"
       d="M 26.670841,428.64235 139.64781,624.32421 H -86.30614 Z" />
    <path
       id="path1529"
       style="fill:none;stroke:#ff0000;stroke-width:1.13386;stroke-linecap:square"
       inkscape:transform-center-y="8.6290284"
       transform="matrix(0.13229167,0.22913589,-0.22913589,0.13229167,217.04986,117.41572)"
       d="M 26.670841,428.64235 139.64781,624.32421 H -86.30614 Z" />
    <path
       id="path1531"
       style="fill:none;stroke:#ff0000;stroke-width:1.13386;stroke-linecap:square"
       inkscape:transform-center-y="-8.6290279"
       transform="matrix(0.26458333,0,0,0.26458333,115.30418,66.821158)"
       d="M 26.670841,428.64235 139.64781,624.32421 H -86.30614 Z" />
    <path
       id="path1533"
       style="fill:none;stroke:#ff0000;stroke-width:1.13386;stroke-linecap:square"
       inkscape:transform-center-y="8.6290284"
       transform="matrix(0.13229167,0.22913589,-0.22913589,0.13229167,276.83351,117.41572)"
       d="M 26.670841,428.64235 139.64781,624.32421 H -86.30614 Z" />
    <path
       id="path1535"
       style="fill:none;stroke:#ff0000;stroke-width:1.13386;stroke-linecap:square"
       inkscape:transform-center-y="-8.6290279"
       transform="matrix(0.26458333,0,0,0.26458333,175.08783,66.821159)"
       d="M 26.670841,428.64235 139.64781,624.32421 H -86.30614 Z" />
    <path
       id="path1537"
       style="fill:none;stroke:#ff0000;stroke-width:1.13386;stroke-linecap:square"
       inkscape:transform-center-y="8.6290284"
       transform="matrix(0.13229167,0.22913589,-0.22913589,0.13229167,336.61716,117.41572)"
       d="M 26.670841,428.64235 139.64781,624.32421 H -86.30614 Z" />
    <path
       id="path1539"
       style="fill:none;stroke:#ff0000;stroke-width:1.13386;stroke-linecap:square"
       inkscape:transform-center-y="8.6290243"
       transform="matrix(0.26458333,0,0,-0.26458333,-4.2631152,293.64439)"
       d="M 26.670841,428.64235 139.64781,624.32421 H -86.30614 Z" />
    <path
       id="path1541"
       style="fill:none;stroke:#ff0000;stroke-width:1.13386;stroke-linecap:square"
       inkscape:transform-center-y="-8.62903"
       transform="matrix(0.13229167,-0.22913589,-0.22913589,-0.13229167,157.26621,243.04983)"
       d="M 26.670841,428.64235 139.64781,624.32421 H -86.30614 Z" />
    <path
       id="path1543"
       style="fill:none;stroke:#ff0000;stroke-width:1.13386;stroke-linecap:square"
       inkscape:transform-center-y="8.6290253"
       transform="matrix(0.26458333,0,0,-0.26458333,55.520539,293.64439)"
       d="M 26.670841,428.64235 139.64781,624.32421 H -86.30614 Z" />
    <path
       id="path1545"
       style="fill:none;stroke:#ff0000;stroke-width:1.13386;stroke-linecap:square"
       inkscape:transform-center-y="-8.629029"
       transform="matrix(0.13229167,-0.22913589,-0.22913589,-0.13229167,217.04986,243.04983)"
       d="M 26.670841,428.64235 139.64781,624.32421 H -86.30614 Z" />
    <path
       id="path1547"
       style="fill:none;stroke:#ff0000;stroke-width:1.13386;stroke-linecap:square"
       inkscape:transform-center-y="8.6290264"
       transform="matrix(0.26458333,0,0,-0.26458333,115.30418,293.64439)"
       d="M 26.670841,428.64235 139.64781,624.32421 H -86.30614 Z" />
    <path
       id="path1549"
       style="fill:none;stroke:#ff0000;stroke-width:1.13386;stroke-linecap:square"
       inkscape:transform-center-y="-8.629028"
       transform="matrix(0.13229167,-0.22913589,-0.22913589,-0.13229167,276.83351,243.04983)"
       d="M 26.670841,428.64235 139.64781,624.32421 H -86.30614 Z" />
    <path
       id="path1551"
       style="fill:none;stroke:#ff0000;stroke-width:1.13386;stroke-linecap:square"
       inkscape:transform-center-y="8.6290276"
       transform="matrix(0.26458333,0,0,-0.26458333,175.08783,293.64439)"
       d="M 26.670841,428.64235 139.64781,624.32421 H -86.30614 Z" />
    <path
       id="path1553"
       style="fill:none;stroke:#ff0000;stroke-width:1.13386;stroke-linecap:square"
       inkscape:transform-center-y="-8.629027"
       transform="matrix(0.13229167,-0.22913589,-0.22913589,-0.13229167,336.61716,243.04983)"
       d="M 26.670841,428.64235 139.64781,624.32421 H -86.30614 Z" />
  </g>
</svg>
