<?xml version='1.0' encoding='UTF-8' standalone='no'?>
<svg width="296.926mm" height="209.973mm" xmlns:xlink="http://www.w3.org/1999/xlink" xmlns:cc="http://creativecommons.org/ns#" xmlns="http://www.w3.org/2000/svg" baseProfile="tiny" viewBox="0 0 3507 2480" version="1.2">
 <defs/>
 <g fill-rule="evenodd" stroke="black" stroke-width="1" stroke-linecap="square" stroke-linejoin="bevel" fill="none">
  <g stroke="#000000" transform="matrix(1,0,0,1,0,0)" stroke-width="1" stroke-linecap="square" font-family="Ubuntu" font-weight="400" font-size="41.6667" font-style="normal" stroke-opacity="1" stroke-linejoin="bevel" fill="none"/>
  <g stroke="#000000" transform="matrix(1,0,0,1,0,0)" stroke-width="1" stroke-linecap="square" font-family="Ubuntu" font-weight="400" font-size="41.6667" font-style="normal" stroke-opacity="1" stroke-linejoin="bevel" fill="none"/>
  <g stroke="#000000" transform="matrix(11.8081,0,0,11.8081,0,0)" stroke-width="1" stroke-linecap="square" font-family="Ubuntu" font-weight="400" font-size="41.6667" font-style="normal" stroke-opacity="1" stroke-linejoin="bevel" fill="none"/>
  <g stroke="#000000" transform="matrix(0.999751,0,0,0.999751,0,0)" stroke-width="1" stroke-linecap="square" font-family="Ubuntu" font-weight="400" font-size="41.6667" font-style="normal" stroke-opacity="1" stroke-linejoin="bevel" fill="none"/>
  <g stroke="none" transform="matrix(0.999751,0,0,0.999751,0,0)" font-family="Ubuntu" font-weight="400" fill-opacity="1" font-size="41.6667" font-style="normal" fill="#ffffff">
   <path fill-rule="evenodd" vector-effect="none" d="M-2,-2 L3510,-2 L3510,2483 L-2,2483 L-2,-2"/>
  </g>
  <g stroke="#000000" transform="matrix(0.999751,0,0,0.999751,0,0)" stroke-width="1" stroke-linecap="square" font-family="Ubuntu" font-weight="400" font-size="41.6667" font-style="normal" stroke-opacity="1" stroke-linejoin="bevel" fill="none"/>
  <g stroke="#000000" transform="matrix(11.8081,0,0,11.8081,0,0)" stroke-width="1" stroke-linecap="square" font-family="Ubuntu" font-weight="400" font-size="41.6667" font-style="normal" stroke-opacity="1" stroke-linejoin="bevel" fill="none"/>
  <g stroke="#000000" transform="matrix(11.8081,0,0,11.8081,0,0)" stroke-width="1" stroke-linecap="square" font-family="Ubuntu" font-weight="400" font-size="41.6667" font-style="normal" stroke-opacity="1" stroke-linejoin="bevel" fill="none"/>
  <g stroke="#000000" transform="matrix(11.8081,0,0,11.8081,0,0)" stroke-width="1" stroke-linecap="square" font-family="Ubuntu" font-weight="400" font-size="41.6667" font-style="normal" stroke-opacity="1" stroke-linejoin="bevel" fill="none"/>
  <g stroke="#000000" transform="matrix(11.8081,0,0,11.8081,0,0)" stroke-width="1" stroke-linecap="square" font-family="Ubuntu" font-weight="400" font-size="41.6667" font-style="normal" stroke-opacity="1" stroke-linejoin="bevel" fill="none"/>
  <g stroke="#000000" transform="matrix(11.8081,0,0,11.8081,230.381,111.077)" stroke-width="1" stroke-linecap="square" font-family="Ubuntu" font-weight="400" font-size="41.6667" font-style="normal" stroke-opacity="1" stroke-linejoin="bevel" fill="none"/>
  <g stroke="none" transform="matrix(11.8081,0,0,11.8081,230.381,111.077)" font-family="Ubuntu" font-weight="400" fill-opacity="1" font-size="41.6667" font-style="normal" fill="#ffffff">
   <path fill-rule="evenodd" vector-effect="none" d="M0,0 L169.671,0 L169.671,189.53 L0,189.53 L0,0"/>
  </g>
  <g stroke="#000000" transform="matrix(11.8081,0,0,11.8081,230.381,111.077)" stroke-width="1" stroke-linecap="square" font-family="Ubuntu" font-weight="400" font-size="41.6667" font-style="normal" stroke-opacity="1" stroke-linejoin="bevel" fill="none"/>
  <g stroke="#000000" transform="matrix(11.8081,0,0,11.8081,230.381,111.077)" stroke-width="1" stroke-linecap="square" font-family="Ubuntu" font-weight="400" font-size="41.6667" font-style="normal" stroke-opacity="1" stroke-linejoin="bevel" fill="none"/>
  <g stroke="none" transform="matrix(0.999751,0,0,0.999751,230.381,111.077)" font-family="Ubuntu" font-weight="400" fill-opacity="0" font-size="41.6667" font-style="normal" fill="#000000">
   <rect width="2004" height="2239" y="0" x="0"/>
  </g>
  <g stroke="#000000" transform="matrix(0.999751,0,0,0.999751,230.381,111.077)" stroke-width="1" stroke-linecap="square" font-family="Ubuntu" font-weight="400" font-size="41.6667" font-style="normal" stroke-opacity="1" stroke-linejoin="bevel" fill="none"/>
  <g stroke="#232323" transform="matrix(0.999751,0,0,0.999751,230.381,111.077)" stroke-width="3.07087" stroke-linecap="square" font-family="Ubuntu" font-weight="400" fill-opacity="1" font-size="41.6667" font-style="normal" stroke-opacity="1" stroke-linejoin="bevel" fill="#91522d">
   <path fill-rule="evenodd" vector-effect="none" d="M386.557,1119.5 L1002,2185.48 L1617.44,1119.5 L1002,53.5217 L386.557,1119.5"/>
   <path fill-rule="evenodd" vector-effect="none" d="M676.512,617.283 L948.701,1088.73 L404.323,1088.73 L676.512,617.283 L676.512,617.283"/>
   <path fill-rule="evenodd" vector-effect="none" d="M747.577,1683.26 L1291.96,1683.26 L1019.77,2154.71 L747.577,1683.26"/>
   <path fill-rule="evenodd" vector-effect="none" d="M948.701,1150.27 L676.512,1621.72 L676.512,1621.72 L404.323,1150.27 L948.701,1150.27"/>
   <path fill-rule="evenodd" vector-effect="none" d="M747.577,555.739 L1019.77,84.2938 L1291.96,555.739 L747.577,555.739"/>
   <path fill-rule="evenodd" vector-effect="none" d="M1309.72,1590.94 L1037.53,1119.5 L1309.72,648.055 L1581.91,1119.5 L1309.72,1590.94"/>
  </g>
  <g stroke="#000000" transform="matrix(0.999751,0,0,0.999751,230.381,111.077)" stroke-width="1" stroke-linecap="square" font-family="Ubuntu" font-weight="400" font-size="41.6667" font-style="normal" stroke-opacity="1" stroke-linejoin="bevel" fill="none"/>
  <g stroke="#000000" transform="matrix(11.8081,0,0,11.8081,230.381,111.077)" stroke-width="1" stroke-linecap="square" font-family="Ubuntu" font-weight="400" font-size="41.6667" font-style="normal" stroke-opacity="1" stroke-linejoin="bevel" fill="none"/>
  <g stroke="#000000" transform="matrix(11.8081,0,0,11.8081,230.381,111.077)" stroke-width="1" stroke-linecap="square" font-family="Ubuntu" font-weight="400" font-size="41.6667" font-style="normal" stroke-opacity="1" stroke-linejoin="bevel" fill="none"/>
  <g stroke="#000000" transform="matrix(11.8081,0,0,11.8081,230.381,111.077)" stroke-width="1" stroke-linecap="square" font-family="Ubuntu" font-weight="400" font-size="41.6667" font-style="normal" stroke-opacity="1" stroke-linejoin="bevel" fill="none"/>
  <g stroke="#000000" transform="matrix(1,0,0,1,0,0)" stroke-width="1" stroke-linecap="square" font-family="Ubuntu" font-weight="400" font-size="41.6667" font-style="normal" stroke-opacity="1" stroke-linejoin="bevel" fill="none"/>
  <g stroke="#000000" transform="matrix(11.8081,0,0,11.8081,230.381,111.077)" stroke-width="1" stroke-linecap="square" font-family="Ubuntu" font-weight="400" font-size="41.6667" font-style="normal" stroke-opacity="1" stroke-linejoin="bevel" fill="none"/>
  <g stroke="#000000" transform="matrix(11.8081,0,0,11.8081,230.381,111.077)" stroke-width="1" stroke-linecap="square" font-family="Ubuntu" font-weight="400" font-size="41.6667" font-style="normal" stroke-opacity="1" stroke-linejoin="bevel" fill="none"/>
  <g stroke="#000000" transform="matrix(11.8081,0,0,11.8081,230.381,111.077)" stroke-width="1" stroke-linecap="square" font-family="Ubuntu" font-weight="400" font-size="41.6667" font-style="normal" stroke-opacity="1" stroke-linejoin="bevel" fill="none"/>
  <g stroke="#000000" transform="matrix(11.8081,0,0,11.8081,230.381,111.077)" stroke-width="1" stroke-linecap="square" font-family="Ubuntu" font-weight="400" font-size="41.6667" font-style="normal" stroke-opacity="1" stroke-linejoin="bevel" fill="none"/>
  <g stroke="#000000" transform="matrix(1,0,0,1,0,0)" stroke-width="1" stroke-linecap="square" font-family="Ubuntu" font-weight="400" font-size="41.6667" font-style="normal" stroke-opacity="1" stroke-linejoin="bevel" fill="none"/>
 </g>
 <metadata>
  <rdf:RDF xmlns:dc="http://purl.org/dc/elements/1.1/" xmlns:rdf="http://www.w3.org/1999/02/22-rdf-syntax-ns#" xmlns:rdfs="http://www.w3.org/2000/01/rdf-schema#">
   <rdf:Description dc:format="image/svg+xml" dc:title="" dc:description="" dc:identifier="" dc:date="2021-10-06T09:38:58">
    <dc:creator>
     <rdf:Bag>
      <rdf:li></rdf:li>
     </rdf:Bag>
    </dc:creator>
    <dc:publisher>
     <rdf:Bag>
      <rdf:li>QGIS 3.20.3-Odense</rdf:li>
     </rdf:Bag>
    </dc:publisher>
    <dc:subject>
     <rdf:Bag/>
    </dc:subject>
   </rdf:Description>
   <cc:Work rdf:about="">
    <dc:format>image/svg+xml</dc:format>
    <dc:title></dc:title>
    <dc:date>2021-10-06T09:38:58</dc:date>
    <dc:identifier></dc:identifier>
    <dc:description></dc:description>
    <dc:creator>
     <cc:Agent>
      <dc:title></dc:title>
     </cc:Agent>
    </dc:creator>
    <dc:publisher>
     <cc:Agent>
      <dc:title>QGIS 3.20.3-Odense</dc:title>
     </cc:Agent>
    </dc:publisher>
   </cc:Work>
  </rdf:RDF>
 </metadata>
</svg>
