<?xml version='1.0' encoding='UTF-8' standalone='no'?>
<svg version="1.2" height="209.973mm" xmlns="http://www.w3.org/2000/svg" baseProfile="tiny" width="296.926mm" xmlns:cc="http://creativecommons.org/ns#" xmlns:xlink="http://www.w3.org/1999/xlink" viewBox="0 0 3507 2480">
 <defs/>
 <g fill="none" stroke-linejoin="bevel" stroke-width="1" stroke="black" stroke-linecap="square" fill-rule="evenodd">
  <g font-family="Ubuntu" fill="none" stroke-linejoin="bevel" stroke-width="1" font-size="41.6667" stroke="#000000" stroke-linecap="square" font-style="normal" font-weight="400" transform="matrix(1,0,0,1,0,0)" stroke-opacity="1"/>
  <g font-family="Ubuntu" fill="none" stroke-linejoin="bevel" stroke-width="1" font-size="41.6667" stroke="#000000" stroke-linecap="square" font-style="normal" font-weight="400" transform="matrix(1,0,0,1,0,0)" stroke-opacity="1"/>
  <g font-family="Ubuntu" fill="none" stroke-linejoin="bevel" stroke-width="1" font-size="41.6667" stroke="#000000" stroke-linecap="square" font-style="normal" font-weight="400" transform="matrix(11.8081,0,0,11.8081,0,0)" stroke-opacity="1"/>
  <g font-family="Ubuntu" fill="none" stroke-linejoin="bevel" stroke-width="1" font-size="41.6667" stroke="#000000" stroke-linecap="square" font-style="normal" font-weight="400" transform="matrix(0.999751,0,0,0.999751,0,0)" stroke-opacity="1"/>
  <g font-family="Ubuntu" fill="#ffffff" font-size="41.6667" stroke="none" fill-opacity="1" font-style="normal" font-weight="400" transform="matrix(0.999751,0,0,0.999751,0,0)">
   <path vector-effect="none" fill-rule="evenodd" d="M-2,-2 L3510,-2 L3510,2483 L-2,2483 L-2,-2"/>
  </g>
  <g font-family="Ubuntu" fill="none" stroke-linejoin="bevel" stroke-width="1" font-size="41.6667" stroke="#000000" stroke-linecap="square" font-style="normal" font-weight="400" transform="matrix(0.999751,0,0,0.999751,0,0)" stroke-opacity="1"/>
  <g font-family="Ubuntu" fill="none" stroke-linejoin="bevel" stroke-width="1" font-size="41.6667" stroke="#000000" stroke-linecap="square" font-style="normal" font-weight="400" transform="matrix(11.8081,0,0,11.8081,0,0)" stroke-opacity="1"/>
  <g font-family="Ubuntu" fill="none" stroke-linejoin="bevel" stroke-width="1" font-size="41.6667" stroke="#000000" stroke-linecap="square" font-style="normal" font-weight="400" transform="matrix(11.8081,0,0,11.8081,0,0)" stroke-opacity="1"/>
  <g font-family="Ubuntu" fill="none" stroke-linejoin="bevel" stroke-width="1" font-size="41.6667" stroke="#000000" stroke-linecap="square" font-style="normal" font-weight="400" transform="matrix(11.8081,0,0,11.8081,0,0)" stroke-opacity="1"/>
  <g font-family="Ubuntu" fill="none" stroke-linejoin="bevel" stroke-width="1" font-size="41.6667" stroke="#000000" stroke-linecap="square" font-style="normal" font-weight="400" transform="matrix(11.8081,0,0,11.8081,0,0)" stroke-opacity="1"/>
  <g font-family="Ubuntu" fill="none" stroke-linejoin="bevel" stroke-width="1" font-size="41.6667" stroke="#000000" stroke-linecap="square" font-style="normal" font-weight="400" transform="matrix(11.8081,0,0,11.8081,69.9371,90.5069)" stroke-opacity="1"/>
  <g font-family="Ubuntu" fill="#ffffff" font-size="41.6667" stroke="none" fill-opacity="1" font-style="normal" font-weight="400" transform="matrix(11.8081,0,0,11.8081,69.9371,90.5069)">
   <path vector-effect="none" fill-rule="evenodd" d="M0,0 L283.947,0 L283.947,194.408 L0,194.408 L0,0"/>
  </g>
  <g font-family="Ubuntu" fill="none" stroke-linejoin="bevel" stroke-width="1" font-size="41.6667" stroke="#000000" stroke-linecap="square" font-style="normal" font-weight="400" transform="matrix(11.8081,0,0,11.8081,69.9371,90.5069)" stroke-opacity="1"/>
  <g font-family="Ubuntu" fill="none" stroke-linejoin="bevel" stroke-width="1" font-size="41.6667" stroke="#000000" stroke-linecap="square" font-style="normal" font-weight="400" transform="matrix(11.8081,0,0,11.8081,69.9371,90.5069)" stroke-opacity="1"/>
  <g font-family="Ubuntu" fill="#000000" font-size="41.6667" stroke="none" fill-opacity="0" font-style="normal" font-weight="400" transform="matrix(0.999751,0,0,0.999751,69.9371,90.5069)">
   <rect y="0" height="2296" width="3354" x="0"/>
  </g>
  <g font-family="Ubuntu" fill="none" stroke-linejoin="bevel" stroke-width="1" font-size="41.6667" stroke="#000000" stroke-linecap="square" font-style="normal" font-weight="400" transform="matrix(0.999751,0,0,0.999751,69.9371,90.5069)" stroke-opacity="1"/>
  <g font-family="Ubuntu" fill="#bebebe" stroke-linejoin="bevel" stroke-width="3.07087" font-size="41.6667" stroke="#232323" stroke-linecap="square" fill-opacity="1" font-style="normal" font-weight="400" transform="matrix(0.999751,0,0,0.999751,69.9371,90.5069)" stroke-opacity="1">
   <path vector-effect="none" fill-rule="evenodd" d="M612.12,719.062 L542.821,719.405 L493.784,713.836 L456.303,695.927 L442.228,708.224 L384.868,674.288 L321.454,626.135 L306.613,610.195 L263.647,545.154 L234.211,571.3 L254.01,592.029 L278.134,581.473 L295.03,624.106 L276.085,699.045 L295.498,741.722 L317.018,735.825 L327.997,756.402 L313.651,784.378 L297.032,798.2 L269.875,838.497 L310.256,834.498 L323.999,841.01 L356.139,876.071 L378.669,884.306 L404.619,912.987 L432.185,921.311 L444.502,937.209 L485.433,901.862 L511.602,918.005 L524.956,946.467 L558.084,925.098 L579.936,900.394 L575.259,879.926 L540.164,869.897 L526.616,852.409 L473.779,848.341 L451.634,818.158 L429.213,803.651 L397.701,804.666 L369.559,757.129 L380.156,727.521 L429.606,709.571 L458.298,725.756 L450.3,750.705 L470.148,768.304 L485.675,745.055 L516.289,723.641 L612.009,725.333 L612.12,719.062"/>
   <path vector-effect="none" fill-rule="evenodd" d="M315.347,542.92 L323.891,558.75 L416.631,659.164 L411.076,616.727 L324.658,514.856 L311.239,489.532 L285.935,495.364 L315.347,542.92"/>
   <path vector-effect="none" fill-rule="evenodd" d="M820.138,429.523 L807.904,408.919 L779.18,394.293 L778.732,419.375 L748.64,481.564 L732.04,493.813 L734.197,514.237 L719.615,554.749 L720.456,578.286 L695.715,623.322 L689.478,690.64 L714.278,713.035 L675.122,718.611 L612.12,719.062 L612.009,725.333 L702.72,725.374 L792.898,755.208 L792.87,756.776 L812.266,728.896 L853.998,720.234 L852.012,690.404 L761.547,535.11 L787.159,441.48 L820.138,429.523"/>
   <path vector-effect="none" fill-rule="evenodd" d="M1231.91,239.366 L1211.98,226.458 L1181.31,249.422 L1124.47,256.232 L1058.13,300.508 L1029.47,351.739 L1055.22,391.408 L1047.5,400.677 L1051.33,397.61 L1086.78,388.842 L1114.78,373.668 L1167.46,318.169 L1209.12,314.222 L1244.45,311.729 L1231.91,239.366"/>
   <path vector-effect="none" fill-rule="evenodd" d="M1027.14,411.287 L983.329,394.816 L960.37,410.084 L911.04,420.175 L894.1,451.233 L889.702,485.653 L904.481,504.736 L948.6,503.961 L977.404,513.888 L1006.74,494.03 L1045.13,461.792 L1056.95,435.347 L1027.14,411.287"/>
   <path vector-effect="none" fill-rule="evenodd" d="M872.062,555.903 L843.538,530.302 L840.544,486.341 L823.385,459.376 L820.138,429.523 L787.159,441.48 L761.547,535.11 L852.012,690.404 L853.998,720.234 L875.465,717.482 L985.776,678.693 L1055.02,681.511 L1056.45,672.128 L969.599,667.425 L971.988,604.742 L914.13,598.998 L884.349,573.373 L872.062,555.903"/>
   <path vector-effect="none" fill-rule="evenodd" d="M1462.3,185.56 L1419.63,175.367 L1272.51,155.425 L1243.13,176.844 L1231.91,239.366 L1244.45,311.729 L1292.9,350.249 L1341.75,366.823 L1378.27,300.061 L1388.2,308.084 L1412.18,237.957 L1462.3,185.56"/>
   <path vector-effect="none" fill-rule="evenodd" d="M1140.99,457.255 L1121.57,416.131 L1096.74,395.295 L1051.33,397.61 L1047.5,400.677 L1027.14,411.287 L1056.95,435.347 L1045.13,461.792 L1006.74,494.03 L977.404,513.888 L948.6,503.961 L925.671,517.662 L895.495,513.984 L872.206,477.499 L852.359,459.894 L848.858,514.716 L874.806,543.407 L872.062,555.903 L884.349,573.373 L914.13,598.998 L971.988,604.742 L969.599,667.425 L1056.45,672.128 L1055.02,681.511 L1114.33,676.313 L1115.99,654.388 L1106.88,600.906 L1048.19,571.618 L1104.66,514.618 L1115.89,521.094 L1110.47,472.383 L1140.99,457.255"/>
   <path vector-effect="none" fill-rule="evenodd" d="M1222.76,465.013 L1226.54,465.082 L1209.12,314.222 L1167.46,318.169 L1114.78,373.668 L1086.78,388.842 L1051.33,397.61 L1096.74,395.295 L1121.57,416.131 L1140.99,457.255 L1163.89,445.125 L1205.15,463.125 L1222.76,465.013"/>
   <path vector-effect="none" fill-rule="evenodd" d="M558.084,925.098 L524.956,946.467 L511.602,918.005 L485.433,901.862 L444.502,937.209 L432.185,921.311 L399.362,925.439 L396.156,964.586 L373.078,987.703 L414.164,1015.08 L418.539,1052.79 L399.24,1075.98 L403.891,1098.01 L427.869,1095.3 L502.846,1057.41 L494.391,1036.88 L518.536,1024.76 L511.23,1010.52 L548.106,990.783 L534.726,963.888 L604.788,919.652 L596.251,903.819 L558.084,925.098"/>
   <path vector-effect="none" fill-rule="evenodd" d="M792.898,755.208 L758.837,757.736 L696.255,734.668 L669.5,751.442 L671.517,779.704 L652.995,829.555 L676.589,848.792 L679.949,872.374 L663.216,892.462 L669.123,914.521 L653.482,944.037 L719.943,960.9 L751.676,947.353 L768.018,878.646 L772.719,826.982 L788.28,802.17 L792.87,756.776 L792.898,755.208"/>
   <path vector-effect="none" fill-rule="evenodd" d="M1305.3,499.45 L1314.69,468.259 L1287.55,367.401 L1292.9,350.249 L1244.45,311.729 L1209.12,314.222 L1226.54,465.082 L1222.76,465.013 L1231.18,487.121 L1248.53,503.119 L1305.3,499.45"/>
   <path vector-effect="none" fill-rule="evenodd" d="M1545.16,271.768 L1539.23,251.273 L1491.64,234.713 L1476.21,251.679 L1452.44,241.833 L1497.43,194.048 L1486.32,181.298 L1462.3,185.56 L1412.18,237.957 L1388.2,308.084 L1404.44,316.223 L1454.52,334.393 L1503.71,332.162 L1522.49,338.781 L1538.37,298.302 L1545.16,271.768"/>
   <path vector-effect="none" fill-rule="evenodd" d="M1222.76,465.013 L1205.15,463.125 L1163.89,445.125 L1140.99,457.255 L1110.47,472.383 L1115.89,521.094 L1143.26,540.408 L1148.87,578.145 L1172.78,580.148 L1214.92,618.55 L1271.15,575.667 L1222.56,544.986 L1221.07,488.505 L1231.18,487.121 L1222.76,465.013"/>
   <path vector-effect="none" fill-rule="evenodd" d="M544.299,1134.98 L582.458,1113.7 L580.329,1091.71 L633.739,1062.86 L601.169,1052.88 L548.106,990.783 L511.23,1010.52 L518.536,1024.76 L494.391,1036.88 L502.846,1057.41 L427.869,1095.3 L458.794,1127.2 L484.058,1122.94 L489.939,1146.57 L520.128,1148.67 L544.299,1134.98"/>
   <path vector-effect="none" fill-rule="evenodd" d="M1388.2,308.084 L1378.27,300.061 L1341.75,366.823 L1292.9,350.249 L1287.55,367.401 L1314.69,468.259 L1374.07,528.936 L1431.16,508.03 L1434,490.832 L1455.99,459.873 L1449.89,448.784 L1414.39,391.678 L1406.09,363.298 L1379.61,364.38 L1404.44,316.223 L1388.2,308.084"/>
   <path vector-effect="none" fill-rule="evenodd" d="M916.026,914.228 L876.376,877.449 L857.996,778.327 L853.998,720.234 L812.266,728.896 L792.87,756.776 L788.28,802.17 L772.719,826.982 L768.018,878.646 L751.676,947.353 L784.024,969.884 L793.37,1010.82 L790.319,1040.56 L764.688,1065.2 L811.865,1033.11 L853.029,985.232 L916.026,914.228"/>
   <path vector-effect="none" fill-rule="evenodd" d="M653.482,944.037 L604.788,919.652 L534.726,963.888 L548.106,990.783 L601.169,1052.88 L633.739,1062.86 L660.376,1052.36 L733.406,1053.66 L734.218,1078.76 L764.688,1065.2 L790.319,1040.56 L793.37,1010.82 L784.024,969.884 L751.676,947.353 L719.943,960.9 L653.482,944.037"/>
   <path vector-effect="none" fill-rule="evenodd" d="M1214.92,618.55 L1172.78,580.148 L1148.87,578.145 L1143.26,540.408 L1115.89,521.094 L1104.66,514.618 L1048.19,571.618 L1106.88,600.906 L1115.99,654.388 L1114.33,676.313 L1157.24,672.387 L1206.25,679.55 L1281.71,687.199 L1262.36,642.937 L1236.97,653.451 L1214.92,618.55"/>
   <path vector-effect="none" fill-rule="evenodd" d="M1057.82,805.446 L1050.19,739.446 L1055.02,681.511 L985.776,678.693 L875.465,717.482 L853.998,720.234 L857.996,778.327 L876.376,877.449 L916.026,914.228 L938.308,866.016 L960.225,838.184 L988.271,819.872 L1057.82,805.446"/>
   <path vector-effect="none" fill-rule="evenodd" d="M1503.71,332.162 L1454.52,334.393 L1404.44,316.223 L1379.61,364.38 L1406.09,363.298 L1414.39,391.678 L1449.89,448.784 L1471.94,414.69 L1482.57,385.091 L1502.61,391.733 L1513.21,363.701 L1493.17,357.059 L1503.71,332.162"/>
   <path vector-effect="none" fill-rule="evenodd" d="M1525.12,401.557 L1559.64,306.536 L1538.37,298.302 L1522.49,338.781 L1503.71,332.162 L1493.17,357.059 L1513.21,363.701 L1502.61,391.733 L1525.12,401.557"/>
   <path vector-effect="none" fill-rule="evenodd" d="M1305.3,499.45 L1248.53,503.119 L1231.18,487.121 L1221.07,488.505 L1222.56,544.986 L1271.15,575.667 L1214.92,618.55 L1236.97,653.451 L1262.36,642.937 L1281.71,687.199 L1310.82,679.89 L1291.53,632.493 L1318.18,622.003 L1347.87,583.342 L1313.43,537.235 L1305.3,499.45"/>
   <path vector-effect="none" fill-rule="evenodd" d="M764.688,1065.2 L734.218,1078.76 L733.406,1053.66 L660.376,1052.36 L633.739,1062.86 L580.329,1091.71 L582.458,1113.7 L544.299,1134.98 L523.794,1155.01 L547.882,1146.02 L566.185,1179.28 L585.153,1174.91 L665.195,1135.56 L683.969,1142.16 L682.236,1168.79 L790.203,1187.97 L789.813,1139.35 L797.005,1089.29 L776.719,1096.77 L759.204,1090.19 L764.688,1065.2"/>
   <path vector-effect="none" fill-rule="evenodd" d="M1592.2,318.115 L1559.64,306.536 L1525.12,401.557 L1547.65,409.814 L1557.67,413.135 L1580.57,333.582 L1592.2,318.115"/>
   <path vector-effect="none" fill-rule="evenodd" d="M1862.29,365.486 L1840.14,336.843 L1853.39,302.591 L1844.01,264.779 L1825.11,264.425 L1808.99,250.01 L1783.94,241.702 L1799.94,329.819 L1776.18,319.966 L1766.65,289.993 L1742.33,309.926 L1721.06,301.689 L1756.92,270.993 L1747.05,259.832 L1712.44,290.551 L1688.65,282.268 L1699.43,244.832 L1659.2,239.38 L1636.61,301.688 L1594.09,283.65 L1608.74,241.581 L1597.46,238.235 L1582.81,280.305 L1559.05,270.457 L1573.66,229.954 L1561.12,226.586 L1545.16,271.768 L1538.37,298.302 L1559.64,306.536 L1592.2,318.115 L1619.77,326.467 L1643.62,331.613 L1674.25,379.227 L1786.52,373.478 L1818.25,361.525 L1862.29,365.486"/>
   <path vector-effect="none" fill-rule="evenodd" d="M1501.98,426.221 L1525.12,401.557 L1502.61,391.733 L1482.57,385.091 L1471.94,414.69 L1501.98,426.221"/>
   <path vector-effect="none" fill-rule="evenodd" d="M1374.07,528.936 L1314.69,468.259 L1305.3,499.45 L1313.43,537.235 L1347.87,583.342 L1318.18,622.003 L1291.53,632.493 L1310.82,679.89 L1342.71,658.52 L1420.87,587.818 L1417.18,583.045 L1397.72,545.052 L1374.07,528.936"/>
   <path vector-effect="none" fill-rule="evenodd" d="M1206.25,679.55 L1157.24,672.387 L1114.33,676.313 L1055.02,681.511 L1050.19,739.446 L1057.82,805.446 L1099.38,806.198 L1115.33,830.01 L1162.84,849.69 L1172.14,823.2 L1193.84,807.914 L1205.63,783.038 L1202.11,768.86 L1206.25,679.55"/>
   <path vector-effect="none" fill-rule="evenodd" d="M1616.44,370.314 L1630.96,334.515 L1619.77,326.467 L1592.2,318.115 L1580.57,333.582 L1557.67,413.135 L1591.24,369.847 L1616.44,370.314"/>
   <path vector-effect="none" fill-rule="evenodd" d="M1476.57,505.729 L1473.34,475.875 L1501.98,426.221 L1471.94,414.69 L1449.89,448.784 L1455.99,459.873 L1434,490.832 L1431.16,508.03 L1454.1,494.338 L1476.57,505.729"/>
   <path vector-effect="none" fill-rule="evenodd" d="M1506.57,518.828 L1535.73,440.957 L1547.65,409.814 L1525.12,401.557 L1501.98,426.221 L1473.34,475.875 L1476.57,505.729 L1506.57,518.828"/>
   <path vector-effect="none" fill-rule="evenodd" d="M1094.16,955.079 L1104.95,916.07 L1078.7,904.617 L1082.91,881.171 L1107.03,870.631 L1057.82,805.446 L988.271,819.872 L960.225,838.184 L938.308,866.016 L916.026,914.228 L1022.68,1007.1 L1033.62,1029.25 L1049.36,1064.04 L1046.01,1040.46 L1071.22,1039.34 L1089.22,1019.28 L1071.76,1009.56 L1068.38,987.543 L1058.54,974.819 L1080.4,950.125 L1094.16,955.079"/>
   <path vector-effect="none" fill-rule="evenodd" d="M1506.57,518.828 L1476.57,505.729 L1454.1,494.338 L1431.16,508.03 L1374.07,528.936 L1397.72,545.052 L1417.18,583.045 L1467.03,544.758 L1502.21,550.111 L1506.57,518.828"/>
   <path vector-effect="none" fill-rule="evenodd" d="M1399.99,695.638 L1428.34,592.66 L1420.87,587.818 L1342.71,658.52 L1310.82,679.89 L1281.71,687.199 L1206.25,679.55 L1202.11,768.86 L1260.21,760.51 L1289.5,743.795 L1335.1,730.516 L1347.95,716.638 L1368.36,702.898 L1399.99,695.638"/>
   <path vector-effect="none" fill-rule="evenodd" d="M1674.25,379.227 L1643.62,331.613 L1619.77,326.467 L1630.96,334.515 L1616.44,370.314 L1636.25,389.499 L1674.25,379.227"/>
   <path vector-effect="none" fill-rule="evenodd" d="M1659.43,430.702 L1656.05,408.685 L1636.25,389.499 L1616.44,370.314 L1591.24,369.847 L1557.67,413.135 L1551.08,428.695 L1563.19,455.578 L1593.33,460.841 L1600.75,468.819 L1636.34,452.228 L1659.43,430.702"/>
   <path vector-effect="none" fill-rule="evenodd" d="M790.203,1187.97 L682.236,1168.79 L683.969,1142.16 L665.195,1135.56 L585.153,1174.91 L566.185,1179.28 L547.882,1146.02 L523.794,1155.01 L523.49,1172.25 L583.533,1195.27 L601.946,1222.25 L632.105,1225.92 L617.728,1255.46 L631.02,1287.06 L654.521,1311 L739.816,1259.2 L821.73,1255.96 L819.048,1194.75 L790.203,1187.97"/>
   <path vector-effect="none" fill-rule="evenodd" d="M1561.17,496.314 L1593.33,460.841 L1563.19,455.578 L1551.08,428.695 L1557.67,413.135 L1547.65,409.814 L1535.73,440.957 L1561.17,496.314"/>
   <path vector-effect="none" fill-rule="evenodd" d="M916.873,1077.33 L929.746,1061.88 L967.238,1078.24 L1010.81,1036.68 L1033.62,1029.25 L1022.68,1007.1 L916.026,914.228 L853.029,985.232 L855.294,999.386 L916.873,1077.33"/>
   <path vector-effect="none" fill-rule="evenodd" d="M1534.14,527.178 L1561.17,496.314 L1535.73,440.957 L1506.57,518.828 L1502.21,550.111 L1519.7,558.275 L1534.14,527.178"/>
   <path vector-effect="none" fill-rule="evenodd" d="M957.295,1140.78 L916.873,1077.33 L855.294,999.386 L853.029,985.232 L811.865,1033.11 L764.688,1065.2 L759.204,1090.19 L776.719,1096.77 L797.005,1089.29 L834.076,1129.16 L837.6,1143.34 L866.587,1142.29 L863.534,1172.03 L886.337,1164.6 L935.214,1178.02 L945.709,1154.69 L957.295,1140.78"/>
   <path vector-effect="none" fill-rule="evenodd" d="M1786.52,373.478 L1674.25,379.227 L1636.25,389.499 L1656.05,408.685 L1659.43,430.702 L1664.35,437.067 L1715.65,389.407 L1738.44,383.558 L1762.11,398.113 L1782.59,381.245 L1786.52,373.478"/>
   <path vector-effect="none" fill-rule="evenodd" d="M1162.84,849.69 L1115.33,830.01 L1099.38,806.198 L1057.82,805.446 L1107.03,870.631 L1082.91,881.171 L1078.7,904.617 L1104.95,916.07 L1094.16,955.079 L1139.3,966.874 L1152.66,924.777 L1172.72,929.846 L1180.79,901.766 L1143.41,879.132 L1162.84,849.69"/>
   <path vector-effect="none" fill-rule="evenodd" d="M1534.14,527.178 L1556.5,544.841 L1600.52,481.36 L1600.75,468.819 L1593.33,460.841 L1561.17,496.314 L1534.14,527.178"/>
   <path vector-effect="none" fill-rule="evenodd" d="M1494.63,687.971 L1507.66,664.688 L1535.37,665.2 L1574.68,651.813 L1577.49,636.184 L1561.49,615.501 L1565.56,599.895 L1535.44,593.065 L1513.17,570.699 L1519.7,558.275 L1502.21,550.111 L1467.03,544.758 L1417.18,583.045 L1420.87,587.818 L1428.34,592.66 L1399.99,695.638 L1420.03,702.279 L1440.41,690.108 L1494.63,687.971"/>
   <path vector-effect="none" fill-rule="evenodd" d="M1659.43,430.702 L1636.34,452.228 L1600.75,468.819 L1600.52,481.36 L1556.5,544.841 L1534.14,527.178 L1519.7,558.275 L1513.17,570.699 L1535.44,593.065 L1565.56,599.895 L1561.49,615.501 L1577.49,636.184 L1618.85,647.927 L1626.96,618.282 L1625.14,580.612 L1637.12,546.334 L1614.88,522.399 L1630.81,478.785 L1664.35,437.067 L1659.43,430.702"/>
   <path vector-effect="none" fill-rule="evenodd" d="M1339.21,849.772 L1353.95,801.429 L1373,724.938 L1347.95,716.638 L1335.1,730.516 L1289.5,743.795 L1260.21,760.51 L1202.11,768.86 L1205.63,783.038 L1244.64,785.317 L1254.4,802.745 L1295.76,814.477 L1299.11,838.061 L1339.21,849.772"/>
   <path vector-effect="none" fill-rule="evenodd" d="M1299.11,838.061 L1295.76,814.477 L1254.4,802.745 L1244.64,785.317 L1205.63,783.038 L1193.84,807.914 L1172.14,823.2 L1162.84,849.69 L1143.41,879.132 L1180.79,901.766 L1172.72,929.846 L1209.07,939.917 L1265.45,956.627 L1299.11,838.061"/>
   <path vector-effect="none" fill-rule="evenodd" d="M1743.02,611.031 L1775.39,564.59 L1777.09,541.098 L1814,521.402 L1805.45,507.128 L1797.83,442.69 L1800.26,380.007 L1782.59,381.245 L1762.11,398.113 L1738.44,383.558 L1715.65,389.407 L1664.35,437.067 L1630.81,478.785 L1614.88,522.399 L1637.12,546.334 L1625.14,580.612 L1626.96,618.282 L1662.06,628.343 L1700.28,605.531 L1743.02,611.031"/>
   <path vector-effect="none" fill-rule="evenodd" d="M935.214,1178.02 L886.337,1164.6 L863.534,1172.03 L866.587,1142.29 L837.6,1143.34 L834.076,1129.16 L797.005,1089.29 L789.813,1139.35 L790.203,1187.97 L819.048,1194.75 L821.73,1255.96 L869.653,1252.11 L893.123,1277.63 L971.542,1258.65 L985.56,1249.5 L968.698,1206.85 L968.953,1192.74 L935.214,1178.02"/>
   <path vector-effect="none" fill-rule="evenodd" d="M957.295,1140.78 L966.277,1131.54 L1050.98,1114.25 L1042.79,1079.6 L1064.3,1073.72 L1049.36,1064.04 L1033.62,1029.25 L1010.81,1036.68 L967.238,1078.24 L929.746,1061.88 L916.873,1077.33 L957.295,1140.78"/>
   <path vector-effect="none" fill-rule="evenodd" d="M1420.5,813.628 L1450.08,712.241 L1440.41,690.108 L1420.03,702.279 L1399.99,695.638 L1368.36,702.898 L1347.95,716.638 L1373,724.938 L1353.95,801.429 L1339.21,849.772 L1350.14,871.927 L1395.28,883.732 L1391.02,841.313 L1400.44,808.555 L1420.5,813.628"/>
   <path vector-effect="none" fill-rule="evenodd" d="M1180.29,1067.98 L1179.4,1047.58 L1209.07,939.917 L1172.72,929.846 L1152.66,924.777 L1139.3,966.874 L1094.16,955.079 L1080.4,950.125 L1058.54,974.819 L1068.38,987.543 L1076.05,981.409 L1131.23,994.955 L1120.53,1029.26 L1180.29,1067.98"/>
   <path vector-effect="none" fill-rule="evenodd" d="M825.918,1373.65 L821.73,1255.96 L739.816,1259.2 L654.521,1311 L678.077,1331.8 L742.082,1343.92 L765.692,1361.59 L784.574,1361.93 L813.274,1376.56 L825.918,1373.65"/>
   <path vector-effect="none" fill-rule="evenodd" d="M654.521,1311 L631.02,1287.06 L602.268,1346.14 L616.707,1384.03 L616.095,1418.52 L624.155,1461 L650.504,1466.17 L746.249,1463.17 L745.494,1434.93 L742.082,1343.92 L678.077,1331.8 L654.521,1311"/>
   <path vector-effect="none" fill-rule="evenodd" d="M1862.29,365.486 L1818.25,361.525 L1786.52,373.478 L1782.59,381.245 L1800.26,380.007 L1797.83,442.69 L1805.45,507.128 L1814,521.402 L1777.09,541.098 L1775.39,564.59 L1743.02,611.031 L1764.08,630.243 L1778.23,614.825 L1799.3,634.037 L1833.48,625.267 L1855.25,606.857 L1874.55,585.264 L1866.06,567.854 L1874.18,538.21 L1907.75,494.931 L1907.17,458.851 L1892.55,431.918 L1900.88,391.301 L1851.59,398.218 L1830.59,375.87 L1869.73,371.898 L1900.99,385.03 L1903.63,378.807 L1862.29,365.486"/>
   <path vector-effect="none" fill-rule="evenodd" d="M1180.29,1067.98 L1120.53,1029.26 L1131.23,994.955 L1076.05,981.409 L1068.38,987.543 L1071.76,1009.56 L1089.22,1019.28 L1071.22,1039.34 L1046.01,1040.46 L1049.36,1064.04 L1064.3,1073.72 L1143.95,1126.91 L1180.29,1067.98"/>
   <path vector-effect="none" fill-rule="evenodd" d="M1618.85,647.927 L1577.49,636.184 L1574.68,651.813 L1535.37,665.2 L1507.66,664.688 L1494.63,687.971 L1489.33,701.987 L1515.09,740.098 L1526.54,734.037 L1556.39,754.975 L1591.97,738.384 L1592.41,714.869 L1608.02,688.499 L1618.85,647.927"/>
   <path vector-effect="none" fill-rule="evenodd" d="M1494.63,687.971 L1440.41,690.108 L1450.08,712.241 L1420.5,813.628 L1465.61,827.004 L1479.03,850.774 L1491.68,847.871 L1506.27,876.367 L1535.3,873.767 L1577.64,832.209 L1559.04,816.183 L1565.91,784.947 L1556.39,754.975 L1526.54,734.037 L1515.09,740.098 L1489.33,701.987 L1494.63,687.971"/>
   <path vector-effect="none" fill-rule="evenodd" d="M1073.94,1236.98 L1108.82,1189 L1119.37,1162.53 L1143.95,1126.91 L1064.3,1073.72 L1042.79,1079.6 L1050.98,1114.25 L966.277,1131.54 L957.295,1140.78 L945.709,1154.69 L974.469,1166.18 L1026.67,1204.76 L1049.39,1202.04 L1073.94,1236.98"/>
   <path vector-effect="none" fill-rule="evenodd" d="M1284.05,1110.65 L1301.62,1045.11 L1321.86,971.772 L1350.14,871.927 L1339.21,849.772 L1299.11,838.061 L1265.45,956.627 L1227.65,1095.5 L1284.05,1110.65"/>
   <path vector-effect="none" fill-rule="evenodd" d="M1227.65,1095.5 L1265.45,956.627 L1209.07,939.917 L1179.4,1047.58 L1180.29,1067.98 L1143.95,1126.91 L1158.34,1166.38 L1196.72,1203.14 L1227.65,1095.5"/>
   <path vector-effect="none" fill-rule="evenodd" d="M1036.5,1288.05 L1064.53,1269.74 L1028.62,1236.16 L968.953,1192.74 L968.698,1206.85 L985.56,1249.5 L971.542,1258.65 L893.123,1277.63 L869.653,1252.11 L821.73,1255.96 L825.918,1373.65 L875.012,1374.53 L922.733,1381.66 L930.709,1358.28 L952.307,1347.69 L1026.06,1308.25 L1036.5,1288.05"/>
   <path vector-effect="none" fill-rule="evenodd" d="M1479.03,850.774 L1465.61,827.004 L1420.5,813.628 L1400.44,808.555 L1391.02,841.313 L1395.28,883.732 L1350.14,871.927 L1321.86,971.772 L1418.33,1000.2 L1439.95,920.622 L1479.03,850.774"/>
   <path vector-effect="none" fill-rule="evenodd" d="M1743.02,611.031 L1700.28,605.531 L1662.06,628.343 L1626.96,618.282 L1618.85,647.927 L1608.02,688.499 L1669.8,753.942 L1694.76,766.952 L1699.24,796.831 L1729.7,784.853 L1746.66,753.805 L1773.58,729.216 L1759.46,675.634 L1768.65,655.419 L1799.3,634.037 L1778.23,614.825 L1764.08,630.243 L1743.02,611.031"/>
   <path vector-effect="none" fill-rule="evenodd" d="M825.918,1373.65 L813.274,1376.56 L784.574,1361.93 L765.692,1361.59 L742.082,1343.92 L745.494,1434.93 L908.041,1428.44 L922.733,1381.66 L875.012,1374.53 L825.918,1373.65"/>
   <path vector-effect="none" fill-rule="evenodd" d="M1699.24,796.831 L1694.76,766.952 L1669.8,753.942 L1608.02,688.499 L1592.41,714.869 L1591.97,738.384 L1556.39,754.975 L1565.91,784.947 L1559.04,816.183 L1577.64,832.209 L1535.3,873.767 L1550.03,894.426 L1679.22,925.05 L1685.3,868.708 L1680.65,848.235 L1642.98,841.262 L1660.14,799.24 L1699.24,796.831"/>
   <path vector-effect="none" fill-rule="evenodd" d="M1073.94,1236.98 L1049.39,1202.04 L1026.67,1204.76 L974.469,1166.18 L945.709,1154.69 L935.214,1178.02 L968.953,1192.74 L1028.62,1236.16 L1064.53,1269.74 L1036.5,1288.05 L1039.85,1311.64 L1057.05,1335.47 L1073.64,1323.22 L1114.18,1378.85 L1152.95,1324.66 L1168.48,1301.42 L1073.94,1236.98"/>
   <path vector-effect="none" fill-rule="evenodd" d="M746.249,1463.17 L650.504,1466.17 L624.155,1461 L629.892,1492.46 L601.986,1575.08 L577.878,1585.63 L577.517,1606.01 L613.765,1620.77 L619.25,1666.34 L666.878,1678.16 L695.906,1673.98 L712.49,1661.73 L740.205,1660.65 L721.831,1632.1 L751.366,1599.69 L771.418,1604.76 L798.466,1570.74 L807.168,1506.6 L789.463,1510.99 L783.758,1477.96 L746.249,1463.17"/>
   <path vector-effect="none" fill-rule="evenodd" d="M1535.3,873.767 L1506.27,876.367 L1491.68,847.871 L1479.03,850.774 L1439.95,920.622 L1418.33,1000.2 L1517.32,1028.69 L1551.06,906.99 L1550.03,894.426 L1535.3,873.767"/>
   <path vector-effect="none" fill-rule="evenodd" d="M1168.48,1301.42 L1222.73,1227.14 L1196.72,1203.14 L1158.34,1166.38 L1143.95,1126.91 L1119.37,1162.53 L1108.82,1189 L1073.94,1236.98 L1168.48,1301.42"/>
   <path vector-effect="none" fill-rule="evenodd" d="M2184.92,432.734 L2176.04,435.702 L2127.62,397.146 L2100.51,431.133 L2040.92,450.393 L1995.5,452.672 L1958,436.284 L1903.63,378.807 L1900.99,385.03 L2009.53,510.96 L2044.61,455.167 L2081.9,482.532 L2095.81,479.659 L2114.29,501.964 L2109.74,542.651 L2150.6,581.063 L2144.06,593.485 L2146.55,595.1 L2176.78,595.675 L2196.49,619.573 L2231.37,640.624 L2245.71,615.805 L2252.69,579.869 L2279.42,566.265 L2263.37,548.708 L2255.45,501.51 L2216.09,450.577 L2184.92,432.734"/>
   <path vector-effect="none" fill-rule="evenodd" d="M1498.62,1086.36 L1517.32,1028.69 L1418.33,1000.2 L1321.86,971.772 L1301.62,1045.11 L1408.1,1076.85 L1460.78,1088.8 L1463.51,1077.87 L1498.62,1086.36"/>
   <path vector-effect="none" fill-rule="evenodd" d="M1833.48,625.267 L1799.3,634.037 L1768.65,655.419 L1759.46,675.634 L1773.58,729.216 L1746.66,753.805 L1729.7,784.853 L1761.48,837.196 L1796.33,792.37 L1804.24,773.699 L1828.53,755.335 L1875.51,735.829 L1893.58,712.645 L1891.89,668.704 L1833.48,625.267"/>
   <path vector-effect="none" fill-rule="evenodd" d="M845.87,1595.11 L851.495,1562.28 L881.843,1554.99 L880.086,1512.62 L908.041,1428.44 L745.494,1434.93 L746.249,1463.17 L783.758,1477.96 L789.463,1510.99 L807.168,1506.6 L798.466,1570.74 L808.085,1596 L827.885,1615.18 L845.87,1595.11"/>
   <path vector-effect="none" fill-rule="evenodd" d="M1020.05,1501.02 L974.132,1464.13 L1007.65,1420.82 L952.307,1347.69 L930.709,1358.28 L922.733,1381.66 L908.041,1428.44 L880.086,1512.62 L881.843,1554.99 L851.495,1562.28 L845.87,1595.11 L862.204,1596.97 L866.233,1582.93 L937.109,1562.25 L962.875,1529.79 L975.461,1530.01 L1020.05,1501.02"/>
   <path vector-effect="none" fill-rule="evenodd" d="M1321.32,1275.99 L1360.42,1135.57 L1284.05,1110.65 L1227.65,1095.5 L1196.72,1203.14 L1222.73,1227.14 L1259.92,1259.18 L1321.32,1275.99"/>
   <path vector-effect="none" fill-rule="evenodd" d="M1114.18,1378.85 L1073.64,1323.22 L1057.05,1335.47 L1039.85,1311.64 L1036.5,1288.05 L1026.06,1308.25 L952.307,1347.69 L1007.65,1420.82 L974.132,1464.13 L1020.05,1501.02 L1055.72,1478.15 L1080.98,1473.9 L1126.21,1479.43 L1145.35,1465.66 L1094.82,1405.15 L1114.18,1378.85"/>
   <path vector-effect="none" fill-rule="evenodd" d="M1498.62,1086.36 L1463.51,1077.87 L1460.78,1088.8 L1408.1,1076.85 L1301.62,1045.11 L1284.05,1110.65 L1360.42,1135.57 L1439.37,1157.41 L1518.31,1179.25 L1530.46,1135.56 L1522.02,1115.02 L1494.43,1108.24 L1498.62,1086.36"/>
   <path vector-effect="none" fill-rule="evenodd" d="M2005.44,593.998 L1971.55,587.087 L1948.31,616.445 L1895.5,610.748 L1871.39,619.705 L1855.25,606.857 L1833.48,625.267 L1891.89,668.704 L1893.58,712.645 L1875.51,735.829 L1828.53,755.335 L1804.24,773.699 L1796.33,792.37 L1846.13,824.666 L1858.19,853.12 L1915.68,877.722 L1963.39,886.461 L1968.26,828.529 L1966.39,793.993 L1978.46,755.015 L1986.88,709.696 L1990.99,625.09 L2005.44,593.998"/>
   <path vector-effect="none" fill-rule="evenodd" d="M2354.16,348.142 L2325.57,327.208 L2299.29,317.296 L2272.39,340.306 L2219.56,334.595 L2208.04,343.785 L2225.86,400.58 L2184.92,432.734 L2216.09,450.577 L2255.45,501.51 L2263.37,548.708 L2279.42,566.265 L2252.69,579.869 L2245.71,615.805 L2231.37,640.624 L2253.87,650.462 L2331.15,628.415 L2357.61,365.458 L2354.16,348.142"/>
   <path vector-effect="none" fill-rule="evenodd" d="M1679.22,925.05 L1550.03,894.426 L1551.06,906.99 L1517.32,1028.69 L1556.18,1038.81 L1567.19,1056.27 L1603.33,1077.32 L1657.21,1092.44 L1674.3,986.118 L1679.22,925.05"/>
   <path vector-effect="none" fill-rule="evenodd" d="M1761.48,837.196 L1729.7,784.853 L1699.24,796.831 L1660.14,799.24 L1642.98,841.262 L1680.65,848.235 L1685.3,868.708 L1679.22,925.05 L1674.3,986.118 L1694.3,994.332 L1773.4,1008.35 L1780.02,991.226 L1808.98,991.768 L1820.81,965.33 L1846.38,945.422 L1824.18,919.915 L1761.48,837.196"/>
   <path vector-effect="none" fill-rule="evenodd" d="M1310.47,1387.13 L1363.49,1311.26 L1321.32,1275.99 L1259.92,1259.18 L1222.73,1227.14 L1168.48,1301.42 L1152.95,1324.66 L1175.32,1340.75 L1255.46,1365.74 L1272.85,1378.6 L1310.47,1387.13"/>
   <path vector-effect="none" fill-rule="evenodd" d="M2144.06,593.485 L2121.51,586.784 L2108.7,597.519 L2087.54,650.437 L2069.7,661.077 L2057.63,632.621 L2034.23,603.951 L2005.44,593.998 L1990.99,625.09 L1986.88,709.696 L1978.46,755.015 L2004.85,758.65 L2014.4,787.058 L2030.68,792.07 L2053.86,765.848 L2103.06,762.075 L2116.65,776.447 L2153.87,806.949 L2194.08,812.419 L2199.45,795.27 L2211.56,754.727 L2220.5,748.624 L2221.36,703.162 L2202.56,698.099 L2176.89,722.703 L2141.47,729.871 L2100.47,699.297 L2105.05,657.042 L2119.56,622.816 L2138.61,615.336 L2141.19,612.249 L2146.55,595.1 L2144.06,593.485"/>
   <path vector-effect="none" fill-rule="evenodd" d="M1406.04,1326.16 L1412.85,1298.05 L1384.5,1264.6 L1415.03,1247.91 L1439.37,1157.41 L1360.42,1135.57 L1321.32,1275.99 L1363.49,1311.26 L1406.04,1326.16"/>
   <path vector-effect="none" fill-rule="evenodd" d="M1310.47,1387.13 L1272.85,1378.6 L1255.46,1365.74 L1175.32,1340.75 L1152.95,1324.66 L1114.18,1378.85 L1094.82,1405.15 L1145.35,1465.66 L1172.52,1494.38 L1197.21,1521.49 L1232.2,1536.24 L1246.61,1505.14 L1244.58,1478.45 L1263.55,1474.09 L1265.18,1453.73 L1302.6,1404.24 L1310.47,1387.13"/>
   <path vector-effect="none" fill-rule="evenodd" d="M1657.21,1092.44 L1603.33,1077.32 L1567.19,1056.27 L1556.18,1038.81 L1517.32,1028.69 L1498.62,1086.36 L1494.43,1108.24 L1522.02,1115.02 L1530.46,1135.56 L1518.31,1179.25 L1515.56,1191.74 L1628.32,1223.63 L1652.7,1131.56 L1657.21,1092.44"/>
   <path vector-effect="none" fill-rule="evenodd" d="M1095.62,1638.82 L1037.32,1590.72 L975.461,1530.01 L962.875,1529.79 L937.109,1562.25 L866.233,1582.93 L862.204,1596.97 L861.134,1656.54 L885.515,1700.89 L900.419,1712.14 L926.818,1714.18 L962.719,1747.76 L987.831,1751.35 L996.838,1740.53 L1028.38,1736.4 L1043.97,1710.02 L1035.5,1691.05 L1056.23,1658.5 L1099.08,1656.14 L1095.62,1638.82"/>
   <path vector-effect="none" fill-rule="evenodd" d="M1940.76,1017.77 L2007.16,970.402 L2088.85,913.923 L2065.13,902.497 L1963.39,886.461 L1915.68,877.722 L1858.19,853.12 L1846.13,824.666 L1796.33,792.37 L1761.48,837.196 L1824.18,919.915 L1846.38,945.422 L1881.11,974.302 L1940.76,1017.77"/>
   <path vector-effect="none" fill-rule="evenodd" d="M2469.59,375.449 L2448.35,365.631 L2429.12,382.512 L2386.56,367.581 L2354.16,348.142 L2357.61,365.458 L2331.15,628.415 L2350.14,624.074 L2397.49,651.642 L2398.69,654.801 L2427.57,660.06 L2442.6,599.188 L2432.98,575.479 L2457.24,558.695 L2449.27,514.631 L2472.59,416.281 L2487.83,410.301 L2469.59,375.449"/>
   <path vector-effect="none" fill-rule="evenodd" d="M1480.4,1322.82 L1515.56,1191.74 L1518.31,1179.25 L1439.37,1157.41 L1415.03,1247.91 L1384.5,1264.6 L1412.85,1298.05 L1406.04,1326.16 L1480.4,1322.82"/>
   <path vector-effect="none" fill-rule="evenodd" d="M1172.52,1494.38 L1145.35,1465.66 L1126.21,1479.43 L1080.98,1473.9 L1055.72,1478.15 L1020.05,1501.02 L975.461,1530.01 L1037.32,1590.72 L1095.62,1638.82 L1129.14,1664.52 L1162.17,1647.87 L1170.9,1583.74 L1155.99,1572.49 L1146.67,1531.55 L1172.52,1494.38"/>
   <path vector-effect="none" fill-rule="evenodd" d="M1773.4,1008.35 L1694.3,994.332 L1674.3,986.118 L1657.21,1092.44 L1652.7,1131.56 L1628.32,1223.63 L1622.99,1239.21 L1655.52,1250.79 L1660.12,1274.4 L1695.78,1253.11 L1714.98,1168.79 L1759.58,1073.96 L1844,1072.4 L1812,1032.6 L1773.4,1008.35"/>
   <path vector-effect="none" fill-rule="evenodd" d="M2116.65,776.447 L2103.06,762.075 L2053.86,765.848 L2030.68,792.07 L2014.4,787.058 L2004.85,758.65 L1978.46,755.015 L1966.39,793.993 L1968.26,828.529 L1963.39,886.461 L2065.13,902.497 L2088.85,913.923 L2136.04,883.454 L2113.76,862.644 L2094.47,816.8 L2116.65,776.447"/>
   <path vector-effect="none" fill-rule="evenodd" d="M1504.32,1323.26 L1518.11,1326.66 L1528.9,1287.65 L1605.35,1307.89 L1622.99,1239.21 L1628.32,1223.63 L1515.56,1191.74 L1480.4,1322.82 L1504.32,1323.26"/>
   <path vector-effect="none" fill-rule="evenodd" d="M2583.33,424.69 L2523.19,406.278 L2469.59,375.449 L2487.83,410.301 L2472.59,416.281 L2449.27,514.631 L2457.24,558.695 L2432.98,575.479 L2442.6,599.188 L2427.57,660.06 L2465.06,676.464 L2494.93,695.858 L2474.21,659.389 L2521.18,641.476 L2564.64,609.382 L2569.39,559.29 L2588.54,481.248 L2571.15,468.365 L2583.33,424.69"/>
   <path vector-effect="none" fill-rule="evenodd" d="M2397.49,651.642 L2325.75,647.13 L2271.23,664.907 L2218.57,651.357 L2141.19,612.249 L2138.61,615.336 L2218.51,654.493 L2228.95,701.738 L2233.24,741.026 L2274.53,755.928 L2287.85,784.41 L2311.24,813.086 L2310.94,828.762 L2337.78,808.889 L2349.56,785.591 L2383.84,772.134 L2398.69,654.801 L2397.49,651.642"/>
   <path vector-effect="none" fill-rule="evenodd" d="M1406.04,1326.16 L1363.49,1311.26 L1310.47,1387.13 L1302.6,1404.24 L1344.23,1400.29 L1385.34,1424.57 L1437.69,1453.76 L1476.53,1463.89 L1510.2,1481.76 L1515.7,1456.77 L1562.24,1459.2 L1580.54,1423.47 L1575.85,1404.57 L1554.45,1404.17 L1539.87,1375.67 L1521.1,1369.05 L1517.7,1348.6 L1491.38,1341.84 L1504.32,1323.26 L1480.4,1322.82 L1406.04,1326.16"/>
   <path vector-effect="none" fill-rule="evenodd" d="M1385.34,1424.57 L1344.23,1400.29 L1302.6,1404.24 L1265.18,1453.73 L1263.55,1474.09 L1244.58,1478.45 L1246.61,1505.14 L1232.2,1536.24 L1313.38,1572.23 L1344.61,1585.35 L1356.12,1507.15 L1352.63,1491.4 L1385.34,1424.57"/>
   <path vector-effect="none" fill-rule="evenodd" d="M1940.76,1017.77 L1881.11,974.302 L1846.38,945.422 L1820.81,965.33 L1808.98,991.768 L1780.02,991.226 L1773.4,1008.35 L1812,1032.6 L1844,1072.4 L1871.08,1105.84 L1881.94,1131.14 L1880.1,1162.47 L1911.37,1174.03 L1963.03,1106 L1971.99,1098.33 L1990.88,1098.69 L2012.76,1074.01 L1940.76,1017.77"/>
   <path vector-effect="none" fill-rule="evenodd" d="M1162.17,1647.87 L1188.46,1656.19 L1215.09,1645.7 L1216.89,1615.94 L1245.84,1616.47 L1287.75,1596.85 L1308.91,1609.78 L1313.38,1572.23 L1232.2,1536.24 L1197.21,1521.49 L1172.52,1494.38 L1146.67,1531.55 L1155.99,1572.49 L1170.9,1583.74 L1162.17,1647.87"/>
   <path vector-effect="none" fill-rule="evenodd" d="M2274.53,755.928 L2255.49,763.405 L2236.9,747.369 L2216.57,756.391 L2199.45,795.27 L2194.08,812.419 L2153.87,806.949 L2116.65,776.447 L2094.47,816.8 L2113.76,862.644 L2136.04,883.454 L2171.27,885.691 L2221.97,869.406 L2257.18,873.214 L2287.91,847.141 L2310.94,828.762 L2311.24,813.086 L2287.85,784.41 L2274.53,755.928"/>
   <path vector-effect="none" fill-rule="evenodd" d="M1392.46,1653.66 L1354.08,1618.45 L1350.85,1588.6 L1344.61,1585.35 L1313.38,1572.23 L1308.91,1609.78 L1287.75,1596.85 L1245.84,1616.47 L1216.89,1615.94 L1215.09,1645.7 L1188.46,1656.19 L1162.17,1647.87 L1129.14,1664.52 L1095.62,1638.82 L1099.08,1656.14 L1056.23,1658.5 L1035.5,1691.05 L1043.97,1710.02 L1062.36,1737.02 L1062.08,1752.69 L1080.41,1782.82 L1104.46,1775.42 L1122.45,1755.36 L1135.69,1719.53 L1186.12,1715.74 L1216.95,1681.81 L1259.34,1704.53 L1300.01,1683.32 L1327.55,1691.67 L1385.96,1664.52 L1392.46,1653.66"/>
   <path vector-effect="none" fill-rule="evenodd" d="M1665.77,1309.01 L1660.12,1274.4 L1655.52,1250.79 L1622.99,1239.21 L1605.35,1307.89 L1528.9,1287.65 L1518.11,1326.66 L1504.32,1323.26 L1491.38,1341.84 L1517.7,1348.6 L1521.1,1369.05 L1539.87,1375.67 L1554.45,1404.17 L1575.85,1404.57 L1580.54,1423.47 L1616.87,1433.56 L1647.86,1324.36 L1665.77,1309.01"/>
   <path vector-effect="none" fill-rule="evenodd" d="M2671.46,429.534 L2635.23,413.149 L2595.9,426.501 L2583.33,424.69 L2571.15,468.365 L2588.54,481.248 L2569.39,559.29 L2564.64,609.382 L2521.18,641.476 L2551.14,656.168 L2613.77,610.333 L2682.28,586.569 L2673.82,567.586 L2699.14,561.805 L2751.99,565.97 L2752.6,534.617 L2699.78,528.884 L2682.57,506.594 L2687.05,470.611 L2671.46,429.534"/>
   <path vector-effect="none" fill-rule="evenodd" d="M1880.1,1162.47 L1881.94,1131.14 L1871.08,1105.84 L1844,1072.4 L1759.58,1073.96 L1714.98,1168.79 L1695.78,1253.11 L1660.12,1274.4 L1665.77,1309.01 L1724.39,1272.46 L1756.15,1324.81 L1772.08,1348.63 L1823.84,1341.76 L1849.28,1328.12 L1853.87,1351.73 L1878.9,1360.04 L1900.69,1340.06 L1914.3,1352.87 L1922.93,1362.44 L2042.48,1300.4 L2041.28,1297.24 L1982.94,1252.22 L1962.89,1247.14 L1946.82,1231.16 L1932.55,1252.84 L1907.46,1247.67 L1880.09,1229.9 L1858.63,1232.63 L1894.97,1175.29 L1880.1,1162.47"/>
   <path vector-effect="none" fill-rule="evenodd" d="M1510.2,1481.76 L1476.53,1463.89 L1437.69,1453.76 L1385.34,1424.57 L1352.63,1491.4 L1356.12,1507.15 L1344.61,1585.35 L1350.85,1588.6 L1394.76,1528.25 L1413.93,1512.92 L1444.56,1558.96 L1489.77,1497.06 L1510.2,1481.76"/>
   <path vector-effect="none" fill-rule="evenodd" d="M2872.18,348.76 L2849.59,343.613 L2803.43,319.188 L2778.94,346.939 L2758.94,403.006 L2703.02,427.01 L2671.46,429.534 L2687.05,470.611 L2682.57,506.594 L2699.78,528.884 L2752.6,534.617 L2751.99,565.97 L2773.59,556.981 L2849.9,456.535 L2877.22,413.158 L2868.15,361.227 L2872.18,348.76"/>
   <path vector-effect="none" fill-rule="evenodd" d="M2237.09,1001.43 L2214.52,996.291 L2209.93,972.68 L2226.63,955.748 L2221.2,910.165 L2221.97,869.406 L2171.27,885.691 L2136.04,883.454 L2088.85,913.923 L2007.16,970.402 L2102.74,978.484 L2103.79,989.481 L2148.2,1038.94 L2166.01,1029.87 L2200.04,1028.95 L2222.58,1035.65 L2237.09,1001.43"/>
   <path vector-effect="none" fill-rule="evenodd" d="M2564.8,731.709 L2494.93,695.858 L2465.06,676.464 L2427.57,660.06 L2398.69,654.801 L2383.84,772.134 L2395.24,769.216 L2460.55,779.881 L2471.2,750.29 L2519.27,740.239 L2532.37,779.698 L2564.8,731.709"/>
   <path vector-effect="none" fill-rule="evenodd" d="M2166.01,1029.87 L2148.2,1038.94 L2103.79,989.481 L2102.74,978.484 L2007.16,970.402 L1940.76,1017.77 L2012.76,1074.01 L1990.88,1098.69 L1971.99,1098.33 L2001.77,1122.42 L2035.5,1137.17 L2060.65,1139.21 L2091.07,1128.81 L2095.6,1155.56 L2118.06,1166.96 L2141.8,1176.82 L2170.73,1113.07 L2183.2,1119.58 L2193.87,1088.42 L2190.87,1047.59 L2166.01,1029.87"/>
   <path vector-effect="none" fill-rule="evenodd" d="M1756.15,1324.81 L1724.39,1272.46 L1665.77,1309.01 L1647.86,1324.36 L1616.87,1433.56 L1655.68,1445.25 L1708.67,1439.97 L1705.65,1399.14 L1719.53,1397.83 L1706.5,1353.68 L1756.15,1324.81"/>
   <path vector-effect="none" fill-rule="evenodd" d="M2751.99,565.97 L2699.14,561.805 L2673.82,567.586 L2682.28,586.569 L2613.77,610.333 L2551.14,656.168 L2521.18,641.476 L2474.21,659.389 L2494.93,695.858 L2564.8,731.709 L2562.85,701.874 L2605.83,694.864 L2639.1,668.849 L2687.86,688.615 L2707.43,718.792 L2740.09,724.133 L2746.75,705.443 L2734.64,680.115 L2750.12,661.598 L2769.32,581.99 L2775.77,574.275 L2751.99,565.97"/>
   <path vector-effect="none" fill-rule="evenodd" d="M1614.77,1546.43 L1546.18,1510.65 L1510.2,1481.76 L1489.77,1497.06 L1444.56,1558.96 L1413.93,1512.92 L1394.76,1528.25 L1350.85,1588.6 L1354.08,1618.45 L1392.46,1653.66 L1431.44,1655.94 L1472.71,1670.82 L1476.92,1647.37 L1464.63,1631.47 L1468.81,1609.59 L1484.2,1594.19 L1515.93,1580.66 L1544.9,1579.63 L1583.72,1591.33 L1600.25,1582.23 L1612.02,1558.92 L1614.77,1546.43"/>
   <path vector-effect="none" fill-rule="evenodd" d="M2532.37,779.698 L2519.27,740.239 L2471.2,750.29 L2460.55,779.881 L2395.24,769.216 L2383.84,772.134 L2349.56,785.591 L2337.78,808.889 L2310.94,828.762 L2287.91,847.141 L2306.92,841.231 L2320.15,874.417 L2344.61,846.658 L2390.19,834.986 L2412.09,810.314 L2437.03,823.34 L2400.99,863.421 L2424.61,879.558 L2455.47,847.218 L2471.75,852.236 L2457.21,888.026 L2392.8,896.197 L2376.66,949.208 L2390.37,957.312 L2412.17,937.343 L2457.62,931.945 L2496.37,882.508 L2496.46,877.805 L2505.88,846.621 L2527.83,818.816 L2532.37,779.698"/>
   <path vector-effect="none" fill-rule="evenodd" d="M2047.83,1217.38 L2025.76,1185.6 L2018.68,1160.37 L1986.75,1117.43 L1963.03,1106 L1911.37,1174.03 L1880.1,1162.47 L1894.97,1175.29 L1858.63,1232.63 L1880.09,1229.9 L1907.46,1247.67 L1932.55,1252.84 L1946.82,1231.16 L1962.89,1247.14 L1982.94,1252.22 L2041.28,1297.24 L2033.63,1235.93 L2047.83,1217.38"/>
   <path vector-effect="none" fill-rule="evenodd" d="M2457.62,931.945 L2412.17,937.343 L2390.37,957.312 L2376.66,949.208 L2392.8,896.197 L2457.21,888.026 L2471.75,852.236 L2455.47,847.218 L2424.61,879.558 L2400.99,863.421 L2437.03,823.34 L2412.09,810.314 L2390.19,834.986 L2344.61,846.658 L2320.15,874.417 L2306.92,841.231 L2287.91,847.141 L2257.18,873.214 L2221.97,869.406 L2221.2,910.165 L2226.63,955.748 L2209.93,972.68 L2214.52,996.291 L2237.09,1001.43 L2293.91,994.67 L2324.52,1040.73 L2363.05,1002.27 L2379.3,1008.85 L2415.1,981.311 L2457.62,931.945"/>
   <path vector-effect="none" fill-rule="evenodd" d="M3006.85,614.874 L3038.8,591.98 L3028.55,536.888 L3034.23,504.066 L3013.34,476.994 L3012.42,459.724 L2965.29,421.158 L2945.75,389.409 L2944.92,367.437 L2909.73,362.042 L2872.18,348.76 L2868.15,361.227 L2877.22,413.158 L2849.9,456.535 L2773.59,556.981 L2751.99,565.97 L2775.77,574.275 L2830.03,570.629 L2931.48,602.414 L2946.29,618.388 L2966.35,623.487 L3006.85,614.874"/>
   <path vector-effect="none" fill-rule="evenodd" d="M1708.67,1439.97 L1655.68,1445.25 L1616.87,1433.56 L1580.54,1423.47 L1562.24,1459.2 L1515.7,1456.77 L1510.2,1481.76 L1546.18,1510.65 L1614.77,1546.43 L1618.75,1535.52 L1651.44,1537.7 L1687.68,1552.49 L1760.83,1546.01 L1751.55,1436.06 L1708.67,1439.97"/>
   <path vector-effect="none" fill-rule="evenodd" d="M1971.99,1098.33 L1963.03,1106 L1986.75,1117.43 L2018.68,1160.37 L2025.76,1185.6 L2047.83,1217.38 L2075.2,1235.15 L2111.42,1251.52 L2106.83,1227.91 L2084.04,1167.88 L2111.5,1180.95 L2118.06,1166.96 L2095.6,1155.56 L2091.07,1128.81 L2060.65,1139.21 L2035.5,1137.17 L2001.77,1122.42 L1971.99,1098.33"/>
   <path vector-effect="none" fill-rule="evenodd" d="M1914.3,1352.87 L1900.69,1340.06 L1878.9,1360.04 L1853.87,1351.73 L1849.28,1328.12 L1823.84,1341.76 L1772.08,1348.63 L1756.15,1324.81 L1706.5,1353.68 L1719.53,1397.83 L1705.65,1399.14 L1708.67,1439.97 L1751.55,1436.06 L1779.31,1433.45 L1777.4,1400.48 L1865.05,1427.21 L1895.29,1426.21 L1892.6,1368.14 L1914.3,1352.87"/>
   <path vector-effect="none" fill-rule="evenodd" d="M2324.52,1040.73 L2293.91,994.67 L2237.09,1001.43 L2222.58,1035.65 L2200.04,1028.95 L2166.01,1029.87 L2190.87,1047.59 L2193.87,1088.42 L2183.2,1119.58 L2179.18,1132.05 L2225.86,1128.24 L2240.76,1139.5 L2238.99,1166.13 L2261.62,1168.13 L2291.39,1126.35 L2284.38,1097.99 L2309.17,1052.99 L2324.52,1040.73"/>
   <path vector-effect="none" fill-rule="evenodd" d="M2496.46,877.805 L2541.92,872.409 L2610.91,887.858 L2601.75,840.633 L2617.74,795.464 L2637.03,775.45 L2625.91,764.257 L2564.8,731.709 L2532.37,779.698 L2527.83,818.816 L2505.88,846.621 L2496.46,877.805"/>
   <path vector-effect="none" fill-rule="evenodd" d="M2740.09,724.133 L2707.43,718.792 L2687.86,688.615 L2639.1,668.849 L2605.83,694.864 L2562.85,701.874 L2564.8,731.709 L2625.91,764.257 L2637.03,775.45 L2671.96,793.379 L2677.8,817.017 L2707.78,830.146 L2695.35,886.361 L2791.96,907.064 L2808.39,904.248 L2818.89,882.498 L2823.04,863.759 L2784.09,858.294 L2773.64,812.61 L2797.2,767.59 L2789.06,732.929 L2740.09,724.133"/>
   <path vector-effect="none" fill-rule="evenodd" d="M2261.62,1168.13 L2238.99,1166.13 L2240.76,1139.5 L2225.86,1128.24 L2179.18,1132.05 L2183.2,1119.58 L2170.73,1113.07 L2141.8,1176.82 L2118.06,1166.96 L2111.5,1180.95 L2084.04,1167.88 L2106.83,1227.91 L2111.42,1251.52 L2124.13,1245.49 L2156.35,1272.76 L2202.49,1297.16 L2213.97,1289.54 L2204.67,1248.59 L2251.22,1185.18 L2261.62,1168.13"/>
   <path vector-effect="none" fill-rule="evenodd" d="M2461.05,1080.99 L2444.95,1066.57 L2469.18,1051.35 L2468.49,1021.54 L2520.13,956.674 L2505.32,940.706 L2494.53,912.269 L2496.37,882.508 L2457.62,931.945 L2415.1,981.311 L2379.3,1008.85 L2408.83,1045.49 L2457.21,1084.06 L2461.05,1080.99"/>
   <path vector-effect="none" fill-rule="evenodd" d="M1760.83,1546.01 L1763.96,1580.57 L1849.72,1572.77 L1847.59,1552.34 L1875.46,1543.46 L1865.05,1427.21 L1777.4,1400.48 L1779.31,1433.45 L1751.55,1436.06 L1760.83,1546.01"/>
   <path vector-effect="none" fill-rule="evenodd" d="M3006.85,614.874 L2966.35,623.487 L2946.29,618.388 L2931.48,602.414 L2830.03,570.629 L2775.77,574.275 L2769.32,581.99 L2750.12,661.598 L2734.64,680.115 L2746.75,705.443 L2740.09,724.133 L2789.06,732.929 L2820.54,733.544 L2865.03,714.027 L2923.98,727.729 L2965.85,712.869 L3018.9,770.372 L3014.85,784.406 L3070.2,788.636 L3119.79,766.092 L3056.36,724.062 L3022.97,692.038 L3007.12,665.065 L3000.15,635.13 L3006.85,614.874"/>
   <path vector-effect="none" fill-rule="evenodd" d="M2047.84,1416.55 L2055.42,1415.12 L2053.94,1360.21 L2045.1,1361.61 L2042.48,1300.4 L1922.93,1362.44 L1914.3,1352.87 L1892.6,1368.14 L1895.29,1426.21 L2023.89,1417.66 L2047.84,1416.55"/>
   <path vector-effect="none" fill-rule="evenodd" d="M2379.3,1008.85 L2363.05,1002.27 L2324.52,1040.73 L2309.17,1052.99 L2284.38,1097.99 L2291.39,1126.35 L2261.62,1168.13 L2251.22,1185.18 L2289.86,1206.3 L2313.16,1173.82 L2309.74,1154.93 L2338.88,1146.08 L2369.1,1146.66 L2389.27,1145.48 L2411.73,1091.02 L2460.35,1117.05 L2479.39,1109.58 L2457.21,1084.06 L2408.83,1045.49 L2379.3,1008.85"/>
   <path vector-effect="none" fill-rule="evenodd" d="M2695.35,886.361 L2707.78,830.146 L2677.8,817.017 L2671.96,793.379 L2637.03,775.45 L2617.74,795.464 L2601.75,840.633 L2610.91,887.858 L2541.92,872.409 L2496.46,877.805 L2496.37,882.508 L2494.53,912.269 L2505.32,940.706 L2520.13,956.674 L2579.64,1006.44 L2571.42,1040.78 L2613.74,1066.7 L2618.11,1101.28 L2652.05,1105.08 L2673.36,1110.2 L2687.73,1083.81 L2702.68,1027.65 L2715.05,974.568 L2686.17,905.002 L2695.35,886.361"/>
   <path vector-effect="none" fill-rule="evenodd" d="M2076.92,1675.86 L2092.29,1662.03 L2100.68,1618.28 L2110.89,1610.64 L2081.46,1569.3 L2079.33,1548.88 L2054.1,1551.53 L2047.84,1416.55 L2023.89,1417.66 L1987.58,1473.43 L1970.08,1466.83 L1977.79,1525 L1966.44,1526.35 L1939.44,1555.64 L1919.3,1555.26 L1895.62,1542.27 L1875.46,1543.46 L1847.59,1552.34 L1849.72,1572.77 L1763.96,1580.57 L1760.83,1546.01 L1687.68,1552.49 L1651.44,1537.7 L1618.75,1535.52 L1614.77,1546.43 L1612.02,1558.92 L1633.33,1564.02 L1726.61,1625.35 L1741.45,1639.74 L1748.09,1688.48 L1786.87,1701.75 L1795.89,1690.94 L1832.44,1688.49 L1831.42,1675.93 L2076.92,1675.86"/>
   <path vector-effect="none" fill-rule="evenodd" d="M2023.89,1417.66 L1895.29,1426.21 L1865.05,1427.21 L1875.46,1543.46 L1895.62,1542.27 L1919.3,1555.26 L1939.44,1555.64 L1966.44,1526.35 L1977.79,1525 L1970.08,1466.83 L1987.58,1473.43 L2023.89,1417.66"/>
   <path vector-effect="none" fill-rule="evenodd" d="M2571.42,1040.78 L2579.64,1006.44 L2520.13,956.674 L2468.49,1021.54 L2469.18,1051.35 L2444.95,1066.57 L2461.05,1080.99 L2476.55,1060.91 L2498.88,1078.59 L2529.26,1071.33 L2540.92,1054.31 L2571.42,1040.78"/>
   <path vector-effect="none" fill-rule="evenodd" d="M3014.85,784.406 L3018.9,770.372 L2965.85,712.869 L2923.98,727.729 L2865.03,714.027 L2820.54,733.544 L2789.06,732.929 L2797.2,767.59 L2773.64,812.61 L2784.09,858.294 L2823.04,863.759 L2818.89,882.498 L2844.02,886.126 L2864.6,864.573 L2877.38,855.414 L2897.25,869.918 L2944.22,852.021 L2947.17,830.123 L2972.91,802.4 L3014.85,784.406"/>
   <path vector-effect="none" fill-rule="evenodd" d="M2295.35,1314.62 L2295.56,1303.64 L2333.38,1301.23 L2354.19,1267.13 L2339.26,1257.43 L2306.38,1264.65 L2338.88,1146.08 L2309.74,1154.93 L2313.16,1173.82 L2289.86,1206.3 L2251.22,1185.18 L2204.67,1248.59 L2213.97,1289.54 L2202.49,1297.16 L2156.35,1272.76 L2124.13,1245.49 L2111.42,1251.52 L2075.2,1235.15 L2047.83,1217.38 L2033.63,1235.93 L2041.28,1297.24 L2042.48,1300.4 L2045.1,1361.61 L2053.94,1360.21 L2055.42,1415.12 L2047.84,1416.55 L2054.1,1551.53 L2079.33,1548.88 L2081.46,1569.3 L2110.89,1610.64 L2100.68,1618.28 L2092.29,1662.03 L2076.92,1675.86 L2220.54,1670.75 L2220.99,1647.23 L2257.73,1635.39 L2287.37,1665.75 L2303.97,1653.53 L2324.19,1649.21 L2335.88,1630.61 L2351.91,1648.17 L2365.01,1621.76 L2386.77,1603.36 L2487.44,1541 L2478.28,1493.78 L2437.16,1471.03 L2365.84,1447.7 L2309.52,1429.37 L2272.33,1398.86 L2235.76,1335.44 L2266.42,1312.5 L2295.35,1314.62"/>
   <path vector-effect="none" fill-rule="evenodd" d="M2618.11,1101.28 L2613.74,1066.7 L2571.42,1040.78 L2540.92,1054.31 L2529.26,1071.33 L2498.88,1078.59 L2476.55,1060.91 L2461.05,1080.99 L2457.21,1084.06 L2479.39,1109.58 L2460.35,1117.05 L2411.73,1091.02 L2389.27,1145.48 L2476.36,1136.18 L2508.92,1146.22 L2547.71,1159.51 L2576.01,1128.69 L2603.93,1118.26 L2618.11,1101.28"/>
   <path vector-effect="none" fill-rule="evenodd" d="M2424.42,1282.59 L2467.66,1195.6 L2369.1,1146.66 L2338.88,1146.08 L2306.38,1264.65 L2339.26,1257.43 L2354.19,1267.13 L2333.38,1301.23 L2295.56,1303.64 L2295.35,1314.62 L2355.74,1317.34 L2375.02,1297.33 L2392.67,1296.1 L2413.99,1301.21 L2424.42,1282.59"/>
   <path vector-effect="none" fill-rule="evenodd" d="M2835.58,1060.04 L2841.53,1013.11 L2852.13,986.654 L2877.96,954.226 L2900.72,949.968 L2915.22,917.319 L2963.72,885.338 L2951.78,852.169 L2897.16,874.621 L2864.6,864.573 L2844.02,886.126 L2818.89,882.498 L2808.39,904.248 L2791.96,907.064 L2695.35,886.361 L2686.17,905.002 L2715.05,974.568 L2702.68,1027.65 L2721.6,1026.45 L2765.09,1057.09 L2785.48,1044.95 L2835.58,1060.04"/>
   <path vector-effect="none" fill-rule="evenodd" d="M2508.92,1146.22 L2476.36,1136.18 L2389.27,1145.48 L2369.1,1146.66 L2467.66,1195.6 L2424.42,1282.59 L2478.04,1310.29 L2508.22,1312.44 L2525.65,1257.89 L2514.77,1234.15 L2488.58,1221.1 L2510.8,1179.19 L2489.52,1172.5 L2508.92,1146.22"/>
   <path vector-effect="none" fill-rule="evenodd" d="M2389.9,1440.32 L2384.31,1338.28 L2392.67,1296.1 L2375.02,1297.33 L2355.74,1317.34 L2295.35,1314.62 L2266.42,1312.5 L2235.76,1335.44 L2272.33,1398.86 L2309.52,1429.37 L2365.84,1447.7 L2389.9,1440.32"/>
   <path vector-effect="none" fill-rule="evenodd" d="M2665.91,1169.64 L2634.58,1161.2 L2652.05,1105.08 L2618.11,1101.28 L2603.93,1118.26 L2576.01,1128.69 L2547.71,1159.51 L2508.92,1146.22 L2489.52,1172.5 L2510.8,1179.19 L2488.58,1221.1 L2514.77,1234.15 L2525.65,1257.89 L2534.83,1239.24 L2596.54,1174.57 L2626.57,1184.56 L2677.31,1231.03 L2705.22,1220.59 L2659.12,1194.61 L2665.91,1169.64"/>
   <path vector-effect="none" fill-rule="evenodd" d="M2835.58,1060.04 L2785.48,1044.95 L2765.09,1057.09 L2721.6,1026.45 L2702.68,1027.65 L2687.73,1083.81 L2673.36,1110.2 L2652.05,1105.08 L2634.58,1161.2 L2665.91,1169.64 L2674.04,1140.01 L2704.08,1150 L2736.39,1172.59 L2744.71,1197.84 L2796.02,1214.52 L2796.7,1244.34 L2816.81,1246.3 L2845.96,1237.46 L2836.41,1210.61 L2843.75,1157.43 L2834.87,1096.1 L2835.58,1060.04"/>
   <path vector-effect="none" fill-rule="evenodd" d="M2816.81,1246.3 L2796.7,1244.34 L2796.02,1214.52 L2744.71,1197.84 L2736.39,1172.59 L2704.08,1150 L2674.04,1140.01 L2665.91,1169.64 L2659.12,1194.61 L2705.22,1220.59 L2677.31,1231.03 L2626.57,1184.56 L2596.54,1174.57 L2534.83,1239.24 L2525.65,1257.89 L2508.22,1312.44 L2535.98,1309.84 L2531.16,1298.77 L2552.09,1258.4 L2585.25,1237.08 L2626.98,1228.48 L2653.39,1230.56 L2670.16,1274.8 L2701.95,1324.04 L2743.18,1276.22 L2795.01,1266.26 L2816.81,1246.3"/>
   <path vector-effect="none" fill-rule="evenodd" d="M2508.22,1312.44 L2478.04,1310.29 L2424.42,1282.59 L2413.99,1301.21 L2392.67,1296.1 L2384.31,1338.28 L2389.9,1440.32 L2466.87,1432.4 L2458.72,1397.74 L2505.48,1389.23 L2500.1,1342.08 L2541.58,1346.02 L2554.24,1407.42 L2579.69,1393.8 L2576.37,1370.21 L2635.9,1352.55 L2653.19,1370.14 L2688.26,1380.23 L2684.88,1359.77 L2695.35,1339.59 L2674.86,1292.14 L2646.98,1301.01 L2636.67,1313.36 L2574.58,1332.54 L2535.98,1309.84 L2508.22,1312.44"/>
   <path vector-effect="none" fill-rule="evenodd" d="M2554.24,1407.42 L2541.58,1346.02 L2500.1,1342.08 L2505.48,1389.23 L2458.72,1397.74 L2466.87,1432.4 L2389.9,1440.32 L2365.84,1447.7 L2437.16,1471.03 L2478.28,1493.78 L2510.67,1511.65 L2520.36,1466.36 L2510.03,1414.41 L2554.24,1407.42"/>
   <path vector-effect="none" fill-rule="evenodd" d="M2688.26,1380.23 L2653.19,1370.14 L2635.9,1352.55 L2576.37,1370.21 L2579.69,1393.8 L2554.24,1407.42 L2510.03,1414.41 L2520.36,1466.36 L2510.67,1511.65 L2478.28,1493.78 L2487.44,1541 L2386.77,1603.36 L2365.01,1621.76 L2351.91,1648.17 L2335.88,1630.61 L2324.19,1649.21 L2303.97,1653.53 L2337.47,1679.26 L2347.62,1740.62 L2345.28,1797.03 L2373.23,1783.45 L2421.51,1760.86 L2415.64,1738.79 L2459.72,1738.07 L2506.49,1727.99 L2520.61,1714.15 L2502.35,1616.57 L2581.98,1600.86 L2707.1,1576.63 L2731.32,1561.42 L2709.34,1526.49 L2697.45,1490.19 L2669.94,1480.24 L2656.46,1461.16 L2659.41,1439.26 L2638.25,1426.3 L2649.11,1385.74 L2688.26,1380.23"/>
   <path vector-effect="none" fill-rule="evenodd" d="M2618.56,1727.03 L2581.98,1600.86 L2502.35,1616.57 L2520.61,1714.15 L2506.49,1727.99 L2459.72,1738.07 L2460.64,1755.34 L2482.07,1754.18 L2523.38,1765.96 L2545.11,1749.13 L2577.89,1746.63 L2601,1723.55 L2618.56,1727.03"/>
   <path vector-effect="none" fill-rule="evenodd" d="M2618.56,1727.03 L2621.68,1695.72 L2656.46,1655.63 L2721.93,1655.33 L2759.17,1618.42 L2754.84,1582.27 L2731.32,1561.42 L2707.1,1576.63 L2581.98,1600.86 L2618.56,1727.03"/>
   <path vector-effect="none" fill-rule="evenodd" d="M2551.64,1866.88 L2542.3,1829.06 L2505.63,1837.76 L2513.6,1815.95 L2504.23,1779.7 L2463.51,1802.44 L2442.99,1756.57 L2460.64,1755.34 L2459.72,1738.07 L2415.64,1738.79 L2421.51,1760.86 L2373.23,1783.45 L2391.07,1968.85 L2457.68,1908.97 L2491.77,1903.36 L2512.77,1924.15 L2498.72,1934.86 L2504.61,1955.36 L2534.48,1973.19 L2543.8,1946.71 L2569.09,1940.92 L2551.64,1866.88"/>
   <path vector-effect="none" fill-rule="evenodd" d="M2620.89,1736.48 L2592.9,1751.62 L2523.38,1765.96 L2482.07,1754.18 L2460.64,1755.34 L2442.99,1756.57 L2463.51,1802.44 L2504.23,1779.7 L2513.6,1815.95 L2505.63,1837.76 L2542.3,1829.06 L2551.64,1866.88 L2647.76,1843.65 L2640.95,1805.88 L2620.89,1736.48"/>
   <path vector-effect="none" fill-rule="evenodd" d="M2678.4,1950.89 L2671.34,1925.66 L2677.02,1892.84 L2689.78,1883.67 L2676.46,1856.75 L2689.29,1844.46 L2698.95,1800.73 L2756.5,1754.81 L2769.49,1734.68 L2786.98,1741.29 L2802.76,1707.1 L2768.01,1681.32 L2717.27,1700.72 L2710.58,1720.98 L2721.14,1760.39 L2703.55,1758.48 L2698,1720.73 L2655.76,1691.68 L2645.05,1724.41 L2620.89,1736.48 L2640.95,1805.88 L2647.76,1843.65 L2655.6,1893.99 L2678.4,1950.89"/>
   <path vector-effect="none" fill-rule="evenodd" d="M2534.48,1973.19 L2504.61,1955.36 L2498.72,1934.86 L2512.77,1924.15 L2491.77,1903.36 L2457.68,1908.97 L2391.07,1968.85 L2404.14,2074.17 L2408.75,2096.22 L2431.81,2140.57 L2462.55,2112.94 L2486.01,2071.05 L2511.18,2071.54 L2541.07,2087.8 L2577.74,2079.1 L2586.85,2063.59 L2541.05,2023.5 L2534.48,1973.19"/>
   <path vector-effect="none" fill-rule="evenodd" d="M2678.4,1950.89 L2655.6,1893.99 L2647.76,1843.65 L2551.64,1866.88 L2569.09,1940.92 L2543.8,1946.71 L2534.48,1973.19 L2541.05,2023.5 L2586.85,2063.59 L2608.63,2043.63 L2590,2030.72 L2582.82,2011.76 L2605.92,1988.69 L2628.75,1979.72 L2632.92,1959.41 L2678.4,1950.89"/>
  </g>
  <g font-family="Ubuntu" fill="none" stroke-linejoin="bevel" stroke-width="1" font-size="41.6667" stroke="#000000" stroke-linecap="square" font-style="normal" font-weight="400" transform="matrix(0.999751,0,0,0.999751,69.9371,90.5069)" stroke-opacity="1"/>
  <g font-family="Ubuntu" fill="none" stroke-linejoin="bevel" stroke-width="1" font-size="41.6667" stroke="#000000" stroke-linecap="square" font-style="normal" font-weight="400" transform="matrix(11.8081,0,0,11.8081,69.9371,90.5069)" stroke-opacity="1"/>
  <g font-family="Ubuntu" fill="none" stroke-linejoin="bevel" stroke-width="1" font-size="41.6667" stroke="#000000" stroke-linecap="square" font-style="normal" font-weight="400" transform="matrix(11.8081,0,0,11.8081,69.9371,90.5069)" stroke-opacity="1"/>
  <g font-family="Ubuntu" fill="none" stroke-linejoin="bevel" stroke-width="1" font-size="41.6667" stroke="#000000" stroke-linecap="square" font-style="normal" font-weight="400" transform="matrix(11.8081,0,0,11.8081,69.9371,90.5069)" stroke-opacity="1"/>
  <g font-family="Ubuntu" fill="none" stroke-linejoin="bevel" stroke-width="1" font-size="41.6667" stroke="#000000" stroke-linecap="square" font-style="normal" font-weight="400" transform="matrix(1,0,0,1,0,0)" stroke-opacity="1"/>
  <g font-family="Ubuntu" fill="none" stroke-linejoin="bevel" stroke-width="1" font-size="41.6667" stroke="#000000" stroke-linecap="square" font-style="normal" font-weight="400" transform="matrix(11.8081,0,0,11.8081,69.9371,90.5069)" stroke-opacity="1"/>
  <g font-family="Ubuntu" fill="none" stroke-linejoin="bevel" stroke-width="1" font-size="41.6667" stroke="#000000" stroke-linecap="square" font-style="normal" font-weight="400" transform="matrix(11.8081,0,0,11.8081,69.9371,90.5069)" stroke-opacity="1"/>
  <g font-family="Ubuntu" fill="none" stroke-linejoin="bevel" stroke-width="1" font-size="41.6667" stroke="#000000" stroke-linecap="square" font-style="normal" font-weight="400" transform="matrix(11.8081,0,0,11.8081,69.9371,90.5069)" stroke-opacity="1"/>
  <g font-family="Ubuntu" fill="none" stroke-linejoin="bevel" stroke-width="1" font-size="41.6667" stroke="#000000" stroke-linecap="square" font-style="normal" font-weight="400" transform="matrix(11.8081,0,0,11.8081,69.9371,90.5069)" stroke-opacity="1"/>
  <g font-family="Ubuntu" fill="none" stroke-linejoin="bevel" stroke-width="1" font-size="41.6667" stroke="#000000" stroke-linecap="square" font-style="normal" font-weight="400" transform="matrix(1,0,0,1,0,0)" stroke-opacity="1"/>
 </g>
 <metadata>
  <rdf:RDF xmlns:rdf="http://www.w3.org/1999/02/22-rdf-syntax-ns#" xmlns:rdfs="http://www.w3.org/2000/01/rdf-schema#" xmlns:dc="http://purl.org/dc/elements/1.1/">
   <rdf:Description dc:title="" dc:date="2021-10-31T18:06:57" dc:format="image/svg+xml" dc:identifier="" dc:description="">
    <dc:creator>
     <rdf:Bag>
      <rdf:li></rdf:li>
     </rdf:Bag>
    </dc:creator>
    <dc:publisher>
     <rdf:Bag>
      <rdf:li>QGIS 3.20.3-Odense</rdf:li>
     </rdf:Bag>
    </dc:publisher>
    <dc:subject>
     <rdf:Bag/>
    </dc:subject>
   </rdf:Description>
   <cc:Work rdf:about="">
    <dc:format>image/svg+xml</dc:format>
    <dc:title></dc:title>
    <dc:date>2021-10-31T18:06:57</dc:date>
    <dc:identifier></dc:identifier>
    <dc:description></dc:description>
    <dc:creator>
     <cc:Agent>
      <dc:title></dc:title>
     </cc:Agent>
    </dc:creator>
    <dc:publisher>
     <cc:Agent>
      <dc:title>QGIS 3.20.3-Odense</dc:title>
     </cc:Agent>
    </dc:publisher>
   </cc:Work>
  </rdf:RDF>
 </metadata>
</svg>
