<?xml version="1.0" encoding="UTF-8" standalone="no"?>
<!-- Created with Inkscape (http://www.inkscape.org/) -->

<svg
   width="210mm"
   height="297mm"
   viewBox="0 0 210 297"
   version="1.1"
   id="svg633"
   inkscape:version="1.1 (1:1.1+202106031931+af4d65493e)"
   sodipodi:docname="another-triangular-tiling.svg"
   xmlns:inkscape="http://www.inkscape.org/namespaces/inkscape"
   xmlns:sodipodi="http://sodipodi.sourceforge.net/DTD/sodipodi-0.dtd"
   xmlns="http://www.w3.org/2000/svg"
   xmlns:svg="http://www.w3.org/2000/svg">
  <sodipodi:namedview
     id="namedview635"
     pagecolor="#ffffff"
     bordercolor="#666666"
     borderopacity="1.0"
     inkscape:pageshadow="2"
     inkscape:pageopacity="0.0"
     inkscape:pagecheckerboard="0"
     inkscape:document-units="mm"
     showgrid="false"
     inkscape:snap-midpoints="true"
     inkscape:snap-smooth-nodes="true"
     inkscape:snap-intersection-paths="true"
     inkscape:object-paths="true"
     inkscape:snap-object-midpoints="true"
     inkscape:zoom="0.89112791"
     inkscape:cx="747.36746"
     inkscape:cy="350.67917"
     inkscape:window-width="1920"
     inkscape:window-height="1021"
     inkscape:window-x="0"
     inkscape:window-y="27"
     inkscape:window-maximized="1"
     inkscape:current-layer="layer1" />
  <defs
     id="defs630" />
  <g
     inkscape:label="Layer 1"
     inkscape:groupmode="layer"
     id="layer1">
    <path
       id="path659"
       style="opacity:1;fill:#cccccc;stroke:#ffffff;stroke-width:0;stroke-miterlimit:4;stroke-dasharray:none"
       inkscape:transform-center-y="-1.7823437"
       d="m 97.268277,115.30978 -6.174301,10.69392 h 12.348604 12.34808 l 6.1743,-10.69392 h -12.34808 z" />
    <path
       id="path1645"
       style="opacity:1;fill:#ff8080;stroke:#ffffff;stroke-width:0;stroke-miterlimit:4;stroke-dasharray:none"
       inkscape:transform-center-y="0.89117415"
       d="m 109.61674,115.30971 12.34836,1.4e-4 -6.1743,-10.69421 -6.17404,-10.693753 -12.348361,-1.4e-4 6.174041,10.693753 z"
       inkscape:transform-center-x="1.5435549" />
    <path
       id="path1665"
       style="opacity:1;fill:#ffd42a;stroke:#ffffff;stroke-width:0;stroke-miterlimit:4;stroke-dasharray:none"
       inkscape:transform-center-y="0.89117415"
       d="m 103.44245,104.61566 -6.174059,-10.694069 -6.174307,10.694209 -6.174039,10.69375 6.174058,10.69407 6.174038,-10.69376 z"
       inkscape:transform-center-x="-1.5435571" />
    <path
       id="path1685"
       style="opacity:1;fill:#cccccc;stroke:#ffffff;stroke-width:0;stroke-miterlimit:4;stroke-dasharray:none"
       inkscape:transform-center-y="-1.7823437"
       d="m 121.96485,136.69768 -6.1743,10.69392 h 12.3486 12.34809 l 6.1743,-10.69392 h -12.34808 z" />
    <path
       id="path1687"
       style="opacity:1;fill:#ff8080;stroke:#ffffff;stroke-width:0;stroke-miterlimit:4;stroke-dasharray:none"
       inkscape:transform-center-y="0.89117415"
       d="m 134.31332,136.69761 12.34836,1.4e-4 -6.17431,-10.69421 -6.17404,-10.69375 -12.34835,-1.4e-4 6.17404,10.69375 z"
       inkscape:transform-center-x="1.5435549" />
    <path
       id="path1689"
       style="opacity:1;fill:#ffd42a;stroke:#ffffff;stroke-width:0;stroke-miterlimit:4;stroke-dasharray:none"
       inkscape:transform-center-y="0.89117415"
       d="m 128.13903,126.00356 -6.17406,-10.69406 -6.17431,10.6942 -6.17404,10.69375 6.17406,10.69407 6.17404,-10.69376 z"
       inkscape:transform-center-x="-1.5435571" />
    <path
       id="path1691"
       style="opacity:1;fill:#cccccc;stroke:#ffffff;stroke-width:0;stroke-miterlimit:4;stroke-dasharray:none"
       inkscape:transform-center-y="-1.7823437"
       d="M 91.094101,147.39159 84.9198,158.08551 h 12.348602 12.348078 l 6.1743,-10.69392 H 103.4427 Z" />
    <path
       id="path1693"
       style="opacity:1;fill:#ff8080;stroke:#ffffff;stroke-width:0;stroke-miterlimit:4;stroke-dasharray:none"
       inkscape:transform-center-y="0.89117415"
       d="m 103.44256,147.39152 12.34836,1.4e-4 -6.1743,-10.69421 -6.17404,-10.69375 -12.348357,-1.4e-4 6.174041,10.69375 z"
       inkscape:transform-center-x="1.5435549" />
    <path
       id="path1695"
       style="opacity:1;fill:#ffd42a;stroke:#ffffff;stroke-width:0;stroke-miterlimit:4;stroke-dasharray:none"
       inkscape:transform-center-y="0.89117415"
       d="m 97.268273,136.69747 -6.174058,-10.69406 -6.174307,10.6942 -6.174039,10.69375 6.174058,10.69407 6.174038,-10.69376 z"
       inkscape:transform-center-x="-1.5435571" />
    <path
       id="path1697"
       style="opacity:1;fill:#cccccc;stroke:#ffffff;stroke-width:0;stroke-miterlimit:4;stroke-dasharray:none"
       inkscape:transform-center-y="-1.7823437"
       d="m 41.700952,104.61579 -6.174301,10.69392 h 12.348604 12.34808 l 6.1743,-10.69392 h -12.34808 z" />
    <path
       id="path1699"
       style="opacity:1;fill:#ff8080;stroke:#ffffff;stroke-width:0;stroke-miterlimit:4;stroke-dasharray:none"
       inkscape:transform-center-y="0.89117415"
       d="m 54.049415,104.61572 12.34836,1.4e-4 -6.1743,-10.69421 -6.17404,-10.693753 -12.348361,-1.4e-4 6.174041,10.693753 z"
       inkscape:transform-center-x="1.5435549" />
    <path
       id="path1701"
       style="opacity:1;fill:#ffd42a;stroke:#ffffff;stroke-width:0;stroke-miterlimit:4;stroke-dasharray:none"
       inkscape:transform-center-y="0.89117415"
       d="m 47.875125,93.92167 -6.174059,-10.694069 -6.174307,10.694209 -6.174039,10.69375 6.174058,10.69407 6.174038,-10.69376 z"
       inkscape:transform-center-x="-1.5435571" />
    <path
       id="path1703"
       style="opacity:1;fill:#cccccc;stroke:#ffffff;stroke-width:0;stroke-miterlimit:4;stroke-dasharray:none"
       inkscape:transform-center-y="-1.7823437"
       d="m 66.397525,126.00369 -6.1743,10.69392 h 12.3486 12.34809 l 6.1743,-10.69392 h -12.34808 z" />
    <path
       id="path1705"
       style="opacity:1;fill:#ff8080;stroke:#ffffff;stroke-width:0;stroke-miterlimit:4;stroke-dasharray:none"
       inkscape:transform-center-y="0.89117415"
       d="m 78.745995,126.00362 12.34836,1.4e-4 -6.17431,-10.69421 -6.17404,-10.69375 -12.34835,-1.4e-4 6.17404,10.69375 z"
       inkscape:transform-center-x="1.5435549" />
    <path
       id="path1707"
       style="opacity:1;fill:#ffd42a;stroke:#ffffff;stroke-width:0;stroke-miterlimit:4;stroke-dasharray:none"
       inkscape:transform-center-y="0.89117415"
       d="m 72.571705,115.30957 -6.17406,-10.69406 -6.17431,10.6942 -6.17404,10.69375 6.17406,10.69407 6.17404,-10.69376 z"
       inkscape:transform-center-x="-1.5435571" />
    <path
       id="path1709"
       style="opacity:1;fill:#cccccc;stroke:#ffffff;stroke-width:0;stroke-miterlimit:4;stroke-dasharray:none"
       inkscape:transform-center-y="-1.7823437"
       d="m 35.526776,136.6976 -6.174301,10.69392 h 12.348602 12.348078 l 6.1743,-10.69392 h -12.34808 z" />
    <path
       id="path1711"
       style="opacity:1;fill:#ff8080;stroke:#ffffff;stroke-width:0;stroke-miterlimit:4;stroke-dasharray:none"
       inkscape:transform-center-y="0.89117415"
       d="m 47.875235,136.69753 12.34836,1.4e-4 -6.1743,-10.69421 -6.17404,-10.69375 -12.348357,-1.4e-4 6.174041,10.69375 z"
       inkscape:transform-center-x="1.5435549" />
    <path
       id="path1713"
       style="opacity:1;fill:#ffd42a;stroke:#ffffff;stroke-width:0;stroke-miterlimit:4;stroke-dasharray:none"
       inkscape:transform-center-y="0.89117415"
       d="m 41.700948,126.00348 -6.174058,-10.69406 -6.174307,10.6942 -6.174039,10.69375 6.174058,10.69407 6.174038,-10.69376 z"
       inkscape:transform-center-x="-1.5435571" />
    <path
       id="path1715"
       style="opacity:1;fill:#cccccc;stroke:#ffffff;stroke-width:0;stroke-miterlimit:4;stroke-dasharray:none"
       inkscape:transform-center-y="-1.7823437"
       d="m 60.223342,158.0855 -6.174301,10.69392 h 12.348604 12.34808 l 6.1743,-10.69392 h -12.34808 z" />
    <path
       id="path1717"
       style="opacity:1;fill:#ff8080;stroke:#ffffff;stroke-width:0;stroke-miterlimit:4;stroke-dasharray:none"
       inkscape:transform-center-y="0.89117415"
       d="m 72.571805,158.08543 12.34836,1.4e-4 -6.1743,-10.69421 -6.17404,-10.69375 -12.348361,-1.4e-4 6.174041,10.69375 z"
       inkscape:transform-center-x="1.5435549" />
    <path
       id="path1719"
       style="opacity:1;fill:#ffd42a;stroke:#ffffff;stroke-width:0;stroke-miterlimit:4;stroke-dasharray:none"
       inkscape:transform-center-y="0.89117415"
       d="m 66.397515,147.39138 -6.174059,-10.69407 -6.174307,10.69421 -6.174039,10.69375 6.174058,10.69407 6.174038,-10.69376 z"
       inkscape:transform-center-x="-1.5435571" />
    <path
       id="path1721"
       style="opacity:1;fill:#cccccc;stroke:#ffffff;stroke-width:0;stroke-miterlimit:4;stroke-dasharray:none"
       inkscape:transform-center-y="-1.7823437"
       d="m 84.919915,179.4734 -6.1743,10.69392 h 12.3486 12.348095 l 6.1743,-10.69392 H 97.268525 Z" />
    <path
       id="path1723"
       style="opacity:1;fill:#ff8080;stroke:#ffffff;stroke-width:0;stroke-miterlimit:4;stroke-dasharray:none"
       inkscape:transform-center-y="0.89117415"
       d="m 97.268385,179.47333 12.348365,1.4e-4 -6.17431,-10.69421 -6.174045,-10.69375 -12.34835,-1.4e-4 6.17404,10.69375 z"
       inkscape:transform-center-x="1.5435549" />
    <path
       id="path1725"
       style="opacity:1;fill:#ffd42a;stroke:#ffffff;stroke-width:0;stroke-miterlimit:4;stroke-dasharray:none"
       inkscape:transform-center-y="0.89117415"
       d="m 91.094095,168.77928 -6.17406,-10.69406 -6.17431,10.6942 -6.17404,10.69375 6.17406,10.69407 6.17404,-10.69376 z"
       inkscape:transform-center-x="-1.5435571" />
    <path
       id="path1727"
       style="opacity:1;fill:#cccccc;stroke:#ffffff;stroke-width:0;stroke-miterlimit:4;stroke-dasharray:none"
       inkscape:transform-center-y="-1.7823437"
       d="m 54.049166,190.16731 -6.174301,10.69392 h 12.348602 12.348078 l 6.1743,-10.69392 h -12.34808 z" />
    <path
       id="path1729"
       style="opacity:1;fill:#ff8080;stroke:#ffffff;stroke-width:0;stroke-miterlimit:4;stroke-dasharray:none"
       inkscape:transform-center-y="0.89117415"
       d="m 66.397625,190.16724 12.34836,1.4e-4 -6.1743,-10.69421 -6.17404,-10.69375 -12.348357,-1.4e-4 6.174041,10.69375 z"
       inkscape:transform-center-x="1.5435549" />
    <path
       id="path1731"
       style="opacity:1;fill:#ffd42a;stroke:#ffffff;stroke-width:0;stroke-miterlimit:4;stroke-dasharray:none"
       inkscape:transform-center-y="0.89117415"
       d="m 60.223338,179.47319 -6.174058,-10.69406 -6.174307,10.6942 -6.174039,10.69375 6.174058,10.69407 6.174038,-10.69376 z"
       inkscape:transform-center-x="-1.5435571" />
    <path
       id="path1733"
       style="opacity:1;fill:#cccccc;stroke:#ffffff;stroke-width:0;stroke-miterlimit:4;stroke-dasharray:none"
       inkscape:transform-center-y="-1.7823437"
       d="m 115.79067,168.77949 -6.1743,10.69392 h 12.34861 12.34808 l 6.1743,-10.69392 h -12.34808 z" />
    <path
       id="path1735"
       style="opacity:1;fill:#ff8080;stroke:#ffffff;stroke-width:0;stroke-miterlimit:4;stroke-dasharray:none"
       inkscape:transform-center-y="0.89117415"
       d="m 128.13914,168.77942 12.34836,1.4e-4 -6.1743,-10.69421 -6.17404,-10.69375 -12.34837,-1.4e-4 6.17405,10.69375 z"
       inkscape:transform-center-x="1.5435549" />
    <path
       id="path1737"
       style="opacity:1;fill:#ffd42a;stroke:#ffffff;stroke-width:0;stroke-miterlimit:4;stroke-dasharray:none"
       inkscape:transform-center-y="0.89117415"
       d="m 121.96485,158.08537 -6.17406,-10.69407 -6.17431,10.69421 -6.17404,10.69375 6.17406,10.69407 6.17404,-10.69376 z"
       inkscape:transform-center-x="-1.5435571" />
    <path
       id="path1739"
       style="opacity:1;fill:#cccccc;stroke:#ffffff;stroke-width:0;stroke-miterlimit:4;stroke-dasharray:none"
       inkscape:transform-center-y="-1.7823437"
       d="m 140.48725,190.16739 -6.1743,10.69392 h 12.3486 12.34809 l 6.1743,-10.69392 h -12.34808 z" />
    <path
       id="path1741"
       style="opacity:1;fill:#ff8080;stroke:#ffffff;stroke-width:0;stroke-miterlimit:4;stroke-dasharray:none"
       inkscape:transform-center-y="0.89117415"
       d="m 152.83572,190.16732 12.34836,1.4e-4 -6.17431,-10.69421 -6.17404,-10.69375 -12.34835,-1.4e-4 6.17404,10.69375 z"
       inkscape:transform-center-x="1.5435549" />
    <path
       id="path1743"
       style="opacity:1;fill:#ffd42a;stroke:#ffffff;stroke-width:0;stroke-miterlimit:4;stroke-dasharray:none"
       inkscape:transform-center-y="0.89117415"
       d="m 146.66143,179.47327 -6.17406,-10.69406 -6.17431,10.6942 -6.17404,10.69375 6.17406,10.69407 6.17404,-10.69376 z"
       inkscape:transform-center-x="-1.5435571" />
    <path
       id="path1745"
       style="opacity:1;fill:#cccccc;stroke:#ffffff;stroke-width:0;stroke-miterlimit:4;stroke-dasharray:none"
       inkscape:transform-center-y="-1.7823437"
       d="m 109.6165,200.8613 -6.1743,10.69392 h 12.3486 12.34808 l 6.1743,-10.69392 H 121.9651 Z" />
    <path
       id="path1747"
       style="opacity:1;fill:#ff8080;stroke:#ffffff;stroke-width:0;stroke-miterlimit:4;stroke-dasharray:none"
       inkscape:transform-center-y="0.89117415"
       d="m 121.96496,200.86123 12.34836,1.4e-4 -6.1743,-10.69421 -6.17404,-10.69375 -12.34836,-1.4e-4 6.17404,10.69375 z"
       inkscape:transform-center-x="1.5435549" />
    <path
       id="path1749"
       style="opacity:1;fill:#ffd42a;stroke:#ffffff;stroke-width:0;stroke-miterlimit:4;stroke-dasharray:none"
       inkscape:transform-center-y="0.89117415"
       d="m 115.79067,190.16718 -6.17406,-10.69406 -6.17431,10.6942 -6.174035,10.69375 6.174055,10.69407 6.17404,-10.69376 z"
       inkscape:transform-center-x="-1.5435571" />
    <path
       id="path1751"
       style="opacity:1;fill:#cccccc;stroke:#ffffff;stroke-width:0;stroke-miterlimit:4;stroke-dasharray:none"
       inkscape:transform-center-y="-1.7823437"
       d="m 152.8356,126.00377 -6.1743,10.69392 h 12.34861 12.34808 l 6.1743,-10.69392 h -12.34808 z" />
    <path
       id="path1753"
       style="opacity:1;fill:#ff8080;stroke:#ffffff;stroke-width:0;stroke-miterlimit:4;stroke-dasharray:none"
       inkscape:transform-center-y="0.89117415"
       d="m 165.18407,126.0037 12.34836,1.4e-4 -6.1743,-10.69421 -6.17404,-10.69375 -12.34837,-1.4e-4 6.17405,10.69375 z"
       inkscape:transform-center-x="1.5435549" />
    <path
       id="path1755"
       style="opacity:1;fill:#ffd42a;stroke:#ffffff;stroke-width:0;stroke-miterlimit:4;stroke-dasharray:none"
       inkscape:transform-center-y="0.89117415"
       d="m 159.00978,115.30965 -6.17406,-10.69407 -6.17431,10.69421 -6.17404,10.69375 6.17406,10.69407 6.17404,-10.69376 z"
       inkscape:transform-center-x="-1.5435571" />
    <path
       id="path1757"
       style="opacity:1;fill:#cccccc;stroke:#ffffff;stroke-width:0;stroke-miterlimit:4;stroke-dasharray:none"
       inkscape:transform-center-y="-1.7823437"
       d="m 177.53218,147.39167 -6.1743,10.69392 h 12.3486 12.34809 l 6.1743,-10.69392 h -12.34808 z" />
    <path
       id="path1759"
       style="opacity:1;fill:#ff8080;stroke:#ffffff;stroke-width:0;stroke-miterlimit:4;stroke-dasharray:none"
       inkscape:transform-center-y="0.89117415"
       d="m 189.88065,147.3916 12.34836,1.4e-4 -6.17431,-10.69421 -6.17404,-10.69375 -12.34835,-1.4e-4 6.17404,10.69375 z"
       inkscape:transform-center-x="1.5435549" />
    <path
       id="path1761"
       style="opacity:1;fill:#ffd42a;stroke:#ffffff;stroke-width:0;stroke-miterlimit:4;stroke-dasharray:none"
       inkscape:transform-center-y="0.89117415"
       d="m 183.70636,136.69755 -6.17406,-10.69406 -6.17431,10.6942 -6.17404,10.69375 6.17406,10.69407 6.17404,-10.69376 z"
       inkscape:transform-center-x="-1.5435571" />
    <path
       id="path1763"
       style="opacity:1;fill:#cccccc;stroke:#ffffff;stroke-width:0;stroke-miterlimit:4;stroke-dasharray:none"
       inkscape:transform-center-y="-1.7823437"
       d="m 146.66143,158.08558 -6.1743,10.69392 h 12.3486 12.34808 l 6.1743,-10.69392 h -12.34808 z" />
    <path
       id="path1765"
       style="opacity:1;fill:#ff8080;stroke:#ffffff;stroke-width:0;stroke-miterlimit:4;stroke-dasharray:none"
       inkscape:transform-center-y="0.89117415"
       d="m 159.00989,158.08551 12.34836,1.4e-4 -6.1743,-10.69421 -6.17404,-10.69375 -12.34836,-1.4e-4 6.17404,10.69375 z"
       inkscape:transform-center-x="1.5435549" />
    <path
       id="path1767"
       style="opacity:1;fill:#ffd42a;stroke:#ffffff;stroke-width:0;stroke-miterlimit:4;stroke-dasharray:none"
       inkscape:transform-center-y="0.89117415"
       d="m 152.8356,147.39146 -6.17406,-10.69406 -6.17431,10.6942 -6.17404,10.69375 6.17406,10.69407 6.17404,-10.69376 z"
       inkscape:transform-center-x="-1.5435571" />
    <path
       id="path1769"
       style="opacity:1;fill:#cccccc;stroke:#ffffff;stroke-width:0;stroke-miterlimit:4;stroke-dasharray:none"
       inkscape:transform-center-y="-1.7823437"
       d="m 134.31321,72.53406 -6.1743,10.69392 h 12.34861 12.34808 l 6.1743,-10.69392 h -12.34808 z" />
    <path
       id="path1771"
       style="opacity:1;fill:#ff8080;stroke:#ffffff;stroke-width:0;stroke-miterlimit:4;stroke-dasharray:none"
       inkscape:transform-center-y="0.89117415"
       d="m 146.66168,72.53399 12.34836,1.4e-4 -6.1743,-10.69421 -6.17404,-10.69375 -12.34837,-1.4e-4 6.17405,10.69375 z"
       inkscape:transform-center-x="1.5435549" />
    <path
       id="path1773"
       style="opacity:1;fill:#ffd42a;stroke:#ffffff;stroke-width:0;stroke-miterlimit:4;stroke-dasharray:none"
       inkscape:transform-center-y="0.89117415"
       d="m 140.48739,61.83994 -6.17406,-10.69407 -6.17431,10.69421 -6.17404,10.69375 6.17406,10.69407 6.17404,-10.69376 z"
       inkscape:transform-center-x="-1.5435571" />
    <path
       id="path1775"
       style="opacity:1;fill:#cccccc;stroke:#ffffff;stroke-width:0;stroke-miterlimit:4;stroke-dasharray:none"
       inkscape:transform-center-y="-1.7823437"
       d="m 159.00979,93.92196 -6.1743,10.69392 h 12.3486 12.34809 l 6.1743,-10.69392 H 171.3584 Z" />
    <path
       id="path1777"
       style="opacity:1;fill:#ff8080;stroke:#ffffff;stroke-width:0;stroke-miterlimit:4;stroke-dasharray:none"
       inkscape:transform-center-y="0.89117415"
       d="m 171.35826,93.92189 12.34836,1.4e-4 -6.17431,-10.69421 -6.17404,-10.69375 -12.34835,-1.4e-4 6.17404,10.69375 z"
       inkscape:transform-center-x="1.5435549" />
    <path
       id="path1779"
       style="opacity:1;fill:#ffd42a;stroke:#ffffff;stroke-width:0;stroke-miterlimit:4;stroke-dasharray:none"
       inkscape:transform-center-y="0.89117415"
       d="m 165.18397,83.22784 -6.17406,-10.69406 -6.17431,10.6942 -6.17404,10.69375 6.17406,10.69407 6.17404,-10.69376 z"
       inkscape:transform-center-x="-1.5435571" />
    <path
       id="path1781"
       style="opacity:1;fill:#cccccc;stroke:#ffffff;stroke-width:0;stroke-miterlimit:4;stroke-dasharray:none"
       inkscape:transform-center-y="-1.7823437"
       d="m 128.13904,104.61587 -6.1743,10.69392 h 12.3486 12.34808 l 6.1743,-10.69392 h -12.34808 z" />
    <path
       id="path1783"
       style="opacity:1;fill:#ff8080;stroke:#ffffff;stroke-width:0;stroke-miterlimit:4;stroke-dasharray:none"
       inkscape:transform-center-y="0.89117415"
       d="m 140.4875,104.6158 12.34836,1.4e-4 -6.1743,-10.69421 -6.17404,-10.69375 -12.34836,-1.4e-4 6.17404,10.69375 z"
       inkscape:transform-center-x="1.5435549" />
    <path
       id="path1785"
       style="opacity:1;fill:#ffd42a;stroke:#ffffff;stroke-width:0;stroke-miterlimit:4;stroke-dasharray:none"
       inkscape:transform-center-y="0.89117415"
       d="m 134.31321,93.92175 -6.17406,-10.69406 -6.17431,10.6942 -6.17404,10.69375 6.17406,10.69407 6.17404,-10.69376 z"
       inkscape:transform-center-x="-1.5435571" />
    <path
       id="path1787"
       style="opacity:1;fill:#cccccc;stroke:#ffffff;stroke-width:0;stroke-miterlimit:4;stroke-dasharray:none"
       inkscape:transform-center-y="-1.7823437"
       d="m 78.745885,61.84007 -6.1743,10.69392 h 12.34861 12.34808 L 103.44258,61.84007 H 91.094495 Z" />
    <path
       id="path1789"
       style="opacity:1;fill:#ff8080;stroke:#ffffff;stroke-width:0;stroke-miterlimit:4;stroke-dasharray:none"
       inkscape:transform-center-y="0.89117415"
       d="m 91.094355,61.84 12.348355,1.4e-4 -6.174295,-10.69421 -6.17404,-10.69375 -12.34837,-1.4e-4 6.17405,10.69375 z"
       inkscape:transform-center-x="1.5435549" />
    <path
       id="path1791"
       style="opacity:1;fill:#ffd42a;stroke:#ffffff;stroke-width:0;stroke-miterlimit:4;stroke-dasharray:none"
       inkscape:transform-center-y="0.89117415"
       d="m 84.920065,51.14595 -6.17406,-10.69407 -6.17431,10.69421 -6.17404,10.69375 6.17406,10.69407 6.17404,-10.69376 z"
       inkscape:transform-center-x="-1.5435571" />
    <path
       id="path1793"
       style="opacity:1;fill:#cccccc;stroke:#ffffff;stroke-width:0;stroke-miterlimit:4;stroke-dasharray:none"
       inkscape:transform-center-y="-1.7823437"
       d="m 103.44247,83.22797 -6.174305,10.69392 h 12.348605 12.34809 l 6.1743,-10.69392 h -12.34809 z" />
    <path
       id="path1795"
       style="opacity:1;fill:#ff8080;stroke:#ffffff;stroke-width:0;stroke-miterlimit:4;stroke-dasharray:none"
       inkscape:transform-center-y="0.89117415"
       d="m 115.79093,83.2279 12.34836,1.4e-4 -6.17431,-10.69421 -6.17404,-10.69375 -12.34835,-1.4e-4 6.17404,10.69375 z"
       inkscape:transform-center-x="1.5435549" />
    <path
       id="path1797"
       style="opacity:1;fill:#ffd42a;stroke:#ffffff;stroke-width:0;stroke-miterlimit:4;stroke-dasharray:none"
       inkscape:transform-center-y="0.89117415"
       d="m 109.61664,72.53385 -6.17406,-10.69406 -6.174305,10.6942 -6.17404,10.69375 6.17406,10.69407 6.174035,-10.69376 z"
       inkscape:transform-center-x="-1.5435571" />
    <path
       id="path1799"
       style="opacity:1;fill:#cccccc;stroke:#ffffff;stroke-width:0;stroke-miterlimit:4;stroke-dasharray:none"
       inkscape:transform-center-y="-1.7823437"
       d="m 72.571715,93.92188 -6.1743,10.69392 h 12.3486 12.34808 l 6.1743,-10.69392 h -12.34808 z" />
    <path
       id="path1801"
       style="opacity:1;fill:#ff8080;stroke:#ffffff;stroke-width:0;stroke-miterlimit:4;stroke-dasharray:none"
       inkscape:transform-center-y="0.89117415"
       d="m 84.920175,93.92181 12.34836,1.4e-4 -6.1743,-10.69421 -6.17404,-10.69375 -12.34836,-1.4e-4 6.17404,10.69375 z"
       inkscape:transform-center-x="1.5435549" />
    <path
       id="path1803"
       style="opacity:1;fill:#ffd42a;stroke:#ffffff;stroke-width:0;stroke-miterlimit:4;stroke-dasharray:none"
       inkscape:transform-center-y="0.89117415"
       d="m 78.745885,83.22776 -6.17406,-10.69406 -6.17431,10.6942 -6.17404,10.69375 6.17406,10.69407 6.17404,-10.69376 z"
       inkscape:transform-center-x="-1.5435571" />
    <path
       style="fill:none;stroke:#000000;stroke-width:0.264583px;stroke-linecap:butt;stroke-linejoin:miter;stroke-opacity:1"
       d="m 91.094215,126.00341 12.348235,-21.38775 24.69659,2.1e-4 12.34833,21.38767"
       id="path1838" />
    <path
       style="fill:none;stroke:#000000;stroke-width:0.264583px;stroke-linecap:butt;stroke-linejoin:miter;stroke-opacity:1"
       d="m 140.48737,126.00354 -12.34821,21.38806 -24.6966,-8e-5 -12.348345,-21.38811"
       id="path1840" />
  </g>
</svg>
