<?xml version="1.0" encoding="UTF-8" standalone="no"?>
<svg
   width="210mm"
   height="297mm"
   viewBox="0 0 210 297"
   version="1.1"
   id="svg1497"
   inkscape:version="1.1.2 (1:1.1+202202050852+0a00cf5339)"
   sodipodi:docname="cairo-2.svg"
   xmlns:inkscape="http://www.inkscape.org/namespaces/inkscape"
   xmlns:sodipodi="http://sodipodi.sourceforge.net/DTD/sodipodi-0.dtd"
   xmlns="http://www.w3.org/2000/svg"
   xmlns:svg="http://www.w3.org/2000/svg"
   xmlns:rdf="http://www.w3.org/1999/02/22-rdf-syntax-ns#"
   xmlns:cc="http://creativecommons.org/ns#"
   xmlns:dc="http://purl.org/dc/elements/1.1/">
  <defs
     id="defs1491" />
  <sodipodi:namedview
     id="base"
     pagecolor="#ffffff"
     bordercolor="#666666"
     borderopacity="1.0"
     inkscape:pageopacity="0.0"
     inkscape:pageshadow="2"
     inkscape:zoom="2.5577034"
     inkscape:cx="387.65246"
     inkscape:cy="324.90085"
     inkscape:document-units="mm"
     inkscape:current-layer="layer1"
     inkscape:document-rotation="0"
     showgrid="false"
     inkscape:window-width="1920"
     inkscape:window-height="1043"
     inkscape:window-x="1920"
     inkscape:window-y="429"
     inkscape:window-maximized="1"
     inkscape:pagecheckerboard="0"
     inkscape:snap-bbox="true"
     inkscape:snap-midpoints="true"
     inkscape:snap-others="true" />
  <metadata
     id="metadata1494">
    <rdf:RDF>
      <cc:Work
         rdf:about="">
        <dc:format>image/svg+xml</dc:format>
        <dc:type
           rdf:resource="http://purl.org/dc/dcmitype/StillImage" />
        <dc:title />
      </cc:Work>
    </rdf:RDF>
  </metadata>
  <g
     inkscape:label="Layer 1"
     inkscape:groupmode="layer"
     id="layer1">
    <path
       id="path1799"
       style="fill:none;stroke:#0000ff;stroke-width:0.2;stroke-linecap:butt;stroke-linejoin:miter;stroke-miterlimit:4;stroke-dasharray:none;stroke-opacity:1"
       d="m 84.382698,194.39527 -2.527891,9.4341 -2.527887,9.43336 5.055417,5.05542 9.433725,-2.52753 9.434088,-2.52789 2.52753,-9.43372 2.52752,-9.43373 -5.05541,-5.05542 -9.433728,2.52753 z" />
    <path
       id="path2863"
       style="fill:none;stroke:#0000ff;stroke-width:0.2;stroke-linecap:butt;stroke-linejoin:miter;stroke-miterlimit:4;stroke-dasharray:none;stroke-opacity:1"
       d="m 108.30554,170.47244 -2.5279,9.43409 -2.52788,9.43336 5.05541,5.05542 9.43373,-2.52753 9.43409,-2.52789 2.52752,-9.43372 2.52753,-9.43373 -5.05542,-5.05541 -9.43372,2.52752 z" />
    <path
       id="path2865"
       style="fill:none;stroke:#0000ff;stroke-width:0.2;stroke-linecap:butt;stroke-linejoin:miter;stroke-miterlimit:4;stroke-dasharray:none;stroke-opacity:1"
       d="m 132.22837,146.5496 -2.52789,9.43409 -2.52789,9.43337 5.05542,5.05541 9.43373,-2.52752 9.43409,-2.52789 2.52752,-9.43373 2.52752,-9.43372 -5.05541,-5.05542 -9.43373,2.52753 z" />
    <path
       id="path2867"
       style="fill:none;stroke:#0000ff;stroke-width:0.2;stroke-linecap:butt;stroke-linejoin:miter;stroke-miterlimit:4;stroke-dasharray:none;stroke-opacity:1"
       d="m 156.15121,122.62677 -2.5279,9.43409 -2.52788,9.43336 5.05542,5.05542 9.43372,-2.52753 9.43409,-2.52789 2.52753,-9.43372 2.52752,-9.43373 -5.05542,-5.05541 -9.43372,2.52752 z" />
    <path
       id="path2869"
       style="fill:none;stroke:#0000ff;stroke-width:0.2;stroke-linecap:butt;stroke-linejoin:miter;stroke-miterlimit:4;stroke-dasharray:none;stroke-opacity:1"
       d="m 180.07404,98.70393 -2.52789,9.43409 -2.52789,9.43336 5.05542,5.05542 9.43373,-2.52752 9.43409,-2.5279 2.52752,-9.43372 2.52753,-9.433723 -5.05542,-5.055417 -9.43372,2.527525 z" />
    <path
       id="path2871"
       style="fill:none;stroke:#0000ff;stroke-width:0.2;stroke-linecap:butt;stroke-linejoin:miter;stroke-miterlimit:4;stroke-dasharray:none;stroke-opacity:1"
       d="m 108.30517,194.39531 -2.52789,9.43409 -2.52789,9.43337 5.05542,5.05541 9.43372,-2.52753 9.4341,-2.52788 2.52752,-9.43374 2.52752,-9.43372 -5.05541,-5.05541 -9.43373,2.52752 z" />
    <path
       id="path2873"
       style="fill:none;stroke:#0000ff;stroke-width:0.2;stroke-linecap:butt;stroke-linejoin:miter;stroke-miterlimit:4;stroke-dasharray:none;stroke-opacity:1"
       d="m 132.22801,170.47247 -2.52789,9.43409 -2.52789,9.43337 5.05541,5.05541 9.43373,-2.52753 9.43409,-2.52788 2.52752,-9.43373 2.52753,-9.43373 -5.05541,-5.05541 -9.43373,2.52752 z" />
    <path
       id="path2875"
       style="fill:none;stroke:#0000ff;stroke-width:0.2;stroke-linecap:butt;stroke-linejoin:miter;stroke-miterlimit:4;stroke-dasharray:none;stroke-opacity:1"
       d="m 156.15085,146.54964 -2.5279,9.43409 -2.52788,9.43336 5.05541,5.05541 9.43372,-2.52752 9.4341,-2.52789 2.52752,-9.43373 2.52752,-9.43372 -5.05541,-5.05541 -9.43373,2.52752 z" />
    <path
       id="path2877"
       style="fill:none;stroke:#0000ff;stroke-width:0.2;stroke-linecap:butt;stroke-linejoin:miter;stroke-miterlimit:4;stroke-dasharray:none;stroke-opacity:1"
       d="m 180.07368,122.6268 -2.52789,9.43409 -2.52789,9.43337 5.05541,5.05541 9.43373,-2.52753 9.4341,-2.52788 2.52751,-9.43373 2.52753,-9.43373 -5.05541,-5.05541 -9.43373,2.52752 z" />
    <path
       id="path2879"
       style="fill:none;stroke:#0000ff;stroke-width:0.2;stroke-linecap:butt;stroke-linejoin:miter;stroke-miterlimit:4;stroke-dasharray:none;stroke-opacity:1"
       d="m 203.99652,98.703966 -2.52789,9.434094 -2.52789,9.43336 5.05541,5.05541 9.43372,-2.52752 9.4341,-2.52789 2.52752,-9.43373 2.52753,-9.433724 -5.05541,-5.055411 -9.43374,2.527518 z" />
    <path
       id="path2901"
       style="fill:none;stroke:#0000ff;stroke-width:0.2;stroke-linecap:butt;stroke-linejoin:miter;stroke-miterlimit:4;stroke-dasharray:none;stroke-opacity:1"
       d="m 60.459862,170.47244 -2.527892,9.43409 -2.527887,9.43336 5.055418,5.05542 9.433725,-2.52753 9.43409,-2.52789 2.527525,-9.43372 2.527527,-9.43373 -5.055418,-5.05541 -9.433725,2.52752 z" />
    <path
       id="path2903"
       style="fill:none;stroke:#0000ff;stroke-width:0.2;stroke-linecap:butt;stroke-linejoin:miter;stroke-miterlimit:4;stroke-dasharray:none;stroke-opacity:1"
       d="m 84.382698,146.5496 -2.527891,9.43409 -2.527887,9.43337 5.055417,5.05541 9.433725,-2.52752 9.434088,-2.52789 2.52753,-9.43373 2.52752,-9.43372 -5.05541,-5.05542 -9.433728,2.52753 z" />
    <path
       id="path2905"
       style="fill:none;stroke:#0000ff;stroke-width:0.2;stroke-linecap:butt;stroke-linejoin:miter;stroke-miterlimit:4;stroke-dasharray:none;stroke-opacity:1"
       d="m 108.30554,122.62676 -2.5279,9.4341 -2.52788,9.43336 5.05541,5.05542 9.43373,-2.52753 9.43409,-2.52789 2.52752,-9.43372 2.52753,-9.43373 -5.05542,-5.05541 -9.43372,2.52752 z" />
    <path
       id="path2907"
       style="fill:none;stroke:#0000ff;stroke-width:0.2;stroke-linecap:butt;stroke-linejoin:miter;stroke-miterlimit:4;stroke-dasharray:none;stroke-opacity:1"
       d="m 132.22837,98.70393 -2.52789,9.43409 -2.52789,9.43336 5.05542,5.05542 9.43372,-2.52752 9.43409,-2.5279 2.52753,-9.43372 2.52752,-9.433723 -5.05541,-5.055417 -9.43373,2.527525 z" />
    <path
       id="path2909"
       style="fill:none;stroke:#0000ff;stroke-width:0.2;stroke-linecap:butt;stroke-linejoin:miter;stroke-miterlimit:4;stroke-dasharray:none;stroke-opacity:1"
       d="m 156.15121,74.781094 -2.5279,9.434091 -2.52788,9.433363 5.05542,5.055418 9.43372,-2.527525 9.43409,-2.527893 2.52753,-9.433723 2.52752,-9.433724 -5.05542,-5.055418 -9.43372,2.527525 z" />
    <path
       id="path2911"
       style="fill:none;stroke:#0000ff;stroke-width:0.2;stroke-linecap:butt;stroke-linejoin:miter;stroke-miterlimit:4;stroke-dasharray:none;stroke-opacity:1"
       d="m 84.382337,170.47247 -2.527892,9.43409 -2.527887,9.43337 5.055411,5.05541 9.433725,-2.52753 9.434096,-2.52788 2.52752,-9.43373 2.52753,-9.43373 -5.05541,-5.05541 -9.433737,2.52752 z" />
    <path
       id="path2913"
       style="fill:none;stroke:#0000ff;stroke-width:0.2;stroke-linecap:butt;stroke-linejoin:miter;stroke-miterlimit:4;stroke-dasharray:none;stroke-opacity:1"
       d="m 108.30517,146.54964 -2.52789,9.43409 -2.52789,9.43336 5.05542,5.05541 9.43372,-2.52752 9.4341,-2.52789 2.52752,-9.43373 2.52752,-9.43372 -5.05541,-5.05541 -9.43373,2.52751 z" />
    <path
       id="path2915"
       style="fill:none;stroke:#0000ff;stroke-width:0.2;stroke-linecap:butt;stroke-linejoin:miter;stroke-miterlimit:4;stroke-dasharray:none;stroke-opacity:1"
       d="m 132.22801,122.6268 -2.52789,9.43409 -2.52789,9.43337 5.05541,5.05541 9.43372,-2.52753 9.4341,-2.52788 2.52752,-9.43373 2.52753,-9.43373 -5.05541,-5.05541 -9.43374,2.52752 z" />
    <path
       id="path2917"
       style="fill:none;stroke:#0000ff;stroke-width:0.2;stroke-linecap:butt;stroke-linejoin:miter;stroke-miterlimit:4;stroke-dasharray:none;stroke-opacity:1"
       d="m 156.15085,98.703966 -2.5279,9.434094 -2.52788,9.43336 5.05541,5.05541 9.43372,-2.52752 9.4341,-2.52789 2.52752,-9.43373 2.52752,-9.433724 -5.05541,-5.055411 -9.43373,2.527518 z" />
    <path
       id="path2919"
       style="fill:none;stroke:#0000ff;stroke-width:0.2;stroke-linecap:butt;stroke-linejoin:miter;stroke-miterlimit:4;stroke-dasharray:none;stroke-opacity:1"
       d="m 180.07368,74.781129 -2.52789,9.434092 -2.52789,9.433363 5.05541,5.05541 9.43373,-2.527525 9.4341,-2.527885 2.52751,-9.433731 2.52753,-9.433724 -5.05541,-5.05541 -9.43373,2.527518 z" />
    <path
       id="path2921"
       style="fill:none;stroke:#0000ff;stroke-width:0.2;stroke-linecap:butt;stroke-linejoin:miter;stroke-miterlimit:4;stroke-dasharray:none;stroke-opacity:1"
       d="m 36.537027,146.5496 -2.527891,9.4341 -2.527889,9.43336 5.055417,5.05541 9.433725,-2.52752 9.434091,-2.52789 2.527525,-9.43373 2.527526,-9.43372 -5.055417,-5.05542 -9.433727,2.52752 z" />
    <path
       id="path2923"
       style="fill:none;stroke:#0000ff;stroke-width:0.2;stroke-linecap:butt;stroke-linejoin:miter;stroke-miterlimit:4;stroke-dasharray:none;stroke-opacity:1"
       d="m 60.459863,122.62677 -2.52789,9.43409 -2.527889,9.43336 5.055417,5.05542 9.433725,-2.52753 9.43409,-2.52789 2.527525,-9.43372 2.527527,-9.43373 -5.055417,-5.05542 -9.433727,2.52753 z" />
    <path
       id="path2925"
       style="fill:none;stroke:#0000ff;stroke-width:0.2;stroke-linecap:butt;stroke-linejoin:miter;stroke-miterlimit:4;stroke-dasharray:none;stroke-opacity:1"
       d="m 84.3827,98.70393 -2.527891,9.43409 -2.527889,9.43336 5.055417,5.05542 9.433725,-2.52753 9.434088,-2.52789 2.52753,-9.43372 2.52752,-9.433723 -5.05542,-5.055416 -9.433722,2.527522 z" />
    <path
       id="path2927"
       style="fill:none;stroke:#0000ff;stroke-width:0.2;stroke-linecap:butt;stroke-linejoin:miter;stroke-miterlimit:4;stroke-dasharray:none;stroke-opacity:1"
       d="m 108.30553,74.781095 -2.52789,9.434093 -2.52788,9.433361 5.05541,5.055417 9.43373,-2.527525 9.43409,-2.527893 2.52752,-9.433723 2.52753,-9.433724 -5.05542,-5.055417 -9.43373,2.527523 z" />
    <path
       id="path2929"
       style="fill:none;stroke:#0000ff;stroke-width:0.2;stroke-linecap:butt;stroke-linejoin:miter;stroke-miterlimit:4;stroke-dasharray:none;stroke-opacity:1"
       d="m 132.22837,50.858259 -2.52789,9.434092 -2.52789,9.433361 5.05542,5.055417 9.43372,-2.527525 9.43409,-2.527892 2.52753,-9.433724 2.52752,-9.433724 -5.05541,-5.055417 -9.43373,2.527523 z" />
    <path
       id="path2931"
       style="fill:none;stroke:#0000ff;stroke-width:0.2;stroke-linecap:butt;stroke-linejoin:miter;stroke-miterlimit:4;stroke-dasharray:none;stroke-opacity:1"
       d="m 60.459501,146.54964 -2.527892,9.43409 -2.527887,9.43336 5.05541,5.05541 9.433725,-2.52752 9.434098,-2.52789 2.527518,-9.43373 2.527526,-9.43372 -5.05541,-5.05541 -9.433732,2.52751 z" />
    <path
       id="path2933"
       style="fill:none;stroke:#0000ff;stroke-width:0.2;stroke-linecap:butt;stroke-linejoin:miter;stroke-miterlimit:4;stroke-dasharray:none;stroke-opacity:1"
       d="m 84.382337,122.6268 -2.527892,9.43409 -2.527887,9.43337 5.055411,5.05541 9.433725,-2.52753 9.434096,-2.52788 2.52752,-9.43374 2.52753,-9.43372 -5.05541,-5.05541 -9.433737,2.52752 z" />
    <path
       id="path2935"
       style="fill:none;stroke:#0000ff;stroke-width:0.2;stroke-linecap:butt;stroke-linejoin:miter;stroke-miterlimit:4;stroke-dasharray:none;stroke-opacity:1"
       d="m 108.30517,98.703966 -2.52789,9.434094 -2.52789,9.43336 5.05542,5.05541 9.43372,-2.52752 9.4341,-2.52789 2.52751,-9.43373 2.52753,-9.433724 -5.05541,-5.055411 -9.43373,2.527518 z" />
    <path
       id="path2937"
       style="fill:none;stroke:#0000ff;stroke-width:0.2;stroke-linecap:butt;stroke-linejoin:miter;stroke-miterlimit:4;stroke-dasharray:none;stroke-opacity:1"
       d="m 132.22801,74.781129 -2.52789,9.434092 -2.52789,9.433363 5.05541,5.05541 9.43372,-2.527525 9.4341,-2.527885 2.52752,-9.433731 2.52753,-9.433724 -5.05541,-5.05541 -9.43374,2.527518 z" />
    <path
       id="path2939"
       style="fill:none;stroke:#0000ff;stroke-width:0.2;stroke-linecap:butt;stroke-linejoin:miter;stroke-miterlimit:4;stroke-dasharray:none;stroke-opacity:1"
       d="m 156.15085,50.858293 -2.5279,9.434091 -2.52788,9.433363 5.05541,5.05541 9.43372,-2.527524 9.4341,-2.527886 2.52752,-9.433731 2.52752,-9.433723 -5.05541,-5.055411 -9.43373,2.527518 z" />
    <path
       id="path2941"
       style="fill:none;stroke:#0000ff;stroke-width:0.2;stroke-linecap:butt;stroke-linejoin:miter;stroke-miterlimit:4;stroke-dasharray:none;stroke-opacity:1"
       d="m 12.61419,122.62677 -2.52789,9.43409 -2.5278895,9.43336 5.0554145,5.05542 9.433727,-2.52753 9.434093,-2.52789 2.527522,-9.43373 2.527525,-9.43372 -5.055414,-5.05542 -9.433728,2.52753 z" />
    <path
       id="path2943"
       style="fill:none;stroke:#0000ff;stroke-width:0.2;stroke-linecap:butt;stroke-linejoin:miter;stroke-miterlimit:4;stroke-dasharray:none;stroke-opacity:1"
       d="m 36.537027,98.70393 -2.527891,9.43409 -2.527889,9.43336 5.055415,5.05542 9.433726,-2.52753 9.434093,-2.52789 2.527523,-9.43372 2.527525,-9.433728 -5.055415,-5.055415 -9.433727,2.527524 z" />
    <path
       id="path2945"
       style="fill:none;stroke:#0000ff;stroke-width:0.2;stroke-linecap:butt;stroke-linejoin:miter;stroke-miterlimit:4;stroke-dasharray:none;stroke-opacity:1"
       d="m 60.459863,74.781093 -2.52789,9.434092 -2.527889,9.433363 5.055414,5.055414 9.433727,-2.527525 9.434093,-2.527889 2.52752,-9.433724 2.527524,-9.433725 -5.055415,-5.055415 -9.433726,2.527523 z" />
    <path
       id="path2947"
       style="fill:none;stroke:#0000ff;stroke-width:0.2;stroke-linecap:butt;stroke-linejoin:miter;stroke-miterlimit:4;stroke-dasharray:none;stroke-opacity:1"
       d="m 84.382698,50.858259 -2.527891,9.434092 -2.527888,9.433361 5.055415,5.055415 9.433725,-2.527523 9.434091,-2.527891 2.52753,-9.433726 2.52752,-9.433725 -5.05542,-5.055415 -9.433722,2.527523 z" />
    <path
       id="path2949"
       style="fill:none;stroke:#0000ff;stroke-width:0.2;stroke-linecap:butt;stroke-linejoin:miter;stroke-miterlimit:4;stroke-dasharray:none;stroke-opacity:1"
       d="m 108.30553,26.935422 -2.52789,9.434093 -2.52788,9.433361 5.05541,5.055414 9.43373,-2.527523 9.43409,-2.527891 2.52752,-9.433725 2.52753,-9.433726 -5.05542,-5.055414 -9.43373,2.527523 z" />
    <path
       id="path2951"
       style="fill:none;stroke:#0000ff;stroke-width:0.2;stroke-linecap:butt;stroke-linejoin:miter;stroke-miterlimit:4;stroke-dasharray:none;stroke-opacity:1"
       d="m 36.536662,122.6268 -2.527891,9.43409 -2.527889,9.43336 5.055415,5.05542 9.433726,-2.52753 9.434095,-2.52788 2.527521,-9.43373 2.527525,-9.43373 -5.055415,-5.05541 -9.433726,2.52752 z" />
    <path
       id="path2953"
       style="fill:none;stroke:#0000ff;stroke-width:0.2;stroke-linecap:butt;stroke-linejoin:miter;stroke-miterlimit:4;stroke-dasharray:none;stroke-opacity:1"
       d="m 60.459498,98.703962 -2.52789,9.434088 -2.527889,9.43337 5.055415,5.05541 9.433726,-2.52752 9.434095,-2.52789 2.527521,-9.43373 2.527525,-9.433726 -5.055415,-5.055414 -9.433727,2.527524 z" />
    <path
       id="path2955"
       style="fill:none;stroke:#0000ff;stroke-width:0.2;stroke-linecap:butt;stroke-linejoin:miter;stroke-miterlimit:4;stroke-dasharray:none;stroke-opacity:1"
       d="m 84.382334,74.781127 -2.527892,9.434093 -2.527887,9.43336 5.055415,5.055415 9.433725,-2.527523 9.434095,-2.527888 2.52752,-9.433728 2.52752,-9.433725 -5.05541,-5.055415 -9.433726,2.527523 z" />
    <path
       id="path2957"
       style="fill:none;stroke:#0000ff;stroke-width:0.2;stroke-linecap:butt;stroke-linejoin:miter;stroke-miterlimit:4;stroke-dasharray:none;stroke-opacity:1"
       d="m 108.30517,50.85829 -2.52789,9.434093 -2.52789,9.433361 5.05542,5.055415 9.43372,-2.527524 9.4341,-2.527888 2.52752,-9.433728 2.52752,-9.433725 -5.05541,-5.055415 -9.43373,2.527523 z" />
    <path
       id="path2959"
       style="fill:none;stroke:#0000ff;stroke-width:0.2;stroke-linecap:butt;stroke-linejoin:miter;stroke-miterlimit:4;stroke-dasharray:none;stroke-opacity:1"
       d="m 132.22801,26.935454 -2.52789,9.434093 -2.52789,9.433361 5.05541,5.055414 9.43373,-2.527523 9.43409,-2.527889 2.52752,-9.433728 2.52753,-9.433725 -5.05542,-5.055414 -9.43372,2.527522 z" />
    <path
       id="path2961"
       style="fill:none;stroke:#0000ff;stroke-width:0.2;stroke-linecap:butt;stroke-linejoin:miter;stroke-miterlimit:4;stroke-dasharray:none;stroke-opacity:1"
       d="m -11.308647,98.70393 -2.52789,9.43409 -2.527889,9.43336 5.055415,5.05542 9.4337261,-2.52753 9.4340928,-2.52789 2.5275231,-9.43372 2.527525,-9.433728 -5.0554151,-5.055415 -9.4337272,2.527524 z" />
    <path
       id="path2963"
       style="fill:none;stroke:#0000ff;stroke-width:0.2;stroke-linecap:butt;stroke-linejoin:miter;stroke-miterlimit:4;stroke-dasharray:none;stroke-opacity:1"
       d="m 12.61419,74.781093 -2.52789,9.434092 -2.5278895,9.433363 5.0554145,5.055414 9.433727,-2.527525 9.434093,-2.527889 2.527522,-9.433726 2.527525,-9.433727 -5.055414,-5.055414 -9.433728,2.527524 z" />
    <path
       id="path2965"
       style="fill:none;stroke:#0000ff;stroke-width:0.2;stroke-linecap:butt;stroke-linejoin:miter;stroke-miterlimit:4;stroke-dasharray:none;stroke-opacity:1"
       d="m 36.537027,50.858256 -2.527891,9.434093 -2.527889,9.433362 5.055415,5.055415 9.433726,-2.527525 9.434093,-2.52789 2.527521,-9.433724 2.527523,-9.433725 -5.055414,-5.055415 -9.433726,2.527523 z" />
    <path
       id="path2967"
       style="fill:none;stroke:#0000ff;stroke-width:0.2;stroke-linecap:butt;stroke-linejoin:miter;stroke-miterlimit:4;stroke-dasharray:none;stroke-opacity:1"
       d="m 60.459861,26.935422 -2.527891,9.434093 -2.527888,9.433361 5.055415,5.055414 9.433725,-2.527523 9.434094,-2.527891 2.527522,-9.433725 2.527524,-9.433726 -5.055415,-5.055414 -9.433726,2.527523 z" />
    <path
       id="path2969"
       style="fill:none;stroke:#0000ff;stroke-width:0.2;stroke-linecap:butt;stroke-linejoin:miter;stroke-miterlimit:4;stroke-dasharray:none;stroke-opacity:1"
       d="m 84.382698,3.0125853 -2.527891,9.4340927 -2.527888,9.433361 5.055415,5.055415 9.433725,-2.527524 9.434091,-2.52789 2.52753,-9.433726 2.52752,-9.4337251 -5.05542,-5.0554147 -9.433722,2.52752277 z" />
    <path
       id="path2971"
       style="fill:none;stroke:#0000ff;stroke-width:0.2;stroke-linecap:butt;stroke-linejoin:miter;stroke-miterlimit:4;stroke-dasharray:none;stroke-opacity:1"
       d="m 12.613825,98.703962 -2.52789,9.434088 -2.5278894,9.43337 5.0554144,5.05541 9.433727,-2.52752 9.434095,-2.52789 2.52752,-9.43373 2.527525,-9.433726 -5.055414,-5.055414 -9.433727,2.527525 z" />
    <path
       id="path2973"
       style="fill:none;stroke:#0000ff;stroke-width:0.2;stroke-linecap:butt;stroke-linejoin:miter;stroke-miterlimit:4;stroke-dasharray:none;stroke-opacity:1"
       d="m 36.536662,74.781126 -2.527891,9.434092 -2.527889,9.433362 5.055415,5.055415 9.433726,-2.527525 9.434095,-2.527888 2.527521,-9.433728 2.527525,-9.433726 -5.055415,-5.055415 -9.433727,2.527524 z" />
    <path
       id="path2975"
       style="fill:none;stroke:#0000ff;stroke-width:0.2;stroke-linecap:butt;stroke-linejoin:miter;stroke-miterlimit:4;stroke-dasharray:none;stroke-opacity:1"
       d="m 60.459497,50.85829 -2.527891,9.434093 -2.527887,9.43336 5.055415,5.055415 9.433724,-2.527523 9.434096,-2.527888 2.52752,-9.433728 2.527524,-9.433725 -5.055415,-5.055415 -9.433726,2.527523 z" />
    <path
       id="path2977"
       style="fill:none;stroke:#0000ff;stroke-width:0.2;stroke-linecap:butt;stroke-linejoin:miter;stroke-miterlimit:4;stroke-dasharray:none;stroke-opacity:1"
       d="m 84.382334,26.935454 -2.527892,9.434093 -2.527887,9.433361 5.055414,5.055414 9.433726,-2.527523 9.434095,-2.527889 2.52752,-9.433728 2.52752,-9.433725 -5.05541,-5.055414 -9.433726,2.527522 z" />
    <path
       id="path2979"
       style="fill:none;stroke:#0000ff;stroke-width:0.2;stroke-linecap:butt;stroke-linejoin:miter;stroke-miterlimit:4;stroke-dasharray:none;stroke-opacity:1"
       d="m 108.30517,3.0126171 -2.52789,9.4340929 -2.52789,9.433361 5.05542,5.055415 9.43372,-2.527524 9.4341,-2.527888 2.52752,-9.433728 2.52752,-9.4337253 -5.05541,-5.0554147 -9.43373,2.52752279 z" />
    <path
       id="path2981"
       style="fill:none;stroke:#ff0000;stroke-width:0.2;stroke-linecap:butt;stroke-linejoin:miter;stroke-miterlimit:4;stroke-dasharray:none;stroke-opacity:1"
       d="m 91.287105,206.35839 2.527524,9.43372 2.527888,9.43336 9.433003,2.52753 -7.8e-4,0.002 9.43372,2.52752 5.05542,-5.05541 -2.52752,-9.43373 -2.5279,-9.43409 -9.43263,-2.52716 4.3e-4,-0.002 -9.433729,-2.52752 z" />
    <path
       id="path2983"
       style="fill:none;stroke:#ff0000;stroke-width:0.2;stroke-linecap:butt;stroke-linejoin:miter;stroke-miterlimit:4;stroke-dasharray:none;stroke-opacity:1"
       d="m 67.364269,182.43555 2.527523,9.43372 2.527889,9.43336 9.432999,2.52753 -7.77e-4,0.002 9.433725,2.52753 5.055414,-5.05542 -2.527523,-9.43372 -2.527891,-9.4341 -9.432632,-2.52715 4.24e-4,-0.002 -9.433726,-2.52753 z" />
    <path
       id="path2985"
       style="fill:none;stroke:#ff0000;stroke-width:0.2;stroke-linecap:butt;stroke-linejoin:miter;stroke-miterlimit:4;stroke-dasharray:none;stroke-opacity:1"
       d="m 43.441432,158.51271 2.527524,9.43373 2.527888,9.43336 9.433,2.52753 -7.78e-4,0.002 9.433725,2.52752 5.055415,-5.05541 -2.527524,-9.43373 -2.52789,-9.43409 -9.432633,-2.52716 4.24e-4,-0.002 -9.433726,-2.52752 z" />
    <path
       id="path2987"
       style="fill:none;stroke:#ff0000;stroke-width:0.2;stroke-linecap:butt;stroke-linejoin:miter;stroke-miterlimit:4;stroke-dasharray:none;stroke-opacity:1"
       d="m 19.518596,134.58988 2.527525,9.43372 2.527889,9.43336 9.432996,2.52753 -7.78e-4,0.002 9.433726,2.52752 5.055415,-5.05541 -2.527525,-9.43373 -2.52789,-9.43409 -9.432631,-2.52716 4.24e-4,-0.002 -9.433727,-2.52752 z" />
    <path
       id="path2989"
       style="fill:none;stroke:#ff0000;stroke-width:0.2;stroke-linecap:butt;stroke-linejoin:miter;stroke-miterlimit:4;stroke-dasharray:none;stroke-opacity:1"
       d="m -4.404241,110.66704 2.5275249,9.43373 2.52788977,9.43336 9.43299533,2.52752 -7.78e-4,0.002 9.433727,2.52753 5.055414,-5.05542 -2.527524,-9.43372 -2.52789,-9.4341 -9.432631,-2.52715 4.24e-4,-0.002 -9.43372744,-2.52753 z" />
    <path
       id="path3007"
       style="fill:none;stroke:#ff0000;stroke-width:0.2;stroke-linecap:butt;stroke-linejoin:miter;stroke-miterlimit:4;stroke-dasharray:none;stroke-opacity:1"
       d="m 91.287845,182.43587 2.527524,9.43373 2.527895,9.43336 9.432996,2.52752 -7.8e-4,0.002 9.43372,2.52752 5.05542,-5.05542 -2.52752,-9.43372 -2.5279,-9.43409 -9.43263,-2.52716 4.3e-4,-0.002 -9.43373,-2.52752 z" />
    <path
       id="path3009"
       style="fill:none;stroke:#ff0000;stroke-width:0.2;stroke-linecap:butt;stroke-linejoin:miter;stroke-miterlimit:4;stroke-dasharray:none;stroke-opacity:1"
       d="m 67.365008,158.51303 2.527524,9.43373 2.527895,9.43337 9.432993,2.52752 -7.78e-4,0.002 9.433725,2.52752 5.055415,-5.05541 -2.527524,-9.43373 -2.52789,-9.43409 -9.432633,-2.52716 4.25e-4,-0.002 -9.433726,-2.52752 z" />
    <path
       id="path3011"
       style="fill:none;stroke:#ff0000;stroke-width:0.2;stroke-linecap:butt;stroke-linejoin:miter;stroke-miterlimit:4;stroke-dasharray:none;stroke-opacity:1"
       d="m 43.442174,134.5902 2.527525,9.43373 2.52789,9.43336 9.432994,2.52752 -7.77e-4,0.002 9.433725,2.52753 5.055414,-5.05542 -2.527523,-9.43372 -2.527889,-9.4341 -9.432631,-2.52715 4.24e-4,-0.002 -9.433727,-2.52753 z" />
    <path
       id="path3013"
       style="fill:none;stroke:#ff0000;stroke-width:0.2;stroke-linecap:butt;stroke-linejoin:miter;stroke-miterlimit:4;stroke-dasharray:none;stroke-opacity:1"
       d="m 19.519337,110.66736 2.527525,9.43373 2.52789,9.43336 9.432995,2.52752 -7.77e-4,0.002 9.433726,2.52752 5.055415,-5.05541 -2.527525,-9.43373 -2.52789,-9.43409 -9.432631,-2.52716 4.24e-4,-0.002 -9.433727,-2.52752 z" />
    <path
       id="path3015"
       style="fill:none;stroke:#ff0000;stroke-width:0.2;stroke-linecap:butt;stroke-linejoin:miter;stroke-miterlimit:4;stroke-dasharray:none;stroke-opacity:1"
       d="m -4.4034993,86.744526 2.5275249,9.433726 2.52788982,9.433358 9.43299558,2.52753 -7.78e-4,0.002 9.433727,2.52752 5.055414,-5.05541 -2.527525,-9.433727 -2.527889,-9.434092 -9.432632,-2.527158 4.25e-4,-0.0018 L 0.65192532,81.6891 Z" />
    <path
       id="path3017"
       style="fill:none;stroke:#ff0000;stroke-width:0.2;stroke-linecap:butt;stroke-linejoin:miter;stroke-miterlimit:4;stroke-dasharray:none;stroke-opacity:1"
       d="m 115.20994,182.43555 2.52753,9.43372 2.52788,9.43336 9.433,2.52753 -7.7e-4,0.002 9.43372,2.52753 5.05542,-5.05542 -2.52753,-9.43372 -2.52789,-9.4341 -9.43263,-2.52715 4.2e-4,-0.002 -9.43372,-2.52753 z" />
    <path
       id="path3019"
       style="fill:none;stroke:#ff0000;stroke-width:0.2;stroke-linecap:butt;stroke-linejoin:miter;stroke-miterlimit:4;stroke-dasharray:none;stroke-opacity:1"
       d="m 91.287105,158.51271 2.527524,9.43373 2.527888,9.43336 9.433003,2.52753 -7.8e-4,0.002 9.43372,2.52752 5.05542,-5.05541 -2.52752,-9.43373 -2.5279,-9.43409 -9.43263,-2.52716 4.3e-4,-0.002 -9.433729,-2.52752 z" />
    <path
       id="path3021"
       style="fill:none;stroke:#ff0000;stroke-width:0.2;stroke-linecap:butt;stroke-linejoin:miter;stroke-miterlimit:4;stroke-dasharray:none;stroke-opacity:1"
       d="m 67.364269,134.58988 2.527523,9.43372 2.527889,9.43336 9.432999,2.52753 -7.77e-4,0.002 9.433725,2.52752 5.055414,-5.05541 -2.527523,-9.43373 -2.527891,-9.43409 -9.432632,-2.52716 4.24e-4,-0.002 -9.433727,-2.52752 z" />
    <path
       id="path3023"
       style="fill:none;stroke:#ff0000;stroke-width:0.2;stroke-linecap:butt;stroke-linejoin:miter;stroke-miterlimit:4;stroke-dasharray:none;stroke-opacity:1"
       d="m 43.441432,110.66704 2.527525,9.43373 2.52789,9.43336 9.432995,2.52752 -7.78e-4,0.002 9.433727,2.52753 5.055415,-5.05542 -2.527525,-9.43372 -2.52789,-9.4341 -9.432631,-2.52715 4.24e-4,-0.002 -9.433727,-2.52753 z" />
    <path
       id="path3025"
       style="fill:none;stroke:#ff0000;stroke-width:0.2;stroke-linecap:butt;stroke-linejoin:miter;stroke-miterlimit:4;stroke-dasharray:none;stroke-opacity:1"
       d="m 19.518596,86.744203 2.527525,9.433726 2.527889,9.433361 9.432996,2.52752 -7.78e-4,0.002 9.433726,2.52752 5.055415,-5.05541 -2.527525,-9.43373 -2.52789,-9.434093 -9.432631,-2.527158 4.24e-4,-0.0018 -9.433727,-2.527524 z" />
    <path
       id="path3027"
       style="fill:none;stroke:#ff0000;stroke-width:0.2;stroke-linecap:butt;stroke-linejoin:miter;stroke-miterlimit:4;stroke-dasharray:none;stroke-opacity:1"
       d="m 115.21068,158.51303 2.52753,9.43373 2.52789,9.43337 9.43299,2.52752 -7.7e-4,0.002 9.43372,2.52752 5.05542,-5.05541 -2.52753,-9.43373 -2.52789,-9.43409 -9.43263,-2.52716 4.2e-4,-0.002 -9.43372,-2.52752 z" />
    <path
       id="path3029"
       style="fill:none;stroke:#ff0000;stroke-width:0.2;stroke-linecap:butt;stroke-linejoin:miter;stroke-miterlimit:4;stroke-dasharray:none;stroke-opacity:1"
       d="m 91.287845,134.5902 2.527524,9.43372 2.527895,9.43337 9.432996,2.52752 -7.8e-4,0.002 9.43372,2.52753 5.05542,-5.05542 -2.52752,-9.43372 -2.5279,-9.4341 -9.43263,-2.52716 4.3e-4,-0.002 -9.43373,-2.52752 z" />
    <path
       id="path3031"
       style="fill:none;stroke:#ff0000;stroke-width:0.2;stroke-linecap:butt;stroke-linejoin:miter;stroke-miterlimit:4;stroke-dasharray:none;stroke-opacity:1"
       d="m 67.365011,110.66736 2.527525,9.43373 2.527889,9.43336 9.432995,2.52752 -7.78e-4,0.002 9.433725,2.52752 5.055415,-5.05542 -2.527524,-9.43372 -2.527889,-9.43409 -9.432631,-2.52716 4.24e-4,-0.002 -9.433727,-2.52752 z" />
    <path
       id="path3033"
       style="fill:none;stroke:#ff0000;stroke-width:0.2;stroke-linecap:butt;stroke-linejoin:miter;stroke-miterlimit:4;stroke-dasharray:none;stroke-opacity:1"
       d="m 43.442174,86.744526 2.527525,9.433726 2.52789,9.433358 9.432995,2.52753 -7.78e-4,0.002 9.433727,2.52752 5.055414,-5.05541 -2.527524,-9.433727 -2.52789,-9.434092 -9.432631,-2.527158 4.24e-4,-0.0018 -9.433727,-2.527524 z" />
    <path
       id="path3035"
       style="fill:none;stroke:#ff0000;stroke-width:0.2;stroke-linecap:butt;stroke-linejoin:miter;stroke-miterlimit:4;stroke-dasharray:none;stroke-opacity:1"
       d="m 19.519337,62.821689 2.527525,9.433727 2.52789,9.433361 9.432995,2.527524 -7.77e-4,0.0022 9.433726,2.527525 5.055415,-5.055415 -2.527525,-9.433726 -2.52789,-9.434093 -9.432631,-2.527158 4.24e-4,-0.0018 -9.433727,-2.527525 z" />
    <path
       id="path3037"
       style="fill:none;stroke:#ff0000;stroke-width:0.2;stroke-linecap:butt;stroke-linejoin:miter;stroke-miterlimit:4;stroke-dasharray:none;stroke-opacity:1"
       d="m 139.13278,158.51271 2.52752,9.43373 2.52789,9.43336 9.433,2.52753 -7.8e-4,0.002 9.43373,2.52752 5.05541,-5.05541 -2.52753,-9.43372 -2.52788,-9.4341 -9.43264,-2.52716 7.1e-4,-0.002 -9.43372,-2.52753 z" />
    <path
       id="path3039"
       style="fill:none;stroke:#ff0000;stroke-width:0.2;stroke-linecap:butt;stroke-linejoin:miter;stroke-miterlimit:4;stroke-dasharray:none;stroke-opacity:1"
       d="m 115.20994,134.58988 2.52753,9.43372 2.52788,9.43336 9.433,2.52753 -7.7e-4,0.002 9.43372,2.52752 5.05541,-5.05541 -2.52752,-9.43372 -2.52789,-9.4341 -9.43263,-2.52716 7e-4,-0.002 -9.43372,-2.52752 z" />
    <path
       id="path3041"
       style="fill:none;stroke:#ff0000;stroke-width:0.2;stroke-linecap:butt;stroke-linejoin:miter;stroke-miterlimit:4;stroke-dasharray:none;stroke-opacity:1"
       d="m 91.287105,110.66704 2.527524,9.43372 2.527888,9.43336 9.433003,2.52753 -7.8e-4,0.002 9.43372,2.52753 5.05542,-5.05541 -2.52753,-9.43373 -2.52789,-9.4341 -9.43263,-2.52715 7.1e-4,-0.002 -9.433727,-2.52753 z" />
    <path
       id="path3043"
       style="fill:none;stroke:#ff0000;stroke-width:0.2;stroke-linecap:butt;stroke-linejoin:miter;stroke-miterlimit:4;stroke-dasharray:none;stroke-opacity:1"
       d="m 67.364269,86.744203 2.527525,9.433726 2.52789,9.433361 9.432995,2.52752 -7.78e-4,0.002 9.433727,2.52752 5.055411,-5.05541 -2.527527,-9.433725 -2.527884,-9.434098 -9.432634,-2.527155 7.07e-4,-0.0021 -9.433725,-2.527526 z" />
    <path
       id="path3045"
       style="fill:none;stroke:#ff0000;stroke-width:0.2;stroke-linecap:butt;stroke-linejoin:miter;stroke-miterlimit:4;stroke-dasharray:none;stroke-opacity:1"
       d="m 43.441432,62.821366 2.527525,9.433727 2.52789,9.433361 9.432995,2.527524 -7.78e-4,0.0022 9.433727,2.527525 5.055411,-5.055411 -2.527526,-9.433725 -2.527885,-9.434098 -9.432633,-2.527156 7.07e-4,-0.0021 -9.433725,-2.527527 z" />
    <path
       id="path3047"
       style="fill:none;stroke:#ff0000;stroke-width:0.2;stroke-linecap:butt;stroke-linejoin:miter;stroke-miterlimit:4;stroke-dasharray:none;stroke-opacity:1"
       d="m 139.13351,134.5902 2.52753,9.43372 2.52789,9.43337 9.433,2.52752 -7.1e-4,0.002 9.43372,2.52753 5.05542,-5.05542 -2.52752,-9.43372 -2.5279,-9.43409 -9.43262,-2.52717 7e-4,-0.002 -9.43373,-2.52752 z" />
    <path
       id="path3049"
       style="fill:none;stroke:#ff0000;stroke-width:0.2;stroke-linecap:butt;stroke-linejoin:miter;stroke-miterlimit:4;stroke-dasharray:none;stroke-opacity:1"
       d="m 115.21068,110.66736 2.52752,9.43373 2.5279,9.43337 9.43299,2.52752 -7.1e-4,0.002 9.43373,2.52752 5.05542,-5.05542 -2.52753,-9.43372 -2.52789,-9.43409 -9.43263,-2.52717 7.1e-4,-0.002 -9.43373,-2.52751 z" />
    <path
       id="path3051"
       style="fill:none;stroke:#ff0000;stroke-width:0.2;stroke-linecap:butt;stroke-linejoin:miter;stroke-miterlimit:4;stroke-dasharray:none;stroke-opacity:1"
       d="m 91.287844,86.744529 2.527526,9.433726 2.527887,9.433365 9.432993,2.52752 -7e-4,0.002 9.43372,2.52753 5.05542,-5.05542 -2.52753,-9.433726 -2.52789,-9.43409 -9.43262,-2.527163 7e-4,-0.0021 -9.433729,-2.527519 z" />
    <path
       id="path3053"
       style="fill:none;stroke:#ff0000;stroke-width:0.2;stroke-linecap:butt;stroke-linejoin:miter;stroke-miterlimit:4;stroke-dasharray:none;stroke-opacity:1"
       d="m 67.365007,62.821693 2.527526,9.433725 2.527887,9.433364 9.432999,2.527521 -7.08e-4,0.0021 9.433726,2.527527 5.055417,-5.055418 -2.527526,-9.433725 -2.527892,-9.434091 -9.432626,-2.527162 7.07e-4,-0.0021 -9.433733,-2.527519 z" />
    <path
       id="path3055"
       style="fill:none;stroke:#ff0000;stroke-width:0.2;stroke-linecap:butt;stroke-linejoin:miter;stroke-miterlimit:4;stroke-dasharray:none;stroke-opacity:1"
       d="m 43.44217,38.898856 2.527527,9.433725 2.527887,9.433365 9.432998,2.52752 -7.07e-4,0.0021 9.433725,2.527526 5.055417,-5.055417 -2.527526,-9.433725 -2.527892,-9.434091 -9.432626,-2.527163 7.07e-4,-0.0021 -9.433732,-2.52752 z" />
    <path
       id="path3057"
       style="fill:none;stroke:#ff0000;stroke-width:0.2;stroke-linecap:butt;stroke-linejoin:miter;stroke-miterlimit:4;stroke-dasharray:none;stroke-opacity:1"
       d="m 163.05562,134.58988 2.52751,9.43373 2.5279,9.43335 9.43299,2.52753 -7.1e-4,0.002 9.43374,2.52751 5.05541,-5.05541 -2.52753,-9.43372 -2.52788,-9.4341 -9.43264,-2.52716 7.1e-4,-0.002 -9.43373,-2.52752 z" />
    <path
       id="path3059"
       style="fill:none;stroke:#ff0000;stroke-width:0.2;stroke-linecap:butt;stroke-linejoin:miter;stroke-miterlimit:4;stroke-dasharray:none;stroke-opacity:1"
       d="m 139.13278,110.66704 2.52752,9.43373 2.52789,9.43336 9.433,2.52753 -7.1e-4,0.002 9.43373,2.52752 5.05541,-5.05541 -2.52753,-9.43373 -2.52788,-9.4341 -9.43264,-2.52715 7.1e-4,-0.002 -9.43372,-2.52753 z" />
    <path
       id="path3061"
       style="fill:none;stroke:#ff0000;stroke-width:0.2;stroke-linecap:butt;stroke-linejoin:miter;stroke-miterlimit:4;stroke-dasharray:none;stroke-opacity:1"
       d="m 115.20994,86.744202 2.52752,9.433731 2.52789,9.433357 9.433,2.52753 -7.1e-4,0.002 9.43373,2.52752 5.05541,-5.05541 -2.52752,-9.433724 -2.52789,-9.434099 -9.43263,-2.527157 7e-4,-0.0021 -9.43372,-2.527526 z" />
    <path
       id="path3063"
       style="fill:none;stroke:#ff0000;stroke-width:0.2;stroke-linecap:butt;stroke-linejoin:miter;stroke-miterlimit:4;stroke-dasharray:none;stroke-opacity:1"
       d="m 91.287106,62.821365 2.527519,9.433733 2.527894,9.433357 9.432991,2.527528 -7.1e-4,0.0021 9.43374,2.527519 5.05541,-5.05541 -2.52753,-9.433725 -2.52789,-9.434098 -9.43263,-2.527156 7.1e-4,-0.0021 -9.433726,-2.527526 z" />
    <path
       id="path3065"
       style="fill:none;stroke:#ff0000;stroke-width:0.2;stroke-linecap:butt;stroke-linejoin:miter;stroke-miterlimit:4;stroke-dasharray:none;stroke-opacity:1"
       d="m 67.36427,38.898529 2.527519,9.433732 2.527894,9.433357 9.432991,2.527528 -7.07e-4,0.0021 9.433732,2.52752 5.05541,-5.055411 -2.527526,-9.433725 -2.527885,-9.434098 -9.432633,-2.527155 7.07e-4,-0.0021 -9.433725,-2.527526 z" />
    <path
       id="path3067"
       style="fill:none;stroke:#ff0000;stroke-width:0.2;stroke-linecap:butt;stroke-linejoin:miter;stroke-miterlimit:4;stroke-dasharray:none;stroke-opacity:1"
       d="m 163.05635,110.66736 2.52753,9.43373 2.52789,9.43337 9.43299,2.52752 -7e-4,0.002 9.43372,2.52752 5.05542,-5.05542 -2.52753,-9.43372 -2.52789,-9.43409 -9.43263,-2.52717 7.1e-4,-0.002 -9.43373,-2.52751 z" />
    <path
       id="path3069"
       style="fill:none;stroke:#ff0000;stroke-width:0.2;stroke-linecap:butt;stroke-linejoin:miter;stroke-miterlimit:4;stroke-dasharray:none;stroke-opacity:1"
       d="m 139.13351,86.744527 2.52753,9.433724 2.52789,9.433369 9.433,2.52752 -7.1e-4,0.002 9.43372,2.52753 5.05542,-5.05542 -2.52752,-9.433726 -2.5279,-9.434091 -9.43262,-2.527165 7e-4,-0.0021 -9.43373,-2.527518 z" />
    <path
       id="path3071"
       style="fill:none;stroke:#ff0000;stroke-width:0.2;stroke-linecap:butt;stroke-linejoin:miter;stroke-miterlimit:4;stroke-dasharray:none;stroke-opacity:1"
       d="m 115.21068,62.821693 2.52753,9.433725 2.52788,9.433364 9.433,2.52752 -7.1e-4,0.0021 9.43373,2.527525 5.05542,-5.055418 -2.52753,-9.433724 -2.52789,-9.43409 -9.43263,-2.527162 7.1e-4,-0.0021 -9.43373,-2.527519 z" />
    <path
       id="path3073"
       style="fill:none;stroke:#ff0000;stroke-width:0.2;stroke-linecap:butt;stroke-linejoin:miter;stroke-miterlimit:4;stroke-dasharray:none;stroke-opacity:1"
       d="m 91.287844,38.898856 2.527526,9.433725 2.527887,9.433365 9.433003,2.52752 -7.1e-4,0.0021 9.43372,2.527526 5.05542,-5.055417 -2.52753,-9.433725 -2.52789,-9.434091 -9.43262,-2.527163 7e-4,-0.0021 -9.433729,-2.52752 z" />
    <path
       id="path3075"
       style="fill:none;stroke:#ff0000;stroke-width:0.2;stroke-linecap:butt;stroke-linejoin:miter;stroke-miterlimit:4;stroke-dasharray:none;stroke-opacity:1"
       d="m 67.365007,14.97602 2.527526,9.433725 2.527887,9.433364 9.432999,2.527521 -7.08e-4,0.0021 9.433726,2.527527 5.055417,-5.055418 -2.527526,-9.433725 -2.527892,-9.434091 -9.432626,-2.527163 7.07e-4,-0.0021 -9.433733,-2.5275192 z" />
    <path
       id="path3077"
       style="fill:none;stroke:#ff0000;stroke-width:0.2;stroke-linecap:butt;stroke-linejoin:miter;stroke-miterlimit:4;stroke-dasharray:none;stroke-opacity:1"
       d="m 186.97845,110.66704 2.52752,9.43373 2.52789,9.43336 9.433,2.52753 -7.1e-4,0.002 9.43373,2.52752 5.05541,-5.05541 -2.52752,-9.43373 -2.52789,-9.4341 -9.43263,-2.52715 7e-4,-0.002 -9.43372,-2.52753 z" />
    <path
       id="path3079"
       style="fill:none;stroke:#ff0000;stroke-width:0.2;stroke-linecap:butt;stroke-linejoin:miter;stroke-miterlimit:4;stroke-dasharray:none;stroke-opacity:1"
       d="m 163.05562,86.744202 2.52751,9.433731 2.5279,9.433357 9.43299,2.52753 -7.1e-4,0.002 9.43374,2.52752 5.05541,-5.05541 -2.52753,-9.433724 -2.52788,-9.434099 -9.43264,-2.527157 7.1e-4,-0.0021 -9.43373,-2.527525 z" />
    <path
       id="path3081"
       style="fill:none;stroke:#ff0000;stroke-width:0.2;stroke-linecap:butt;stroke-linejoin:miter;stroke-miterlimit:4;stroke-dasharray:none;stroke-opacity:1"
       d="m 139.13278,62.821365 2.52752,9.433731 2.52789,9.433356 9.433,2.527532 -7.1e-4,0.0021 9.43373,2.527517 5.05541,-5.05541 -2.52753,-9.433724 -2.52788,-9.434098 -9.43264,-2.527157 7.1e-4,-0.0021 -9.43372,-2.527525 z" />
    <path
       id="path3083"
       style="fill:none;stroke:#ff0000;stroke-width:0.2;stroke-linecap:butt;stroke-linejoin:miter;stroke-miterlimit:4;stroke-dasharray:none;stroke-opacity:1"
       d="m 115.20994,38.898529 2.52752,9.433732 2.5279,9.433357 9.43299,2.527528 -7.1e-4,0.0021 9.43373,2.52752 5.05541,-5.055411 -2.52752,-9.433725 -2.52789,-9.434098 -9.43263,-2.527155 7.1e-4,-0.0021 -9.43373,-2.527526 z" />
    <path
       id="path3085"
       style="fill:none;stroke:#ff0000;stroke-width:0.2;stroke-linecap:butt;stroke-linejoin:miter;stroke-miterlimit:4;stroke-dasharray:none;stroke-opacity:1"
       d="m 91.287106,14.975692 2.527519,9.433732 2.527894,9.433358 9.432991,2.527528 -7.1e-4,0.0021 9.43374,2.527519 5.05541,-5.05541 -2.52753,-9.433725 -2.52789,-9.434098 -9.43263,-2.527156 7.1e-4,-0.0021 -9.433726,-2.5275266 z" />
    <path
       id="path3087"
       style="fill:none;stroke:#ff0000;stroke-width:0.2;stroke-linecap:butt;stroke-linejoin:miter;stroke-miterlimit:4;stroke-dasharray:none;stroke-opacity:1"
       d="m 186.97919,86.744527 2.52752,9.433724 2.5279,9.433369 9.43299,2.52752 -7.1e-4,0.002 9.43373,2.52753 5.05542,-5.05542 -2.52753,-9.433726 -2.52789,-9.434091 -9.43263,-2.527165 7.1e-4,-0.0021 -9.43373,-2.527518 z" />
    <path
       id="path3089"
       style="fill:none;stroke:#ff0000;stroke-width:0.2;stroke-linecap:butt;stroke-linejoin:miter;stroke-miterlimit:4;stroke-dasharray:none;stroke-opacity:1"
       d="m 163.05635,62.821691 2.52753,9.433723 2.52789,9.433371 9.43299,2.527517 -7e-4,0.0021 9.43372,2.527525 5.05542,-5.055418 -2.52753,-9.433724 -2.52789,-9.434091 -9.43263,-2.527164 7.1e-4,-0.0021 -9.43373,-2.527517 z" />
    <path
       id="path3091"
       style="fill:none;stroke:#ff0000;stroke-width:0.2;stroke-linecap:butt;stroke-linejoin:miter;stroke-miterlimit:4;stroke-dasharray:none;stroke-opacity:1"
       d="m 139.13352,38.898856 2.52752,9.433725 2.52789,9.433365 9.433,2.52752 -7.1e-4,0.0021 9.43372,2.527525 5.05542,-5.055417 -2.52752,-9.433724 -2.52789,-9.43409 -9.43263,-2.527163 7.1e-4,-0.0021 -9.43374,-2.52752 z" />
    <path
       id="path3093"
       style="fill:none;stroke:#ff0000;stroke-width:0.2;stroke-linecap:butt;stroke-linejoin:miter;stroke-miterlimit:4;stroke-dasharray:none;stroke-opacity:1"
       d="m 115.21068,14.97602 2.52753,9.433725 2.52788,9.433364 9.433,2.527521 -7.1e-4,0.0021 9.43373,2.527527 5.05542,-5.055418 -2.52753,-9.433725 -2.52789,-9.434091 -9.43263,-2.527163 7.1e-4,-0.0021 -9.43373,-2.5275192 z" />
    <path
       id="path3095"
       style="fill:none;stroke:#ff0000;stroke-width:0.2;stroke-linecap:butt;stroke-linejoin:miter;stroke-miterlimit:4;stroke-dasharray:none;stroke-opacity:1"
       d="m 91.287844,-8.946817 2.527526,9.4337251 2.527887,9.4333645 9.433003,2.5275204 -7.1e-4,0.0021 9.43372,2.527526 5.05542,-5.0554176 -2.52753,-9.43372513 -2.52789,-9.43409067 -9.43262,-2.5271626 7e-4,-0.0021 -9.433729,-2.527519 z" />
    <rect
       style="fill:none;stroke:#000000;stroke-width:0.264999;stroke-linecap:round"
       id="rect1127"
       width="23.922836"
       height="23.922884"
       x="93.815727"
       y="84.216591" />
  </g>
</svg>
