<?xml version="1.0" encoding="UTF-8" standalone="no"?>
<!-- Created with Inkscape (http://www.inkscape.org/) -->

<svg
   width="210mm"
   height="297mm"
   viewBox="0 0 210 297"
   version="1.1"
   id="svg5"
   inkscape:version="1.1.2 (1:1.1+202202050852+0a00cf5339)"
   sodipodi:docname="hat-monotile.svg"
   xmlns:inkscape="http://www.inkscape.org/namespaces/inkscape"
   xmlns:sodipodi="http://sodipodi.sourceforge.net/DTD/sodipodi-0.dtd"
   xmlns="http://www.w3.org/2000/svg"
   xmlns:svg="http://www.w3.org/2000/svg">
  <sodipodi:namedview
     id="namedview7"
     pagecolor="#ffffff"
     bordercolor="#666666"
     borderopacity="1.0"
     inkscape:pageshadow="2"
     inkscape:pageopacity="0.0"
     inkscape:pagecheckerboard="0"
     inkscape:document-units="mm"
     showgrid="false"
     inkscape:snap-object-midpoints="false"
     inkscape:snap-center="true"
     inkscape:snap-bbox="true"
     inkscape:bbox-paths="true"
     inkscape:bbox-nodes="true"
     inkscape:snap-bbox-edge-midpoints="true"
     inkscape:snap-bbox-midpoints="true"
     inkscape:object-paths="true"
     inkscape:snap-intersection-paths="true"
     inkscape:snap-smooth-nodes="false"
     inkscape:snap-midpoints="true"
     showborder="false"
     inkscape:snap-others="false"
     inkscape:object-nodes="false"
     inkscape:zoom="0.72221748"
     inkscape:cx="2216.7838"
     inkscape:cy="279.00183"
     inkscape:window-width="1920"
     inkscape:window-height="1021"
     inkscape:window-x="0"
     inkscape:window-y="27"
     inkscape:window-maximized="1"
     inkscape:current-layer="layer1" />
  <defs
     id="defs2" />
  <g
     inkscape:label="Layer 1"
     inkscape:groupmode="layer"
     id="layer1">
    <path
       id="path1592"
       style="fill:#aad400;stroke:#ffffff;stroke-width:0.565;stroke-linecap:butt;stroke-linejoin:miter;stroke-miterlimit:4;stroke-dasharray:none;stroke-opacity:1"
       d="m -136.11602,-36.339415 -10.04474,17.39793 5.02238,8.699 -15.06707,8.6989198 V 15.854375 h 10.04473 l 5.02234,-8.6989602 15.06705,8.6989902 15.06705,-8.6989902 -5.02238,-8.69896 5.02238,-8.6989798 -15.06703,-8.69896 -2e-5,-17.39792 z"
       sodipodi:nodetypes="cccccccccccccc" />
    <path
       id="path1636"
       style="fill:#b380ff;stroke:#ffffff;stroke-width:0.565;stroke-linecap:butt;stroke-linejoin:miter;stroke-miterlimit:4;stroke-dasharray:none;stroke-opacity:1"
       d="m -129.65696,-189.63054 h 20.08941 l 5.02235,8.69897 15.067049,-8.69897 15.06705,8.69898 -5.02237,8.69895 -10.0447,2e-5 2e-5,17.39792 -15.067049,8.69894 -5.02235,-8.69895 -10.04471,-1e-5 1e-5,-17.39791 -15.06706,-8.69897 z"
       sodipodi:nodetypes="cccccccccccccc" />
    <path
       id="path1892"
       style="fill:#aad400;stroke:#ffffff;stroke-width:0.565;stroke-linecap:butt;stroke-linejoin:miter;stroke-miterlimit:4;stroke-dasharray:none;stroke-opacity:1"
       d="m 318.77869,-12.413194 -10.04472,-17.397942 -10.04474,-2.7e-5 6e-5,-17.39789 -15.06705,-8.698955 -5.02236,8.69896 5.02236,8.698951 -15.06708,8.698968 2e-5,17.397935 h 10.04469 l 5.02239,8.6989403 15.06701,-8.6989503 15.06705,8.6989803 z"
       sodipodi:nodetypes="cccccccccccccc" />
    <path
       id="path1894"
       style="fill:#b380ff;stroke:#ffffff;stroke-width:0.565;stroke-linecap:butt;stroke-linejoin:miter;stroke-miterlimit:4;stroke-dasharray:none;stroke-opacity:1"
       d="m -157.81574,277.80733 -20.08941,1e-5 -5.02237,-8.69897 -15.06705,8.69897 -15.06705,-8.69899 5.02238,-8.69895 10.0447,10e-6 -3e-5,-17.39794 15.06705,-8.69896 5.02237,8.69897 10.04471,1e-5 -3e-5,17.39791 15.06707,8.69897 z"
       sodipodi:nodetypes="cccccccccccccc" />
    <path
       id="path1896"
       style="fill:#b380ff;stroke:#ffffff;stroke-width:0.565;stroke-linecap:butt;stroke-linejoin:miter;stroke-miterlimit:4;stroke-dasharray:none;stroke-opacity:1"
       d="m -105.9819,15.854345 -10.04471,17.39795 -10.04471,-10e-6 v 17.39793 l -15.06706,8.69896 -5.02233,-8.69896 5.02232,-8.69897 -15.06705,-8.69894 3e-5,-17.39794 10.04468,-10e-6 5.02238,-8.6989602 15.06701,8.6989502 15.06706,-8.6989702 z"
       sodipodi:nodetypes="cccccccccccccc" />
    <path
       id="path1898"
       style="fill:#aad400;stroke:#ffffff;stroke-width:0.565;stroke-linecap:butt;stroke-linejoin:miter;stroke-miterlimit:4;stroke-dasharray:none;stroke-opacity:1"
       d="m 198.24229,57.178522 20.08941,5e-6 5.02236,-8.698977 15.06701,8.698964 15.06705,-8.698948 -5.02236,-8.698965 -10.04469,-2.2e-5 2e-5,-17.39793 -15.06707,-8.698938 -5.02233,8.698981 -10.04472,-2.6e-5 1e-5,17.397924 -15.06705,8.698971 z"
       sodipodi:nodetypes="cccccccccccccc" />
    <path
       id="path1900"
       style="fill:#b380ff;stroke:#ffffff;stroke-width:0.565;stroke-linecap:butt;stroke-linejoin:miter;stroke-miterlimit:4;stroke-dasharray:none;stroke-opacity:1"
       d="m -105.98195,15.854365 20.089411,10e-6 5.02236,8.69897 15.06705,-8.69898 15.06705,8.69899 -5.02237,8.69896 h -10.0447 l 2e-5,17.39793 -15.06705,8.69895 -5.02236,-8.69897 -10.04471,-10e-6 2e-5,-17.3979 -15.067071,-8.69898 z"
       sodipodi:nodetypes="cccccccccccccc" />
    <path
       id="path1902"
       style="fill:#b380ff;stroke:#ffffff;stroke-width:0.565;stroke-linecap:butt;stroke-linejoin:miter;stroke-miterlimit:4;stroke-dasharray:none;stroke-opacity:1"
       d="m -267.45082,-188.54156 10.04473,-17.39796 10.04468,10e-6 1e-5,-17.39794 15.06706,-8.69895 5.02234,8.69897 -5.02236,8.69898 15.06706,8.69892 -2e-5,17.39795 -10.04466,-1e-5 -5.0224,8.69899 -15.06702,-8.69897 -15.06705,8.69896 z"
       sodipodi:nodetypes="cccccccccccccc" />
    <path
       id="path1904"
       style="fill:#b380ff;fill-opacity:1;stroke:#ffffff;stroke-width:0.565;stroke-linecap:butt;stroke-linejoin:miter;stroke-miterlimit:4;stroke-dasharray:none;stroke-opacity:1"
       d="m -105.98192,15.854385 -10.04472,-17.3979302 5.02236,-8.6989998 -15.06703,-8.69893 v -17.39793 l 10.0447,3e-5 5.02235,8.69893 15.067031,-8.69899 15.06705,8.699 -5.02236,8.69896 5.02236,8.69897 -15.06702,8.6989598 -3e-5,17.3979302 z"
       sodipodi:nodetypes="cccccccccccccc" />
    <path
       id="path1906"
       style="fill:#aad400;fill-opacity:1;stroke:#ffffff;stroke-width:0.565;stroke-linecap:butt;stroke-linejoin:miter;stroke-miterlimit:4;stroke-dasharray:none;stroke-opacity:1"
       d="m 338.86811,57.178521 10.04471,-17.39796 -5.02234,-8.69896 15.06705,-8.69897 V 4.984691 l -10.04473,1e-5 -5.02234,8.69898 -15.06704,-8.69899 -15.06703,8.69897 5.02234,8.69898 -5.02236,8.69898 15.06702,8.69896 3e-5,17.39792 z"
       sodipodi:nodetypes="cccccccccccccc" />
    <path
       id="path1908"
       style="fill:#aad400;fill-opacity:1;stroke:#ffffff;stroke-width:0.565;stroke-linecap:butt;stroke-linejoin:miter;stroke-miterlimit:4;stroke-dasharray:none;stroke-opacity:1"
       d="m 288.64461,74.576451 20.08941,-1e-5 5.02235,-8.69896 15.06705,8.69896 15.06705,-8.69897 -5.02236,-8.69895 -10.04471,-1e-5 2e-5,-17.39794 -15.06707,-8.69894 -5.02233,8.69895 -10.04472,2e-5 10e-6,17.39789 -15.06707,8.69898 z"
       sodipodi:nodetypes="cccccccccccccc" />
    <path
       id="path1910"
       style="fill:#aad400;fill-opacity:1;stroke:#ffffff;stroke-width:0.565;stroke-linecap:butt;stroke-linejoin:miter;stroke-miterlimit:4;stroke-dasharray:none;stroke-opacity:1"
       d="m 248.46577,39.780566 10.04472,17.39795 h 10.04471 l -1e-5,17.39794 15.06712,8.69895 5.02228,-8.69895 -5.02233,-8.69899 15.06706,-8.69895 -1e-5,-17.39793 -10.04471,1e-5 -5.02238,-8.698979 -15.067,8.698979 -15.06708,-8.698981 z"
       sodipodi:nodetypes="cccccccccccccc" />
    <path
       id="path1912"
       style="fill:#aad400;fill-opacity:1;stroke:#ffffff;stroke-width:0.565;stroke-linecap:butt;stroke-linejoin:miter;stroke-miterlimit:4;stroke-dasharray:none;stroke-opacity:1"
       d="m -166.25011,15.854315 -10.04471,17.39795 5.02235,8.69896 -15.06705,8.69897 2e-5,17.39793 10.04469,-2e-5 5.02238,-8.69895 15.06703,8.69896 15.06702,-8.69897 -5.02233,-8.69895 5.02233,-8.69899 -15.06702,-8.69894 -1e-5,-17.39796 z"
       sodipodi:nodetypes="cccccccccccccc" />
    <path
       id="path12469"
       style="fill:#aad400;fill-opacity:1;stroke:#ffffff;stroke-width:0.565;stroke-linecap:butt;stroke-linejoin:miter;stroke-miterlimit:4;stroke-dasharray:none;stroke-opacity:1"
       d="m -227.13897,123.73565 10.0447,17.39794 h 10.04471 l -10e-6,17.39793 15.06707,8.69895 5.02231,-8.69896 -5.02232,-8.69898 15.06705,-8.69894 -2e-5,-17.39792 -10.04469,-1e-5 -5.02236,-8.69897 -15.06702,8.69896 -15.06708,-8.69897 z"
       sodipodi:nodetypes="cccccccccccccc" />
    <path
       id="path12471"
       style="fill:#aad400;fill-opacity:1;stroke:#ffffff;stroke-width:0.565;stroke-linecap:butt;stroke-linejoin:miter;stroke-miterlimit:4;stroke-dasharray:none;stroke-opacity:1"
       d="m -66.213935,294.09301 h 20.08941 l 5.02235,-8.69897 15.06705,8.69897 15.06705,-8.69899 -5.02237,-8.69893 -10.0447,-3e-5 2e-5,-17.39792 -15.06705,-8.69895 -5.02235,8.69896 -10.04471,1e-5 1e-5,17.3979 -15.06707,8.69899 z"
       sodipodi:nodetypes="cccccccccccccc" />
    <path
       id="path12473"
       style="fill:#aad400;fill-opacity:1;stroke:#ffffff;stroke-width:0.565;stroke-linecap:butt;stroke-linejoin:miter;stroke-miterlimit:4;stroke-dasharray:none;stroke-opacity:1"
       d="m 204.1571,-54.652386 -10.0447,-17.397931 h -10.04471 l 1e-5,-17.397937 -15.06706,-8.698955 -5.02232,8.698967 5.02233,8.698979 -15.06705,8.698936 2e-5,17.397921 10.04468,10e-6 5.02236,8.698969 15.06703,-8.698969 15.06707,8.698969 z"
       sodipodi:nodetypes="cccccccccccccc" />
    <path
       id="path12475"
       style="fill:#aad400;fill-opacity:1;stroke:#ffffff;stroke-width:0.565;stroke-linecap:butt;stroke-linejoin:miter;stroke-miterlimit:4;stroke-dasharray:none;stroke-opacity:1"
       d="m -36.11917,-260.75075 -10.04471,-17.39794 h -10.0447 v -17.39793 l -15.06706,-8.69897 -5.02232,8.69897 5.02233,8.69899 -15.06705,8.69894 2e-5,17.39791 10.0447,1e-5 5.02235,8.69897 15.06702,-8.69895 15.06708,8.69897 z"
       sodipodi:nodetypes="cccccccccccccc" />
    <path
       id="path12477"
       style="fill:#aad400;fill-opacity:1;stroke:#ffffff;stroke-width:0.565;stroke-linecap:butt;stroke-linejoin:miter;stroke-miterlimit:4;stroke-dasharray:none;stroke-opacity:1"
       d="m -133.80771,169.28785 10.04472,-17.39794 -5.02236,-8.69898 15.06704,-8.69894 -2e-5,-17.39794 -10.04466,2e-5 -5.02238,8.69894 -15.06704,-8.69897 -15.06702,8.69897 5.02234,8.69897 -5.02236,8.69898 15.06703,8.69893 2e-5,17.39796 z"
       sodipodi:nodetypes="cccccccccccccc" />
    <path
       id="path12479"
       style="fill:#aad400;fill-opacity:1;stroke:#ffffff;stroke-width:0.565;stroke-linecap:butt;stroke-linejoin:miter;stroke-miterlimit:4;stroke-dasharray:none;stroke-opacity:1"
       d="m -238.64415,-67.280015 -10.04471,17.39795 5.02236,8.69895 -15.06706,8.69898 1e-5,17.39793 10.04469,-3e-5 5.02238,-8.69896 15.06703,8.69899 15.06702,-8.69897 -5.02234,-8.69897 5.02236,-8.69898 -15.06702,-8.69895 -10e-6,-17.39795 z"
       sodipodi:nodetypes="cccccccccccccc" />
    <path
       id="path12481"
       style="fill:#aad400;fill-opacity:1;stroke:#ffffff;stroke-width:0.565;stroke-linecap:butt;stroke-linejoin:miter;stroke-miterlimit:4;stroke-dasharray:none;stroke-opacity:1"
       d="m -419.97346,-77.265685 -10.04473,17.39794 5.02236,8.69896 -15.06704,8.69895 3e-5,17.39793 10.04466,-2e-5 5.02238,-8.69892 15.06704,8.69895 15.06701,-8.69896 -5.02234,-8.69896 5.02237,-8.69898 -15.06704,-8.69893 -2e-5,-17.39796 z"
       sodipodi:nodetypes="cccccccccccccc" />
    <path
       id="path12483"
       style="fill:#b380ff;stroke:#ffffff;stroke-width:0.565;stroke-linecap:butt;stroke-linejoin:miter;stroke-miterlimit:4;stroke-dasharray:none;stroke-opacity:1"
       d="m -395.15995,251.47416 10.04471,17.39794 -5.02235,8.69897 15.06705,8.69896 -1e-5,17.39794 -10.04469,-2e-5 -5.02238,-8.69896 -15.06702,8.69898 -15.06704,-8.69897 5.02234,-8.69897 -5.02235,-8.69898 15.06705,-8.69894 -1e-5,-17.39794 z"
       sodipodi:nodetypes="cccccccccccccc" />
    <path
       id="path12485"
       style="fill:#b380ff;stroke:#ffffff;stroke-width:0.565;stroke-linecap:butt;stroke-linejoin:miter;stroke-miterlimit:4;stroke-dasharray:none;stroke-opacity:1"
       d="m -212.20493,-92.852921 -10.04472,-17.397939 5.02235,-8.69898 -15.06706,-8.69896 2e-5,-17.39795 10.04471,4e-5 5.02234,8.69897 15.06705,-8.699 15.06704,8.69897 -5.02234,8.69898 5.02234,8.69899 -15.06704,8.69892 0,17.397959 z"
       sodipodi:nodetypes="cccccccccccccc" />
    <path
       id="path12487"
       style="fill:#b380ff;stroke:#ffffff;stroke-width:0.565;stroke-linecap:butt;stroke-linejoin:miter;stroke-miterlimit:4;stroke-dasharray:none;stroke-opacity:1"
       d="m -166.25007,15.854395 -10.0447,-17.3979702 5.02234,-8.6989398 -15.06704,-8.69899 1e-5,-17.39792 10.04469,3e-5 5.02237,8.69896 15.067,-8.69898 15.06707,8.69901 -5.02234,8.6989 5.02234,8.69901 -15.06704,8.6989498 -1e-5,17.3979102 z"
       sodipodi:nodetypes="cccccccccccccc" />
    <path
       id="path12489"
       style="fill:#aad400;fill-opacity:1;stroke:#ffffff;stroke-width:0.565;stroke-linecap:butt;stroke-linejoin:miter;stroke-miterlimit:4;stroke-dasharray:none;stroke-opacity:1"
       d="m -281.7809,61.377395 -10.04471,17.39795 5.02236,8.69897 -15.06706,8.69899 3e-5,17.397945 10.04467,-5e-5 5.02238,-8.69895 15.06704,8.69897 15.06704,-8.69897 -5.02236,-8.698975 5.02235,-8.69899 -15.06703,-8.69892 -10e-6,-17.39796 z"
       sodipodi:nodetypes="cccccccccccccc" />
    <path
       id="path12491"
       style="fill:#aad400;fill-opacity:1;stroke:#ffffff;stroke-width:0.565;stroke-linecap:butt;stroke-linejoin:miter;stroke-miterlimit:4;stroke-dasharray:none;stroke-opacity:1"
       d="m -182.0708,-145.04673 -10.04471,-17.39795 -10.04471,1e-5 -3e-5,-17.39796 -15.06707,-8.69895 -5.02229,8.69897 5.02232,8.69899 -15.06706,8.69895 1e-5,17.39792 h 10.04473 l 5.02237,8.69898 15.067,-8.69897 15.06708,8.69897 z"
       sodipodi:nodetypes="cccccccccccccc" />
    <path
       id="path12493"
       style="fill:#aad400;fill-opacity:1;stroke:#ffffff;stroke-width:0.565;stroke-linecap:butt;stroke-linejoin:miter;stroke-miterlimit:4;stroke-dasharray:none;stroke-opacity:1"
       d="m 278.59982,-47.209067 -20.08942,10e-6 -5.02234,8.698984 -15.06709,-8.698964 -15.06706,8.699004 5.0224,8.698901 10.0447,3.6e-5 -2e-5,17.397917 15.06705,8.6989609 5.02237,-8.6989869 10.04471,-3e-6 -10e-6,-17.397888 15.06706,-8.698987 z"
       sodipodi:nodetypes="cccccccccccccc" />
    <path
       id="path13065"
       style="fill:#b380ff;stroke:#ffffff;stroke-width:0.565;stroke-linecap:butt;stroke-linejoin:miter;stroke-miterlimit:4;stroke-dasharray:none;stroke-opacity:1"
       d="m -388.13312,410.62926 -10.04473,17.39796 -10.04466,-10e-6 -4e-5,17.39794 -15.06706,8.69896 -5.02232,-8.699 5.02235,-8.69897 -15.06705,-8.69891 3e-5,-17.39797 10.04465,2e-5 5.02239,-8.699 15.06702,8.69898 15.06705,-8.69894 z"
       sodipodi:nodetypes="cccccccccccccc" />
    <path
       id="path13067"
       style="fill:#b380ff;stroke:#ffffff;stroke-width:0.565;stroke-linecap:butt;stroke-linejoin:miter;stroke-miterlimit:4;stroke-dasharray:none;stroke-opacity:1"
       d="m -356.63697,293.36708 10.04471,17.39797 -5.02234,8.69893 15.06704,8.699 -1e-5,17.39794 -10.04471,-4e-5 -5.02236,-8.69897 -15.067,8.69899 -15.06707,-8.69901 5.02235,-8.69891 -5.02236,-8.69902 15.06704,-8.69893 2e-5,-17.39792 z"
       sodipodi:nodetypes="cccccccccccccc" />
    <path
       id="path13069"
       style="fill:#b380ff;stroke:#ffffff;stroke-width:0.565;stroke-linecap:butt;stroke-linejoin:miter;stroke-miterlimit:4;stroke-dasharray:none;stroke-opacity:1"
       d="m -69.388761,-189.63054 20.08944,1e-5 5.02233,8.69894 15.06707,-8.69894 15.06705,8.69898 -5.02238,8.69895 -10.04472,1e-5 5e-5,17.3979 -15.0671,8.69896 -5.0223,-8.69894 -10.04475,-2e-5 2e-5,-17.3979 -15.06703,-8.69898 z"
       sodipodi:nodetypes="cccccccccccccc" />
    <path
       id="path13071"
       style="fill:#b380ff;stroke:#ffffff;stroke-width:0.565;stroke-linecap:butt;stroke-linejoin:miter;stroke-miterlimit:4;stroke-dasharray:none;stroke-opacity:1"
       d="m 512.60334,223.69527 -10.04473,17.39796 -10.04464,-3e-5 -4e-5,17.39793 -15.06708,8.69898 -5.02232,-8.69898 5.02235,-8.69899 -15.06707,-8.69891 4e-5,-17.39796 10.04465,3e-5 5.0224,-8.699 15.06703,8.69897 15.06704,-8.69896 z"
       sodipodi:nodetypes="cccccccccccccc" />
    <path
       id="path13073"
       style="fill:#b380ff;stroke:#ffffff;stroke-width:0.565;stroke-linecap:butt;stroke-linejoin:miter;stroke-miterlimit:4;stroke-dasharray:none;stroke-opacity:1"
       d="M 278.59989,-12.41323 288.6446,4.9847204 283.62226,13.68367 298.6893,22.38265 V 39.7806 l -10.0447,-4e-5 -5.02237,-8.69896 -15.067,8.69899 -15.06707,-8.69901 5.02234,-8.69891 -5.02235,-8.69901 15.06703,-8.6989396 2e-5,-17.3979204 z"
       sodipodi:nodetypes="cccccccccccccc" />
    <path
       id="path13075"
       style="fill:#b380ff;stroke:#ffffff;stroke-width:0.565;stroke-linecap:butt;stroke-linejoin:miter;stroke-miterlimit:4;stroke-dasharray:none;stroke-opacity:1"
       d="m 218.3317,22.382648 -20.08944,-1.1e-5 -5.02234,-8.69894 -15.06706,8.698939 -15.06705,-8.698968 5.02238,-8.6989471 10.04471,-1.6e-5 -4e-5,-17.3978989 15.06709,-8.698959 5.02231,8.698928 10.04474,2.3e-5 -2e-5,17.3979069 15.06704,8.6989731 z"
       sodipodi:nodetypes="cccccccccccccc" />
    <path
       id="path13077"
       style="fill:#b380ff;stroke:#ffffff;stroke-width:0.565;stroke-linecap:butt;stroke-linejoin:miter;stroke-miterlimit:4;stroke-dasharray:none;stroke-opacity:1"
       d="m -245.31259,381.3429 -17.39797,10.04471 -8.69893,-5.02234 -8.699,15.06704 -17.39794,-10e-6 5e-5,-10.04472 8.69896,-5.02235 -8.69899,-15.067 8.69901,-15.06707 8.69891,5.02234 8.69902,-5.02236 8.69893,15.06705 17.39792,2e-5 z"
       sodipodi:nodetypes="cccccccccccccc" />
    <path
       id="path13079"
       style="fill:#b380ff;stroke:#ffffff;stroke-width:0.565;stroke-linecap:butt;stroke-linejoin:miter;stroke-miterlimit:4;stroke-dasharray:none;stroke-opacity:1"
       d="m -269.31434,296.48522 -10e-6,20.08944 -8.69894,5.02232 8.69894,15.06708 -8.69898,15.06705 -8.69896,-5.02239 v -10.04471 l -17.3979,5e-5 -8.69896,-15.0671 8.69893,-5.0223 2e-5,-10.04475 17.39791,2e-5 8.69898,-15.06703 z"
       sodipodi:nodetypes="cccccccccccccc" />
    <path
       id="path13081"
       style="fill:#b380ff;stroke:#ffffff;stroke-width:0.565;stroke-linecap:butt;stroke-linejoin:miter;stroke-miterlimit:4;stroke-dasharray:none;stroke-opacity:1"
       d="m -292.67031,226.39085 17.39796,10.04473 v 10.04466 l 17.39793,4e-5 8.69896,15.06706 -8.69898,5.02232 -8.69899,-5.02235 -8.69891,15.06705 -17.39797,-3e-5 3e-5,-10.04466 -8.69899,-5.02239 8.69896,-15.06701 -8.69894,-15.06705 z"
       sodipodi:nodetypes="cccccccccccccc" />
    <path
       id="path13083"
       style="fill:#b380ff;stroke:#ffffff;stroke-width:0.565;stroke-linecap:butt;stroke-linejoin:miter;stroke-miterlimit:4;stroke-dasharray:none;stroke-opacity:1"
       d="m -289.83316,196.66464 -17.39796,-10.04471 v -10.04468 l -17.39793,-2e-5 -8.69896,-15.06706 8.69899,-5.02232 8.69898,5.02235 8.69891,-15.06706 17.39797,4e-5 -3e-5,10.04465 8.699,5.02239 -8.69898,15.06702 8.69895,15.06705 z"
       sodipodi:nodetypes="cccccccccccccc" />
    <path
       id="path13085"
       style="fill:#b380ff;stroke:#ffffff;stroke-width:0.565;stroke-linecap:butt;stroke-linejoin:miter;stroke-miterlimit:4;stroke-dasharray:none;stroke-opacity:1"
       d="m -471.89604,120.09572 1e-5,-20.08944 8.69895,-5.022332 -8.69894,-15.067064 8.69897,-15.067046 8.69895,5.02238 1e-5,10.044712 17.3979,-4.2e-5 8.69897,15.067091 -8.69894,5.022301 -3e-5,10.04474 -17.3979,-10e-6 -8.69898,15.06703 z"
       sodipodi:nodetypes="cccccccccccccc" />
    <path
       id="path13087"
       style="fill:#b380ff;stroke:#ffffff;stroke-width:0.565;stroke-linecap:butt;stroke-linejoin:miter;stroke-miterlimit:4;stroke-dasharray:none;stroke-opacity:1"
       d="m -366.66754,95.865511 -17.39796,-10.044729 -1e-5,-10.044674 -17.39792,-2.7e-5 -8.69897,-15.067053 8.69899,-5.022319 8.69898,5.022341 8.69891,-15.067042 17.39797,2.2e-5 -2e-5,10.044651 8.69899,5.02239 -8.69897,15.067019 8.69895,15.067052 z"
       sodipodi:nodetypes="cccccccccccccc" />
    <path
       id="path13089"
       style="fill:#aad400;fill-opacity:1;stroke:#ffffff;stroke-width:0.565;stroke-linecap:butt;stroke-linejoin:miter;stroke-miterlimit:4;stroke-dasharray:none;stroke-opacity:1"
       d="m -18.593095,228.76449 10.0447295,17.39796 10.04466,-1e-5 4e-5,17.39794 15.0670605,8.69896 5.02232,-8.699 -5.02235,-8.69897 15.06705,-8.69891 -2e-5,-17.39797 -10.04465,2e-5 -5.02239,-8.699 -15.0670205,8.69898 -15.0670495,-8.69894 z"
       sodipodi:nodetypes="cccccccccccccc" />
    <path
       id="path19060"
       style="fill:#b380ff;stroke:#ffffff;stroke-width:0.565;stroke-linecap:butt;stroke-linejoin:miter;stroke-miterlimit:4;stroke-dasharray:none;stroke-opacity:1"
       d="m 43.794246,100.33129 -10.04476,17.39795 -10.04465,2e-5 -5e-5,17.39793 -15.0670203,8.69894 -5.02233,-8.69901 5.02234,-8.69892 -15.06704,-8.69894 10e-6,-17.39796 10.04466,4e-5 5.0224,-8.699042 15.0670103,8.699022 15.06706,-8.698982 z"
       sodipodi:nodetypes="cccccccccccccc" />
    <path
       id="path19062"
       style="fill:#aad400;fill-opacity:1;stroke:#ffffff;stroke-width:0.565;stroke-linecap:butt;stroke-linejoin:miter;stroke-miterlimit:4;stroke-dasharray:none;stroke-opacity:1"
       d="m -330.67011,17.991675 20.0894,-10e-6 5.02236,-8.6989702 15.06707,8.6989802 15.06705,-8.6990102 -5.02237,-8.69890004 -10.04471,-3e-5 2e-5,-17.39793976 -15.06706,-8.69894 -5.02237,8.69898 h -10.0447 l 3e-5,17.39788976 -15.06708,8.69899004 z"
       sodipodi:nodetypes="cccccccccccccc" />
    <path
       id="path19064"
       style="fill:#b380ff;stroke:#ffffff;stroke-width:0.565;stroke-linecap:butt;stroke-linejoin:miter;stroke-miterlimit:4;stroke-dasharray:none;stroke-opacity:1"
       d="m -75.847849,-36.339425 20.08945,4e-5 5.02233,8.69894 15.06708,-8.69894 15.067043,8.69897 -5.0224,8.69894 -10.044693,3e-5 4e-5,17.3978898 -15.06709,8.69896 -5.02231,-8.69892 -10.04476,-3e-5 5e-5,-17.3978998 -15.06707,-8.69901 z"
       sodipodi:nodetypes="cccccccccccccc" />
    <path
       id="path19066"
       style="fill:#aad400;fill-opacity:1;stroke:#ffffff;stroke-width:0.565;stroke-linecap:butt;stroke-linejoin:miter;stroke-miterlimit:4;stroke-dasharray:none;stroke-opacity:1"
       d="m -273.07674,-77.244723 -10.04472,-17.397932 -10.04471,-5e-6 1e-5,-17.39797 -15.06709,-8.69892 -5.02229,8.69894 5.02233,8.69899 -15.06707,8.698954 3e-5,17.397927 10.04472,1.1e-5 5.02235,8.698973 15.067,-8.698981 15.0671,8.698981 z"
       sodipodi:nodetypes="cccccccccccccc" />
    <path
       id="path19068"
       style="fill:#aad400;stroke:#ffffff;stroke-width:0.565;stroke-linecap:butt;stroke-linejoin:miter;stroke-miterlimit:4;stroke-dasharray:none;stroke-opacity:1"
       d="m 158.06348,22.382674 10.0447,17.397944 10.04471,3e-6 -2e-5,17.397894 15.06703,8.698973 5.02234,-8.698974 -5.02232,-8.698964 15.06707,-8.698949 -5e-5,-17.397937 -10.04469,2.9e-5 -5.02233,-8.698996 -15.06705,8.698967 -15.06705,-8.698961 z"
       sodipodi:nodetypes="cccccccccccccc" />
    <path
       id="path19070"
       style="fill:#aad400;stroke:#ffffff;stroke-width:0.565;stroke-linecap:butt;stroke-linejoin:miter;stroke-miterlimit:4;stroke-dasharray:none;stroke-opacity:1"
       d="m 248.4658,39.780571 10.04471,-17.397935 -5.02236,-8.698979 15.06703,-8.6989331 10e-6,-17.3979209 -10.0447,7e-6 -5.02236,8.6989479 -15.06704,-8.6989809 -15.06704,8.6989939 5.02237,8.698959 -5.02238,8.6989661 15.06705,8.698953 1e-5,17.397932 z"
       sodipodi:nodetypes="cccccccccccccc" />
    <path
       id="path19154"
       style="fill:#aad400;stroke:#ffffff;stroke-width:0.565;stroke-linecap:butt;stroke-linejoin:miter;stroke-miterlimit:4;stroke-dasharray:none;stroke-opacity:1"
       d="m 188.19759,-29.811149 10.0447,17.397944 10.04471,3e-6 -2e-5,17.3978939 15.06703,8.6989731 5.02234,-8.6989741 -5.02232,-8.698964 15.06707,-8.6989489 -5e-5,-17.397937 -10.04469,2.9e-5 -5.02233,-8.698996 -15.06705,8.698967 -15.06705,-8.698961 z"
       sodipodi:nodetypes="cccccccccccccc" />
    <path
       id="path19156"
       style="fill:#aad400;stroke:#ffffff;stroke-width:0.565;stroke-linecap:butt;stroke-linejoin:miter;stroke-miterlimit:4;stroke-dasharray:none;stroke-opacity:1"
       d="m 188.19757,-29.811124 -20.08941,-1.5e-5 -5.02237,8.698967 -15.067,-8.698952 -15.06705,8.698938 5.02236,8.698957 10.04469,3.3e-5 -2e-5,17.3979381 15.06707,8.6989189 5.02232,-8.6989709 10.04472,3.14e-5 V -12.413211 l 15.06705,-8.698954 z"
       sodipodi:nodetypes="cccccccccccccc" />
    <path
       id="path19160"
       style="fill:#aad400;stroke:#ffffff;stroke-width:0.565;stroke-linecap:butt;stroke-linejoin:miter;stroke-miterlimit:4;stroke-dasharray:none;stroke-opacity:1"
       d="m 137.9741,-12.413173 -10.04473,17.3979335 5.02235,8.6989815 -15.06702,8.698927 -2e-5,17.397918 10.0447,-1.3e-5 5.02237,-8.698939 15.06704,8.698987 15.06703,-8.699008 -5.02237,-8.698941 5.02239,-8.698968 -15.06706,-8.6989645 1e-5,-17.3979255 z"
       sodipodi:nodetypes="cccccccccccccc" />
    <path
       id="path19162"
       style="fill:#aad400;stroke:#ffffff;stroke-width:0.565;stroke-linecap:butt;stroke-linejoin:miter;stroke-miterlimit:4;stroke-dasharray:none;stroke-opacity:1"
       d="m 127.92939,39.7806 10.04469,17.397955 10.04471,10e-6 -2e-5,17.397886 15.06704,8.698973 5.02233,-8.698968 -5.02232,-8.698969 15.06707,-8.69895 -5e-5,-17.397931 -10.04469,3e-5 -5.02232,-8.699005 -15.06706,8.698975 -15.06705,-8.698968 z"
       sodipodi:nodetypes="cccccccccccccc" />
    <path
       id="path19164"
       style="fill:#aad400;stroke:#ffffff;stroke-width:0.565;stroke-linecap:butt;stroke-linejoin:miter;stroke-miterlimit:4;stroke-dasharray:none;stroke-opacity:1"
       d="m 278.59993,126.77025 10.04471,-17.39793 -5.02235,-8.69899 15.06702,-8.698939 4e-5,-17.39794 -10.04472,4e-5 -5.02235,8.69894 -15.06706,-8.699 -15.06703,8.69902 5.02238,8.69893 -5.02239,8.698969 15.06706,8.69896 -1e-5,17.39793 z"
       sodipodi:nodetypes="cccccccccccccc" />
    <path
       id="path19184"
       style="fill:#aad400;stroke:#ffffff;stroke-width:0.565;stroke-linecap:butt;stroke-linejoin:miter;stroke-miterlimit:4;stroke-dasharray:none;stroke-opacity:1"
       d="m 188.19761,74.576437 10.0447,17.39794 10.04471,4e-5 -3e-5,17.397873 15.06703,8.69899 5.02234,-8.69899 -5.0223,-8.69896 15.06704,-8.698943 -4e-5,-17.39795 -10.04467,4e-5 -5.02235,-8.699 -15.06706,8.69898 -15.06702,-8.69898 z"
       sodipodi:nodetypes="cccccccccccccc" />
    <path
       id="path19186"
       style="fill:#aad400;stroke:#ffffff;stroke-width:0.565;stroke-linecap:butt;stroke-linejoin:miter;stroke-miterlimit:4;stroke-dasharray:none;stroke-opacity:1"
       d="m 288.64461,109.37229 20.0894,3e-5 5.0224,-8.69898 15.06699,8.69898 15.06706,-8.69896 -5.02238,-8.698949 -10.04466,-4e-5 10e-6,-17.39793 -15.06708,-8.69892 -5.0223,8.69896 -10.04472,-4e-5 v 17.39796 l -15.06706,8.698939 z"
       sodipodi:nodetypes="cccccccccccccc" />
    <path
       id="path19188"
       style="fill:#aad400;fill-opacity:1;stroke:#ffffff;stroke-width:0.565;stroke-linecap:butt;stroke-linejoin:miter;stroke-miterlimit:4;stroke-dasharray:none;stroke-opacity:1"
       d="m 422.20101,206.29735 -10.0447,17.39795 5.02237,8.69896 -15.06707,8.699 3e-5,17.39796 10.04468,-7e-5 5.02238,-8.69895 15.06702,8.69898 15.06705,-8.69897 -5.02236,-8.699 5.02235,-8.69897 -15.06701,-8.69894 -2e-5,-17.39794 z"
       sodipodi:nodetypes="cccccccccccccc" />
    <path
       id="path19190"
       style="fill:#aad400;fill-opacity:1;stroke:#ffffff;stroke-width:0.565;stroke-linecap:butt;stroke-linejoin:miter;stroke-miterlimit:4;stroke-dasharray:none;stroke-opacity:1"
       d="m -450.10754,-94.663616 -10.04474,17.39794 5.02236,8.698961 -15.06704,8.69895 3e-5,17.39793 10.04466,-2e-5 5.02238,-8.69892 15.06704,8.69895 15.06701,-8.69896 -5.02234,-8.69896 5.02237,-8.69898 -15.06704,-8.698931 -2e-5,-17.39796 z"
       sodipodi:nodetypes="cccccccccccccc" />
    <path
       id="path19192"
       style="fill:#aad400;fill-opacity:1;stroke:#ffffff;stroke-width:0.565;stroke-linecap:butt;stroke-linejoin:miter;stroke-miterlimit:4;stroke-dasharray:none;stroke-opacity:1"
       d="m -480.24164,-112.06155 -10.04473,17.397943 5.02236,8.69896 -15.06704,8.69895 3e-5,17.397932 10.04466,-2e-5 5.02238,-8.69892 15.06704,8.69895 15.06702,-8.69896 -5.02235,-8.698962 5.02237,-8.69898 -15.06704,-8.69893 -2e-5,-17.397963 z"
       sodipodi:nodetypes="cccccccccccccc" />
    <path
       id="path19280"
       style="fill:#b380ff;fill-opacity:1;stroke:#ffffff;stroke-width:0.565;stroke-linecap:butt;stroke-linejoin:miter;stroke-miterlimit:4;stroke-dasharray:none;stroke-opacity:1"
       d="m 455.3404,-65.009501 10.04472,17.397923 -5.02236,8.69899 15.06701,8.698937 2e-5,17.397924 -10.04471,-1.3e-5 -5.02233,-8.698939 -15.06706,8.69897 -15.06703,-8.698998 5.02237,-8.698926 -5.02239,-8.698987 15.06707,-8.69896 -10e-6,-17.397929 z"
       sodipodi:nodetypes="cccccccccccccc" />
    <path
       id="path19282"
       style="fill:#b380ff;fill-opacity:1;stroke:#ffffff;stroke-width:0.565;stroke-linecap:butt;stroke-linejoin:miter;stroke-miterlimit:4;stroke-dasharray:none;stroke-opacity:1"
       d="m 455.3404,4.5821993 10.04473,17.3979657 -5.02236,8.698961 15.06705,8.698981 -3e-5,17.397971 -10.04468,-6.9e-5 -5.02237,-8.698962 -15.06704,8.699001 -15.06705,-8.698983 5.02236,-8.698995 -5.02236,-8.698981 15.06706,-8.698914 -2e-5,-17.3979317 z"
       sodipodi:nodetypes="cccccccccccccc" />
    <path
       id="path19284"
       style="fill:#b380ff;fill-opacity:1;stroke:#ffffff;stroke-width:0.565;stroke-linecap:butt;stroke-linejoin:miter;stroke-miterlimit:4;stroke-dasharray:none;stroke-opacity:1"
       d="m 405.11687,56.775969 -10.0447,-17.397968 5.02236,-8.698949 -15.06708,-8.699014 6e-5,-17.3979647 10.04464,7.3e-5 5.02241,8.6989647 15.06703,-8.6989907 15.06703,8.6989627 -5.02236,8.699007 5.02236,8.698969 -15.06702,8.698952 -1e-5,17.397927 z"
       sodipodi:nodetypes="cccccccccccccc" />
    <path
       id="path19286"
       style="fill:#aad400;fill-opacity:1;stroke:#ffffff;stroke-width:0.565;stroke-linecap:butt;stroke-linejoin:miter;stroke-miterlimit:4;stroke-dasharray:none;stroke-opacity:1"
       d="m 308.73397,39.780585 10.04469,-17.397944 -5.02231,-8.698966 15.06702,-8.6989713 -1e-5,-17.3979127 -10.04468,2e-5 -5.02237,8.6989707 -15.06703,-8.6989907 -15.06705,8.6990177 5.02236,8.698899 -5.02237,8.6990143 15.06704,8.698926 1e-5,17.397921 z"
       sodipodi:nodetypes="cccccccccccccc" />
    <path
       id="path19288"
       style="fill:#aad400;fill-opacity:1;stroke:#ffffff;stroke-width:0.565;stroke-linecap:butt;stroke-linejoin:miter;stroke-miterlimit:4;stroke-dasharray:none;stroke-opacity:1"
       d="m 435.25101,-30.213637 -10.04473,-17.397956 -10.04468,-4e-6 -4e-5,-17.397915 -15.06705,-8.698975 -5.02232,8.698976 5.02234,8.699 -15.06703,8.698917 2e-5,17.397946 10.04465,1.4e-5 5.0224,8.698967 15.067,-8.698958 15.06707,8.698955 z"
       sodipodi:nodetypes="cccccccccccccc" />
    <path
       id="path19290"
       style="fill:#b380ff;fill-opacity:1;stroke:#ffffff;stroke-width:0.565;stroke-linecap:butt;stroke-linejoin:miter;stroke-miterlimit:4;stroke-dasharray:none;stroke-opacity:1"
       d="m 405.11691,-82.407457 20.08941,10e-6 5.02237,8.69897 15.067,-8.69896 15.06705,8.69893 -5.02237,8.698964 -10.04468,3.2e-5 4e-5,17.39793 -15.0671,8.698926 -5.0223,-8.698974 -10.04473,3.2e-5 V -65.00953 l -15.06706,-8.698967 z"
       sodipodi:nodetypes="cccccccccccccc" />
    <path
       id="path19292"
       style="fill:#b380ff;fill-opacity:1;stroke:#ffffff;stroke-width:0.565;stroke-linecap:butt;stroke-linejoin:miter;stroke-miterlimit:4;stroke-dasharray:none;stroke-opacity:1"
       d="m 465.38511,-12.815698 -10.04473,17.3979553 -10.0447,-8e-6 3e-5,17.3978907 -15.06705,8.698978 -5.02234,-8.698969 5.02233,-8.698978 -15.06706,-8.6989477 3e-5,-17.3979233 10.04471,3e-5 5.02233,-8.69899 15.06703,8.698952 15.06708,-8.698961 z"
       sodipodi:nodetypes="cccccccccccccc" />
    <path
       id="path19294"
       style="fill:#b380ff;fill-opacity:1;stroke:#ffffff;stroke-width:0.565;stroke-linecap:butt;stroke-linejoin:miter;stroke-miterlimit:4;stroke-dasharray:none;stroke-opacity:1"
       d="m 374.98278,-30.213633 20.08941,-8e-6 5.02237,8.698961 15.06701,-8.69896 15.06705,8.698969 -5.02237,8.698969 h -10.04466 l 1e-5,17.3979443 -15.06708,8.6989267 -5.02232,-8.6989867 -10.04471,3.7e-5 -2e-5,-17.3979293 -15.06704,-8.69896 z"
       sodipodi:nodetypes="cccccccccccccc" />
    <path
       id="path19296"
       style="fill:#b380ff;fill-opacity:1;stroke:#ffffff;stroke-width:0.565;stroke-linecap:butt;stroke-linejoin:miter;stroke-miterlimit:4;stroke-dasharray:none;stroke-opacity:1"
       d="m 374.98278,-30.213663 -10.0447,-17.397937 5.02234,-8.698981 -15.06702,-8.698921 -10e-6,-17.397905 10.04469,1e-5 5.02237,8.69891 15.06705,-8.69895 15.06702,8.69899 -5.02238,8.698935 5.02242,8.698964 -15.06706,8.698966 -10e-6,17.39792 z"
       sodipodi:nodetypes="cccccccccccccc" />
    <path
       id="path19298"
       style="fill:#b380ff;fill-opacity:1;stroke:#ffffff;stroke-width:0.565;stroke-linecap:butt;stroke-linejoin:miter;stroke-miterlimit:4;stroke-dasharray:none;stroke-opacity:1"
       d="m 364.93812,-82.407437 10.04471,-17.39796 10.04471,1e-5 -3e-5,-17.397903 15.06704,-8.69897 5.02235,8.69896 -5.02234,8.69898 15.06706,8.698943 -2e-5,17.39793 -10.04471,-2e-5 -5.02233,8.69899 -15.06706,-8.69896 -15.06704,8.69896 z"
       sodipodi:nodetypes="cccccccccccccc" />
    <path
       id="path19300"
       style="fill:#b380ff;fill-opacity:1;stroke:#ffffff;stroke-width:0.565;stroke-linecap:butt;stroke-linejoin:miter;stroke-miterlimit:4;stroke-dasharray:none;stroke-opacity:1"
       d="m 405.11693,-117.20329 20.08939,-2e-5 5.02237,8.69897 15.06701,-8.69898 15.06705,8.69896 -5.02236,8.698953 -10.04469,3e-5 4e-5,17.39794 -15.06709,8.69893 -5.02234,-8.69897 -10.0447,5e-5 v -17.39796 l -15.06705,-8.698953 z"
       sodipodi:nodetypes="cccccccccccccc" />
    <path
       id="path19302"
       style="fill:#b380ff;fill-opacity:1;stroke:#ffffff;stroke-width:0.565;stroke-linecap:butt;stroke-linejoin:miter;stroke-miterlimit:4;stroke-dasharray:none;stroke-opacity:1"
       d="m 495.51916,-99.805397 -10.04468,17.39795 -10.04475,2e-5 4e-5,17.397884 -15.06705,8.698994 -5.02232,-8.698996 5.02231,-8.698952 -15.06706,-8.69894 4e-5,-17.39795 10.0447,3e-5 5.02232,-8.699003 15.06705,8.698983 15.06705,-8.698973 z"
       sodipodi:nodetypes="cccccccccccccc" />
    <path
       id="path19304"
       style="fill:#b380ff;fill-opacity:1;stroke:#ffffff;stroke-width:0.565;stroke-linecap:butt;stroke-linejoin:miter;stroke-miterlimit:4;stroke-dasharray:none;stroke-opacity:1"
       d="m 485.47448,-82.407397 10.04472,17.397932 -5.02234,8.699001 15.06702,8.698914 4e-5,17.39793 -10.0447,-3.2e-5 -5.02237,-8.69892 -15.06705,8.698972 -15.06704,-8.699019 5.02239,-8.698913 -5.02241,-8.698975 15.06708,-8.69897 -2e-5,-17.39793 z"
       sodipodi:nodetypes="cccccccccccccc" />
    <path
       id="path19306"
       style="fill:#b380ff;fill-opacity:1;stroke:#ffffff;stroke-width:0.565;stroke-linecap:butt;stroke-linejoin:miter;stroke-miterlimit:4;stroke-dasharray:none;stroke-opacity:1"
       d="m 455.34042,4.5822473 10.0447,-17.3979263 10.04472,-4.2e-5 -4e-5,-17.397879 15.06705,-8.698972 5.02234,8.698992 -5.02232,8.698948 15.06706,8.69895 -5e-5,17.3979333 -10.04469,-2.1e-5 -5.02232,8.6989777 -15.06709,-8.6989677 -15.06701,8.6990037 z"
       sodipodi:nodetypes="cccccccccccccc" />
    <path
       id="path19308"
       style="fill:#b380ff;fill-opacity:1;stroke:#ffffff;stroke-width:0.565;stroke-linecap:butt;stroke-linejoin:miter;stroke-miterlimit:4;stroke-dasharray:none;stroke-opacity:1"
       d="m 395.07216,74.173959 10.04472,-17.397949 10.04473,2.7e-5 V 39.378073 l 15.0671,-8.698962 5.02229,8.698999 -5.02235,8.698997 15.06704,8.698901 2e-5,17.397954 h -10.04474 l -5.02237,8.698957 -15.067,-8.698935 -15.06709,8.698962 z"
       sodipodi:nodetypes="cccccccccccccc" />
    <path
       id="path31911"
       style="fill:#aad400;fill-opacity:1;stroke:#ffffff;stroke-width:0.565;stroke-linecap:butt;stroke-linejoin:miter;stroke-miterlimit:4;stroke-dasharray:none;stroke-opacity:1"
       d="m 218.33168,57.178512 10.0447,17.39794 10.0447,1e-5 v 17.39793 l 15.06707,8.698958 5.02233,-8.698978 -5.02236,-8.69897 15.06707,-8.69894 v -17.39791 l -10.04471,-2e-5 -5.02236,-8.69898 -15.06703,8.69895 -15.06705,-8.69894 z"
       sodipodi:nodetypes="cccccccccccccc" />
    <path
       id="path31913"
       style="fill:#aad400;fill-opacity:1;stroke:#ffffff;stroke-width:0.565;stroke-linecap:butt;stroke-linejoin:miter;stroke-miterlimit:4;stroke-dasharray:none;stroke-opacity:1"
       d="m 146.54498,95.70425 h -20.0894 l -5.02237,8.69894 -15.06706,-8.69893 -15.06705,8.69896 5.02236,8.69896 10.04471,-1e-5 -3e-5,17.39793 15.06705,8.69898 5.02237,-8.699 10.04472,2e-5 v -17.39791 l 15.06703,-8.69899 z"
       sodipodi:nodetypes="cccccccccccccc" />
    <path
       id="path32363"
       style="fill:#aad400;fill-opacity:1;stroke:#ffffff;stroke-width:0.565;stroke-linecap:butt;stroke-linejoin:miter;stroke-miterlimit:4;stroke-dasharray:none;stroke-opacity:1"
       d="m 392.06692,293.28703 h 20.08942 l 5.02233,-8.69899 15.06709,8.69897 15.06706,-8.69901 -5.0224,-8.69891 -10.0447,-3e-5 3e-5,-17.39792 -15.06704,-8.69896 -5.02239,8.69899 h -10.0447 v 17.39789 l -15.06705,8.69897 z"
       sodipodi:nodetypes="cccccccccccccc" />
    <path
       id="path32365"
       style="fill:#aad400;fill-opacity:1;stroke:#ffffff;stroke-width:0.565;stroke-linecap:butt;stroke-linejoin:miter;stroke-miterlimit:4;stroke-dasharray:none;stroke-opacity:1"
       d="m 452.33511,223.69528 -10.04471,17.39795 5.02238,8.69896 -15.06707,8.699 3e-5,17.39796 10.04468,-7e-5 5.02237,-8.69895 15.06703,8.69898 15.06703,-8.69896 -5.02234,-8.69901 5.02235,-8.69896 -15.06701,-8.69895 -10e-6,-17.39793 z"
       sodipodi:nodetypes="cccccccccccccc" />
    <path
       id="path32367"
       style="fill:#aad400;fill-opacity:1;stroke:#ffffff;stroke-width:0.565;stroke-linecap:butt;stroke-linejoin:miter;stroke-miterlimit:4;stroke-dasharray:none;stroke-opacity:1"
       d="m 412.1563,188.89942 10.04471,17.39795 10.04472,-3e-5 1e-5,17.39797 15.0671,8.69895 5.02227,-8.69898 -5.02232,-8.69898 15.06705,-8.69894 v -17.39791 l -10.04474,-3e-5 -5.02235,-8.69896 -15.06701,8.69894 -15.06706,-8.69896 z"
       sodipodi:nodetypes="cccccccccccccc" />
    <path
       id="path32369"
       style="fill:#aad400;fill-opacity:1;stroke:#ffffff;stroke-width:0.565;stroke-linecap:butt;stroke-linejoin:miter;stroke-miterlimit:4;stroke-dasharray:none;stroke-opacity:1"
       d="m 452.33512,223.69529 h 20.08942 l 5.02233,-8.69899 15.06709,8.69897 15.06706,-8.69901 -5.0224,-8.69891 -10.0447,-3e-5 3e-5,-17.39792 -15.06704,-8.69895 -5.02239,8.69898 h -10.04469 v 17.39789 l -15.06705,8.69897 z"
       sodipodi:nodetypes="cccccccccccccc" />
    <path
       id="path32371"
       style="fill:#b380ff;stroke:#ffffff;stroke-width:0.565;stroke-linecap:butt;stroke-linejoin:miter;stroke-miterlimit:4;stroke-dasharray:none;stroke-opacity:1"
       d="m 392.06693,258.49118 -10.04471,-17.39797 5.02235,-8.6989 -15.06703,-8.699 -10e-6,-17.39797 10.04471,4e-5 5.02236,8.69897 15.06701,-8.69901 15.06706,8.69901 -5.02235,8.69892 5.02235,8.69902 -15.06704,8.69894 1e-5,17.39793 z"
       sodipodi:nodetypes="cccccccccccccc" />
    <path
       id="path32373"
       style="fill:#aad400;fill-opacity:1;stroke:#ffffff;stroke-width:0.565;stroke-linecap:butt;stroke-linejoin:miter;stroke-miterlimit:4;stroke-dasharray:none;stroke-opacity:1"
       d="m 422.20104,206.29739 -10.04471,-17.39795 -10.04471,2e-5 -3e-5,-17.39796 -15.06707,-8.69895 -5.02229,8.69898 5.02233,8.69898 -15.06704,8.69894 v 17.3979 l 10.04473,3e-5 5.02234,8.69896 15.06702,-8.69892 15.06705,8.69894 z"
       sodipodi:nodetypes="cccccccccccccc" />
    <path
       id="path32375"
       style="fill:#aad400;fill-opacity:1;stroke:#ffffff;stroke-width:0.565;stroke-linecap:butt;stroke-linejoin:miter;stroke-miterlimit:4;stroke-dasharray:none;stroke-opacity:1"
       d="m 482.46929,310.68491 -10.04471,-17.39795 -10.04471,2e-5 -3e-5,-17.39796 -15.06707,-8.69895 -5.02229,8.69898 5.02233,8.69898 -15.06704,8.69894 v 17.3979 l 10.04473,3e-5 5.02234,8.69896 15.06702,-8.69891 15.06705,8.69893 z"
       sodipodi:nodetypes="cccccccccccccc" />
    <path
       id="path32377"
       style="fill:#b380ff;stroke:#ffffff;stroke-width:0.565;stroke-linecap:butt;stroke-linejoin:miter;stroke-miterlimit:4;stroke-dasharray:none;stroke-opacity:1"
       d="m 265.68638,159.62509 10.04471,17.39797 -5.02234,8.6989 15.06703,8.699 v 17.39797 l -10.0447,-4e-5 -5.02237,-8.69897 -15.06702,8.699 -15.06705,-8.69901 5.02235,-8.69891 -5.02235,-8.69902 15.06704,-8.69895 v -17.39792 z"
       sodipodi:nodetypes="cccccccccccccc" />
    <path
       id="path32379"
       style="fill:#aad400;fill-opacity:1;stroke:#ffffff;stroke-width:0.565;stroke-linecap:butt;stroke-linejoin:miter;stroke-miterlimit:4;stroke-dasharray:none;stroke-opacity:1"
       d="m 392.06691,328.08287 h 20.08942 l 5.02233,-8.69897 15.0671,8.69894 15.06704,-8.699 -5.02239,-8.69892 -10.0447,-10e-6 2e-5,-17.39792 -15.06703,-8.69893 -5.02239,8.69896 -10.04469,1e-5 -2e-5,17.39787 -15.06704,8.69899 z"
       sodipodi:nodetypes="cccccccccccccc" />
    <path
       id="path32381"
       style="fill:#b380ff;stroke:#ffffff;stroke-width:0.565;stroke-linecap:butt;stroke-linejoin:miter;stroke-miterlimit:4;stroke-dasharray:none;stroke-opacity:1"
       d="m 472.42451,188.89942 -20.08944,-1e-5 -5.02229,-8.69893 -15.06707,8.69893 -15.06709,-8.69898 5.02239,-8.69895 10.04471,-10e-6 -6e-5,-17.39792 15.0671,-8.69895 5.02231,8.69894 10.04474,3e-5 -1e-5,17.39791 15.06705,8.69896 z"
       sodipodi:nodetypes="cccccccccccccc" />
    <path
       id="path32383"
       style="fill:#aad400;fill-opacity:1;stroke:#ffffff;stroke-width:0.565;stroke-linecap:butt;stroke-linejoin:miter;stroke-miterlimit:4;stroke-dasharray:none;stroke-opacity:1"
       d="m 515.48239,163.64649 10.04471,-17.39795 -5.02238,-8.69896 15.06708,-8.699 -4e-5,-17.39796 -10.04468,7e-5 -5.02237,8.69894 -15.06703,-8.69898 -15.06703,8.69897 5.02234,8.699 -5.02235,8.69896 15.06702,8.69895 1e-5,17.39792 z"
       sodipodi:nodetypes="cccccccccccccc" />
    <path
       id="path32385"
       style="fill:#b380ff;stroke:#ffffff;stroke-width:0.565;stroke-linecap:butt;stroke-linejoin:miter;stroke-miterlimit:4;stroke-dasharray:none;stroke-opacity:1"
       d="m 579.73501,128.3488 -10e-6,20.08944 -8.69892,5.02229 8.69893,15.06707 -8.69898,15.0671 -8.69895,-5.0224 -10e-6,-10.04471 -17.39792,6e-5 -8.69895,-15.0671 8.69895,-5.02232 10e-6,-10.04473 17.39793,1e-5 8.69895,-15.06705 z"
       sodipodi:nodetypes="cccccccccccccc" />
  </g>
  <g
     inkscape:groupmode="layer"
     id="layer2"
     inkscape:label="Layer 2"
     sodipodi:insensitive="true"
     style="display:none">
    <path
       id="path12614"
       style="fill:none;stroke:#000000;stroke-width:0.264583px;stroke-linecap:butt;stroke-linejoin:miter;stroke-opacity:0.5"
       d="m 137.97402,161.83068 -10.04466,-17.39796 10.04467,-17.39793 20.08942,5e-5 10.04472,17.39791 -10.04474,17.39793 z"
       sodipodi:nodetypes="ccccccc" />
    <path
       id="path12752"
       style="fill:none;stroke:#000000;stroke-width:0.264583px;stroke-linecap:butt;stroke-linejoin:miter;stroke-opacity:0.5"
       d="m 137.97403,127.03479 -10.04466,-17.39796 10.04467,-17.39793 20.08942,5e-5 10.04472,17.39791 -10.04474,17.39793 z"
       sodipodi:nodetypes="ccccccc" />
    <path
       id="path12754"
       style="fill:none;stroke:#000000;stroke-width:0.264583px;stroke-linecap:butt;stroke-linejoin:miter;stroke-opacity:0.5"
       d="m 137.97402,92.238955 -10.04466,-17.39796 10.04467,-17.39793 20.08942,5e-5 10.04472,17.39791 -10.04474,17.39793 z"
       sodipodi:nodetypes="ccccccc" />
    <path
       id="path12756"
       style="fill:none;stroke:#000000;stroke-width:0.264583px;stroke-linecap:butt;stroke-linejoin:miter;stroke-opacity:0.5"
       d="m 168.10811,144.43271 -10.04466,-17.39796 10.04467,-17.39793 20.08942,5e-5 10.04472,17.39791 -10.04474,17.39793 z"
       sodipodi:nodetypes="ccccccc" />
    <path
       id="path12758"
       style="fill:none;stroke:#000000;stroke-width:0.264583px;stroke-linecap:butt;stroke-linejoin:miter;stroke-opacity:0.5"
       d="m 168.10812,109.63682 -10.04466,-17.397959 10.04467,-17.39793 20.08942,5e-5 10.04472,17.39791 -10.04474,17.397929 z"
       sodipodi:nodetypes="ccccccc" />
    <path
       id="path12760"
       style="fill:none;stroke:#000000;stroke-width:0.264583px;stroke-linecap:butt;stroke-linejoin:miter;stroke-opacity:0.5"
       d="m 168.10811,74.840986 -10.04466,-17.39796 10.04467,-17.39793 20.08942,5e-5 10.04472,17.39791 -10.04474,17.39793 z"
       sodipodi:nodetypes="ccccccc" />
    <path
       id="path12781"
       style="fill:none;stroke:#000000;stroke-width:0.264583px;stroke-linecap:butt;stroke-linejoin:miter;stroke-opacity:0.5"
       d="m 77.705816,161.83068 -10.04466,-17.39796 10.04467,-17.39793 20.08942,5e-5 10.044724,17.39791 -10.044744,17.39793 z"
       sodipodi:nodetypes="ccccccc" />
    <path
       id="path12783"
       style="fill:none;stroke:#000000;stroke-width:0.264583px;stroke-linecap:butt;stroke-linejoin:miter;stroke-opacity:0.5"
       d="m 77.705826,127.03479 -10.04466,-17.39796 10.04467,-17.397935 20.08942,5e-5 10.044724,17.397915 -10.044744,17.39793 z"
       sodipodi:nodetypes="ccccccc" />
    <path
       id="path12785"
       style="fill:none;stroke:#000000;stroke-width:0.264583px;stroke-linecap:butt;stroke-linejoin:miter;stroke-opacity:0.5"
       d="m 77.705816,92.23895 -10.04466,-17.39796 10.04467,-17.39793 20.08942,5e-5 10.044724,17.39791 -10.044744,17.39793 z"
       sodipodi:nodetypes="ccccccc" />
    <path
       id="path12787"
       style="fill:none;stroke:#000000;stroke-width:0.264583px;stroke-linecap:butt;stroke-linejoin:miter;stroke-opacity:0.5"
       d="m 107.83991,144.43271 -10.044664,-17.39796 10.044674,-17.39793 20.08942,5e-5 10.04472,17.39791 -10.04474,17.39793 z"
       sodipodi:nodetypes="ccccccc" />
    <path
       id="path12789"
       style="fill:none;stroke:#000000;stroke-width:0.264583px;stroke-linecap:butt;stroke-linejoin:miter;stroke-opacity:0.5"
       d="m 107.83992,109.63682 -10.044664,-17.397964 10.044674,-17.39793 20.08942,5e-5 10.04472,17.39791 -10.04474,17.397934 z"
       sodipodi:nodetypes="ccccccc" />
    <path
       id="path12791"
       style="fill:none;stroke:#000000;stroke-width:0.264583px;stroke-linecap:butt;stroke-linejoin:miter;stroke-opacity:0.5"
       d="m 107.83991,74.840981 -10.044664,-17.39796 10.044674,-17.39793 20.08942,5e-5 10.04472,17.39791 -10.04474,17.39793 z"
       sodipodi:nodetypes="ccccccc" />
    <path
       id="path12793"
       style="fill:none;stroke:#000000;stroke-width:0.264583px;stroke-linecap:butt;stroke-linejoin:miter;stroke-opacity:0.5"
       d="m 258.51039,161.83073 -10.04466,-17.39796 10.04467,-17.39793 20.08942,5e-5 10.04472,17.39791 -10.04474,17.39793 z"
       sodipodi:nodetypes="ccccccc" />
    <path
       id="path12795"
       style="fill:none;stroke:#000000;stroke-width:0.264583px;stroke-linecap:butt;stroke-linejoin:miter;stroke-opacity:0.5"
       d="m 258.5104,127.03484 -10.04466,-17.39796 10.04467,-17.39793 20.08942,5e-5 10.04472,17.39791 -10.04474,17.39793 z"
       sodipodi:nodetypes="ccccccc" />
    <path
       id="path12797"
       style="fill:none;stroke:#000000;stroke-width:0.264583px;stroke-linecap:butt;stroke-linejoin:miter;stroke-opacity:0.5"
       d="m 258.51039,92.239005 -10.04466,-17.39796 10.04467,-17.39793 20.08942,5e-5 10.04472,17.39791 -10.04474,17.39793 z"
       sodipodi:nodetypes="ccccccc" />
    <path
       id="path12799"
       style="fill:none;stroke:#000000;stroke-width:0.264583px;stroke-linecap:butt;stroke-linejoin:miter;stroke-opacity:0.5"
       d="m 288.64448,144.43276 -10.04466,-17.39796 10.04467,-17.39793 20.08942,5e-5 10.04472,17.39791 -10.04474,17.39793 z"
       sodipodi:nodetypes="ccccccc" />
    <path
       id="path12801"
       style="fill:none;stroke:#000000;stroke-width:0.264583px;stroke-linecap:butt;stroke-linejoin:miter;stroke-opacity:0.5"
       d="m 288.64449,109.63687 -10.04466,-17.397959 10.04467,-17.39793 20.08942,5e-5 10.04472,17.39791 -10.04474,17.397929 z"
       sodipodi:nodetypes="ccccccc" />
    <path
       id="path12803"
       style="fill:none;stroke:#000000;stroke-width:0.264583px;stroke-linecap:butt;stroke-linejoin:miter;stroke-opacity:0.5"
       d="m 288.64448,74.841036 -10.04466,-17.39796 10.04467,-17.39793 20.08942,5e-5 10.04472,17.39791 -10.04474,17.39793 z"
       sodipodi:nodetypes="ccccccc" />
    <path
       id="path12805"
       style="fill:none;stroke:#000000;stroke-width:0.264583px;stroke-linecap:butt;stroke-linejoin:miter;stroke-opacity:0.5"
       d="m 198.24218,161.83073 -10.04466,-17.39796 10.04467,-17.39793 20.08942,5e-5 10.04473,17.39791 -10.04475,17.39793 z"
       sodipodi:nodetypes="ccccccc" />
    <path
       id="path12807"
       style="fill:none;stroke:#000000;stroke-width:0.264583px;stroke-linecap:butt;stroke-linejoin:miter;stroke-opacity:0.5"
       d="m 198.24219,127.03484 -10.04465,-17.39796 10.04467,-17.397935 20.08941,5e-5 10.04473,17.397915 -10.04474,17.39793 z"
       sodipodi:nodetypes="ccccccc" />
    <path
       id="path12809"
       style="fill:none;stroke:#000000;stroke-width:0.264583px;stroke-linecap:butt;stroke-linejoin:miter;stroke-opacity:0.5"
       d="m 198.24218,92.239 -10.04466,-17.39796 10.04467,-17.39793 20.08942,5e-5 10.04473,17.39791 -10.04475,17.39793 z"
       sodipodi:nodetypes="ccccccc" />
    <path
       id="path12811"
       style="fill:none;stroke:#000000;stroke-width:0.264583px;stroke-linecap:butt;stroke-linejoin:miter;stroke-opacity:0.5"
       d="m 228.37628,144.43276 -10.04467,-17.39796 10.04468,-17.39793 20.08942,5e-5 10.04472,17.39791 -10.04474,17.39793 z"
       sodipodi:nodetypes="ccccccc" />
    <path
       id="path12813"
       style="fill:none;stroke:#000000;stroke-width:0.264583px;stroke-linecap:butt;stroke-linejoin:miter;stroke-opacity:0.5"
       d="m 228.37629,109.63687 -10.04467,-17.397964 10.04468,-17.39793 20.08942,5e-5 10.04472,17.39791 -10.04474,17.397934 z"
       sodipodi:nodetypes="ccccccc" />
    <path
       id="path12815"
       style="fill:none;stroke:#000000;stroke-width:0.264583px;stroke-linecap:butt;stroke-linejoin:miter;stroke-opacity:0.5"
       d="m 228.37628,74.841031 -10.04467,-17.39796 10.04468,-17.39793 20.08942,5e-5 10.04472,17.39791 -10.04474,17.39793 z"
       sodipodi:nodetypes="ccccccc" />
    <path
       id="path12817"
       style="fill:none;stroke:#000000;stroke-width:0.264583px;stroke-linecap:butt;stroke-linejoin:miter;stroke-opacity:0.5"
       d="m 17.437586,161.83068 -10.04466,-17.39796 10.04467,-17.39793 20.08942,5e-5 10.04472,17.39791 -10.04474,17.39793 z"
       sodipodi:nodetypes="ccccccc" />
    <path
       id="path12819"
       style="fill:none;stroke:#000000;stroke-width:0.264583px;stroke-linecap:butt;stroke-linejoin:miter;stroke-opacity:0.5"
       d="m 17.437596,127.03479 -10.04466,-17.39796 10.04467,-17.397926 20.08942,5e-5 10.04472,17.397906 -10.04474,17.39793 z"
       sodipodi:nodetypes="ccccccc" />
    <path
       id="path12821"
       style="fill:none;stroke:#000000;stroke-width:0.264583px;stroke-linecap:butt;stroke-linejoin:miter;stroke-opacity:0.5"
       d="m 17.437586,92.238959 -10.04466,-17.39796 10.04467,-17.39793 20.08942,5e-5 10.04472,17.39791 -10.04474,17.39793 z"
       sodipodi:nodetypes="ccccccc" />
    <path
       id="path12823"
       style="fill:none;stroke:#000000;stroke-width:0.264583px;stroke-linecap:butt;stroke-linejoin:miter;stroke-opacity:0.5"
       d="m 47.571676,144.43271 -10.04466,-17.39796 10.04467,-17.39793 20.08942,5e-5 10.04472,17.39791 -10.04474,17.39793 z"
       sodipodi:nodetypes="ccccccc" />
    <path
       id="path12825"
       style="fill:none;stroke:#000000;stroke-width:0.264583px;stroke-linecap:butt;stroke-linejoin:miter;stroke-opacity:0.5"
       d="m 47.571686,109.63682 -10.04466,-17.397955 10.04467,-17.39793 20.08942,5e-5 10.04472,17.39791 -10.04474,17.397925 z"
       sodipodi:nodetypes="ccccccc" />
    <path
       id="path12827"
       style="fill:none;stroke:#000000;stroke-width:0.264583px;stroke-linecap:butt;stroke-linejoin:miter;stroke-opacity:0.5"
       d="m 47.571676,74.84099 -10.04466,-17.39796 10.04467,-17.39793 20.08942,5e-5 10.04472,17.39791 -10.04474,17.39793 z"
       sodipodi:nodetypes="ccccccc" />
    <path
       id="path12829"
       style="fill:none;stroke:#000000;stroke-width:0.264583px;stroke-linecap:butt;stroke-linejoin:miter;stroke-opacity:0.5"
       d="m -42.830624,161.83068 -10.04466,-17.39796 10.04467,-17.39793 20.08942,5e-5 10.04473,17.39791 -10.04475,17.39793 z"
       sodipodi:nodetypes="ccccccc" />
    <path
       id="path12831"
       style="fill:none;stroke:#000000;stroke-width:0.264583px;stroke-linecap:butt;stroke-linejoin:miter;stroke-opacity:0.5"
       d="m -42.830614,127.03479 -10.04465,-17.39796 10.04467,-17.397931 20.08941,5e-5 10.04473,17.397911 -10.04474,17.39793 z"
       sodipodi:nodetypes="ccccccc" />
    <path
       id="path12833"
       style="fill:none;stroke:#000000;stroke-width:0.264583px;stroke-linecap:butt;stroke-linejoin:miter;stroke-opacity:0.5"
       d="m -42.830624,92.238954 -10.04466,-17.39796 10.04467,-17.39793 20.08942,5e-5 10.04473,17.39791 -10.04475,17.39793 z"
       sodipodi:nodetypes="ccccccc" />
    <path
       id="path12835"
       style="fill:none;stroke:#000000;stroke-width:0.264583px;stroke-linecap:butt;stroke-linejoin:miter;stroke-opacity:0.5"
       d="m -12.696524,144.43271 -10.04467,-17.39796 10.04468,-17.39793 20.08942,5e-5 10.04472,17.39791 -10.04474,17.39793 z"
       sodipodi:nodetypes="ccccccc" />
    <path
       id="path12837"
       style="fill:none;stroke:#000000;stroke-width:0.264583px;stroke-linecap:butt;stroke-linejoin:miter;stroke-opacity:0.5"
       d="m -12.696514,109.63682 -10.04467,-17.39796 10.04468,-17.39793 20.08942,5e-5 10.04472,17.39791 -10.04474,17.39793 z"
       sodipodi:nodetypes="ccccccc" />
    <path
       id="path12839"
       style="fill:none;stroke:#000000;stroke-width:0.264583px;stroke-linecap:butt;stroke-linejoin:miter;stroke-opacity:0.5"
       d="m -12.696524,74.840985 -10.04467,-17.39796 10.04468,-17.39793 20.08942,5e-5 10.04472,17.39791 -10.04474,17.39793 z"
       sodipodi:nodetypes="ccccccc" />
    <path
       id="path12841"
       style="fill:none;stroke:#000000;stroke-width:0.264583px;stroke-linecap:butt;stroke-linejoin:miter;stroke-opacity:0.5"
       d="m 137.97401,266.2183 -10.04466,-17.39796 10.04467,-17.39793 20.08942,5e-5 10.04472,17.39791 -10.04474,17.39793 z"
       sodipodi:nodetypes="ccccccc" />
    <path
       id="path12843"
       style="fill:none;stroke:#000000;stroke-width:0.264583px;stroke-linecap:butt;stroke-linejoin:miter;stroke-opacity:0.5"
       d="m 137.97402,231.42241 -10.04466,-17.39796 10.04467,-17.39793 20.08942,5e-5 10.04472,17.39791 -10.04474,17.39793 z"
       sodipodi:nodetypes="ccccccc" />
    <path
       id="path12845"
       style="fill:none;stroke:#000000;stroke-width:0.264583px;stroke-linecap:butt;stroke-linejoin:miter;stroke-opacity:0.5"
       d="m 137.97401,196.62657 -10.04466,-17.39796 10.04467,-17.39793 20.08942,5e-5 10.04472,17.39791 -10.04474,17.39793 z"
       sodipodi:nodetypes="ccccccc" />
    <path
       id="path12847"
       style="fill:none;stroke:#000000;stroke-width:0.264583px;stroke-linecap:butt;stroke-linejoin:miter;stroke-opacity:0.5"
       d="m 168.1081,248.82033 -10.04466,-17.39796 10.04467,-17.39793 20.08942,5e-5 10.04472,17.39791 -10.04474,17.39793 z"
       sodipodi:nodetypes="ccccccc" />
    <path
       id="path12849"
       style="fill:none;stroke:#000000;stroke-width:0.264583px;stroke-linecap:butt;stroke-linejoin:miter;stroke-opacity:0.5"
       d="m 168.10811,214.02444 -10.04466,-17.39796 10.04467,-17.39793 20.08942,5e-5 10.04472,17.39791 -10.04474,17.39793 z"
       sodipodi:nodetypes="ccccccc" />
    <path
       id="path12851"
       style="fill:none;stroke:#000000;stroke-width:0.264583px;stroke-linecap:butt;stroke-linejoin:miter;stroke-opacity:0.5"
       d="m 168.1081,179.2286 -10.04466,-17.39796 10.04467,-17.39793 20.08942,5e-5 10.04472,17.39791 -10.04474,17.39793 z"
       sodipodi:nodetypes="ccccccc" />
    <path
       id="path12853"
       style="fill:none;stroke:#000000;stroke-width:0.264583px;stroke-linecap:butt;stroke-linejoin:miter;stroke-opacity:0.5"
       d="m 77.705806,266.2183 -10.04466,-17.39796 10.04467,-17.39793 20.08942,5e-5 10.044724,17.39791 -10.044744,17.39793 z"
       sodipodi:nodetypes="ccccccc" />
    <path
       id="path12855"
       style="fill:none;stroke:#000000;stroke-width:0.264583px;stroke-linecap:butt;stroke-linejoin:miter;stroke-opacity:0.5"
       d="m 77.705816,231.42241 -10.04466,-17.39796 10.04467,-17.39794 20.08942,5e-5 10.044724,17.39792 -10.044744,17.39793 z"
       sodipodi:nodetypes="ccccccc" />
    <path
       id="path12857"
       style="fill:none;stroke:#000000;stroke-width:0.264583px;stroke-linecap:butt;stroke-linejoin:miter;stroke-opacity:0.5"
       d="m 77.705806,196.62657 -10.04466,-17.39796 10.04467,-17.39793 20.08942,5e-5 10.044724,17.39791 -10.044744,17.39793 z"
       sodipodi:nodetypes="ccccccc" />
    <path
       id="path12859"
       style="fill:none;stroke:#000000;stroke-width:0.264583px;stroke-linecap:butt;stroke-linejoin:miter;stroke-opacity:0.5"
       d="m 107.8399,248.82033 -10.044664,-17.39796 10.044674,-17.39793 20.08942,5e-5 10.04472,17.39791 -10.04474,17.39793 z"
       sodipodi:nodetypes="ccccccc" />
    <path
       id="path12861"
       style="fill:none;stroke:#000000;stroke-width:0.264583px;stroke-linecap:butt;stroke-linejoin:miter;stroke-opacity:0.5"
       d="m 107.83991,214.02444 -10.044664,-17.39797 10.044674,-17.39793 20.08942,5e-5 10.04472,17.39791 -10.04474,17.39794 z"
       sodipodi:nodetypes="ccccccc" />
    <path
       id="path12863"
       style="fill:none;stroke:#000000;stroke-width:0.264583px;stroke-linecap:butt;stroke-linejoin:miter;stroke-opacity:0.5"
       d="m 107.8399,179.2286 -10.044664,-17.39796 10.044674,-17.39793 20.08942,5e-5 10.04472,17.39791 -10.04474,17.39793 z"
       sodipodi:nodetypes="ccccccc" />
    <path
       id="path12865"
       style="fill:none;stroke:#000000;stroke-width:0.264583px;stroke-linecap:butt;stroke-linejoin:miter;stroke-opacity:0.5"
       d="m 258.51038,266.21835 -10.04466,-17.39796 10.04467,-17.39793 20.08942,5e-5 10.04472,17.39791 -10.04474,17.39793 z"
       sodipodi:nodetypes="ccccccc" />
    <path
       id="path12867"
       style="fill:none;stroke:#000000;stroke-width:0.264583px;stroke-linecap:butt;stroke-linejoin:miter;stroke-opacity:0.5"
       d="m 258.51039,231.42246 -10.04466,-17.39796 10.04467,-17.39793 20.08942,5e-5 10.04472,17.39791 -10.04474,17.39793 z"
       sodipodi:nodetypes="ccccccc" />
    <path
       id="path12869"
       style="fill:none;stroke:#000000;stroke-width:0.264583px;stroke-linecap:butt;stroke-linejoin:miter;stroke-opacity:0.5"
       d="m 258.51038,196.62662 -10.04466,-17.39796 10.04467,-17.39793 20.08942,5e-5 10.04472,17.39791 -10.04474,17.39793 z"
       sodipodi:nodetypes="ccccccc" />
    <path
       id="path12871"
       style="fill:none;stroke:#000000;stroke-width:0.264583px;stroke-linecap:butt;stroke-linejoin:miter;stroke-opacity:0.5"
       d="m 288.64447,248.82038 -10.04466,-17.39796 10.04467,-17.39793 20.08942,5e-5 10.04472,17.39791 -10.04474,17.39793 z"
       sodipodi:nodetypes="ccccccc" />
    <path
       id="path12873"
       style="fill:none;stroke:#000000;stroke-width:0.264583px;stroke-linecap:butt;stroke-linejoin:miter;stroke-opacity:0.5"
       d="m 288.64448,214.02449 -10.04466,-17.39796 10.04467,-17.39793 20.08942,5e-5 10.04472,17.39791 -10.04474,17.39793 z"
       sodipodi:nodetypes="ccccccc" />
    <path
       id="path12875"
       style="fill:none;stroke:#000000;stroke-width:0.264583px;stroke-linecap:butt;stroke-linejoin:miter;stroke-opacity:0.5"
       d="m 288.64447,179.22865 -10.04466,-17.39796 10.04467,-17.39793 20.08942,5e-5 10.04472,17.39791 -10.04474,17.39793 z"
       sodipodi:nodetypes="ccccccc" />
    <path
       id="path12877"
       style="fill:none;stroke:#000000;stroke-width:0.264583px;stroke-linecap:butt;stroke-linejoin:miter;stroke-opacity:0.5"
       d="m 198.24217,266.21835 -10.04466,-17.39796 10.04467,-17.39793 20.08942,5e-5 10.04473,17.39791 -10.04475,17.39793 z"
       sodipodi:nodetypes="ccccccc" />
    <path
       id="path12879"
       style="fill:none;stroke:#000000;stroke-width:0.264583px;stroke-linecap:butt;stroke-linejoin:miter;stroke-opacity:0.5"
       d="m 198.24218,231.42246 -10.04465,-17.39796 10.04467,-17.39794 20.08941,5e-5 10.04473,17.39792 -10.04474,17.39793 z"
       sodipodi:nodetypes="ccccccc" />
    <path
       id="path12881"
       style="fill:none;stroke:#000000;stroke-width:0.264583px;stroke-linecap:butt;stroke-linejoin:miter;stroke-opacity:0.5"
       d="m 198.24217,196.62662 -10.04466,-17.39796 10.04467,-17.39793 20.08942,5e-5 10.04473,17.39791 -10.04475,17.39793 z"
       sodipodi:nodetypes="ccccccc" />
    <path
       id="path12883"
       style="fill:none;stroke:#000000;stroke-width:0.264583px;stroke-linecap:butt;stroke-linejoin:miter;stroke-opacity:0.5"
       d="m 228.37627,248.82038 -10.04467,-17.39796 10.04468,-17.39793 20.08942,5e-5 10.04472,17.39791 -10.04474,17.39793 z"
       sodipodi:nodetypes="ccccccc" />
    <path
       id="path12885"
       style="fill:none;stroke:#000000;stroke-width:0.264583px;stroke-linecap:butt;stroke-linejoin:miter;stroke-opacity:0.5"
       d="m 228.37628,214.02449 -10.04467,-17.39797 10.04468,-17.39793 20.08942,5e-5 10.04472,17.39791 -10.04474,17.39794 z"
       sodipodi:nodetypes="ccccccc" />
    <path
       id="path12887"
       style="fill:none;stroke:#000000;stroke-width:0.264583px;stroke-linecap:butt;stroke-linejoin:miter;stroke-opacity:0.5"
       d="m 228.37627,179.22865 -10.04467,-17.39796 10.04468,-17.39793 20.08942,5e-5 10.04472,17.39791 -10.04474,17.39793 z"
       sodipodi:nodetypes="ccccccc" />
    <path
       id="path12889"
       style="fill:none;stroke:#000000;stroke-width:0.264583px;stroke-linecap:butt;stroke-linejoin:miter;stroke-opacity:0.5"
       d="m 17.437576,266.2183 -10.04466,-17.39796 10.04467,-17.39793 20.08942,5e-5 10.04472,17.39791 -10.04474,17.39793 z"
       sodipodi:nodetypes="ccccccc" />
    <path
       id="path12891"
       style="fill:none;stroke:#000000;stroke-width:0.264583px;stroke-linecap:butt;stroke-linejoin:miter;stroke-opacity:0.5"
       d="m 17.437586,231.42241 -10.04466,-17.39796 10.04467,-17.39793 20.08942,5e-5 10.04472,17.39791 -10.04474,17.39793 z"
       sodipodi:nodetypes="ccccccc" />
    <path
       id="path12893"
       style="fill:none;stroke:#000000;stroke-width:0.264583px;stroke-linecap:butt;stroke-linejoin:miter;stroke-opacity:0.5"
       d="m 17.437576,196.62657 -10.04466,-17.39796 10.04467,-17.39792 20.08942,4e-5 10.04472,17.39791 -10.04474,17.39793 z"
       sodipodi:nodetypes="ccccccc" />
    <path
       id="path12895"
       style="fill:none;stroke:#000000;stroke-width:0.264583px;stroke-linecap:butt;stroke-linejoin:miter;stroke-opacity:0.5"
       d="m 47.571666,248.82033 -10.04466,-17.39796 10.04467,-17.39793 20.08942,5e-5 10.04472,17.39791 -10.04474,17.39793 z"
       sodipodi:nodetypes="ccccccc" />
    <path
       id="path12897"
       style="fill:none;stroke:#000000;stroke-width:0.264583px;stroke-linecap:butt;stroke-linejoin:miter;stroke-opacity:0.5"
       d="m 47.571676,214.02444 -10.04466,-17.39796 10.04467,-17.39793 20.08942,5e-5 10.04472,17.39791 -10.04474,17.39793 z"
       sodipodi:nodetypes="ccccccc" />
    <path
       id="path12899"
       style="fill:none;stroke:#000000;stroke-width:0.264583px;stroke-linecap:butt;stroke-linejoin:miter;stroke-opacity:0.5"
       d="m 47.571666,179.22861 -10.04466,-17.39796 10.04467,-17.39793 20.08942,5e-5 10.04472,17.39791 -10.04474,17.39793 z"
       sodipodi:nodetypes="ccccccc" />
    <path
       id="path12901"
       style="fill:none;stroke:#000000;stroke-width:0.264583px;stroke-linecap:butt;stroke-linejoin:miter;stroke-opacity:0.5"
       d="m -42.830634,266.2183 -10.04466,-17.39796 10.04467,-17.39793 20.08942,5e-5 10.04473,17.39791 -10.04475,17.39793 z"
       sodipodi:nodetypes="ccccccc" />
    <path
       id="path12903"
       style="fill:none;stroke:#000000;stroke-width:0.264583px;stroke-linecap:butt;stroke-linejoin:miter;stroke-opacity:0.5"
       d="m -42.830624,231.42241 -10.04465,-17.39796 10.04467,-17.39794 20.08941,6e-5 10.04473,17.39791 -10.04474,17.39793 z"
       sodipodi:nodetypes="ccccccc" />
    <path
       id="path12905"
       style="fill:none;stroke:#000000;stroke-width:0.264583px;stroke-linecap:butt;stroke-linejoin:miter;stroke-opacity:0.5"
       d="m -42.830634,196.62657 -10.04466,-17.39796 10.04467,-17.39793 20.08942,5e-5 10.04473,17.39791 -10.04475,17.39793 z"
       sodipodi:nodetypes="ccccccc" />
    <path
       id="path12907"
       style="fill:none;stroke:#000000;stroke-width:0.264583px;stroke-linecap:butt;stroke-linejoin:miter;stroke-opacity:0.5"
       d="m -12.696534,248.82033 -10.04467,-17.39796 10.04468,-17.39793 20.08942,5e-5 10.04472,17.39791 -10.04474,17.39793 z"
       sodipodi:nodetypes="ccccccc" />
    <path
       id="path12909"
       style="fill:none;stroke:#000000;stroke-width:0.264583px;stroke-linecap:butt;stroke-linejoin:miter;stroke-opacity:0.5"
       d="m -12.696524,214.02444 -10.04467,-17.39796 10.04468,-17.39793 20.08942,5e-5 10.04472,17.39791 -10.04474,17.39793 z"
       sodipodi:nodetypes="ccccccc" />
    <path
       id="path12911"
       style="fill:none;stroke:#000000;stroke-width:0.264583px;stroke-linecap:butt;stroke-linejoin:miter;stroke-opacity:0.5"
       d="m -12.696534,179.2286 -10.04467,-17.39796 10.04468,-17.39793 20.08942,5e-5 10.04472,17.39791 -10.04474,17.39793 z"
       sodipodi:nodetypes="ccccccc" />
    <path
       id="path12913"
       style="fill:none;stroke:#000000;stroke-width:0.264583px;stroke-linecap:butt;stroke-linejoin:miter;stroke-opacity:0.5"
       d="m 137.97402,57.178483 -10.04466,-17.39796 10.04467,-17.39793 20.08942,5e-5 10.04472,17.39791 -10.04474,17.39793 z"
       sodipodi:nodetypes="ccccccc" />
    <path
       id="path12915"
       style="fill:none;stroke:#000000;stroke-width:0.264583px;stroke-linecap:butt;stroke-linejoin:miter;stroke-opacity:0.5"
       d="m 137.97403,22.382593 -10.04466,-17.3979602 10.04467,-17.3979298 20.08942,5e-5 10.04472,17.3979098 -10.04474,17.3979302 z"
       sodipodi:nodetypes="ccccccc" />
    <path
       id="path12917"
       style="fill:none;stroke:#000000;stroke-width:0.264583px;stroke-linecap:butt;stroke-linejoin:miter;stroke-opacity:0.5"
       d="m 137.97402,-12.413247 -10.04466,-17.39796 10.04467,-17.39793 20.08942,5e-5 10.04472,17.39791 -10.04474,17.39793 z"
       sodipodi:nodetypes="ccccccc" />
    <path
       id="path12919"
       style="fill:none;stroke:#000000;stroke-width:0.264583px;stroke-linecap:butt;stroke-linejoin:miter;stroke-opacity:0.5"
       d="m 168.10811,39.780513 -10.04466,-17.39796 10.04467,-17.3979302 20.08942,5e-5 10.04472,17.3979102 -10.04474,17.39793 z"
       sodipodi:nodetypes="ccccccc" />
    <path
       id="path12921"
       style="fill:none;stroke:#000000;stroke-width:0.264583px;stroke-linecap:butt;stroke-linejoin:miter;stroke-opacity:0.5"
       d="m 168.10812,4.9846228 -10.04466,-17.3979598 10.04467,-17.39793 20.08942,5e-5 10.04472,17.39791 -10.04474,17.3979298 z"
       sodipodi:nodetypes="ccccccc" />
    <path
       id="path12923"
       style="fill:none;stroke:#000000;stroke-width:0.264583px;stroke-linecap:butt;stroke-linejoin:miter;stroke-opacity:0.5"
       d="m 168.10811,-29.811217 -10.04466,-17.39796 10.04467,-17.39793 20.08942,5e-5 10.04472,17.39791 -10.04474,17.39793 z"
       sodipodi:nodetypes="ccccccc" />
    <path
       id="path12925"
       style="fill:none;stroke:#000000;stroke-width:0.264583px;stroke-linecap:butt;stroke-linejoin:miter;stroke-opacity:0.5"
       d="m 77.705815,57.178483 -10.04466,-17.39796 10.04467,-17.39793 20.08942,5e-5 10.044725,17.39791 -10.044745,17.39793 z"
       sodipodi:nodetypes="ccccccc" />
    <path
       id="path12927"
       style="fill:none;stroke:#000000;stroke-width:0.264583px;stroke-linecap:butt;stroke-linejoin:miter;stroke-opacity:0.5"
       d="m 77.705825,22.382593 -10.04466,-17.3979602 10.04467,-17.3979398 20.08942,5e-5 L 107.83998,4.9846628 97.795235,22.382593 Z"
       sodipodi:nodetypes="ccccccc" />
    <path
       id="path12929"
       style="fill:none;stroke:#000000;stroke-width:0.264583px;stroke-linecap:butt;stroke-linejoin:miter;stroke-opacity:0.5"
       d="m 77.705815,-12.413247 -10.04466,-17.39796 10.04467,-17.39793 20.08942,5e-5 10.044725,17.39791 -10.044745,17.39793 z"
       sodipodi:nodetypes="ccccccc" />
    <path
       id="path12931"
       style="fill:none;stroke:#000000;stroke-width:0.264583px;stroke-linecap:butt;stroke-linejoin:miter;stroke-opacity:0.5"
       d="M 107.83991,39.780513 97.795245,22.382553 107.83992,4.9846228 l 20.08942,5e-5 10.04472,17.3979102 -10.04474,17.39793 z"
       sodipodi:nodetypes="ccccccc" />
    <path
       id="path12933"
       style="fill:none;stroke:#000000;stroke-width:0.264583px;stroke-linecap:butt;stroke-linejoin:miter;stroke-opacity:0.5"
       d="m 107.83992,4.9846228 -10.044665,-17.3979698 10.044675,-17.39793 20.08942,5e-5 10.04472,17.39791 -10.04474,17.3979398 z"
       sodipodi:nodetypes="ccccccc" />
    <path
       id="path12935"
       style="fill:none;stroke:#000000;stroke-width:0.264583px;stroke-linecap:butt;stroke-linejoin:miter;stroke-opacity:0.5"
       d="m 107.83991,-29.811217 -10.044665,-17.39796 10.044675,-17.39793 20.08942,5e-5 10.04472,17.39791 -10.04474,17.39793 z"
       sodipodi:nodetypes="ccccccc" />
    <path
       id="path12937"
       style="fill:none;stroke:#000000;stroke-width:0.264583px;stroke-linecap:butt;stroke-linejoin:miter;stroke-opacity:0.5"
       d="m 258.51039,57.178533 -10.04466,-17.39796 10.04467,-17.39793 20.08942,5e-5 10.04472,17.39791 -10.04474,17.39793 z"
       sodipodi:nodetypes="ccccccc" />
    <path
       id="path12939"
       style="fill:none;stroke:#000000;stroke-width:0.264583px;stroke-linecap:butt;stroke-linejoin:miter;stroke-opacity:0.5"
       d="m 258.5104,22.382643 -10.04466,-17.3979602 10.04467,-17.3979298 20.08942,5e-5 10.04472,17.3979098 -10.04474,17.3979302 z"
       sodipodi:nodetypes="ccccccc" />
    <path
       id="path12941"
       style="fill:none;stroke:#000000;stroke-width:0.264583px;stroke-linecap:butt;stroke-linejoin:miter;stroke-opacity:0.5"
       d="m 258.51039,-12.413197 -10.04466,-17.39796 10.04467,-17.39793 20.08942,5e-5 10.04472,17.39791 -10.04474,17.39793 z"
       sodipodi:nodetypes="ccccccc" />
    <path
       id="path12943"
       style="fill:none;stroke:#000000;stroke-width:0.264583px;stroke-linecap:butt;stroke-linejoin:miter;stroke-opacity:0.5"
       d="m 288.64448,39.780563 -10.04466,-17.39796 10.04467,-17.3979302 20.08942,5e-5 10.04472,17.3979102 -10.04474,17.39793 z"
       sodipodi:nodetypes="ccccccc" />
    <path
       id="path12945"
       style="fill:none;stroke:#000000;stroke-width:0.264583px;stroke-linecap:butt;stroke-linejoin:miter;stroke-opacity:0.5"
       d="m 288.64449,4.9846728 -10.04466,-17.3979598 10.04467,-17.39793 20.08942,5e-5 10.04472,17.39791 -10.04474,17.3979298 z"
       sodipodi:nodetypes="ccccccc" />
    <path
       id="path12947"
       style="fill:none;stroke:#000000;stroke-width:0.264583px;stroke-linecap:butt;stroke-linejoin:miter;stroke-opacity:0.5"
       d="m 288.64448,-29.811167 -10.04466,-17.39796 10.04467,-17.39793 20.08942,5e-5 10.04472,17.39791 -10.04474,17.39793 z"
       sodipodi:nodetypes="ccccccc" />
    <path
       id="path12949"
       style="fill:none;stroke:#000000;stroke-width:0.264583px;stroke-linecap:butt;stroke-linejoin:miter;stroke-opacity:0.5"
       d="m 198.24218,57.178533 -10.04466,-17.39796 10.04467,-17.39793 20.08942,5e-5 10.04473,17.39791 -10.04475,17.39793 z"
       sodipodi:nodetypes="ccccccc" />
    <path
       id="path12951"
       style="fill:none;stroke:#000000;stroke-width:0.264583px;stroke-linecap:butt;stroke-linejoin:miter;stroke-opacity:0.5"
       d="m 198.24219,22.382643 -10.04465,-17.3979602 10.04467,-17.3979398 20.08941,5e-5 10.04473,17.3979198 -10.04474,17.3979302 z"
       sodipodi:nodetypes="ccccccc" />
    <path
       id="path12953"
       style="fill:none;stroke:#000000;stroke-width:0.264583px;stroke-linecap:butt;stroke-linejoin:miter;stroke-opacity:0.5"
       d="m 198.24218,-12.413197 -10.04466,-17.39796 10.04467,-17.39793 20.08942,5e-5 10.04473,17.39791 -10.04475,17.39793 z"
       sodipodi:nodetypes="ccccccc" />
    <path
       id="path12955"
       style="fill:none;stroke:#000000;stroke-width:0.264583px;stroke-linecap:butt;stroke-linejoin:miter;stroke-opacity:0.5"
       d="m 228.37628,39.780563 -10.04467,-17.39796 10.04468,-17.3979302 20.08942,5e-5 10.04472,17.3979102 -10.04474,17.39793 z"
       sodipodi:nodetypes="ccccccc" />
    <path
       id="path12957"
       style="fill:none;stroke:#000000;stroke-width:0.264583px;stroke-linecap:butt;stroke-linejoin:miter;stroke-opacity:0.5"
       d="m 228.37629,4.9846728 -10.04467,-17.3979698 10.04468,-17.39793 20.08942,5e-5 10.04472,17.39791 -10.04474,17.3979398 z"
       sodipodi:nodetypes="ccccccc" />
    <path
       id="path12959"
       style="fill:none;stroke:#000000;stroke-width:0.264583px;stroke-linecap:butt;stroke-linejoin:miter;stroke-opacity:0.5"
       d="m 228.37628,-29.811167 -10.04467,-17.39796 10.04468,-17.39793 20.08942,5e-5 10.04472,17.39791 -10.04474,17.39793 z"
       sodipodi:nodetypes="ccccccc" />
    <path
       id="path12961"
       style="fill:none;stroke:#000000;stroke-width:0.264583px;stroke-linecap:butt;stroke-linejoin:miter;stroke-opacity:0.5"
       d="M 17.437585,57.178483 7.3929253,39.780523 17.437595,22.382593 l 20.08942,5e-5 10.04472,17.39791 -10.04474,17.39793 z"
       sodipodi:nodetypes="ccccccc" />
    <path
       id="path12963"
       style="fill:none;stroke:#000000;stroke-width:0.264583px;stroke-linecap:butt;stroke-linejoin:miter;stroke-opacity:0.5"
       d="M 17.437595,22.382593 7.3929353,4.9846328 17.437605,-12.413297 l 20.08942,5e-5 10.04472,17.3979098 -10.04474,17.3979302 z"
       sodipodi:nodetypes="ccccccc" />
    <path
       id="path12965"
       style="fill:none;stroke:#000000;stroke-width:0.264583px;stroke-linecap:butt;stroke-linejoin:miter;stroke-opacity:0.5"
       d="m 17.437585,-12.413247 -10.0446597,-17.39796 10.0446697,-17.39792 20.08942,4e-5 10.04472,17.39791 -10.04474,17.39793 z"
       sodipodi:nodetypes="ccccccc" />
    <path
       id="path12967"
       style="fill:none;stroke:#000000;stroke-width:0.264583px;stroke-linecap:butt;stroke-linejoin:miter;stroke-opacity:0.5"
       d="m 47.571675,39.780513 -10.04466,-17.39796 10.04467,-17.3979302 20.08942,5e-5 10.04472,17.3979102 -10.04474,17.39793 z"
       sodipodi:nodetypes="ccccccc" />
    <path
       id="path12969"
       style="fill:none;stroke:#000000;stroke-width:0.264583px;stroke-linecap:butt;stroke-linejoin:miter;stroke-opacity:0.5"
       d="m 47.571685,4.9846228 -10.04466,-17.3979598 10.04467,-17.39793 20.08942,5e-5 10.04472,17.39791 -10.04474,17.3979298 z"
       sodipodi:nodetypes="ccccccc" />
    <path
       id="path12971"
       style="fill:none;stroke:#000000;stroke-width:0.264583px;stroke-linecap:butt;stroke-linejoin:miter;stroke-opacity:0.5"
       d="m 47.571675,-29.811207 -10.04466,-17.39796 10.04467,-17.39793 20.08942,5e-5 10.04472,17.39791 -10.04474,17.39793 z"
       sodipodi:nodetypes="ccccccc" />
    <path
       id="path12973"
       style="fill:none;stroke:#000000;stroke-width:0.264583px;stroke-linecap:butt;stroke-linejoin:miter;stroke-opacity:0.5"
       d="m -42.830625,57.178483 -10.04466,-17.39796 10.04467,-17.39793 20.08942,5e-5 10.04473,17.39791 -10.04475,17.39793 z"
       sodipodi:nodetypes="ccccccc" />
    <path
       id="path12975"
       style="fill:none;stroke:#000000;stroke-width:0.264583px;stroke-linecap:butt;stroke-linejoin:miter;stroke-opacity:0.5"
       d="m -42.830615,22.382593 -10.04465,-17.3979602 10.04467,-17.3979398 20.08941,6e-5 10.04473,17.3979098 -10.04474,17.3979302 z"
       sodipodi:nodetypes="ccccccc" />
    <path
       id="path12977"
       style="fill:none;stroke:#000000;stroke-width:0.264583px;stroke-linecap:butt;stroke-linejoin:miter;stroke-opacity:0.5"
       d="m -42.830625,-12.413247 -10.04466,-17.39796 10.04467,-17.39793 20.08942,5e-5 10.04473,17.39791 -10.04475,17.39793 z"
       sodipodi:nodetypes="ccccccc" />
    <path
       id="path12979"
       style="fill:none;stroke:#000000;stroke-width:0.264583px;stroke-linecap:butt;stroke-linejoin:miter;stroke-opacity:0.5"
       d="m -12.696525,39.780513 -10.04467,-17.39796 10.04468,-17.3979302 20.0894203,5e-5 L 17.437625,22.382583 7.3928853,39.780513 Z"
       sodipodi:nodetypes="ccccccc" />
    <path
       id="path12981"
       style="fill:none;stroke:#000000;stroke-width:0.264583px;stroke-linecap:butt;stroke-linejoin:miter;stroke-opacity:0.5"
       d="m -12.696515,4.9846228 -10.04467,-17.3979598 10.04468,-17.39793 20.0894203,5e-5 10.0447197,17.39791 L 7.3928953,4.9846228 Z"
       sodipodi:nodetypes="ccccccc" />
    <path
       id="path12983"
       style="fill:none;stroke:#000000;stroke-width:0.264583px;stroke-linecap:butt;stroke-linejoin:miter;stroke-opacity:0.5"
       d="m -12.696525,-29.811217 -10.04467,-17.39796 10.04468,-17.39793 20.0894203,5e-5 10.0447197,17.39791 -10.0447397,17.39793 z"
       sodipodi:nodetypes="ccccccc" />
  </g>
</svg>
