<?xml version="1.0" encoding="UTF-8" standalone="no"?>
<!-- Created with Inkscape (http://www.inkscape.org/) -->

<svg
   width="210mm"
   height="297mm"
   viewBox="0 0 210 297"
   version="1.1"
   id="svg22791"
   inkscape:version="1.1.2 (1:1.1+202202050852+0a00cf5339)"
   sodipodi:docname="spiral-bent-wedge-eberhart.svg"
   xmlns:inkscape="http://www.inkscape.org/namespaces/inkscape"
   xmlns:sodipodi="http://sodipodi.sourceforge.net/DTD/sodipodi-0.dtd"
   xmlns="http://www.w3.org/2000/svg"
   xmlns:svg="http://www.w3.org/2000/svg">
  <sodipodi:namedview
     id="namedview22793"
     pagecolor="#ffffff"
     bordercolor="#666666"
     borderopacity="1.0"
     inkscape:pageshadow="2"
     inkscape:pageopacity="0.0"
     inkscape:pagecheckerboard="0"
     inkscape:document-units="mm"
     showgrid="false"
     showborder="false"
     inkscape:zoom="0.21524399"
     inkscape:cx="-1809.5743"
     inkscape:cy="-2.3229452"
     inkscape:window-width="1920"
     inkscape:window-height="1017"
     inkscape:window-x="0"
     inkscape:window-y="27"
     inkscape:window-maximized="1"
     inkscape:current-layer="layer1" />
  <defs
     id="defs22788" />
  <g
     inkscape:label="Layer 1"
     inkscape:groupmode="layer"
     id="layer1">
    <path
       id="path23906"
       style="fill:none;stroke:#000000;stroke-width:0.264583px;stroke-linecap:butt;stroke-linejoin:miter;stroke-opacity:1"
       d="m -300.97168,-10.49311 -38.77572,-10.38993 h -40.14358 l -38.77573,10.38993 -34.76535,20.0717797 38.77572,-10.38991002 40.14358,-10e-6 38.77572,10.38993002 34.76536,20.0717883 z"
       sodipodi:nodetypes="cccccccccc" />
    <path
       id="path23908"
       style="fill:none;stroke:#000000;stroke-width:0.264583px;stroke-linecap:butt;stroke-linejoin:miter;stroke-opacity:1"
       d="M -300.97168,29.650468 -335.73704,9.5786797 -374.51276,-0.81125032 h -40.14359 L -453.43206,9.5786697 h 40.14358 l 38.77572,10.3899303 34.76536,20.07179 28.38579,28.385792 z"
       sodipodi:nodetypes="cccccccccc" />
    <path
       id="path23910"
       style="fill:none;stroke:#000000;stroke-width:0.264583px;stroke-linecap:butt;stroke-linejoin:miter;stroke-opacity:1"
       d="M -311.3616,68.426182 -339.7474,40.04039 -374.51276,19.9686 -413.28848,9.5786697 h -40.14358 l 38.77571,10.3899303 34.76537,20.07179 28.3858,28.385792 20.07179,34.765358 z"
       sodipodi:nodetypes="cccccccccc" />
    <path
       id="path23912"
       style="fill:none;stroke:#000000;stroke-width:0.264583px;stroke-linecap:butt;stroke-linejoin:miter;stroke-opacity:1"
       d="m -331.43339,103.19154 -20.0718,-34.765358 -28.38579,-28.385794 -34.76536,-20.071788 -38.77572,-10.3899303 34.76535,20.0718003 28.3858,28.385802 20.07179,34.76536 10.38993,38.775708 z"
       sodipodi:nodetypes="cccccccccc" />
    <path
       id="path23938"
       style="fill:none;stroke:#000000;stroke-width:0.264583px;stroke-linecap:butt;stroke-linejoin:miter;stroke-opacity:1"
       d="m -359.81924,131.57738 -10.38992,-38.775727 -20.07179,-34.76537 -28.38578,-28.3858 -34.76538,-20.0718004 28.38579,28.3858204 20.07179,34.76536 10.38991,38.775707 0,40.14357 z"
       sodipodi:nodetypes="cccccccccc" />
    <path
       id="path23940"
       style="fill:none;stroke:#000000;stroke-width:0.264583px;stroke-linecap:butt;stroke-linejoin:miter;stroke-opacity:1"
       d="m -394.58462,151.64914 0,-40.14357 -10.38991,-38.775707 -20.07179,-34.76536 -28.38579,-28.3858204 20.07179,34.7653604 10.38992,38.77573 -1e-5,40.143577 -10.38992,38.77571 z"
       sodipodi:nodetypes="cccccccccc" />
    <path
       id="path23942"
       style="fill:none;stroke:#000000;stroke-width:0.264583px;stroke-linecap:butt;stroke-linejoin:miter;stroke-opacity:1"
       d="m -433.36032,162.03909 10.38991,-38.77574 1e-5,-40.143577 -10.38992,-38.77573 -20.07179,-34.7653604 10.38991,38.7757404 -1e-5,40.14359 -10.3899,38.775707 -20.07179,34.76536 z"
       sodipodi:nodetypes="cccccccccc" />
    <path
       id="path23944"
       style="fill:none;stroke:#000000;stroke-width:0.264583px;stroke-linecap:butt;stroke-linejoin:miter;stroke-opacity:1"
       d="m -473.5039,162.03908 20.07179,-34.76536 10.3899,-38.775707 2e-5,-40.1436 -10.38992,-38.7757304 -2e-5,40.1435804 -10.38992,38.77574 -20.07179,34.765337 -28.38578,28.38581 z"
       sodipodi:nodetypes="cccccccccc" />
    <path
       id="path24076"
       style="fill:none;stroke:#000000;stroke-width:0.264583px;stroke-linecap:butt;stroke-linejoin:miter;stroke-opacity:1"
       d="m -555.35895,-49.268847 -28.38582,28.38579 -34.76537,20.071799 -38.77572,10.38992 h -40.14356 l 38.7757,-10.38992 34.76538,-20.071809 28.38579,-28.38578 20.0718,-34.76535 z"
       sodipodi:nodetypes="cccccccccc" />
    <path
       id="path24078"
       style="fill:none;stroke:#000000;stroke-width:0.264583px;stroke-linecap:butt;stroke-linejoin:miter;stroke-opacity:1"
       d="m -575.43075,-84.034197 20.0718,34.76535 28.3858,28.38579 34.76536,20.07178958 38.77571,10.38993002 -34.76534,-20.0717996 -28.38581,-28.3858 -20.07179,-34.76536 -10.38991,-38.775713 z"
       sodipodi:nodetypes="cccccccccc" />
    <path
       id="path24104"
       style="fill:none;stroke:#000000;stroke-width:0.264583px;stroke-linecap:butt;stroke-linejoin:miter;stroke-opacity:1"
       d="m -394.58455,-132.49179 -28.3858,28.3858 -20.07179,34.76536 -10.38992,38.77572 V 9.5786697 l 10.38992,-38.7757197 20.07179,-34.76536 28.3858,-28.38579 34.76536,-20.0718 z"
       sodipodi:nodetypes="cccccccccc" />
    <path
       id="path24106"
       style="fill:none;stroke:#000000;stroke-width:0.264583px;stroke-linecap:butt;stroke-linejoin:miter;stroke-opacity:1"
       d="m -359.81919,-112.42 -34.76536,20.0718 -28.3858,28.38579 -20.07179,34.76536 -10.38992,38.7757197 20.07179,-34.7653597 28.38579,-28.38579 34.76537,-20.07179 38.77572,-10.38993 z"
       sodipodi:nodetypes="cccccccccc" />
    <path
       id="path24108"
       style="fill:none;stroke:#000000;stroke-width:0.264583px;stroke-linecap:butt;stroke-linejoin:miter;stroke-opacity:1"
       d="m -331.43339,-84.0342 -38.77572,10.38993 -34.76536,20.07179 -28.3858,28.38579 -20.07179,34.7653597 28.3858,-28.3857897 34.76536,-20.0718 38.77572,-10.38992 h 40.14358 z"
       sodipodi:nodetypes="cccccccccc" />
    <path
       id="path24110"
       style="fill:none;stroke:#000000;stroke-width:0.264583px;stroke-linecap:butt;stroke-linejoin:miter;stroke-opacity:1"
       d="m -311.3616,-49.26884 h -40.14359 l -38.77572,10.38992 -34.76536,20.07179 -28.38579,28.3857997 34.76536,-20.0717797 38.77572,-10.38993 h 40.14358 l 38.77572,10.38992 z"
       sodipodi:nodetypes="cccccccccc" />
    <path
       id="path24112"
       style="fill:none;stroke:#000000;stroke-width:0.264583px;stroke-linecap:butt;stroke-linejoin:miter;stroke-opacity:1"
       d="m -547.04494,-112.42003 10.38992,38.775733 20.07178,34.76537 28.38578,28.3858 34.76538,20.0717996 -28.38579,-28.3858196 -20.07178,-34.76536 -10.38992,-38.77571 v -40.143573 z"
       sodipodi:nodetypes="cccccccccc" />
    <path
       id="path24114"
       style="fill:none;stroke:#000000;stroke-width:0.264583px;stroke-linecap:butt;stroke-linejoin:miter;stroke-opacity:1"
       d="m -512.27957,-132.49179 v 40.143573 l 10.38992,38.77571 20.07178,34.76536 28.38579,28.3858196 -20.07179,-34.7653596 -10.38992,-38.77573 1e-5,-40.143583 10.38992,-38.77571 z"
       sodipodi:nodetypes="cccccccccc" />
    <path
       id="path24116"
       style="fill:none;stroke:#000000;stroke-width:0.264583px;stroke-linecap:butt;stroke-linejoin:miter;stroke-opacity:1"
       d="m -473.50387,-142.88174 -10.38991,38.77574 -1e-5,40.143583 10.38992,38.77573 20.07179,34.7653596 -10.38991,-38.7757396 1e-5,-40.14359 10.3899,-38.775713 20.07179,-34.76536 z"
       sodipodi:nodetypes="cccccccccc" />
    <path
       id="path24118"
       style="fill:none;stroke:#000000;stroke-width:0.264583px;stroke-linecap:butt;stroke-linejoin:miter;stroke-opacity:1"
       d="m -433.36029,-142.88173 -20.07179,34.76536 -10.3899,38.775713 -2e-5,40.1436 10.38992,38.7757296 2e-5,-40.1435796 10.38992,-38.77574 20.07179,-34.765343 28.38578,-28.38581 z"
       sodipodi:nodetypes="cccccccccc" />
    <path
       id="path24274"
       style="fill:none;stroke:#000000;stroke-width:0.264583px;stroke-linecap:butt;stroke-linejoin:miter;stroke-opacity:1"
       d="m -453.43211,9.5786826 1e-5,40.1435804 -10.38995,38.77573 -20.0718,34.765377 -28.38579,28.38577 20.07179,-34.76536 10.38994,-38.775717 v -40.14358 l -10.38993,-38.7757204 z"
       sodipodi:nodetypes="cccccccccc" />
    <path
       id="path24276"
       style="fill:none;stroke:#000000;stroke-width:0.264583px;stroke-linecap:butt;stroke-linejoin:miter;stroke-opacity:1"
       d="m -492.20784,-0.8112374 -10.38993,38.7757204 -20.07179,34.76538 -28.38579,28.385787 -34.76537,20.07178 28.3858,-28.385777 20.07179,-34.76537 10.38993,-38.77573 10e-6,-40.14358 z"
       sodipodi:nodetypes="cccccccccc" />
    <path
       id="path24278"
       style="fill:none;stroke:#000000;stroke-width:0.264583px;stroke-linecap:butt;stroke-linejoin:miter;stroke-opacity:1"
       d="m -526.97316,-20.883047 -20.07179,34.76536 -28.38581,28.38581 -34.76537,20.0718 -38.77572,10.38991 34.76536,-20.07179 28.38579,-28.38579 20.0718,-34.76537 10.38995,-38.77573 z"
       sodipodi:nodetypes="cccccccccc" />
    <path
       id="path24644"
       style="fill:none;stroke:#000000;stroke-width:0.264583px;stroke-linecap:butt;stroke-linejoin:miter;stroke-opacity:1"
       d="m -585.82073,121.18746 28.38581,-28.385817 20.07179,-34.76536 10.38992,-38.77572 10e-6,-40.14358 -10.38993,38.77572 -20.07179,34.76536 -28.38581,28.38582 -34.76536,20.071787 z"
       sodipodi:nodetypes="cccccccccc" />
    <path
       id="path24646"
       style="fill:none;stroke:#000000;stroke-width:0.264583px;stroke-linecap:butt;stroke-linejoin:miter;stroke-opacity:1"
       d="m -620.58609,101.11567 34.76536,-20.071787 28.38581,-28.38582 20.07179,-34.76536 10.38992,-38.77572 -20.07179,34.76536 -28.38579,28.3858 -34.76538,20.0718 -38.77575,10.38991 z"
       sodipodi:nodetypes="cccccccccc" />
    <path
       id="path24648"
       style="fill:none;stroke:#000000;stroke-width:0.264583px;stroke-linecap:butt;stroke-linejoin:miter;stroke-opacity:1"
       d="m -512.27964,151.64914 20.07175,-34.76531 10.38991,-38.77571 V 37.96454 l -10.38991,-38.77573 v 40.14356 l -10.38994,38.77575 -20.07179,34.76536 -28.38581,28.3858 z"
       sodipodi:nodetypes="cccccccccc" />
    <path
       id="path24650"
       style="fill:none;stroke:#000000;stroke-width:0.264583px;stroke-linecap:butt;stroke-linejoin:miter;stroke-opacity:1"
       d="m -551.05543,141.25928 28.38581,-28.38582 20.07179,-34.76534 10.38992,-38.77571 2e-5,-40.14362 -10.38994,38.77573 -20.07179,34.76538 -28.38579,28.38579 -34.76538,20.0718 z"
       sodipodi:nodetypes="cccccccccc" />
    <path
       id="path24652"
       style="fill:none;stroke:#000000;stroke-width:0.264583px;stroke-linecap:butt;stroke-linejoin:miter;stroke-opacity:1"
       d="m -677.35765,44.344022 38.7757,-10.38991 34.76538,-20.07179 28.38579,-28.38579 20.07179,-34.76536 -28.38578,28.38577 -34.76538,20.07179 -38.77571,10.38993 h -40.14357 z"
       sodipodi:nodetypes="cccccccccc" />
    <path
       id="path24654"
       style="fill:none;stroke:#000000;stroke-width:0.264583px;stroke-linecap:butt;stroke-linejoin:miter;stroke-opacity:1"
       d="m -648.97188,72.729852 34.76538,-20.07182 28.3858,-28.38579 20.07178,-34.76536 10.38992,-38.77572 -20.07179,34.76535 -28.38579,28.3858 -34.76537,20.0718 -38.77572,10.38991 z"
       sodipodi:nodetypes="cccccccccc" />
    <path
       id="path25452"
       style="fill:none;stroke:#000000;stroke-width:0.264583px;stroke-linecap:butt;stroke-linejoin:miter;stroke-opacity:1"
       d="m -697.42944,9.578672 38.77572,-10.38993 34.76536,-20.0718 28.38579,-28.38581 20.0718,-34.76534 -28.38581,28.38578 -34.76537,20.07179 -38.77573,10.38992 -40.14356,-10e-6 z"
       sodipodi:nodetypes="cccccccccc" />
    <path
       id="path25454"
       style="fill:none;stroke:#000000;stroke-width:0.264583px;stroke-linecap:butt;stroke-linejoin:miter;stroke-opacity:1"
       d="m -717.50126,-25.186718 h 40.14358 l 38.77573,-10.3899 34.76537,-20.07178 28.38582,-28.38581 -34.76538,20.07178 -38.77572,10.38992 -40.14359,-1e-5 -38.77571,-10.38993 z"
       sodipodi:nodetypes="cccccccccc" />
    <path
       id="path25456"
       style="fill:none;stroke:#000000;stroke-width:0.264583px;stroke-linecap:butt;stroke-linejoin:miter;stroke-opacity:1"
       d="m -727.89116,-63.962448 38.77571,10.38993 40.14359,1e-5 38.77572,-10.38992 34.76538,-20.07178 -38.77573,10.38993 -40.1436,-1e-5 -38.77573,-10.38993 -34.76535,-20.071792 z"
       sodipodi:nodetypes="cccccccccc" />
    <path
       id="path25458"
       style="fill:none;stroke:#000000;stroke-width:0.264583px;stroke-linecap:butt;stroke-linejoin:miter;stroke-opacity:1"
       d="m -727.89118,-104.10601 34.76536,20.071792 38.77573,10.38993 40.1436,1e-5 38.77573,-10.38993 -40.14361,-3e-5 -38.77573,-10.38993 -34.76536,-20.071752 -28.38578,-28.3858 z"
       sodipodi:nodetypes="cccccccccc" />
    <path
       id="path25460"
       style="fill:none;stroke:#000000;stroke-width:0.264583px;stroke-linecap:butt;stroke-linejoin:miter;stroke-opacity:1"
       d="m -717.50124,-142.88172 28.38578,28.3858 34.76536,20.071752 38.77574,10.38995 40.1436,10e-6 -38.77572,-10.38994 -34.76538,-20.071802 -28.3858,-28.38579 -20.0718,-34.76534 z"
       sodipodi:nodetypes="cccccccccc" />
    <path
       id="path25462"
       style="fill:none;stroke:#000000;stroke-width:0.264583px;stroke-linecap:butt;stroke-linejoin:miter;stroke-opacity:1"
       d="m -473.50388,-142.88167 -10.38991,-38.77575 2e-5,-40.14358 10.38992,-38.77574 20.07176,-34.76533 -10.38989,38.77571 2e-5,40.14359 10.38987,38.7757 20.0718,34.76538 z"
       sodipodi:nodetypes="cccccccccc" />
    <path
       id="path25464"
       style="fill:none;stroke:#000000;stroke-width:0.264583px;stroke-linecap:butt;stroke-linejoin:miter;stroke-opacity:1"
       d="m -575.43076,-84.034208 -34.76534,-20.071792 -28.38582,-28.38582 -20.07178,-34.76538 -10.38991,-38.77569 20.07178,34.76534 28.38579,28.38581 34.76536,20.07181 38.77572,10.38991 z"
       sodipodi:nodetypes="cccccccccc" />
    <path
       id="path25466"
       style="fill:none;stroke:#000000;stroke-width:0.264583px;stroke-linecap:butt;stroke-linejoin:miter;stroke-opacity:1"
       d="m -547.04496,-112.42002 -28.3858,-28.38581 -20.07179,-34.76538 -10.38991,-38.77568 v -40.14359 l 10.3899,38.77572 20.0718,34.76534 28.3858,28.38582 34.76535,20.07181 z"
       sodipodi:nodetypes="cccccccccc" />
    <path
       id="path25468"
       style="fill:none;stroke:#000000;stroke-width:0.264583px;stroke-linecap:butt;stroke-linejoin:miter;stroke-opacity:1"
       d="m -512.2796,-132.49177 -20.07178,-34.76537 -10.38992,-38.77573 -3e-5,-40.14357 10.38994,-38.77574 v 40.14359 l 10.38991,38.77571 20.07181,34.76536 28.38579,28.38585 z"
       sodipodi:nodetypes="cccccccccc" />
    <path
       id="path25470"
       style="fill:none;stroke:#000000;stroke-width:0.264583px;stroke-linecap:butt;stroke-linejoin:miter;stroke-opacity:1"
       d="m -605.89248,-254.49051 10.38993,38.77573 20.07179,34.76536 28.38581,28.3858 34.76537,20.07178 -28.38582,-28.38579 -20.07179,-34.76536 -10.38992,-38.77573 -3e-5,-40.14357 z"
       sodipodi:nodetypes="cccccccccc" />
    <path
       id="path25472"
       style="fill:none;stroke:#000000;stroke-width:0.264583px;stroke-linecap:butt;stroke-linejoin:miter;stroke-opacity:1"
       d="m -571.12714,-274.56229 3e-5,40.14357 10.38992,38.77573 20.07179,34.76536 28.38582,28.3858 -20.07181,-34.76537 -10.38993,-38.77571 10e-6,-40.1436 10.38995,-38.77575 z"
       sodipodi:nodetypes="cccccccccc" />
    <path
       id="path25474"
       style="fill:none;stroke:#000000;stroke-width:0.264583px;stroke-linecap:butt;stroke-linejoin:miter;stroke-opacity:1"
       d="m -669.04361,-206.03289 20.07175,34.76528 28.38582,28.38579 34.76536,20.07179 38.7757,10.38993 -34.76532,-20.07177 -28.38582,-28.38583 -20.07179,-34.76536 -10.38991,-38.77573 z"
       sodipodi:nodetypes="cccccccccc" />
    <path
       id="path25476"
       style="fill:none;stroke:#000000;stroke-width:0.264583px;stroke-linecap:butt;stroke-linejoin:miter;stroke-opacity:1"
       d="m -640.65782,-234.41879 10.38992,38.77574 20.07178,34.76535 28.38579,28.38579 34.76539,20.07183 -28.3858,-28.38583 -20.07181,-34.76535 -10.38992,-38.77572 10e-6,-40.14359 z"
       sodipodi:nodetypes="cccccccccc" />
    <path
       id="path25478"
       style="fill:none;stroke:#000000;stroke-width:0.264583px;stroke-linecap:butt;stroke-linejoin:miter;stroke-opacity:1"
       d="m -493.57565,-295.3421 -10.38991,38.77569 -1e-5,40.14361 10.38992,38.77572 20.07176,34.76534 -10.3899,-38.77568 1e-5,-40.1436 10.38993,-38.77572 20.07179,-34.76536 z"
       sodipodi:nodetypes="cccccccccc" />
    <path
       id="path25480"
       style="fill:none;stroke:#000000;stroke-width:0.264583px;stroke-linecap:butt;stroke-linejoin:miter;stroke-opacity:1"
       d="m -532.35138,-284.95219 v 40.1436 l 10.38994,38.77573 20.07179,34.76534 28.38579,28.3858 -20.07179,-34.76536 -10.38991,-38.77572 v -40.14361 l 10.38994,-38.77569 z"
       sodipodi:nodetypes="cccccccccc" />
    <path
       id="path25482"
       style="fill:none;stroke:#000000;stroke-width:0.264583px;stroke-linecap:butt;stroke-linejoin:miter;stroke-opacity:1"
       d="m -697.42946,-177.64708 20.07175,34.76528 28.38582,28.38579 34.76536,20.07179 38.7757,10.38993 -34.76532,-20.07177 -28.38582,-28.38583 -20.07179,-34.76536 -10.38991,-38.77573 z"
       sodipodi:nodetypes="cccccccccc" />
    <path
       id="path25484"
       style="fill:none;stroke:#000000;stroke-width:0.264583px;stroke-linecap:butt;stroke-linejoin:miter;stroke-opacity:1"
       d="m -453.43204,-295.34207 -10.38994,38.77571 3e-5,40.14356 10.38991,38.77575 20.07179,34.76538 -10.3899,-38.77573 v -40.1436 l 10.38991,-38.77572 20.07177,-34.76536 z"
       sodipodi:nodetypes="cccccccccc" />
    <path
       id="path25486"
       style="fill:none;stroke:#000000;stroke-width:0.264583px;stroke-linecap:butt;stroke-linejoin:miter;stroke-opacity:1"
       d="m -331.43341,-84.034133 28.38583,-28.385797 34.76537,-20.07178 38.77574,-10.38993 40.14354,-1e-5 -38.7757,10.38994 -34.76536,20.07182 -28.3858,28.385737 -20.07181,34.765379 z"
       sodipodi:nodetypes="cccccccccc" />
    <path
       id="path25488"
       style="fill:none;stroke:#000000;stroke-width:0.264583px;stroke-linecap:butt;stroke-linejoin:miter;stroke-opacity:1"
       d="m -433.36025,-142.88167 2e-5,-40.14356 10.38993,-38.77575 20.07181,-34.76537 28.38578,-28.38577 -20.07178,34.76534 -10.38994,38.77572 -1e-5,40.14359 10.38993,38.77572 z"
       sodipodi:nodetypes="cccccccccc" />
    <path
       id="path25490"
       style="fill:none;stroke:#000000;stroke-width:0.264583px;stroke-linecap:butt;stroke-linejoin:miter;stroke-opacity:1"
       d="m -394.58451,-132.49175 10.38993,-38.77573 20.07181,-34.76537 28.38577,-28.38577 34.76537,-20.07179 -28.38581,28.38578 -20.07177,34.76535 -10.38994,38.77574 -2e-5,40.14358 z"
       sodipodi:nodetypes="cccccccccc" />
    <path
       id="path25492"
       style="fill:none;stroke:#000000;stroke-width:0.264583px;stroke-linecap:butt;stroke-linejoin:miter;stroke-opacity:1"
       d="m -359.81919,-112.41994 20.07181,-34.76536 28.38581,-28.3858 34.76533,-20.07181 38.77575,-10.38992 -34.76537,20.0718 -28.3858,28.38578 -20.07178,34.76538 -10.38997,38.775737 z"
       sodipodi:nodetypes="cccccccccc" />
    <path
       id="path25494"
       style="fill:none;stroke:#000000;stroke-width:0.264583px;stroke-linecap:butt;stroke-linejoin:miter;stroke-opacity:1"
       d="m -300.97162,-254.49044 -28.3858,28.3858 -20.07179,34.76536 -10.38992,38.77574 2e-5,40.14358 10.3899,-38.77574 20.07179,-34.76536 28.38581,-28.3858 34.76533,-20.07181 z"
       sodipodi:nodetypes="cccccccccc" />
    <path
       id="path25496"
       style="fill:none;stroke:#000000;stroke-width:0.264583px;stroke-linecap:butt;stroke-linejoin:miter;stroke-opacity:1"
       d="m -266.20628,-234.41867 -34.76533,20.07181 -28.38581,28.3858 -20.07179,34.76536 -10.38991,38.77575 20.07179,-34.76539 28.38578,-28.3858 34.76538,-20.07179 38.77576,-10.38991 z"
       sodipodi:nodetypes="cccccccccc" />
    <path
       id="path25498"
       style="fill:none;stroke:#000000;stroke-width:0.264583px;stroke-linecap:butt;stroke-linejoin:miter;stroke-opacity:1"
       d="m -374.51271,-284.95212 -20.07174,34.76529 -10.38991,38.77573 v 40.14358 l 10.38991,38.77571 v -40.14353 l 10.38994,-38.77576 20.07179,-34.76536 28.38581,-28.38579 z"
       sodipodi:nodetypes="cccccccccc" />
    <path
       id="path25500"
       style="fill:none;stroke:#000000;stroke-width:0.264583px;stroke-linecap:butt;stroke-linejoin:miter;stroke-opacity:1"
       d="m -335.73691,-274.56225 -28.38581,28.3858 -20.07179,34.76535 -10.38992,38.77571 -2e-5,40.14363 10.38995,-38.77574 20.07177,-34.76538 28.3858,-28.38579 34.76537,-20.07179 z"
       sodipodi:nodetypes="cccccccccc" />
    <path
       id="path25502"
       style="fill:none;stroke:#000000;stroke-width:0.264583px;stroke-linecap:butt;stroke-linejoin:miter;stroke-opacity:1"
       d="m -209.43469,-177.64701 -38.77569,10.38992 -34.76539,20.07179 -28.38579,28.3858 -20.07179,34.765323 28.38577,-28.385753 34.76538,-20.0718 38.77573,-10.38991 h 40.14358 z"
       sodipodi:nodetypes="cccccccccc" />
    <path
       id="path25504"
       style="fill:none;stroke:#000000;stroke-width:0.264583px;stroke-linecap:butt;stroke-linejoin:miter;stroke-opacity:1"
       d="m -237.82048,-206.03282 -34.76538,20.0718 -28.38579,28.38581 -20.07178,34.76535 -10.38992,38.775719 20.07179,-34.765359 28.3858,-28.38579 34.76538,-20.0718 38.77571,-10.38989 z"
       sodipodi:nodetypes="cccccccccc" />
    <path
       id="path25506"
       style="fill:none;stroke:#000000;stroke-width:0.264583px;stroke-linecap:butt;stroke-linejoin:miter;stroke-opacity:1"
       d="m -413.28847,-295.34208 -20.07174,34.76529 -10.38991,38.77573 v 40.14358 l 10.38991,38.77571 v -40.14354 l 10.38994,-38.77575 20.07179,-34.76536 28.38582,-28.38579 z"
       sodipodi:nodetypes="cccccccccc" />
    <path
       id="path25508"
       style="fill:none;stroke:#000000;stroke-width:0.264583px;stroke-linecap:butt;stroke-linejoin:miter;stroke-opacity:1"
       d="m -189.36293,-142.88172 -38.77572,10.3899 -34.76533,20.07181 -28.38583,28.3858 -20.0718,34.76537 28.38581,-28.38578 34.76538,-20.0718 38.77571,-10.38994 40.14357,-2e-5 z"
       sodipodi:nodetypes="cccccccccc" />
    <path
       id="path25510"
       style="fill:none;stroke:#000000;stroke-width:0.264583px;stroke-linecap:butt;stroke-linejoin:miter;stroke-opacity:1"
       d="m -311.36166,68.42616 38.77574,10.38995 34.76536,20.0718 28.38581,28.38582 20.07178,34.76532 -28.3858,-28.38577 -34.76539,-20.07178 -38.77567,-10.38996 -40.1436,0 z"
       sodipodi:nodetypes="cccccccccc" />
    <path
       id="path25512"
       style="fill:none;stroke:#000000;stroke-width:0.264583px;stroke-linecap:butt;stroke-linejoin:miter;stroke-opacity:1"
       d="m -311.36161,-49.26884 34.76535,-20.07176 38.77575,-10.38994 40.1436,2e-5 38.77569,10.38992 h -40.14356 l -38.77573,10.3899 -34.76537,20.07179 -28.3858,28.3858 z"
       sodipodi:nodetypes="cccccccccc" />
    <path
       id="path25514"
       style="fill:none;stroke:#000000;stroke-width:0.264583px;stroke-linecap:butt;stroke-linejoin:miter;stroke-opacity:1"
       d="m -300.97168,-10.49311 38.77573,-10.38992 40.1436,1e-5 38.77569,10.38992 34.76536,20.0718 -38.77571,-10.38995 -40.14356,2e-5 -38.77575,10.38991 -34.76537,20.07178 z"
       sodipodi:nodetypes="cccccccccc" />
    <path
       id="path25516"
       style="fill:none;stroke:#000000;stroke-width:0.264583px;stroke-linecap:butt;stroke-linejoin:miter;stroke-opacity:1"
       d="m -300.97172,29.65045 40.14359,2e-5 38.77573,10.38993 34.76537,20.07175 28.38581,28.38583 -34.76538,-20.0718 -38.7757,-10.38993 -40.1436,2e-5 -38.77576,10.38989 z"
       sodipodi:nodetypes="cccccccccc" />
    <path
       id="path25518"
       style="fill:none;stroke:#000000;stroke-width:0.264583px;stroke-linecap:butt;stroke-linejoin:miter;stroke-opacity:1"
       d="m -148.51127,9.57869 -38.77572,-10.38992 h -40.14358 l -38.77574,10.38993 -34.76535,20.07181 38.77573,-10.38995 h 40.14358 l 38.77573,10.38993 34.76536,20.07175 z"
       sodipodi:nodetypes="cccccccccc" />
    <path
       id="path25520"
       style="fill:none;stroke:#000000;stroke-width:0.264583px;stroke-linecap:butt;stroke-linejoin:miter;stroke-opacity:1"
       d="m -148.51126,49.72224 -34.76536,-20.07175 -38.77573,-10.38993 h -40.14358 l -38.77574,10.38995 40.1436,-2e-5 38.77572,10.38991 34.76537,20.0718 28.3858,28.38584 z"
       sodipodi:nodetypes="cccccccccc" />
    <path
       id="path25522"
       style="fill:none;stroke:#000000;stroke-width:0.264583px;stroke-linecap:butt;stroke-linejoin:miter;stroke-opacity:1"
       d="m -158.90122,-69.3406 -40.1435,10e-6 -38.77572,10.38994 -34.76536,20.07179 -28.3858,28.38578 34.76532,-20.07177 38.77576,-10.38993 h 40.14358 l 38.77572,10.38994 z"
       sodipodi:nodetypes="cccccccccc" />
    <path
       id="path25524"
       style="fill:none;stroke:#000000;stroke-width:0.264583px;stroke-linecap:butt;stroke-linejoin:miter;stroke-opacity:1"
       d="m -148.51122,-30.56484 -38.77572,-10.38993 -40.14358,-10e-6 -38.77571,10.38992 -34.76541,20.0718 38.77575,-10.38991 40.14359,-3e-5 38.77571,10.38993 34.76537,20.0718 z"
       sodipodi:nodetypes="cccccccccc" />
    <path
       id="path25526"
       style="fill:none;stroke:#000000;stroke-width:0.264583px;stroke-linecap:butt;stroke-linejoin:miter;stroke-opacity:1"
       d="m -169.29117,127.27371 -28.38578,-28.38577 -34.76537,-20.07182 -38.77572,-10.38991 -40.14355,-2e-5 38.77567,10.38992 34.76538,20.0718 28.38579,28.38582 20.07179,34.76536 z"
       sodipodi:nodetypes="cccccccccc" />
    <path
       id="path25528"
       style="fill:none;stroke:#000000;stroke-width:0.264583px;stroke-linecap:butt;stroke-linejoin:miter;stroke-opacity:1"
       d="m -158.90123,88.49799 -34.76538,-20.0718 -38.77572,-10.38991 h -40.14357 l -38.77572,10.38993 h 40.14358 l 38.77572,10.38993 34.76537,20.0718 28.38577,28.3858 z"
       sodipodi:nodetypes="cccccccccc" />
    <path
       id="path25530"
       style="fill:none;stroke:#000000;stroke-width:0.264583px;stroke-linecap:butt;stroke-linejoin:miter;stroke-opacity:1"
       d="m -169.29114,-108.11638 -40.14349,1e-5 -38.77572,10.38994 -34.76536,20.07179 -28.3858,28.38578 34.76533,-20.07177 38.77575,-10.38992 h 40.14358 l 38.77573,10.38995 z"
       sodipodi:nodetypes="cccccccccc" />
    <path
       id="path25772"
       style="fill:none;stroke:#000000;stroke-width:0.264583px;stroke-linecap:butt;stroke-linejoin:miter;stroke-opacity:1"
       d="m -189.36297,162.03905 -28.38577,-28.38581 -34.76537,-20.07175 -38.77573,-10.38995 -40.1436,-1e-5 38.77571,10.38995 34.76538,20.0718 28.38581,28.38578 20.0718,34.76534 z"
       sodipodi:nodetypes="cccccccccc" />
    <path
       id="path25774"
       style="fill:none;stroke:#000000;stroke-width:0.264583px;stroke-linecap:butt;stroke-linejoin:miter;stroke-opacity:1"
       d="m -433.36032,162.03899 10.38991,38.77575 -10e-6,40.14359 -10.38994,38.77574 -20.07176,34.76533 10.3899,-38.77571 -2e-5,-40.1436 -10.38987,-38.7757 -20.0718,-34.76537 z"
       sodipodi:nodetypes="cccccccccc" />
    <path
       id="path25776"
       style="fill:none;stroke:#000000;stroke-width:0.264583px;stroke-linecap:butt;stroke-linejoin:miter;stroke-opacity:1"
       d="m -331.43344,103.19153 34.76533,20.0718 28.38583,28.38581 20.07178,34.76539 10.38991,38.77569 -20.07178,-34.76534 -28.38578,-28.38582 -34.76537,-20.07179 -38.77572,-10.38993 z"
       sodipodi:nodetypes="cccccccccc" />
    <path
       id="path25778"
       style="fill:none;stroke:#000000;stroke-width:0.264583px;stroke-linecap:butt;stroke-linejoin:miter;stroke-opacity:1"
       d="m -359.81924,131.57734 28.3858,28.38581 20.07179,34.76538 10.38991,38.77569 -10e-6,40.14359 -10.38989,-38.77573 -20.0718,-34.76533 -28.3858,-28.38583 -34.76536,-20.0718 z"
       sodipodi:nodetypes="cccccccccc" />
    <path
       id="path25780"
       style="fill:none;stroke:#000000;stroke-width:0.264583px;stroke-linecap:butt;stroke-linejoin:miter;stroke-opacity:1"
       d="m -394.5846,151.64909 20.07177,34.76538 10.38993,38.77573 4e-5,40.14357 -10.38995,38.77575 v -40.14361 l -10.38991,-38.7757 -20.07181,-34.76537 -28.38579,-28.38585 z"
       sodipodi:nodetypes="cccccccccc" />
    <path
       id="path25782"
       style="fill:none;stroke:#000000;stroke-width:0.264583px;stroke-linecap:butt;stroke-linejoin:miter;stroke-opacity:1"
       d="m -300.97172,273.64783 -10.38993,-38.77572 -20.07179,-34.76536 -28.38581,-28.38581 -34.76538,-20.07177 28.38583,28.38579 20.07179,34.76536 10.38992,38.77573 4e-5,40.14357 z"
       sodipodi:nodetypes="cccccccccc" />
    <path
       id="path25784"
       style="fill:none;stroke:#000000;stroke-width:0.264583px;stroke-linecap:butt;stroke-linejoin:miter;stroke-opacity:1"
       d="m -335.73705,293.71962 -4e-5,-40.14357 -10.38992,-38.77573 -20.07179,-34.76536 -28.38583,-28.3858 20.07182,34.76537 10.38993,38.77571 v 40.14359 l -10.38996,38.77575 z"
       sodipodi:nodetypes="cccccccccc" />
    <path
       id="path25786"
       style="fill:none;stroke:#000000;stroke-width:0.264583px;stroke-linecap:butt;stroke-linejoin:miter;stroke-opacity:1"
       d="m -237.82059,225.19022 -20.07176,-34.76528 -28.38581,-28.38579 -34.76536,-20.07179 -38.77571,-10.38993 34.76533,20.07176 28.38582,28.38583 20.07179,34.76536 10.38991,38.77573 z"
       sodipodi:nodetypes="cccccccccc" />
    <path
       id="path25788"
       style="fill:none;stroke:#000000;stroke-width:0.264583px;stroke-linecap:butt;stroke-linejoin:miter;stroke-opacity:1"
       d="m -266.20638,253.57611 -10.38992,-38.77573 -20.07178,-34.76536 -28.38579,-28.38579 -34.76539,-20.07183 28.3858,28.38583 20.07182,34.76535 10.38991,38.77572 v 40.14359 z"
       sodipodi:nodetypes="cccccccccc" />
    <path
       id="path25790"
       style="fill:none;stroke:#000000;stroke-width:0.264583px;stroke-linecap:butt;stroke-linejoin:miter;stroke-opacity:1"
       d="m -413.28855,314.49942 10.38991,-38.77569 2e-5,-40.14361 -10.38994,-38.77571 -20.07175,-34.76534 10.3899,38.77567 v 40.1436 l -10.38995,38.77573 -20.07179,34.76536 z"
       sodipodi:nodetypes="cccccccccc" />
    <path
       id="path25792"
       style="fill:none;stroke:#000000;stroke-width:0.264583px;stroke-linecap:butt;stroke-linejoin:miter;stroke-opacity:1"
       d="m -374.51282,304.10951 v -40.1436 l -10.38994,-38.77572 -20.07178,-34.76535 -28.38581,-28.38579 20.07179,34.76536 10.38992,38.77572 v 40.1436 l -10.38994,38.7757 z"
       sodipodi:nodetypes="cccccccccc" />
    <path
       id="path25794"
       style="fill:none;stroke:#000000;stroke-width:0.264583px;stroke-linecap:butt;stroke-linejoin:miter;stroke-opacity:1"
       d="m -209.43474,196.8044 -20.07175,-34.76528 -28.38581,-28.38579 -34.76536,-20.07179 -38.77571,-10.38993 34.76533,20.07177 28.38581,28.38583 20.07179,34.76536 10.3899,38.77574 z"
       sodipodi:nodetypes="cccccccccc" />
    <path
       id="path25798"
       style="fill:none;stroke:#000000;stroke-width:0.264583px;stroke-linecap:butt;stroke-linejoin:miter;stroke-opacity:1"
       d="m -620.58603,101.11558 -20.07182,34.76537 -28.38581,28.3858 -34.76539,20.07179 -38.77568,10.38993 34.76534,-20.0718 28.3858,-28.38583 20.07181,-34.76531 10.38992,-38.77573 z"
       sodipodi:nodetypes="cccccccccc" />
    <path
       id="path25800"
       style="fill:none;stroke:#000000;stroke-width:0.264583px;stroke-linecap:butt;stroke-linejoin:miter;stroke-opacity:1"
       d="m -648.97188,72.7298 -20.07181,34.76533 -28.3858,28.38582 -34.76539,20.07178 -38.77569,10.38992 34.76534,-20.07179 28.38581,-28.38578 20.0718,-34.76537 10.38992,-38.77571 z"
       sodipodi:nodetypes="cccccccccc" />
    <path
       id="path25802"
       style="fill:none;stroke:#000000;stroke-width:0.264583px;stroke-linecap:butt;stroke-linejoin:miter;stroke-opacity:1"
       d="m -512.27964,151.64914 v 40.14359 l -10.38994,38.77573 -20.07177,34.76533 -28.38582,28.3858 20.07182,-34.76535 10.38989,-38.7757 2e-5,-40.1436 -10.38991,-38.77574 z"
       sodipodi:nodetypes="cccccccccc" />
    <path
       id="path25804"
       style="fill:none;stroke:#000000;stroke-width:0.264583px;stroke-linecap:butt;stroke-linejoin:miter;stroke-opacity:1"
       d="m -585.82072,121.18743 -10.38995,38.77572 -20.07179,34.76538 -28.38576,28.38581 -34.7654,20.07179 28.38581,-28.38581 20.07179,-34.76534 10.38992,-38.77574 4e-5,-40.14361 z"
       sodipodi:nodetypes="cccccccccc" />
    <path
       id="path25806"
       style="fill:none;stroke:#000000;stroke-width:0.264583px;stroke-linecap:butt;stroke-linejoin:miter;stroke-opacity:1"
       d="m -571.12717,293.71959 20.07178,-34.76536 10.38992,-38.77572 v -40.1436 l -10.38995,-38.77572 3e-5,40.1436 -10.38992,38.77572 -20.0718,34.76536 -28.38576,28.38582 z"
       sodipodi:nodetypes="cccccccccc" />
    <path
       id="path25808"
       style="fill:none;stroke:#000000;stroke-width:0.264583px;stroke-linecap:butt;stroke-linejoin:miter;stroke-opacity:1"
       d="m -644.66823,263.25793 28.38576,-28.38582 20.0718,-34.76536 10.38992,-38.77572 -2e-5,-40.1436 -10.38991,38.77574 -20.07178,34.76536 -28.3858,28.3858 -34.76541,20.07179 z"
       sodipodi:nodetypes="cccccccccc" />
    <path
       id="path25810"
       style="fill:none;stroke:#000000;stroke-width:0.264583px;stroke-linecap:butt;stroke-linejoin:miter;stroke-opacity:1"
       d="m -679.43352,243.18607 28.38571,-28.38575 20.07179,-34.76537 10.38991,-38.77572 3e-5,-40.14358 -10.38991,38.77569 -20.07182,34.76539 -28.3858,28.38579 -34.76536,20.07179 z"
       sodipodi:nodetypes="cccccccccc" />
    <path
       id="path25812"
       style="fill:none;stroke:#000000;stroke-width:0.264583px;stroke-linecap:butt;stroke-linejoin:miter;stroke-opacity:1"
       d="m -493.57575,314.4994 20.0718,-34.76536 10.38992,-38.77571 v -40.14357 l -10.38991,-38.77578 -3e-5,40.14361 -10.38988,38.77573 -20.07181,34.76536 -28.38581,28.3858 z"
       sodipodi:nodetypes="cccccccccc" />
    <path
       id="path25814"
       style="fill:none;stroke:#000000;stroke-width:0.264583px;stroke-linecap:butt;stroke-linejoin:miter;stroke-opacity:1"
       d="m -742.58475,194.72843 34.76533,-20.07178 28.38583,-28.38581 20.07177,-34.76536 10.38994,-38.77568 -20.07177,34.76531 -28.38582,28.38581 -34.76538,20.07178 -38.77572,10.38993 z"
       sodipodi:nodetypes="cccccccccc" />
    <path
       id="path25816"
       style="fill:none;stroke:#000000;stroke-width:0.264583px;stroke-linecap:butt;stroke-linejoin:miter;stroke-opacity:1"
       d="m -714.19898,223.11434 34.76538,-20.0718 28.38579,-28.38581 20.07178,-34.76535 10.38991,-38.77571 -20.07179,34.76535 -28.38579,28.38579 -34.76538,20.0718 -38.77571,10.3899 z"
       sodipodi:nodetypes="cccccccccc" />
    <path
       id="path25818"
       style="fill:none;stroke:#000000;stroke-width:0.264583px;stroke-linecap:butt;stroke-linejoin:miter;stroke-opacity:1"
       d="m -453.43211,314.49933 10.38989,-38.77564 -2e-5,-40.14359 -10.38992,-38.77572 -20.07177,-34.76535 10.38991,38.77568 -1e-5,40.14361 -10.38992,38.77572 -20.07183,34.76536 z"
       sodipodi:nodetypes="cccccccccc" />
    <path
       id="path25820"
       style="fill:none;stroke:#000000;stroke-width:0.264583px;stroke-linecap:butt;stroke-linejoin:miter;stroke-opacity:1"
       d="m -473.50394,162.03903 -3e-5,40.14356 -10.38992,38.77575 -20.07182,34.76536 -28.38577,28.38578 20.07177,-34.76535 10.38996,-38.77571 -1e-5,-40.14359 -10.38992,-38.77572 z"
       sodipodi:nodetypes="cccccccccc" />
    <path
       id="path25822"
       style="fill:none;stroke:#000000;stroke-width:0.264583px;stroke-linecap:butt;stroke-linejoin:miter;stroke-opacity:1"
       d="m -532.35148,304.10948 20.07173,-34.7653 10.38991,-38.77572 v -40.14358 l -10.3899,-38.77573 v 40.14354 l -10.38994,38.77577 -20.07179,34.76536 -28.3858,28.38578 z"
       sodipodi:nodetypes="cccccccccc" />
    <path
       id="path25824"
       style="fill:none;stroke:#000000;stroke-width:0.264583px;stroke-linecap:butt;stroke-linejoin:miter;stroke-opacity:1"
       d="m -551.05537,141.25924 -10.38994,38.7757 -20.0718,34.76538 -28.38583,28.38579 -34.76532,20.07178 28.38577,-28.38579 20.07182,-34.76534 10.38992,-38.77573 v -40.14358 z"
       sodipodi:nodetypes="cccccccccc" />
    <path
       id="path25826"
       style="fill:none;stroke:#000000;stroke-width:0.264583px;stroke-linecap:butt;stroke-linejoin:miter;stroke-opacity:1"
       d="m -609.90281,283.32962 28.38572,-28.38575 20.07178,-34.76536 10.38992,-38.77572 2e-5,-40.14359 -10.38991,38.77568 -20.07182,34.76541 -28.38579,28.3858 -34.76536,20.07177 z"
       sodipodi:nodetypes="cccccccccc" />
    <path
       id="path26098"
       style="fill:none;stroke:#000000;stroke-width:0.264583px;stroke-linecap:butt;stroke-linejoin:miter;stroke-opacity:1"
       d="m -697.42935,9.5786311 -28.38582,28.3857939 -34.76538,20.071793 -38.77573,10.389926 -40.14354,1e-6 38.77569,-10.389937 34.76537,-20.071825 28.3858,-28.3857096 20.07181,-34.7653844 z"
       sodipodi:nodetypes="cccccccccc" />
    <path
       id="path26100"
       style="fill:none;stroke:#000000;stroke-width:0.264583px;stroke-linecap:butt;stroke-linejoin:miter;stroke-opacity:1"
       d="m -819.42807,103.19151 38.77569,-10.389915 34.76539,-20.071788 28.3858,-28.385797 20.07177,-34.765348 -28.38575,28.385763 -34.76538,20.071812 -38.77573,10.389907 -40.14359,-1.3e-5 z"
       sodipodi:nodetypes="cccccccccc" />
    <path
       id="path26102"
       style="fill:none;stroke:#000000;stroke-width:0.264583px;stroke-linecap:butt;stroke-linejoin:miter;stroke-opacity:1"
       d="m -770.97057,166.34263 34.76537,-20.07182 28.38581,-28.38582 20.07177,-34.765331 10.38993,-38.775718 -20.07179,34.765359 -28.38581,28.38579 -34.76538,20.07179 -38.7757,10.38989 z"
       sodipodi:nodetypes="cccccccccc" />
    <path
       id="path26104"
       style="fill:none;stroke:#000000;stroke-width:0.264583px;stroke-linecap:butt;stroke-linejoin:miter;stroke-opacity:1"
       d="m -839.49984,68.426213 38.77575,-10.389888 34.76532,-20.071826 28.38583,-28.3857811 20.07181,-34.7653659 -28.38583,28.3857691 -34.76538,20.0718049 -38.7757,10.389941 -40.14358,1.9e-5 z"
       sodipodi:nodetypes="cccccccccc" />
    <path
       id="path26106"
       style="fill:none;stroke:#000000;stroke-width:0.264583px;stroke-linecap:butt;stroke-linejoin:miter;stroke-opacity:1"
       d="m -717.50113,-25.186648 -34.76536,20.0717482 -38.77576,10.3899335 -40.14359,-1.6e-5 -38.77569,-10.3899235 40.14355,2e-6 38.77572,-10.3898822 34.76538,-20.071796 28.38581,-28.385799 z"
       sodipodi:nodetypes="cccccccccc" />
    <path
       id="path26108"
       style="fill:none;stroke:#000000;stroke-width:0.264583px;stroke-linecap:butt;stroke-linejoin:miter;stroke-opacity:1"
       d="m -727.89107,-63.962381 -38.77572,10.389899 -40.14362,5e-6 -38.77569,-10.389923 -34.76535,-20.071792 38.77571,10.389944 40.14356,-1.2e-5 38.77574,-10.38992 34.76537,-20.07177 z"
       sodipodi:nodetypes="cccccccccc" />
    <path
       id="path26110"
       style="fill:none;stroke:#000000;stroke-width:0.264583px;stroke-linecap:butt;stroke-linejoin:miter;stroke-opacity:1"
       d="m -727.89105,-104.10596 -40.14357,-2e-5 -38.77574,-10.38992 -34.76537,-20.07174 -28.3858,-28.38583 34.76538,20.07178 38.77569,10.38995 40.1436,-3e-5 38.77579,-10.38989 z"
       sodipodi:nodetypes="cccccccccc" />
    <path
       id="path26112"
       style="fill:none;stroke:#000000;stroke-width:0.264583px;stroke-linecap:butt;stroke-linejoin:miter;stroke-opacity:1"
       d="m -880.35149,-84.034189 38.77573,10.389932 40.14358,-3e-6 38.77572,-10.389925 34.76536,-20.071835 -38.77572,10.389962 h -40.14358 l -38.77573,-10.389932 -34.76535,-20.07174 z"
       sodipodi:nodetypes="cccccccccc" />
    <path
       id="path26114"
       style="fill:none;stroke:#000000;stroke-width:0.264583px;stroke-linecap:butt;stroke-linejoin:miter;stroke-opacity:1"
       d="m -880.35148,-124.17773 34.76535,20.07174 38.77573,10.389932 h 40.14358 l 38.77573,-10.389952 -40.14359,4e-5 -38.77573,-10.38993 -34.76537,-20.07181 -28.38579,-28.38583 z"
       sodipodi:nodetypes="cccccccccc" />
    <path
       id="path26116"
       style="fill:none;stroke:#000000;stroke-width:0.264583px;stroke-linecap:butt;stroke-linejoin:miter;stroke-opacity:1"
       d="m -869.96153,-5.1149058 40.14349,3e-6 38.77572,-10.3899462 34.76537,-20.071791 28.38579,-28.385774 -34.76531,20.071767 -38.77576,10.389932 -40.14358,-1e-5 -38.77573,-10.389948 z"
       sodipodi:nodetypes="cccccccccc" />
    <path
       id="path26118"
       style="fill:none;stroke:#000000;stroke-width:0.264583px;stroke-linecap:butt;stroke-linejoin:miter;stroke-opacity:1"
       d="m -880.35154,-43.890673 38.77572,10.389932 40.14359,2.6e-5 38.77571,-10.389921 34.76541,-20.071802 -38.77575,10.3899 -40.1436,5.2e-5 -38.7757,-10.389938 -34.76538,-20.071796 z"
       sodipodi:nodetypes="cccccccccc" />
    <path
       id="path26120"
       style="fill:none;stroke:#000000;stroke-width:0.264583px;stroke-linecap:butt;stroke-linejoin:miter;stroke-opacity:1"
       d="m -869.96153,-162.95348 34.76539,20.07178 38.77572,10.38992 40.14357,-1e-5 38.77571,-10.38991 -40.14357,-1e-5 -38.77574,-10.38993 -34.76535,-20.07181 -28.38578,-28.38583 z"
       sodipodi:nodetypes="cccccccccc" />
    <path
       id="path26122"
       style="fill:none;stroke:#000000;stroke-width:0.264583px;stroke-linecap:butt;stroke-linejoin:miter;stroke-opacity:1"
       d="m -859.57162,33.660886 40.1435,-2.5e-5 38.77571,-10.389937 34.76537,-20.0717892 28.3858,-28.3857778 -34.76533,20.0717772 -38.77575,10.3899055 -40.14359,1.94e-5 -38.77572,-10.3899649 z"
       sodipodi:nodetypes="cccccccccc" />
    <path
       id="path26142"
       style="fill:none;stroke:#000000;stroke-width:0.264583px;stroke-linecap:butt;stroke-linejoin:miter;stroke-opacity:1"
       d="m -677.35758,44.343968 -28.38582,28.385794 -34.76538,20.071793 -38.77573,10.389925 -40.14354,0 38.77569,-10.389935 34.76537,-20.071825 28.3858,-28.38571 20.07181,-34.7653844 z"
       sodipodi:nodetypes="cccccccccc" />
    <path
       id="path26144"
       style="fill:none;stroke:#000000;stroke-width:0.264583px;stroke-linecap:butt;stroke-linejoin:miter;stroke-opacity:1"
       d="m -799.3563,137.95685 38.77569,-10.38992 34.76539,-20.07179 28.3858,-28.385794 20.07177,-34.765348 -28.38575,28.385763 -34.76538,20.071812 -38.77573,10.389907 -40.14359,-1e-5 z"
       sodipodi:nodetypes="cccccccccc" />
    <path
       id="path26146"
       style="fill:none;stroke:#000000;stroke-width:0.264583px;stroke-linecap:butt;stroke-linejoin:miter;stroke-opacity:1"
       d="m -717.50107,-142.88178 -38.77571,-10.38994 -34.76538,-20.07179 -28.38582,-28.38575 -20.07178,-34.76539 28.38582,28.38579 34.76532,20.07181 38.77575,10.3899 40.14364,5e-5 z"
       sodipodi:nodetypes="cccccccccc" />
    <path
       id="path26148"
       style="fill:none;stroke:#000000;stroke-width:0.264583px;stroke-linecap:butt;stroke-linejoin:miter;stroke-opacity:1"
       d="m -859.57158,-201.72928 28.3858,28.38574 34.76537,20.0718 38.77572,10.38993 40.14359,-3e-5 -38.77574,-10.38989 -34.76537,-20.07179 -28.3858,-28.38582 -20.07177,-34.76539 z"
       sodipodi:nodetypes="cccccccccc" />
    <path
       id="path26150"
       style="fill:none;stroke:#000000;stroke-width:0.264583px;stroke-linecap:butt;stroke-linejoin:miter;stroke-opacity:1"
       d="m -839.49976,-236.49466 28.38583,28.38579 34.76536,20.07179 38.77571,10.38991 40.14357,10e-6 -38.77571,-10.38993 -34.76537,-20.0718 -28.38579,-28.38582 -20.07176,-34.76538 z"
       sodipodi:nodetypes="cccccccccc" />
    <path
       id="path26152"
       style="fill:none;stroke:#000000;stroke-width:0.264583px;stroke-linecap:butt;stroke-linejoin:miter;stroke-opacity:1"
       d="m -697.4292,-177.64721 -34.76535,-20.07181 -28.38582,-28.3858 -20.07182,-34.76532 -10.38991,-38.77575 20.07182,34.76536 28.38575,28.38581 34.7654,20.07177 38.77576,10.38999 z"
       sodipodi:nodetypes="cccccccccc" />
    <path
       id="path26154"
       style="fill:none;stroke:#000000;stroke-width:0.264583px;stroke-linecap:butt;stroke-linejoin:miter;stroke-opacity:1"
       d="m -819.42792,-271.26009 20.0718,34.76531 28.38581,28.38581 34.76535,20.07179 38.77574,10.3899 -34.76538,-20.07176 -28.38581,-28.3858 -20.07179,-34.76539 -10.38989,-38.77574 z"
       sodipodi:nodetypes="cccccccccc" />
    <path
       id="path26156"
       style="fill:none;stroke:#000000;stroke-width:0.264583px;stroke-linecap:butt;stroke-linejoin:miter;stroke-opacity:1"
       d="m -791.04209,-299.6459 20.07182,34.76536 28.3858,28.3858 34.76535,20.07178 38.77571,10.38993 -34.76535,-20.0718 -28.3858,-28.38581 -20.07178,-34.76538 -10.38989,-38.77573 z"
       sodipodi:nodetypes="cccccccccc" />
    <path
       id="path26158"
       style="fill:none;stroke:#000000;stroke-width:0.264583px;stroke-linecap:butt;stroke-linejoin:miter;stroke-opacity:1"
       d="m -669.04334,-206.033 -34.76535,-20.07181 -28.38582,-28.3858 -20.07182,-34.76532 -10.38991,-38.77575 20.07182,34.76536 28.38575,28.38581 34.7654,20.07177 38.77576,10.38999 z"
       sodipodi:nodetypes="cccccccccc" />
    <path
       id="path26162"
       style="fill:none;stroke:#000000;stroke-width:0.264583px;stroke-linecap:butt;stroke-linejoin:miter;stroke-opacity:1"
       d="m -762.65623,-328.03169 20.07182,34.76536 28.3858,28.3858 34.76535,20.07178 38.77571,10.38993 -34.76535,-20.0718 -28.3858,-28.38581 -20.07178,-34.76538 -10.38989,-38.77573 z"
       sodipodi:nodetypes="cccccccccc" />
    <path
       id="path26244"
       style="fill:none;stroke:#000000;stroke-width:0.264583px;stroke-linecap:butt;stroke-linejoin:miter;stroke-opacity:1"
       d="m -734.27037,-356.41754 10.38996,38.77572 20.07179,34.76537 28.38579,28.38578 34.76535,20.0718 -28.38579,-28.38581 -20.07179,-34.76537 -10.38991,-38.77574 4e-5,-40.14358 z"
       sodipodi:nodetypes="cccccccccc" />
    <path
       id="path26246"
       style="fill:none;stroke:#000000;stroke-width:0.264583px;stroke-linecap:butt;stroke-linejoin:miter;stroke-opacity:1"
       d="m -640.65742,-234.41883 -28.38579,-28.38581 -20.07181,-34.76537 -10.38996,-38.77569 2e-5,-40.1436 10.38995,38.77572 20.07174,34.76536 28.38584,28.38579 34.76539,20.07187 z"
       sodipodi:nodetypes="cccccccccc" />
    <path
       id="path26248"
       style="fill:none;stroke:#000000;stroke-width:0.264583px;stroke-linecap:butt;stroke-linejoin:miter;stroke-opacity:1"
       d="m -699.50495,-376.48931 10.38995,38.77573 20.0718,34.76536 28.38579,28.38579 34.76534,20.07179 -28.38578,-28.38581 -20.07179,-34.76537 -10.38991,-38.77574 4e-5,-40.14358 z"
       sodipodi:nodetypes="cccccccccc" />
    <path
       id="path26250"
       style="fill:none;stroke:#000000;stroke-width:0.264583px;stroke-linecap:butt;stroke-linejoin:miter;stroke-opacity:1"
       d="m -605.89197,-254.49067 -28.38579,-28.38581 -20.07181,-34.76537 -10.38996,-38.77569 2e-5,-40.1436 10.38995,38.77572 20.07174,34.76536 28.38584,28.38579 34.76539,20.07187 z"
       sodipodi:nodetypes="cccccccccc" />
    <path
       id="path26252"
       style="fill:none;stroke:#000000;stroke-width:0.264583px;stroke-linecap:butt;stroke-linejoin:miter;stroke-opacity:1"
       d="m -664.7395,-396.56115 10.38995,38.77573 20.0718,34.76536 28.38579,28.38579 34.76534,20.07179 -28.38578,-28.38581 -20.07179,-34.76537 -10.38991,-38.77574 4e-5,-40.14358 z"
       sodipodi:nodetypes="cccccccccc" />
    <path
       id="path26254"
       style="fill:none;stroke:#000000;stroke-width:0.264583px;stroke-linecap:butt;stroke-linejoin:miter;stroke-opacity:1"
       d="m -629.97412,-416.63299 2e-5,40.14359 10.38994,38.77573 20.07178,34.76535 28.38578,28.38579 -20.07177,-34.76537 -10.38992,-38.77573 2e-5,-40.14359 10.38996,-38.77571 z"
       sodipodi:nodetypes="cccccccccc" />
    <path
       id="path26256"
       style="fill:none;stroke:#000000;stroke-width:0.264583px;stroke-linecap:butt;stroke-linejoin:miter;stroke-opacity:1"
       d="m -571.1265,-274.56253 -20.07177,-34.76537 -10.38994,-38.77574 -5e-5,-40.14356 10.38995,-38.77573 3e-5,40.14358 10.38987,38.77571 20.07183,34.76536 28.38581,28.38589 z"
       sodipodi:nodetypes="cccccccccc" />
    <path
       id="path26258"
       style="fill:none;stroke:#000000;stroke-width:0.264583px;stroke-linecap:butt;stroke-linejoin:miter;stroke-opacity:1"
       d="m -591.1983,-427.02294 3e-5,40.1436 10.38993,38.77572 20.07178,34.76535 28.38578,28.38579 -20.07177,-34.76537 -10.38992,-38.77573 2e-5,-40.14359 10.38996,-38.77571 z"
       sodipodi:nodetypes="cccccccccc" />
    <path
       id="path26260"
       style="fill:none;stroke:#000000;stroke-width:0.264583px;stroke-linecap:butt;stroke-linejoin:miter;stroke-opacity:1"
       d="m -532.35069,-284.9525 -20.07177,-34.76537 -10.38994,-38.77574 -5e-5,-40.14356 10.38995,-38.77573 3e-5,40.14358 10.38987,38.77571 20.07183,34.76536 28.38581,28.38589 z"
       sodipodi:nodetypes="cccccccccc" />
    <path
       id="path26262"
       style="fill:none;stroke:#000000;stroke-width:0.264583px;stroke-linecap:butt;stroke-linejoin:miter;stroke-opacity:1"
       d="m -552.42249,-437.41291 3e-5,40.1436 10.38993,38.77572 20.07178,34.76535 28.38578,28.38579 -20.07177,-34.76537 -10.38992,-38.77573 2e-5,-40.14359 10.38996,-38.77571 z"
       sodipodi:nodetypes="cccccccccc" />
    <path
       id="path26264"
       style="fill:none;stroke:#000000;stroke-width:0.264583px;stroke-linecap:butt;stroke-linejoin:miter;stroke-opacity:1"
       d="m -513.64674,-447.80289 -10.3899,38.77575 1e-5,40.14358 10.38992,38.77571 20.07177,34.76535 -10.3899,-38.77573 10e-6,-40.14359 10.38994,-38.77572 20.07182,-34.76534 z"
       sodipodi:nodetypes="cccccccccc" />
    <path
       id="path26266"
       style="fill:none;stroke:#000000;stroke-width:0.264583px;stroke-linecap:butt;stroke-linejoin:miter;stroke-opacity:1"
       d="m -493.57485,-295.3425 -10.3899,-38.77572 -1e-5,-40.14361 10.38987,-38.77571 20.07182,-34.76536 -10.3899,38.77572 -4e-5,40.14356 10.38996,38.77573 20.07178,34.76545 z"
       sodipodi:nodetypes="cccccccccc" />
    <path
       id="path26268"
       style="fill:none;stroke:#000000;stroke-width:0.264583px;stroke-linecap:butt;stroke-linejoin:miter;stroke-opacity:1"
       d="m -473.50306,-447.80291 -10.3899,38.77575 1e-5,40.14358 10.38991,38.77571 20.07178,34.76534 -10.3899,-38.77572 v -40.14359 l 10.38995,-38.77572 20.07182,-34.76534 z"
       sodipodi:nodetypes="cccccccccc" />
    <path
       id="path26270"
       style="fill:none;stroke:#000000;stroke-width:0.264583px;stroke-linecap:butt;stroke-linejoin:miter;stroke-opacity:1"
       d="m -453.43125,-295.34251 -10.3899,-38.77572 -1e-5,-40.14361 10.38987,-38.77571 20.07182,-34.76536 -10.3899,38.77572 -4e-5,40.14356 10.38996,38.77573 20.07178,34.76545 z"
       sodipodi:nodetypes="cccccccccc" />
    <path
       id="path26272"
       style="fill:none;stroke:#000000;stroke-width:0.264583px;stroke-linecap:butt;stroke-linejoin:miter;stroke-opacity:1"
       d="m -433.35946,-447.80292 -10.3899,38.77575 1e-5,40.14358 10.38991,38.77571 20.07178,34.76534 -10.3899,-38.77572 v -40.14359 l 10.38995,-38.77572 20.07182,-34.76534 z"
       sodipodi:nodetypes="cccccccccc" />
    <path
       id="path26274"
       style="fill:none;stroke:#000000;stroke-width:0.264583px;stroke-linecap:butt;stroke-linejoin:miter;stroke-opacity:1"
       d="m -393.21583,-447.80296 -20.07178,34.76539 -10.38991,38.77573 v 40.14357 l 10.38991,38.7757 2e-5,-40.14358 10.38994,-38.77573 20.0718,-34.76535 28.38582,-28.38577 z"
       sodipodi:nodetypes="cccccccccc" />
    <path
       id="path26276"
       style="fill:none;stroke:#000000;stroke-width:0.264583px;stroke-linecap:butt;stroke-linejoin:miter;stroke-opacity:1"
       d="m -413.28753,-295.34255 3e-5,-40.14357 10.38992,-38.77575 20.07173,-34.76536 28.38583,-28.38579 -20.07177,34.76536 -10.38995,38.77569 3e-5,40.1436 10.38989,38.77581 z"
       sodipodi:nodetypes="cccccccccc" />
    <path
       id="path26278"
       style="fill:none;stroke:#000000;stroke-width:0.264583px;stroke-linecap:butt;stroke-linejoin:miter;stroke-opacity:1"
       d="m -354.44001,-437.41303 -20.07177,34.76539 -10.38992,38.77573 -10e-6,40.14356 10.38992,38.7757 2e-5,-40.14357 10.38993,-38.77573 20.07182,-34.76535 28.38582,-28.38578 z"
       sodipodi:nodetypes="cccccccccc" />
    <path
       id="path26280"
       style="fill:none;stroke:#000000;stroke-width:0.264583px;stroke-linecap:butt;stroke-linejoin:miter;stroke-opacity:1"
       d="m -374.51178,-284.95263 2e-5,-40.14357 10.38992,-38.77575 20.07174,-34.76537 28.38582,-28.38579 -20.07177,34.76537 -10.38995,38.77569 3e-5,40.1436 10.38989,38.7758 z"
       sodipodi:nodetypes="cccccccccc" />
    <path
       id="path26282"
       style="fill:none;stroke:#000000;stroke-width:0.264583px;stroke-linecap:butt;stroke-linejoin:miter;stroke-opacity:1"
       d="m -315.66427,-427.02311 -20.07177,34.76539 -10.38991,38.77572 -1e-5,40.14357 10.38991,38.7757 3e-5,-40.14357 10.38992,-38.77573 20.07182,-34.76536 28.38582,-28.38577 z"
       sodipodi:nodetypes="cccccccccc" />
    <path
       id="path26284"
       style="fill:none;stroke:#000000;stroke-width:0.264583px;stroke-linecap:butt;stroke-linejoin:miter;stroke-opacity:1"
       d="m -276.88849,-416.63322 -28.38579,28.38583 -20.07178,34.76537 -10.38992,38.77572 -1e-5,40.14355 10.38994,-38.77571 20.07181,-34.76537 28.3858,-28.38578 34.76538,-20.07176 z"
       sodipodi:nodetypes="cccccccccc" />
    <path
       id="path26286"
       style="fill:none;stroke:#000000;stroke-width:0.264583px;stroke-linecap:butt;stroke-linejoin:miter;stroke-opacity:1"
       d="m -335.73592,-274.56271 10.38995,-38.7757 20.07179,-34.76539 28.38574,-28.38581 34.76539,-20.07178 -28.38577,28.38581 -20.07181,34.76532 -10.3899,38.77575 -6e-5,40.14365 z"
       sodipodi:nodetypes="cccccccccc" />
    <path
       id="path26288"
       style="fill:none;stroke:#000000;stroke-width:0.264583px;stroke-linecap:butt;stroke-linejoin:miter;stroke-opacity:1"
       d="m -242.12303,-396.56139 -28.38579,28.38583 -20.07179,34.76537 -10.38993,38.7757 1e-5,40.14356 10.38994,-38.77571 20.07179,-34.76537 28.38583,-28.38578 34.76538,-20.07177 z"
       sodipodi:nodetypes="cccccccccc" />
    <path
       id="path26290"
       style="fill:none;stroke:#000000;stroke-width:0.264583px;stroke-linecap:butt;stroke-linejoin:miter;stroke-opacity:1"
       d="m -300.97053,-254.49091 10.38994,-38.77571 20.07179,-34.76539 28.38576,-28.38582 34.76538,-20.07177 -28.38579,28.38581 -20.0718,34.76532 -10.3899,38.77575 -5e-5,40.14365 z"
       sodipodi:nodetypes="cccccccccc" />
    <path
       id="path26292"
       style="fill:none;stroke:#000000;stroke-width:0.264583px;stroke-linecap:butt;stroke-linejoin:miter;stroke-opacity:1"
       d="m -207.35765,-376.4896 -28.38579,28.38583 -20.07178,34.76536 -10.38993,38.77571 -10e-6,40.14356 10.38995,-38.77571 20.07179,-34.76537 28.38583,-28.38579 34.76537,-20.07175 z"
       sodipodi:nodetypes="cccccccccc" />
    <path
       id="path26294"
       style="fill:none;stroke:#000000;stroke-width:0.264583px;stroke-linecap:butt;stroke-linejoin:miter;stroke-opacity:1"
       d="m -172.59223,-356.41783 -34.76536,20.07182 -28.38579,28.38581 -20.07179,34.76536 -10.38992,38.77569 20.0718,-34.76534 28.38582,-28.38581 34.76536,-20.07177 38.77573,-10.38989 z"
       sodipodi:nodetypes="cccccccccc" />
    <path
       id="path26296"
       style="fill:none;stroke:#000000;stroke-width:0.264583px;stroke-linecap:butt;stroke-linejoin:miter;stroke-opacity:1"
       d="m -266.20503,-234.41909 20.07181,-34.76533 28.3858,-28.38583 34.76531,-20.07182 38.77575,-10.3899 -34.76534,20.07181 -28.38581,28.38575 -20.07177,34.76539 -10.39,38.77578 z"
       sodipodi:nodetypes="cccccccccc" />
    <path
       id="path26298"
       style="fill:none;stroke:#000000;stroke-width:0.264583px;stroke-linecap:butt;stroke-linejoin:miter;stroke-opacity:1"
       d="m -144.20634,-328.03197 -34.76536,20.07182 -28.3858,28.38581 -20.0718,34.76534 -10.3899,38.7757 20.0718,-34.76534 28.3858,-28.38581 34.76539,-20.07176 38.77573,-10.3899 z"
       sodipodi:nodetypes="cccccccccc" />
    <path
       id="path26300"
       style="fill:none;stroke:#000000;stroke-width:0.264583px;stroke-linecap:butt;stroke-linejoin:miter;stroke-opacity:1"
       d="m -237.81921,-206.03328 20.0718,-34.76534 28.38581,-28.38583 34.76533,-20.07182 38.77573,-10.3899 -34.76535,20.07181 -28.3858,28.38575 -20.07177,34.7654 -10.38999,38.77577 z"
       sodipodi:nodetypes="cccccccccc" />
    <path
       id="path26302"
       style="fill:none;stroke:#000000;stroke-width:0.264583px;stroke-linecap:butt;stroke-linejoin:miter;stroke-opacity:1"
       d="m -115.82053,-299.64617 -34.76536,20.07183 -28.38579,28.3858 -20.07179,34.76535 -10.38993,38.77569 20.07182,-34.76534 28.3858,-28.38581 34.76539,-20.07177 38.77572,-10.38988 z"
       sodipodi:nodetypes="cccccccccc" />
    <path
       id="path26304"
       style="fill:none;stroke:#000000;stroke-width:0.264583px;stroke-linecap:butt;stroke-linejoin:miter;stroke-opacity:1"
       d="m -87.43467,-271.26038 -38.77572,10.38996 -34.76536,20.0718 -28.3858,28.3858 -20.07178,34.76533 28.38581,-28.38578 34.76538,-20.07179 38.77572,-10.38991 40.14358,4e-5 z"
       sodipodi:nodetypes="cccccccccc" />
    <path
       id="path26306"
       style="fill:none;stroke:#000000;stroke-width:0.264583px;stroke-linecap:butt;stroke-linejoin:miter;stroke-opacity:1"
       d="m -209.43328,-177.64742 28.3858,-28.38576 34.76538,-20.07182 38.77568,-10.38997 40.1436,3e-5 -38.77571,10.38995 -34.76536,20.07174 -28.38578,28.38583 -20.07188,34.7654 z"
       sodipodi:nodetypes="cccccccccc" />
    <path
       id="path26308"
       style="fill:none;stroke:#000000;stroke-width:0.264583px;stroke-linecap:butt;stroke-linejoin:miter;stroke-opacity:1"
       d="m -67.3628,-236.49493 -38.77573,10.38995 -34.76537,20.0718 -28.3858,28.38578 -20.07176,34.76534 28.3858,-28.38577 34.76537,-20.0718 38.77574,-10.38989 40.14358,2e-5 z"
       sodipodi:nodetypes="cccccccccc" />
    <path
       id="path26310"
       style="fill:none;stroke:#000000;stroke-width:0.264583px;stroke-linecap:butt;stroke-linejoin:miter;stroke-opacity:1"
       d="m -189.36148,-142.88204 28.38581,-28.38578 34.76538,-20.07181 38.7757,-10.38996 40.14358,2e-5 -38.77572,10.38995 -34.76535,20.07174 -28.38579,28.38584 -20.07186,34.76539 z"
       sodipodi:nodetypes="cccccccccc" />
    <path
       id="path26312"
       style="fill:none;stroke:#000000;stroke-width:0.264583px;stroke-linecap:butt;stroke-linejoin:miter;stroke-opacity:1"
       d="m -47.291,-201.72957 -38.77573,10.38997 -34.76536,20.07179 -28.38579,28.38579 -20.07179,34.76533 28.38582,-28.38577 34.76537,-20.07181 38.77574,-10.38989 40.14357,4e-5 z"
       sodipodi:nodetypes="cccccccccc" />
    <path
       id="path26314"
       style="fill:none;stroke:#000000;stroke-width:0.264583px;stroke-linecap:butt;stroke-linejoin:miter;stroke-opacity:1"
       d="m -27.219152,-166.9642 -40.143588,4e-5 -38.77572,10.38993 -34.76537,20.07179 -28.38578,28.38577 34.76537,-20.07177 38.77574,-10.38991 40.143576,1e-5 38.775711,10.38996 z"
       sodipodi:nodetypes="cccccccccc" />
    <path
       id="path26316"
       style="fill:none;stroke:#000000;stroke-width:0.264583px;stroke-linecap:butt;stroke-linejoin:miter;stroke-opacity:1"
       d="m -169.28958,-108.11659 34.76536,-20.07175 38.77574,-10.38995 40.143556,-5e-5 38.775733,10.38996 -40.143577,2e-5 -38.775712,10.38988 -34.76535,20.07182 -28.38589,28.38582 z"
       sodipodi:nodetypes="cccccccccc" />
    <path
       id="path26318"
       style="fill:none;stroke:#000000;stroke-width:0.264583px;stroke-linecap:butt;stroke-linejoin:miter;stroke-opacity:1"
       d="m -16.829175,-128.18837 -40.143596,2e-5 -38.775729,10.38993 -34.76536,20.07178 -28.38576,28.38578 34.76535,-20.07176 38.77573,-10.38993 40.143593,4e-5 38.775716,10.38994 z"
       sodipodi:nodetypes="cccccccccc" />
    <path
       id="path26320"
       style="fill:none;stroke:#000000;stroke-width:0.264583px;stroke-linecap:butt;stroke-linejoin:miter;stroke-opacity:1"
       d="m -158.89965,-69.34084 34.76537,-20.07177 38.77574,-10.38994 40.143573,-4e-5 38.775715,10.38994 -40.143586,3e-5 -38.775702,10.38987 -34.76536,20.07184 -28.38587,28.38581 z"
       sodipodi:nodetypes="cccccccccc" />
    <path
       id="path26322"
       style="fill:none;stroke:#000000;stroke-width:0.264583px;stroke-linecap:butt;stroke-linejoin:miter;stroke-opacity:1"
       d="m -6.439242,-89.41265 -40.143601,5e-5 -38.775717,10.38992 -34.76535,20.07178 -28.38579,28.38577 34.76537,-20.07176 38.77574,-10.38993 40.143586,3e-5 38.7757,10.38996 z"
       sodipodi:nodetypes="cccccccccc" />
    <path
       id="path26324"
       style="fill:none;stroke:#000000;stroke-width:0.264583px;stroke-linecap:butt;stroke-linejoin:miter;stroke-opacity:1"
       d="m 3.950729,-50.63694 -38.775738,-10.38989 -40.143581,10e-6 -38.77573,10.38992 -34.76533,20.07177 38.77572,-10.3899 40.143594,2e-5 38.775714,10.38993 34.765341,20.07182 z"
       sodipodi:nodetypes="cccccccccc" />
    <path
       id="path26326"
       style="fill:none;stroke:#000000;stroke-width:0.264583px;stroke-linecap:butt;stroke-linejoin:miter;stroke-opacity:1"
       d="m -148.50964,-30.56505 38.77571,-10.38988 40.143598,-2e-5 38.77571,10.38987 34.765362,20.07183 -38.775723,-10.38991 -40.14356,-4e-5 -38.775717,10.38996 -34.76545,20.071786 z"
       sodipodi:nodetypes="cccccccccc" />
    <path
       id="path26328"
       style="fill:none;stroke:#000000;stroke-width:0.264583px;stroke-linecap:butt;stroke-linejoin:miter;stroke-opacity:1"
       d="m 3.950753,-10.49324 -38.775741,-10.38991 -40.14359,10e-6 -38.775712,10.38991 -34.76532,20.071782 38.7757,-10.389892 40.143589,-1e-5 38.775723,10.389966 34.765351,20.071806 z"
       sodipodi:nodetypes="cccccccccc" />
    <path
       id="path26330"
       style="fill:none;stroke:#000000;stroke-width:0.264583px;stroke-linecap:butt;stroke-linejoin:miter;stroke-opacity:1"
       d="m -148.50965,9.578564 38.77573,-10.389904 40.143599,-1e-5 38.775724,10.389884 34.76535,20.071805 -38.775734,-10.389896 -40.143548,-4.6e-5 -38.775731,10.389971 -34.76543,20.071783 z"
       sodipodi:nodetypes="cccccccccc" />
    <path
       id="path26332"
       style="fill:none;stroke:#000000;stroke-width:0.264583px;stroke-linecap:butt;stroke-linejoin:miter;stroke-opacity:1"
       d="m 3.950763,29.650342 -38.775754,-10.389881 -40.143576,-2e-6 -38.775703,10.389916 -34.76535,20.071766 38.77573,-10.389892 40.143593,-2e-6 38.775718,10.389954 34.765331,20.07182 z"
       sodipodi:nodetypes="cccccccccc" />
    <path
       id="path26334"
       style="fill:none;stroke:#000000;stroke-width:0.264583px;stroke-linecap:butt;stroke-linejoin:miter;stroke-opacity:1"
       d="m 3.950806,69.793963 -34.765385,-20.071762 -38.775725,-10.389914 -40.143586,-5e-6 -38.77569,10.389911 40.14358,2.3e-5 38.775724,10.389946 34.765352,20.071795 28.3857713,28.385823 z"
       sodipodi:nodetypes="cccccccccc" />
    <path
       id="path26336"
       style="fill:none;stroke:#000000;stroke-width:0.264583px;stroke-linecap:butt;stroke-linejoin:miter;stroke-opacity:1"
       d="m -148.50959,49.722273 40.14356,3.9e-5 38.775742,10.389909 34.765364,20.071736 28.385789,28.385833 -34.765366,-20.071775 -38.775691,-10.389956 -40.143588,3.6e-5 -38.77581,10.389896 z"
       sodipodi:nodetypes="cccccccccc" />
    <path
       id="path26338"
       style="fill:none;stroke:#000000;stroke-width:0.264583px;stroke-linecap:butt;stroke-linejoin:miter;stroke-opacity:1"
       d="M -6.4391251,108.56981 -41.204508,88.498024 -79.980241,78.108108 l -40.143569,-1.1e-5 -38.77568,10.389926 40.14355,2.5e-5 38.775735,10.389915 34.765351,20.071837 28.385785,28.38581 z"
       sodipodi:nodetypes="cccccccccc" />
    <path
       id="path26340"
       style="fill:none;stroke:#000000;stroke-width:0.264583px;stroke-linecap:butt;stroke-linejoin:miter;stroke-opacity:1"
       d="m -158.89953,88.498024 40.14358,2.1e-5 38.775745,10.389918 34.765373,20.071757 28.385784,28.38581 -34.76538,-20.07177 -38.775678,-10.38996 -40.143604,4e-5 -38.77579,10.3899 z"
       sodipodi:nodetypes="cccccccccc" />
    <path
       id="path26342"
       style="fill:none;stroke:#000000;stroke-width:0.264583px;stroke-linecap:butt;stroke-linejoin:miter;stroke-opacity:1"
       d="m -16.829039,147.34553 -34.765403,-20.07176 -38.775716,-10.38992 -40.143562,0 -38.77571,10.3899 40.14358,3e-5 38.77574,10.38993 34.76535,20.07182 28.385762,28.38582 z"
       sodipodi:nodetypes="cccccccccc" />
    <path
       id="path26344"
       style="fill:none;stroke:#000000;stroke-width:0.264583px;stroke-linecap:butt;stroke-linejoin:miter;stroke-opacity:1"
       d="m -27.21893,186.12127 -28.385829,-28.38578 -34.765366,-20.07178 -38.775725,-10.38993 -40.14355,0 38.77572,10.38994 34.765354,20.07181 28.385789,28.3858 20.071758,34.76538 z"
       sodipodi:nodetypes="cccccccccc" />
    <path
       id="path26346"
       style="fill:none;stroke:#000000;stroke-width:0.264583px;stroke-linecap:butt;stroke-linejoin:miter;stroke-opacity:1"
       d="m -169.28943,127.27385 38.77569,10.38996 34.765387,20.07178 28.385816,28.38574 20.071772,34.76539 -28.385807,-28.38578 -34.765328,-20.07181 -38.77574,-10.38989 -40.14366,-5e-5 z"
       sodipodi:nodetypes="cccccccccc" />
    <path
       id="path26348"
       style="fill:none;stroke:#000000;stroke-width:0.264583px;stroke-linecap:butt;stroke-linejoin:miter;stroke-opacity:1"
       d="m -47.29076,220.88674 -28.385821,-28.38579 -34.765379,-20.07179 -38.77571,-10.38993 -40.14354,1e-5 38.77569,10.38994 34.76538,20.07179 28.385774,28.38584 20.071775,34.76537 z"
       sodipodi:nodetypes="cccccccccc" />
    <path
       id="path26350"
       style="fill:none;stroke:#000000;stroke-width:0.264583px;stroke-linecap:butt;stroke-linejoin:miter;stroke-opacity:1"
       d="m -189.36125,162.03924 38.77572,10.38994 34.76539,20.07179 28.385816,28.38577 20.071774,34.76536 -28.385822,-28.38578 -34.765308,-20.07181 -38.77576,-10.38989 -40.14364,-4e-5 z"
       sodipodi:nodetypes="cccccccccc" />
    <path
       id="path26352"
       style="fill:none;stroke:#000000;stroke-width:0.264583px;stroke-linecap:butt;stroke-linejoin:miter;stroke-opacity:1"
       d="m -67.362541,255.65211 -28.385847,-28.38578 -34.765352,-20.07179 -38.77571,-10.38992 -40.14357,-2e-5 38.77572,10.38996 34.76538,20.0718 28.38578,28.38582 20.071748,34.76537 z"
       sodipodi:nodetypes="cccccccccc" />
    <path
       id="path26354"
       style="fill:none;stroke:#000000;stroke-width:0.264583px;stroke-linecap:butt;stroke-linejoin:miter;stroke-opacity:1"
       d="m -87.434307,290.4175 -20.071823,-34.76535 -28.38581,-28.38579 -34.76536,-20.0718 -38.77569,-10.38991 34.76535,20.07181 28.38579,28.38581 20.07178,34.76536 10.38989,38.77573 z"
       sodipodi:nodetypes="cccccccccc" />
    <path
       id="path26356"
       style="fill:none;stroke:#000000;stroke-width:0.264583px;stroke-linecap:butt;stroke-linejoin:miter;stroke-opacity:1"
       d="m -209.43304,196.80471 34.76532,20.07182 28.38583,28.38579 20.07182,34.76531 10.3899,38.77575 -20.0718,-34.76535 -28.38577,-28.38581 -34.76538,-20.07176 -38.77579,-10.38999 z"
       sodipodi:nodetypes="cccccccccc" />
    <path
       id="path26358"
       style="fill:none;stroke:#000000;stroke-width:0.264583px;stroke-linecap:butt;stroke-linejoin:miter;stroke-opacity:1"
       d="m -115.82017,318.8034 -20.07182,-34.76536 -28.38581,-28.3858 -34.76535,-20.0718 -38.77568,-10.3899 34.76532,20.0718 28.38582,28.3858 20.07175,34.76539 10.38991,38.77573 z"
       sodipodi:nodetypes="cccccccccc" />
    <path
       id="path26360"
       style="fill:none;stroke:#000000;stroke-width:0.264583px;stroke-linecap:butt;stroke-linejoin:miter;stroke-opacity:1"
       d="m -237.81887,225.19053 34.76535,20.0718 28.38583,28.38581 20.07181,34.76534 10.38991,38.77571 -20.07182,-34.76535 -28.38574,-28.3858 -34.76541,-20.07177 -38.77576,-10.38997 z"
       sodipodi:nodetypes="cccccccccc" />
    <path
       id="path26362"
       style="fill:none;stroke:#000000;stroke-width:0.264583px;stroke-linecap:butt;stroke-linejoin:miter;stroke-opacity:1"
       d="m -144.20596,347.18921 -20.07185,-34.76536 -28.38579,-28.3858 -34.76535,-20.07178 -38.7757,-10.38994 34.76535,20.07183 28.38581,28.38581 20.07177,34.76538 10.38988,38.77572 z"
       sodipodi:nodetypes="cccccccccc" />
    <path
       id="path26364"
       style="fill:none;stroke:#000000;stroke-width:0.264583px;stroke-linecap:butt;stroke-linejoin:miter;stroke-opacity:1"
       d="m -172.59336,375.57476 -10.38996,-38.77571 -20.0718,-34.76536 -28.3858,-28.38581 -34.76533,-20.07177 28.38578,28.38582 20.07178,34.76537 10.38992,38.77572 -4e-5,40.14358 z"
       sodipodi:nodetypes="cccccccccc" />
    <path
       id="path26366"
       style="fill:none;stroke:#000000;stroke-width:0.264583px;stroke-linecap:butt;stroke-linejoin:miter;stroke-opacity:1"
       d="m -266.20631,253.57616 28.38575,28.38581 20.07182,34.76537 10.38997,38.77568 -3e-5,40.1436 -10.38994,-38.77572 -20.07176,-34.76536 -28.38582,-28.38577 -34.76541,-20.07188 z"
       sodipodi:nodetypes="cccccccccc" />
    <path
       id="path26368"
       style="fill:none;stroke:#000000;stroke-width:0.264583px;stroke-linecap:butt;stroke-linejoin:miter;stroke-opacity:1"
       d="m -207.35881,395.64664 -10.38995,-38.77573 -20.0718,-34.76537 -28.38579,-28.3858 -34.76532,-20.07176 28.38575,28.3858 20.07181,34.76537 10.38988,38.77574 -10e-6,40.14358 z"
       sodipodi:nodetypes="cccccccccc" />
    <path
       id="path26370"
       style="fill:none;stroke:#000000;stroke-width:0.264583px;stroke-linecap:butt;stroke-linejoin:miter;stroke-opacity:1"
       d="m -300.97171,273.64796 28.38579,28.38581 20.07181,34.76538 10.38995,38.7757 -1e-5,40.14357 -10.38995,-38.77572 -20.07174,-34.76535 -28.38585,-28.38579 -34.76538,-20.07184 z"
       sodipodi:nodetypes="cccccccccc" />
    <path
       id="path26372"
       style="fill:none;stroke:#000000;stroke-width:0.264583px;stroke-linecap:butt;stroke-linejoin:miter;stroke-opacity:1"
       d="m -242.12416,415.71844 -10.38999,-38.77574 -20.07178,-34.76536 -28.38579,-28.38578 -34.76533,-20.0718 28.38577,28.38583 20.0718,34.76538 10.3899,38.77573 -4e-5,40.14357 z"
       sodipodi:nodetypes="cccccccccc" />
    <path
       id="path26374"
       style="fill:none;stroke:#000000;stroke-width:0.264583px;stroke-linecap:butt;stroke-linejoin:miter;stroke-opacity:1"
       d="m -276.88948,435.79003 -4e-5,-40.14358 -10.38993,-38.77572 -20.07179,-34.76538 -28.38577,-28.38577 20.07176,34.76538 10.38991,38.77573 v 40.14358 l -10.38996,38.77571 z"
       sodipodi:nodetypes="cccccccccc" />
    <path
       id="path26376"
       style="fill:none;stroke:#000000;stroke-width:0.264583px;stroke-linecap:butt;stroke-linejoin:miter;stroke-opacity:1"
       d="m -335.73708,293.71962 20.07174,34.76536 10.38995,38.77573 5e-5,40.14356 -10.38996,38.77573 -10e-6,-40.14359 -10.3899,-38.77571 -20.07181,-34.76534 -28.38583,-28.38589 z"
       sodipodi:nodetypes="cccccccccc" />
    <path
       id="path26378"
       style="fill:none;stroke:#000000;stroke-width:0.264583px;stroke-linecap:butt;stroke-linejoin:miter;stroke-opacity:1"
       d="m -315.66531,446.18002 -2e-5,-40.1436 -10.38993,-38.77573 -20.07179,-34.76536 -28.38576,-28.38576 20.07174,34.76535 10.38994,38.77573 -5e-5,40.14359 -10.38993,38.77572 z"
       sodipodi:nodetypes="cccccccccc" />
    <path
       id="path26380"
       style="fill:none;stroke:#000000;stroke-width:0.264583px;stroke-linecap:butt;stroke-linejoin:miter;stroke-opacity:1"
       d="m -374.51285,304.10954 20.07178,34.76537 10.38994,38.77574 3e-5,40.14357 -10.38993,38.77571 -2e-5,-40.14359 -10.38988,-38.7757 -20.07184,-34.76536 -28.38581,-28.38585 z"
       sodipodi:nodetypes="cccccccccc" />
    <path
       id="path26382"
       style="fill:none;stroke:#000000;stroke-width:0.264583px;stroke-linecap:butt;stroke-linejoin:miter;stroke-opacity:1"
       d="m -354.44102,456.56995 -6e-5,-40.14362 -10.38992,-38.77571 -20.07178,-34.76534 -28.38577,-28.3858 20.07176,34.76538 10.38992,38.77574 -2e-5,40.14359 -10.38996,38.7757 z"
       sodipodi:nodetypes="cccccccccc" />
    <path
       id="path26384"
       style="fill:none;stroke:#000000;stroke-width:0.264583px;stroke-linecap:butt;stroke-linejoin:miter;stroke-opacity:1"
       d="m -393.21666,466.95988 10.38989,-38.77574 -10e-6,-40.14358 -10.38992,-38.77574 -20.07177,-34.76532 10.38989,38.77573 -1e-5,40.14359 -10.38993,38.77572 -20.07182,34.76534 z"
       sodipodi:nodetypes="cccccccccc" />
    <path
       id="path26386"
       style="fill:none;stroke:#000000;stroke-width:0.264583px;stroke-linecap:butt;stroke-linejoin:miter;stroke-opacity:1"
       d="m -413.28854,314.49952 10.38987,38.77571 2e-5,40.14359 -10.38987,38.77572 -20.07182,34.76536 10.38991,-38.77574 2e-5,-40.14356 -10.38995,-38.77571 -20.07179,-34.76546 z"
       sodipodi:nodetypes="cccccccccc" />
    <path
       id="path26388"
       style="fill:none;stroke:#000000;stroke-width:0.264583px;stroke-linecap:butt;stroke-linejoin:miter;stroke-opacity:1"
       d="m -433.36036,466.95991 10.38991,-38.77574 v -40.14359 l -10.38993,-38.77572 -20.07176,-34.76532 10.38988,38.7757 10e-6,40.14359 -10.38997,38.77572 -20.0718,34.76536 z"
       sodipodi:nodetypes="cccccccccc" />
    <path
       id="path26390"
       style="fill:none;stroke:#000000;stroke-width:0.264583px;stroke-linecap:butt;stroke-linejoin:miter;stroke-opacity:1"
       d="m -453.43217,314.4995 10.38991,38.77573 10e-6,40.1436 -10.38989,38.77572 -20.0718,34.76535 10.38991,-38.77574 4e-5,-40.14354 -10.38997,-38.77574 -20.07179,-34.76541 z"
       sodipodi:nodetypes="cccccccccc" />
    <path
       id="path26392"
       style="fill:none;stroke:#000000;stroke-width:0.264583px;stroke-linecap:butt;stroke-linejoin:miter;stroke-opacity:1"
       d="m -473.50393,466.95992 10.38987,-38.77577 10e-6,-40.14357 -10.38992,-38.7757 -20.07177,-34.76536 10.38989,38.77574 -10e-6,40.14359 -10.38994,38.77573 -20.07182,34.76533 z"
       sodipodi:nodetypes="cccccccccc" />
    <path
       id="path26394"
       style="fill:none;stroke:#000000;stroke-width:0.264583px;stroke-linecap:butt;stroke-linejoin:miter;stroke-opacity:1"
       d="m -513.64741,466.95982 20.07176,-34.76538 10.38992,-38.77573 10e-6,-40.14359 -10.38992,-38.77568 -3e-5,40.14358 -10.38994,38.77573 -20.07179,34.76535 -28.38583,28.38577 z"
       sodipodi:nodetypes="cccccccccc" />
    <path
       id="path26396"
       style="fill:none;stroke:#000000;stroke-width:0.264583px;stroke-linecap:butt;stroke-linejoin:miter;stroke-opacity:1"
       d="m -493.57571,314.49944 -5e-5,40.14356 -10.38991,38.77573 -20.07173,34.76537 -28.38583,28.38579 20.07178,-34.76538 10.38994,-38.77569 -3e-5,-40.14358 -10.3899,-38.77582 z"
       sodipodi:nodetypes="cccccccccc" />
    <path
       id="path26398"
       style="fill:none;stroke:#000000;stroke-width:0.264583px;stroke-linecap:butt;stroke-linejoin:miter;stroke-opacity:1"
       d="m -552.42325,456.5699 20.07178,-34.76538 10.38993,-38.77573 -10e-6,-40.14359 -10.38991,-38.77567 -3e-5,40.14355 -10.38992,38.77573 -20.07183,34.76535 -28.38581,28.38579 z"
       sodipodi:nodetypes="cccccccccc" />
    <path
       id="path26400"
       style="fill:none;stroke:#000000;stroke-width:0.264583px;stroke-linecap:butt;stroke-linejoin:miter;stroke-opacity:1"
       d="m -532.35147,304.10948 -2e-5,40.14359 -10.38992,38.77574 -20.07176,34.76537 -28.3858,28.38579 20.07178,-34.76539 10.38995,-38.77567 -4e-5,-40.14361 -10.38991,-38.77577 z"
       sodipodi:nodetypes="cccccccccc" />
    <path
       id="path26402"
       style="fill:none;stroke:#000000;stroke-width:0.264583px;stroke-linecap:butt;stroke-linejoin:miter;stroke-opacity:1"
       d="m -591.19897,446.17999 20.07176,-34.76542 10.38993,-38.77571 -10e-6,-40.14356 -10.3899,-38.77572 -4e-5,40.14359 -10.38993,38.77573 -20.07181,34.76537 -28.38582,28.38576 z"
       sodipodi:nodetypes="cccccccccc" />
    <path
       id="path26404"
       style="fill:none;stroke:#000000;stroke-width:0.264583px;stroke-linecap:butt;stroke-linejoin:miter;stroke-opacity:1"
       d="m -571.12727,293.71957 -2e-5,40.14359 -10.38992,38.77574 -20.07176,34.76537 -28.3858,28.38579 20.07178,-34.76539 10.38995,-38.77567 -4e-5,-40.14361 -10.38991,-38.77577 z"
       sodipodi:nodetypes="cccccccccc" />
    <path
       id="path26406"
       style="fill:none;stroke:#000000;stroke-width:0.264583px;stroke-linecap:butt;stroke-linejoin:miter;stroke-opacity:1"
       d="m -629.97477,435.79008 20.07176,-34.76542 10.38993,-38.77571 -1e-5,-40.14356 -10.3899,-38.77572 -4e-5,40.14359 -10.38993,38.77573 -20.07181,34.76537 -28.38582,28.38576 z"
       sodipodi:nodetypes="cccccccccc" />
    <path
       id="path26408"
       style="fill:none;stroke:#000000;stroke-width:0.264583px;stroke-linecap:butt;stroke-linejoin:miter;stroke-opacity:1"
       d="m -668.75035,425.40025 28.38577,-28.38582 20.07179,-34.76537 10.38994,-38.77573 -1e-5,-40.14354 -10.38995,38.77571 -20.07181,34.76537 -28.38579,28.38579 -34.76539,20.07175 z"
       sodipodi:nodetypes="cccccccccc" />
    <path
       id="path26410"
       style="fill:none;stroke:#000000;stroke-width:0.264583px;stroke-linecap:butt;stroke-linejoin:miter;stroke-opacity:1"
       d="m -609.90293,283.32977 -10.38996,38.77569 -20.07178,34.76537 -28.38574,28.38583 -34.76539,20.07177 28.38579,-28.38582 20.0718,-34.76533 10.38989,-38.77572 5e-5,-40.14367 z"
       sodipodi:nodetypes="cccccccccc" />
    <path
       id="path26412"
       style="fill:none;stroke:#000000;stroke-width:0.264583px;stroke-linecap:butt;stroke-linejoin:miter;stroke-opacity:1"
       d="m -703.51583,405.32843 28.3858,-28.38582 20.0718,-34.76536 10.38991,-38.77574 v -40.14352 l -10.38994,38.77568 -20.07179,34.76537 -28.38584,28.38578 -34.76537,20.07178 z"
       sodipodi:nodetypes="cccccccccc" />
    <path
       id="path26414"
       style="fill:none;stroke:#000000;stroke-width:0.264583px;stroke-linecap:butt;stroke-linejoin:miter;stroke-opacity:1"
       d="m -644.66831,263.25794 -10.38995,38.77572 -20.07179,34.76538 -28.38577,28.38582 -34.76536,20.07178 28.38579,-28.38583 20.07181,-34.76531 10.38989,-38.77576 2e-5,-40.14362 z"
       sodipodi:nodetypes="cccccccccc" />
    <path
       id="path26416"
       style="fill:none;stroke:#000000;stroke-width:0.264583px;stroke-linecap:butt;stroke-linejoin:miter;stroke-opacity:1"
       d="m -738.28119,385.25666 28.38579,-28.38587 20.07179,-34.76534 10.38991,-38.77571 2e-5,-40.14357 -10.38996,38.77572 -20.0718,34.76537 -28.38582,28.3858 -34.76537,20.07175 z"
       sodipodi:nodetypes="cccccccccc" />
    <path
       id="path26418"
       style="fill:none;stroke:#000000;stroke-width:0.264583px;stroke-linecap:butt;stroke-linejoin:miter;stroke-opacity:1"
       d="m -679.43375,243.18614 -10.38995,38.77572 -20.07179,34.76538 -28.38577,28.38582 -34.76536,20.07178 28.38579,-28.38583 20.07181,-34.7653 10.38989,-38.77576 2e-5,-40.14363 z"
       sodipodi:nodetypes="cccccccccc" />
    <path
       id="path26420"
       style="fill:none;stroke:#000000;stroke-width:0.264583px;stroke-linecap:butt;stroke-linejoin:miter;stroke-opacity:1"
       d="m -773.04663,365.18486 28.38579,-28.38586 20.07179,-34.76535 10.38991,-38.77571 2e-5,-40.14357 -10.38996,38.77572 -20.0718,34.76537 -28.38582,28.3858 -34.76537,20.07175 z"
       sodipodi:nodetypes="cccccccccc" />
    <path
       id="path26422"
       style="fill:none;stroke:#000000;stroke-width:0.264583px;stroke-linecap:butt;stroke-linejoin:miter;stroke-opacity:1"
       d="m -807.81174,345.11297 34.76533,-20.07182 28.3858,-28.38581 20.07181,-34.76536 10.38991,-38.77569 -20.07182,34.76534 -28.38582,28.38581 -34.76535,20.07178 -38.77574,10.38988 z"
       sodipodi:nodetypes="cccccccccc" />
    <path
       id="path26424"
       style="fill:none;stroke:#000000;stroke-width:0.264583px;stroke-linecap:butt;stroke-linejoin:miter;stroke-opacity:1"
       d="m -714.19896,223.11425 -20.07181,34.76533 -28.38579,28.38581 -34.76532,20.07183 -38.77574,10.3899 34.76536,-20.07182 28.3858,-28.38576 20.07175,-34.76537 10.39,-38.77579 z"
       sodipodi:nodetypes="cccccccccc" />
    <path
       id="path26426"
       style="fill:none;stroke:#000000;stroke-width:0.264583px;stroke-linecap:butt;stroke-linejoin:miter;stroke-opacity:1"
       d="m -836.19765,316.72711 34.76537,-20.07181 28.38581,-28.3858 20.07178,-34.76538 10.38991,-38.77566 -20.0718,34.76532 -28.3858,28.3858 -34.7654,20.07176 -38.77573,10.38992 z"
       sodipodi:nodetypes="cccccccccc" />
    <path
       id="path26428"
       style="fill:none;stroke:#000000;stroke-width:0.264583px;stroke-linecap:butt;stroke-linejoin:miter;stroke-opacity:1"
       d="m -742.58476,194.72841 -20.07182,34.76536 -28.3858,28.38581 -34.76534,20.07182 -38.77572,10.38991 34.76536,-20.07182 28.38581,-28.38574 20.07177,-34.76541 10.38995,-38.77575 z"
       sodipodi:nodetypes="cccccccccc" />
    <path
       id="path26430"
       style="fill:none;stroke:#000000;stroke-width:0.264583px;stroke-linecap:butt;stroke-linejoin:miter;stroke-opacity:1"
       d="m -864.58345,288.34133 34.76537,-20.07186 28.38579,-28.38578 20.07178,-34.76535 10.38994,-38.77571 -20.07183,34.76535 -28.38581,28.38581 -34.76538,20.07178 -38.77572,10.38989 z"
       sodipodi:nodetypes="cccccccccc" />
    <path
       id="path26432"
       style="fill:none;stroke:#000000;stroke-width:0.264583px;stroke-linecap:butt;stroke-linejoin:miter;stroke-opacity:1"
       d="m -770.97063,166.34259 -20.07182,34.76535 -28.3858,28.38581 -34.76534,20.07182 -38.77572,10.38992 34.76536,-20.07183 28.3858,-28.38573 20.07177,-34.76541 10.38996,-38.77576 z"
       sodipodi:nodetypes="cccccccccc" />
    <path
       id="path26434"
       style="fill:none;stroke:#000000;stroke-width:0.264583px;stroke-linecap:butt;stroke-linejoin:miter;stroke-opacity:1"
       d="m -892.96933,259.9555 34.76537,-20.07185 28.3858,-28.38579 20.07177,-34.76535 10.38994,-38.77571 -20.07182,34.76535 -28.38581,28.38581 -34.76538,20.07179 -38.77572,10.38988 z"
       sodipodi:nodetypes="cccccccccc" />
  </g>
</svg>
